<svg xmlns="http://www.w3.org/2000/svg" viewBox="0 0 216 216"><defs><style>.cls-1{font-size:13.7px;fill:#7dde18;stroke:#7dde18;stroke-width:0.44px;}.cls-1,.cls-2,.cls-3,.cls-4{stroke-miterlimit:10;}.cls-1,.cls-7,.cls-8{font-family:MyDearWatson-Regular, My Dear Watson;}.cls-2,.cls-3{fill:#f1c40f;}.cls-2,.cls-3,.cls-4,.cls-5{stroke:#000;}.cls-2{stroke-width:0.91px;}.cls-3{stroke-width:1.05px;}.cls-4,.cls-5{fill:#fff;}.cls-4{stroke-width:0.69px;}.cls-14,.cls-5,.cls-7,.cls-8{stroke-linecap:round;stroke-linejoin:round;}.cls-5{stroke-width:0.23px;}.cls-6{fill:#ff6363;}.cls-7{font-size:13.43px;fill:#7d141c;stroke:#7d141c;stroke-width:0.46px;}.cls-8{font-size:21.01px;fill:#b760c2;stroke:#b760c2;stroke-width:0.6px;}.cls-9{fill:#575757;}.cls-10{fill:#7a7a77;}.cls-11{fill:#4d4e52;}.cls-12{fill:#242426;}.cls-13{fill:#3c3d40;}.cls-14{fill:none;stroke:#b3b3b3;stroke-width:1.35px;}</style></defs><g id="sticker"><text class="cls-1" transform="translate(130.52 94.6)">~11 lbs</text><rect class="cls-2" x="107.09" y="140.69" width="3.38" height="14.89"/><rect class="cls-3" x="103.46" y="154.8" width="77.9" height="7.33" rx="2.04"/><circle class="cls-2" cx="108.31" cy="134.53" r="6.41"/><circle class="cls-4" cx="108.31" cy="134.53" r="4.55"/><line class="cls-5" x1="108.31" y1="130.93" x2="108.31" y2="131.76"/><line class="cls-5" x1="107.08" y1="131.15" x2="107.36" y2="131.92"/><line class="cls-5" x1="105.99" y1="131.77" x2="106.53" y2="132.41"/><line class="cls-5" x1="105.19" y1="132.73" x2="105.91" y2="133.14"/><line class="cls-5" x1="104.76" y1="133.91" x2="105.58" y2="134.05"/><line class="cls-5" x1="104.76" y1="135.16" x2="105.58" y2="135.02"/><line class="cls-5" x1="105.19" y1="136.34" x2="105.91" y2="135.92"/><line class="cls-5" x1="105.99" y1="137.3" x2="106.53" y2="136.66"/><line class="cls-5" x1="107.08" y1="137.92" x2="107.36" y2="137.14"/><line class="cls-5" x1="108.31" y1="138.14" x2="108.31" y2="137.31"/><line class="cls-5" x1="109.54" y1="137.92" x2="109.26" y2="137.14"/><line class="cls-5" x1="110.63" y1="137.3" x2="110.1" y2="136.66"/><line class="cls-5" x1="111.43" y1="136.34" x2="110.72" y2="135.92"/><line class="cls-5" x1="111.86" y1="135.16" x2="111.05" y2="135.02"/><line class="cls-5" x1="111.86" y1="133.91" x2="111.05" y2="134.05"/><line class="cls-5" x1="111.43" y1="132.73" x2="110.72" y2="133.14"/><line class="cls-5" x1="110.63" y1="131.77" x2="110.1" y2="132.41"/><line class="cls-5" x1="109.54" y1="131.15" x2="109.26" y2="131.92"/><polygon points="108.1 134.26 110.1 133.14 108.52 134.8 108.1 134.26"/><circle class="cls-6" cx="108.31" cy="134.53" r="0.63"/><text class="cls-7" transform="translate(35.85 124.77)">1 play per<tspan x="0" y="14.61">pound of a</tspan><tspan x="0" y="29.23">bowling ball</tspan></text><text class="cls-8" transform="translate(30.04 89.65)">11 plays of<tspan x="0" y="20">The Beatles</tspan></text><path class="cls-9" d="M146.91,154.62A25.63,25.63,0,0,1,127.69,146a6.84,6.84,0,0,0-.54-.64l-.08-.09a25.66,25.66,0,0,1,35.06-36.92l.2.15a25.65,25.65,0,0,1-15.42,46.16Z"/><path d="M146.91,104a24.86,24.86,0,0,1,14.82,4.88l.16.12h0a25,25,0,1,1-33.71,36.53,5.7,5.7,0,0,0-.6-.71A25,25,0,0,1,146.91,104m0-1.35a26.34,26.34,0,0,0-20.37,43,1.21,1.21,0,0,0,.16.16c.09.09.31.36.37.44a.85.85,0,0,0,.11.14,26.33,26.33,0,1,0,35.56-38.48l-.1-.07h0l0,0-.08-.06a26.11,26.11,0,0,0-15.62-5.14Z"/><path class="cls-10" d="M161.77,108.91a24.18,24.18,0,0,0-3.53-1.65c-12.93-4.83-27.42,2-32.38,15.3a25.87,25.87,0,0,0,2,22.45l-.29-.21a25,25,0,0,1,34.14-35.94Z"/><path class="cls-11" d="M171.89,129a25,25,0,0,1-43.7,16.54l-.31-.5a25,25,0,0,0,33.89-36.1l.12.07h0A25,25,0,0,1,171.89,129Z"/><path class="cls-12" d="M139.91,112.59a2.58,2.58,0,0,1-4.51,1.71l-.07-.07a.92.92,0,0,1-.13-.21,2.45,2.45,0,0,1-.45-1.43,2.59,2.59,0,0,1,2.58-2.59,2.63,2.63,0,0,1,1.54.51v0a2.42,2.42,0,0,1,.89,1.22A2.32,2.32,0,0,1,139.91,112.59Z"/><path class="cls-12" d="M135.37,120.6a2.58,2.58,0,0,1-4.52,1.7l-.06-.08a.66.66,0,0,1-.14-.2,2.36,2.36,0,0,1-.45-1.42,2.58,2.58,0,0,1,4.11-2.09h0a2.64,2.64,0,0,1,.88,1.22A2.68,2.68,0,0,1,135.37,120.6Z"/><path class="cls-12" d="M145.08,121.71a2.58,2.58,0,0,1-4.51,1.72l-.07-.08a1.18,1.18,0,0,1-.13-.18,2.57,2.57,0,0,1,2.13-4,2.68,2.68,0,0,1,1.54.51h0a2.51,2.51,0,0,1,.89,1.23A2.3,2.3,0,0,1,145.08,121.71Z"/><path class="cls-13" d="M139.91,112.59a2.58,2.58,0,0,1-4.51,1.71l-.07-.07a.92.92,0,0,1-.13-.21,2.35,2.35,0,0,1-.14-.79,2.59,2.59,0,0,1,2.6-2.59,2.66,2.66,0,0,1,1.53.5h0a3,3,0,0,1,.57.6A2.32,2.32,0,0,1,139.91,112.59Z"/><path class="cls-13" d="M135.37,120.6a2.58,2.58,0,0,1-4.52,1.7l-.06-.08a.66.66,0,0,1-.14-.2,2.34,2.34,0,0,1-.13-.79,2.58,2.58,0,0,1,4.11-2.09h0a2.89,2.89,0,0,1,.57.59A2.68,2.68,0,0,1,135.37,120.6Z"/><path class="cls-13" d="M145.08,121.71a2.58,2.58,0,0,1-4.51,1.72l-.07-.08a1.18,1.18,0,0,1-.13-.18,2.43,2.43,0,0,1-.13-.82,2.57,2.57,0,0,1,2.58-2.58,2.62,2.62,0,0,1,1.53.5h0a2.75,2.75,0,0,1,.58.6A2.3,2.3,0,0,1,145.08,121.71Z"/><path class="cls-14" d="M169.3,132.36c-.11.68-.24,1.35-.4,2"/><path class="cls-14" d="M169.07,124.3a22.56,22.56,0,0,1,.48,4.67"/><path class="cls-14" d="M160.27,110.69l.25.19a22.6,22.6,0,0,1,7.39,9.57"/></g></svg>