<svg xmlns="http://www.w3.org/2000/svg" viewBox="0 0 216 216"><defs><style>.cls-1{isolation:isolate;}.cls-2{font-size:21.01px;fill:#b760c2;stroke:#b760c2;stroke-width:0.6px;}.cls-19,.cls-2,.cls-7,.cls-9{stroke-linecap:round;}.cls-2,.cls-7,.cls-9{stroke-linejoin:round;}.cls-2,.cls-3,.cls-9{font-family:MyDearWatson-Regular, My Dear Watson;}.cls-3{font-size:13.7px;fill:#7dde18;stroke:#7dde18;stroke-width:0.44px;}.cls-19,.cls-3,.cls-4,.cls-5,.cls-6{stroke-miterlimit:10;}.cls-4,.cls-5{fill:#f1c40f;}.cls-4,.cls-5,.cls-6,.cls-7{stroke:#000;}.cls-4{stroke-width:0.91px;}.cls-5{stroke-width:1.05px;}.cls-6,.cls-7{fill:#fff;}.cls-6{stroke-width:0.69px;}.cls-7{stroke-width:0.23px;}.cls-8{fill:#ff6363;}.cls-9{font-size:13.43px;fill:#7d141c;stroke:#7d141c;stroke-width:0.46px;}.cls-10{fill:#51424e;}.cls-11{fill:#d65353;}.cls-12{fill:#fffafc;}.cls-13{fill:#ade5ff;}.cls-14{opacity:0.4;}.cls-15{fill:#b2a5ac;}.cls-16{mix-blend-mode:multiply;}.cls-17{fill:#d6f2ff;}.cls-18{fill:#e6e6e6;}.cls-19{fill:none;stroke:#fff;stroke-width:1.83px;}</style></defs><g class="cls-1"><g id="sticker"><text class="cls-2" transform="translate(24.93 88.47)">2 hours,<tspan x="0" y="18.27">42 minutes</tspan></text><text class="cls-3" transform="translate(126.24 77.83)">~210 lbs</text><rect class="cls-4" x="107.09" y="140.69" width="3.38" height="14.89"/><rect class="cls-5" x="103.46" y="154.8" width="86.9" height="7.33" rx="2.04"/><circle class="cls-4" cx="108.31" cy="134.53" r="6.41"/><circle class="cls-6" cx="108.31" cy="134.53" r="4.55"/><line class="cls-7" x1="108.31" y1="130.93" x2="108.31" y2="131.76"/><line class="cls-7" x1="107.08" y1="131.15" x2="107.36" y2="131.92"/><line class="cls-7" x1="105.99" y1="131.77" x2="106.53" y2="132.41"/><line class="cls-7" x1="105.19" y1="132.73" x2="105.91" y2="133.14"/><line class="cls-7" x1="104.76" y1="133.91" x2="105.58" y2="134.05"/><line class="cls-7" x1="104.76" y1="135.16" x2="105.58" y2="135.02"/><line class="cls-7" x1="105.19" y1="136.34" x2="105.91" y2="135.92"/><line class="cls-7" x1="105.99" y1="137.3" x2="106.53" y2="136.66"/><line class="cls-7" x1="107.08" y1="137.92" x2="107.36" y2="137.14"/><line class="cls-7" x1="108.31" y1="138.14" x2="108.31" y2="137.31"/><line class="cls-7" x1="109.54" y1="137.92" x2="109.26" y2="137.14"/><line class="cls-7" x1="110.63" y1="137.3" x2="110.1" y2="136.66"/><line class="cls-7" x1="111.43" y1="136.34" x2="110.72" y2="135.92"/><line class="cls-7" x1="111.86" y1="135.16" x2="111.05" y2="135.02"/><line class="cls-7" x1="111.86" y1="133.91" x2="111.05" y2="134.05"/><line class="cls-7" x1="111.43" y1="132.73" x2="110.72" y2="133.14"/><line class="cls-7" x1="110.63" y1="131.77" x2="110.1" y2="132.41"/><line class="cls-7" x1="109.54" y1="131.15" x2="109.26" y2="131.92"/><polygon points="108.1 134.26 110.1 133.14 108.52 134.8 108.1 134.26"/><circle class="cls-8" cx="108.31" cy="134.53" r="0.63"/><text class="cls-9" transform="translate(30.04 124.33)">0.8 mins per<tspan x="0" y="14.61">pound of a</tspan><tspan x="0" y="29.23">stove</tspan></text><path class="cls-10" d="M123.72,88.93a.45.45,0,0,1-.37-.2.47.47,0,0,1,0-.43l.77-1.9a.44.44,0,0,1,.42-.28H145a.44.44,0,0,1,.42.28l.77,1.9a.5.5,0,0,1-.05.43.46.46,0,0,1-.38.2Z"/><path d="M145,86.57l.76,1.9H123.72l.77-1.9H145m0-.91H124.49a.92.92,0,0,0-.85.57l-.76,1.9A.92.92,0,0,0,123,89a.91.91,0,0,0,.75.4h22.07a.91.91,0,0,0,.76-.4.93.93,0,0,0,.09-.84l-.76-1.91a.93.93,0,0,0-.85-.57Z"/><path class="cls-10" d="M150.18,88.93a.48.48,0,0,1-.38-.2.47.47,0,0,1,0-.43l.76-1.9a.46.46,0,0,1,.42-.28h20.55a.46.46,0,0,1,.42.28l.76,1.9a.44.44,0,0,1,0,.43.45.45,0,0,1-.37.2Z"/><path d="M171.49,86.57l.76,1.9H150.18l.76-1.9h20.55m0-.91H150.94a.91.91,0,0,0-.84.57l-.76,1.91a.91.91,0,0,0,.84,1.24h22.07a.91.91,0,0,0,.84-1.24l-.76-1.91a.91.91,0,0,0-.84-.57Z"/><path class="cls-8" d="M122.68,154.62a4.84,4.84,0,0,1-4.83-4.83V93.27a4.84,4.84,0,0,1,4.83-4.83H175a4.84,4.84,0,0,1,4.84,4.83v56.52a4.84,4.84,0,0,1-4.84,4.83Z"/><path d="M175,89a4.3,4.3,0,0,1,4.29,4.29v56.52a4.28,4.28,0,0,1-4.29,4.28H122.68a4.29,4.29,0,0,1-4.29-4.28V93.27A4.3,4.3,0,0,1,122.68,89H175m0-1.09H122.68a5.39,5.39,0,0,0-5.38,5.38v56.52a5.39,5.39,0,0,0,5.38,5.37H175a5.38,5.38,0,0,0,5.38-5.37V93.27A5.39,5.39,0,0,0,175,87.89Z"/><path class="cls-11" d="M134.09,154.07H122.68a4.29,4.29,0,0,1-4.29-4.28V93.27A4.3,4.3,0,0,1,122.68,89h4.95S125.82,149,134.09,154.07Z"/><rect class="cls-12" x="122.89" y="93.76" width="51.51" height="13.09" rx="3.69"/><path d="M170.71,94.22A3.24,3.24,0,0,1,174,97.45v5.71a3.24,3.24,0,0,1-3.24,3.24H126.58a3.25,3.25,0,0,1-3.24-3.24V97.45a3.24,3.24,0,0,1,3.24-3.23h44.13m0-.91H126.58a4.15,4.15,0,0,0-4.14,4.14v5.71a4.15,4.15,0,0,0,4.14,4.14h44.13a4.15,4.15,0,0,0,4.15-4.14V97.45a4.15,4.15,0,0,0-4.15-4.14Z"/><rect class="cls-13" x="122.51" y="110.35" width="52.28" height="34.71" rx="3.74"/><path d="M171.05,110.8a3.28,3.28,0,0,1,3.28,3.29v27.23a3.28,3.28,0,0,1-3.28,3.29h-44.8a3.29,3.29,0,0,1-3.29-3.29V114.09a3.29,3.29,0,0,1,3.29-3.29h44.8m0-.9h-44.8a4.2,4.2,0,0,0-4.19,4.19v27.23a4.2,4.2,0,0,0,4.19,4.19h44.8a4.2,4.2,0,0,0,4.19-4.19V114.09a4.2,4.2,0,0,0-4.19-4.19Z"/><path class="cls-10" d="M167.65,102.37a2.67,2.67,0,1,0-3.75-.38A2.66,2.66,0,0,0,167.65,102.37Z"/><path class="cls-10" d="M153.41,100.31a2.67,2.67,0,1,0-2.67,2.66A2.67,2.67,0,0,0,153.41,100.31Z"/><path class="cls-10" d="M132.86,100.31a2.67,2.67,0,1,0-2.67,2.66A2.67,2.67,0,0,0,132.86,100.31Z"/><g class="cls-14"><rect class="cls-10" x="128.57" y="116.73" width="41.86" height="2.28" rx="0.86"/></g><path class="cls-15" d="M130.51,99.43V97.64a.43.43,0,1,0-.86,0v1.79a.43.43,0,1,0,.86,0Z"/><path class="cls-15" d="M151.09,99.43V97.64a.43.43,0,0,0-.43-.43.44.44,0,0,0-.43.43v1.79a.43.43,0,0,0,.43.43A.43.43,0,0,0,151.09,99.43Z"/><path class="cls-15" d="M167,100.13,168.34,99a.43.43,0,1,0-.55-.66l-1.38,1.13a.43.43,0,0,0-.06.6.41.41,0,0,0,.33.16A.39.39,0,0,0,167,100.13Z"/><rect x="127.53" y="115.24" width="41.86" height="2.28" rx="0.86"/><g class="cls-16"><path class="cls-17" d="M123,114.09v27.23a3.29,3.29,0,0,0,3.29,3.29h9.83c-10.6-7.6-7.57-29.49-6.87-33.81h-3A3.29,3.29,0,0,0,123,114.09Z"/></g><g class="cls-16"><path class="cls-18" d="M123.34,97.45v5.71a3.25,3.25,0,0,0,3.24,3.24h8.17c-7.3-.82-6.41-10.22-6.14-12.18h-2A3.24,3.24,0,0,0,123.34,97.45Z"/></g><line class="cls-19" x1="169.39" y1="120.85" x2="169.39" y2="133.14"/><line class="cls-19" x1="169.39" y1="136.34" x2="169.39" y2="138.14"/></g></g></svg>