<svg xmlns="http://www.w3.org/2000/svg" viewBox="0 0 216 216"><defs><style>.cls-1{font-size:21px;fill:#24bcff;stroke:#24bcff;stroke-width:0.64px;}.cls-1,.cls-19,.cls-20,.cls-22,.cls-5,.cls-8{stroke-linecap:round;stroke-linejoin:round;}.cls-1,.cls-7,.cls-8{font-family:MyDearWatson-Regular, My Dear Watson;}.cls-2,.cls-3{fill:#7dde18;}.cls-13,.cls-2,.cls-3,.cls-4,.cls-5{stroke:#000;}.cls-13,.cls-2,.cls-3,.cls-4,.cls-7{stroke-miterlimit:10;}.cls-2{stroke-width:0.97px;}.cls-3{stroke-width:1.12px;}.cls-13,.cls-15,.cls-4,.cls-5{fill:#fff;}.cls-4{stroke-width:0.73px;}.cls-5{stroke-width:0.24px;}.cls-6{fill:#ff6363;}.cls-7{font-size:14.62px;fill:#f28cc9;stroke:#f28cc9;stroke-width:0.49px;}.cls-8{font-size:14.33px;fill:#f54748;stroke:#f54748;stroke-width:0.49px;}.cls-20,.cls-9{fill:#ffe3a9;}.cls-10{fill:#231f20;}.cls-11{fill:#ffaea1;}.cls-12{fill:#e3ca96;}.cls-13{stroke-width:0.25px;}.cls-14{fill:#29abe2;}.cls-16,.cls-19{fill:none;}.cls-17{fill:#db8c28;}.cls-18{fill:#ad4925;}.cls-19,.cls-20,.cls-22{stroke:#231f20;}.cls-19{stroke-width:0.67px;}.cls-20{stroke-width:0.75px;}.cls-21{fill:#ffd8d1;}.cls-22{fill:#ffb1a3;stroke-width:0.62px;}</style></defs><g id="sticker"><text class="cls-1" transform="translate(24.24 96.88)">11 plays of<tspan x="0" y="20">The Beatles</tspan></text><rect class="cls-2" x="115.72" y="142.36" width="3.6" height="15.89"/><rect class="cls-3" x="111.85" y="157.4" width="66.81" height="7.82" rx="2.17"/><circle class="cls-2" cx="117.02" cy="135.78" r="6.84"/><circle class="cls-4" cx="117.02" cy="135.78" r="4.85"/><line class="cls-5" x1="117.02" y1="131.94" x2="117.02" y2="132.82"/><line class="cls-5" x1="115.71" y1="132.17" x2="116.01" y2="133"/><line class="cls-5" x1="114.55" y1="132.84" x2="115.12" y2="133.51"/><line class="cls-5" x1="113.69" y1="133.86" x2="114.46" y2="134.3"/><line class="cls-5" x1="113.23" y1="135.11" x2="114.1" y2="135.27"/><line class="cls-5" x1="113.23" y1="136.45" x2="114.1" y2="136.3"/><line class="cls-5" x1="113.69" y1="137.71" x2="114.46" y2="137.26"/><line class="cls-5" x1="114.55" y1="138.73" x2="115.12" y2="138.05"/><line class="cls-5" x1="115.71" y1="139.4" x2="116.01" y2="138.57"/><line class="cls-5" x1="117.02" y1="139.63" x2="117.02" y2="138.75"/><line class="cls-5" x1="118.34" y1="139.4" x2="118.04" y2="138.57"/><line class="cls-5" x1="119.49" y1="138.73" x2="118.93" y2="138.05"/><line class="cls-5" x1="120.35" y1="137.71" x2="119.59" y2="137.26"/><line class="cls-5" x1="120.81" y1="136.45" x2="119.94" y2="136.3"/><line class="cls-5" x1="120.81" y1="135.11" x2="119.94" y2="135.27"/><line class="cls-5" x1="120.35" y1="133.86" x2="119.59" y2="134.3"/><line class="cls-5" x1="119.49" y1="132.84" x2="118.93" y2="133.51"/><line class="cls-5" x1="118.34" y1="132.17" x2="118.04" y2="133"/><polygon points="116.8 135.49 118.93 134.3 117.25 136.07 116.8 135.49"/><circle class="cls-6" cx="117.02" cy="135.78" r="0.67"/><text class="cls-7" transform="translate(115.12 94.6)">~10 pounds</text><text class="cls-8" transform="translate(37.35 130.93)">1 play per<tspan x="0" y="15.59">pound of a</tspan><tspan x="0" y="31.18">cat</tspan></text><path class="cls-9" d="M157.63,153.41h-.86a2.53,2.53,0,0,1-2.49-2.59,2.5,2.5,0,0,1,2.51-2.42l.83,0c3.78,0,6.75-1.12,8.83-3.32,4.29-4.54,4-12.37,3.88-13.89a2.52,2.52,0,0,1,.56-1.86,2.46,2.46,0,0,1,1.7-.89l.24,0a2.49,2.49,0,0,1,2.48,2.25,30,30,0,0,1,.06,3.17c0,.72-.07,1.4-.14,2.06,0,.21,0,.43-.08.66-.07.6-.17,1.26-.32,2l-.1.49c-.13.61-.29,1.24-.51,2a18.54,18.54,0,0,1-4.12,7.43C167,151.76,162.84,153.41,157.63,153.41Z"/><path class="cls-10" d="M172.83,128.93a2,2,0,0,1,2,1.8,26.8,26.8,0,0,1,.06,3.1c0,.61-.06,1.29-.14,2,0,.22,0,.44-.08.67-.07.63-.18,1.3-.31,2,0,.17-.07.33-.1.5-.14.64-.31,1.28-.5,1.94a18.13,18.13,0,0,1-4,7.22c-3,3.15-7,4.75-12.11,4.75l-.93,0a2,2,0,0,1,.09-4h.06l.77,0c3.91,0,7-1.16,9.19-3.48,4.82-5.1,4-14.22,4-14.31a2,2,0,0,1,1.8-2.18h.2m0-1-.3,0a3,3,0,0,0-2,1.07,3,3,0,0,0-.67,2.18v0c.07.91.49,9-3.75,13.52-2,2.1-4.82,3.16-8.46,3.16l-.73,0h-.1a3,3,0,0,0-.13,6h1c5.35,0,9.67-1.7,12.84-5.06a19.18,19.18,0,0,0,4.23-7.62c.22-.78.39-1.41.52-2a2.43,2.43,0,0,1,.05-.26,2.74,2.74,0,0,0,0-.28c.15-.77.26-1.44.32-2.05v0c0-.22.06-.43.08-.64.07-.65.11-1.34.14-2.07a27.3,27.3,0,0,0-.06-3.17h0v-.06a3,3,0,0,0-3-2.7Z"/><path class="cls-9" d="M125.88,115.33a4.06,4.06,0,0,1-2.81-1l-.15-.13V114c-.19-2.26-1-13.63,2.32-14.84a2,2,0,0,1,.66-.09,11.7,11.7,0,0,1,9.28,6.08,4.82,4.82,0,0,1-.51,4.84C132.86,112.94,128.92,115.33,125.88,115.33Z"/><path class="cls-10" d="M125.89,99.59a11.26,11.26,0,0,1,8.83,5.81c2,4-4.44,9.43-8.84,9.43a3.57,3.57,0,0,1-2.47-.85s-1.09-13.19,2-14.33a1.54,1.54,0,0,1,.49-.06m0-1h0a2.47,2.47,0,0,0-.83.12c-3.53,1.3-2.92,12.08-2.65,15.36l0,.39.3.27a4.6,4.6,0,0,0,3.14,1.1c3.2,0,7.33-2.49,9.21-5.56a5.34,5.34,0,0,0,.52-5.32,12.23,12.23,0,0,0-9.72-6.36Z"/><path class="cls-11" d="M125.63,115.44s-.9-10.85,1.64-11.78c.84-.31,5.63.72,7.66,4.72S128.62,118.14,125.63,115.44Z"/><path class="cls-9" d="M152.08,114.29c-3,0-7-2.38-8.78-5.32a4.8,4.8,0,0,1-.51-4.83,11.69,11.69,0,0,1,9.28-6.09,2,2,0,0,1,.66.09c3.27,1.21,2.51,12.58,2.32,14.85v.19l-.15.14a4.1,4.1,0,0,1-2.81,1Z"/><path class="cls-10" d="M152.07,98.55a1.48,1.48,0,0,1,.48.06c3.09,1.14,2,14.34,2,14.34a3.61,3.61,0,0,1-2.47.84c-4.4,0-10.87-5.43-8.84-9.43a11.26,11.26,0,0,1,8.83-5.81m0-1a12.26,12.26,0,0,0-9.73,6.36,5.34,5.34,0,0,0,.53,5.32c1.88,3.07,6,5.56,9.21,5.56a4.6,4.6,0,0,0,3.14-1.1l.3-.27,0-.39c.27-3.28.88-14-2.65-15.35a2.26,2.26,0,0,0-.83-.13Z"/><path class="cls-11" d="M152,114.48s.89-10.84-1.65-11.78c-.83-.31-5.62.72-7.66,4.72S149,117.18,152,114.48Z"/><path class="cls-9" d="M150,157.26c-1,0-2,0-3-.06l-1.73,0-1.29,0c-2,0-4-.08-5.81-.08-1.33,0-2.48,0-3.54.07h0c-1.11,0-1.95-.71-2.57-2.09-2.59-5.77-1.08-23.66.53-25.47,2.69-3,5.26-4.54,7.66-4.54,2.95,0,4.95,2.26,6.14,3.62l.26.3c.69.77,1.34,1.64,2,2.57a31.18,31.18,0,0,0,5.21,5.81c5.82,4.82,7.75,8.9,6.66,14.07s-5.95,5.88-10.54,5.88Z"/><path class="cls-10" d="M140.22,125.51c2.95,0,4.89,2.47,6,3.75,2,2.25,3.7,5.47,7.28,8.43,6.32,5.24,7.41,9.24,6.49,13.58-1,4.79-5.42,5.49-10.05,5.49-1.58,0-3.2-.08-4.71-.11-2.5-.05-4.87-.11-7.11-.11-1.23,0-2.42,0-3.56.07h-.07c-5.22,0-3.33-24.76-1.58-26.73,2.91-3.28,5.32-4.37,7.28-4.37m0-1c-2.55,0-5.25,1.58-8,4.71-1.93,2.17-3.17,20.3-.61,26,.88,2,2.08,2.39,2.94,2.39h.11c1.05-.05,2.2-.07,3.52-.07,1.84,0,3.77,0,5.81.08l1.28,0,1.72,0c1,0,2,.06,3,.06,4.79,0,9.85-.74,11-6.28,1.12-5.31-.92-9.66-6.83-14.56a29.92,29.92,0,0,1-5.12-5.72c-.7-.94-1.35-1.82-2.05-2.61l-.27-.29c-1.24-1.42-3.33-3.79-6.51-3.79Z"/><path class="cls-12" d="M150.67,149.81c-.09-3.52-1.58-8.79-5.82-11.32s-6.47-1.06-6.47-1.06c-3.93-.26-5.33,5.64-7.2,9.9.25,5.13,1.21,9.37,3.41,9.28,3.23-.14,6.79,0,10.67,0a60.14,60.14,0,0,0,7.83,0h0C154.53,155,150.77,153.32,150.67,149.81Z"/><path class="cls-9" d="M151.65,157.38c-2.27,0-3.72-.16-4.42-1a1.66,1.66,0,0,1-.39-1.39c.12-1,1.77-1.28,3.09-1.48l.54-.08c-2-1.19-2.73-3.54-2.05-6.38s2.94-6.1,5.33-6.1h.11c3.79.16,6.77,3.76,6.77,8.19s-3,8.18-6.79,8.18Z"/><path class="cls-10" d="M153.75,141.36h.09c3.54.14,6.41,3.49,6.41,7.81s-2.87,7.81-6.41,7.81h-2.19c-2.6,0-4.64-.18-4.44-1.93.17-1.4,5.29-1,3.76-1.75-5.22-2.65-.91-11.95,2.78-12m0-.75h0c-2.57,0-5,3.32-5.69,6.39-.63,2.62-.08,4.86,1.46,6.24-1.37.2-2.91.53-3.05,1.75a2,2,0,0,0,.48,1.68c.88,1,2.73,1.08,4.7,1.08h2.19c3.95,0,7.16-3.84,7.16-8.56s-3.13-8.4-7.12-8.56Z"/><path class="cls-9" d="M134.34,157.22c-1.22,0-2.66-.32-3.05-1.23a4,4,0,0,1-.17-2.36,8.48,8.48,0,0,0,.07-2.08c-.09-.93-.24-2.1-.41-3.36a63.48,63.48,0,0,1-.71-7.26c0-7.51,2.31-13.85,5-13.85,3.08,0,3.72,7.41,3.72,13.62,0,.48.05,1.24.11,2.21.23,3.61.61,9.65-.83,12.69C137.53,156.8,135.72,157.22,134.34,157.22Z"/><path class="cls-10" d="M135.1,127.45c2.39,0,3.35,5.94,3.35,13.25,0,2.33,1.08,11-.69,14.74-.45,1-2,1.41-3.42,1.41-1.25,0-2.42-.35-2.71-1-.58-1.35.13-2.29-.06-4.33-.27-2.76-1.12-7.65-1.12-10.58,0-7.31,2.26-13.48,4.65-13.48m0-.75c-3.34,0-5.4,7.39-5.4,14.23a63.89,63.89,0,0,0,.71,7.3c.16,1.25.32,2.43.41,3.36a7.92,7.92,0,0,1-.08,2,4.55,4.55,0,0,0,.2,2.55c.59,1.35,2.75,1.46,3.4,1.46,1.56,0,3.46-.48,4.1-1.84,1.48-3.13,1.09-9.23.87-12.88-.06-.92-.11-1.71-.11-2.18,0-9.29-1.38-14-4.1-14Z"/><path class="cls-9" d="M144.35,157.23c-1.43,0-3.3-.45-3.86-1.7-1.38-3.07-.88-9.1-.58-12.71.08-1,.14-1.72.15-2.2.12-6.18.91-13.55,4-13.55,2.75.06,4.93,6.45,4.78,14a63.78,63.78,0,0,1-.85,7.24c-.19,1.25-.37,2.42-.48,3.35a8.21,8.21,0,0,0,0,2.08,4.08,4.08,0,0,1-.22,2.35c-.33.74-1.43,1.18-2.94,1.18Z"/><path class="cls-10" d="M144,127.45h0c2.4,0,4.53,6.25,4.39,13.57-.06,2.93-1,7.8-1.33,10.55-.24,2,.46,3-.15,4.33-.29.63-1.4.95-2.6.95-1.46,0-3.07-.48-3.52-1.47-1.7-3.79-.44-12.43-.4-14.75.15-7.29,1.21-13.18,3.59-13.18m0-.75c-2.7,0-4.15,4.68-4.34,13.92,0,.46-.07,1.26-.15,2.17-.3,3.64-.8,9.74.62,12.9.63,1.41,2.66,1.91,4.2,1.91s2.88-.52,3.28-1.39a4.4,4.4,0,0,0,.25-2.55,8.61,8.61,0,0,1,0-2c.11-.92.29-2.1.48-3.34a62,62,0,0,0,.86-7.29,30.47,30.47,0,0,0-1.28-9.76c-1-2.92-2.33-4.54-3.84-4.57h0Z"/><path class="cls-9" d="M139.44,133.82c-9.84,0-17.84-6.81-17.84-15.2,0-7.12,5.93-13.38,14.09-14.87a16.42,16.42,0,0,1,2.05-.26,5.49,5.49,0,0,1,.7,0c.31,0,.65,0,1,0s.69,0,1,0h0l.53,0a20.11,20.11,0,0,1,2,.25c8.24,1.43,14.23,7.7,14.23,14.89C157.28,127,149.28,133.82,139.44,133.82Z"/><path class="cls-10" d="M139.44,103.91c.34,0,.67,0,1,0a4.41,4.41,0,0,1,.52,0,18.52,18.52,0,0,1,2,.25c7.89,1.37,13.82,7.3,13.82,14.4,0,8.12-7.76,14.7-17.34,14.7s-17.34-6.58-17.34-14.7c0-7.05,5.86-13,13.68-14.38a18.51,18.51,0,0,1,2-.26c.22,0,.44,0,.66,0s.66,0,1,0m0-1c-.35,0-.69,0-1,0l-.72,0a20,20,0,0,0-2.09.27c-8.4,1.54-14.5,8-14.5,15.36,0,8.66,8.23,15.7,18.34,15.7s18.34-7,18.34-15.7c0-7.44-6.16-13.91-14.65-15.38A18,18,0,0,0,141,103l-.56,0c-.34,0-.68,0-1,0Z"/><ellipse class="cls-13" cx="148.33" cy="117.37" rx="3.82" ry="3.99"/><circle class="cls-14" cx="148.33" cy="117.4" r="2.22"/><path class="cls-15" d="M148.47,116a.83.83,0,1,0,.83-.83A.83.83,0,0,0,148.47,116Z"/><ellipse class="cls-13" cx="129.41" cy="117.37" rx="3.82" ry="3.99"/><circle class="cls-14" cx="129.41" cy="117.4" r="2.22"/><path class="cls-15" d="M129.55,116a.83.83,0,1,0,.83-.83A.83.83,0,0,0,129.55,116Z"/><path class="cls-16" d="M128,129.65c-.16-.12-.32-.24-.47-.37A4.06,4.06,0,0,0,128,129.65Z"/><path class="cls-17" d="M127.5,129.28l-.18-.14.18.14Z"/><path class="cls-18" d="M140.44,103.94v5.15a1,1,0,0,1-2,0v-5.15c.33,0,.66,0,1,0S140.11,103.92,140.44,103.94Z"/><path class="cls-18" d="M137.78,104v4.37a1,1,0,0,1-2,0v-4.11A18.51,18.51,0,0,1,137.78,104Z"/><path class="cls-18" d="M143,104.22v4.13a1,1,0,0,1-2,0V104A18.52,18.52,0,0,1,143,104.22Z"/><path class="cls-19" d="M144.32,123a2.37,2.37,0,0,1-2,1.63,4.9,4.9,0,0,1-1.41.08,2.51,2.51,0,0,1-2-2.08l0-.1-.29,0a.32.32,0,0,1,0,.07,2.5,2.5,0,0,1-1.86,2.1,5.42,5.42,0,0,1-1.59,0h0a2,2,0,0,1-1.87-1.63"/><path class="cls-18" d="M174.65,136.52c-.07.63-.18,1.3-.31,2l-2.27-.47a1,1,0,0,1-.78-1.19,1,1,0,0,1,1.18-.77Z"/><path class="cls-18" d="M174.87,133.83c0,.61-.06,1.29-.14,2l-1.4-.29a1,1,0,0,1,.4-2Z"/><path class="cls-18" d="M174.24,139c-.14.64-.31,1.28-.5,1.94l-1.46-.3a1,1,0,1,1,.41-2Z"/><path class="cls-20" d="M130.9,111.73c0,1.58-3.42,4.13-6.46,3.75"/><path class="cls-20" d="M147.77,112.22c0,1.58,3.41,4.12,6.45,3.75"/><ellipse class="cls-21" cx="127.97" cy="123.08" rx="3.09" ry="0.86"/><ellipse class="cls-21" cx="148.8" cy="123.08" rx="3.09" ry="0.86"/><path class="cls-22" d="M142.3,124.6v.1c-2.56,2.24-5.51,1.85-7.18,0a5.42,5.42,0,0,0,1.59,0,2.5,2.5,0,0,0,1.86-2.1.32.32,0,0,0,0-.07l.29,0,0,.1a2.51,2.51,0,0,0,2,2.08A4.9,4.9,0,0,0,142.3,124.6Z"/><path class="cls-22" d="M138.85,122.6c-1.8,0-3.06-1.89-2.69-2.77.49-1.19,4.65-1.3,5.21-.13C141.79,120.56,140.64,122.55,138.85,122.6Z"/><ellipse class="cls-15" cx="139.24" cy="119.82" rx="1.05" ry="0.3"/></g></svg>