<svg xmlns="http://www.w3.org/2000/svg" viewBox="0 0 216 216">
    <defs>
        <style>.cls-1{isolation:isolate;}.cls-2{font-size:23px;fill:#24bcff;stroke:#24bcff;stroke-width:0.65px;}.cls-13,.cls-2,.cls-4{stroke-linecap:round;stroke-linejoin:round;}.cls-2,.cls-3,.cls-4{font-family:MyDearWatson-Regular, My Dear Watson;}.cls-3{font-size:15px;fill:#ff6363;stroke:#ff6363;stroke-width:0.5px;}.cls-3,.cls-7{stroke-miterlimit:10;}.cls-4{font-size:14.7px;fill:#7d141c;stroke:#7d141c;stroke-width:0.5px;}.cls-5{fill:#303030;}.cls-6{fill:#474747;}.cls-13,.cls-7{fill:none;}.cls-7{stroke:#000;stroke-width:1.16px;}.cls-8{fill:#1c1c1c;}.cls-9{fill:#6d6d6d;}.cls-10{fill:#9c9c9c;}.cls-11{fill:#383838;}.cls-12{fill:#363636;opacity:0.4;mix-blend-mode:multiply;}.cls-13{stroke:#bababa;stroke-width:1.74px;}</style>
    </defs>
    <g class="cls-1">
        <g id="sticker">
            <text class="cls-2" transform="translate(22.79 80.06)">
                2 hours,
                <tspan x="0" y="20">42 minutes</tspan>
            </text>
            <text class="cls-3" transform="translate(117.23 74.21)">
                ~2 hour,
                <tspan x="10.17" y="14">1 min</tspan>
            </text>
            <text class="cls-4" transform="translate(27.06 128.83)">
                1.3 x the
                <tspan x="0" y="17">length of the</tspan>
                <tspan x="0" y="34">“STAR WARS</tspan>
            </text>
            <path class="cls-5" d="M170.07,142.72a.53.53,0,0,1-.25-.05.57.57,0,0,1-.3-.33l-5.8-16.21a.59.59,0,0,1,.35-.74l7.08-2.54a.63.63,0,0,1,.19,0,.59.59,0,0,1,.55.38l5.79,16.22a.57.57,0,0,1-.34.74l-7.08,2.53A.63.63,0,0,1,170.07,142.72Z" />
            <path d="M171.34,123.4l.7,1.94,5.1,14.27-.88.32-4.64,1.66-1.55.56-5.8-16.22,1.56-.56,5.51-2m0-1.16a1.07,1.07,0,0,0-.39.07l-5.51,2-1.56.56a1.16,1.16,0,0,0-.7,1.48l5.8,16.22a1.14,1.14,0,0,0,.59.65,1.1,1.1,0,0,0,.5.11,1.32,1.32,0,0,0,.39-.06l1.55-.57,4.64-1.65.88-.32a1.16,1.16,0,0,0,.7-1.48L173.13,125l-.7-1.94a1.16,1.16,0,0,0-1.09-.77Z" />
            <path class="cls-5" d="M113,154a.7.7,0,0,1-.25-.05.64.64,0,0,1-.3-.33l-2.67-7.48a.58.58,0,0,1,.35-.74l8.12-2.91a.69.69,0,0,1,.2,0,.59.59,0,0,1,.54.38l2.68,7.48a.58.58,0,0,1-.35.74L113.22,154A.58.58,0,0,1,113,154Z" />
            <path d="M118.48,143l2.67,7.48-8.12,2.9-2.67-7.48,8.12-2.9m0-1.16a1,1,0,0,0-.39.07l-8.12,2.9a1.17,1.17,0,0,0-.71,1.48l2.68,7.48a1.15,1.15,0,0,0,1.09.77,1.07,1.07,0,0,0,.39-.07l8.12-2.9a1.18,1.18,0,0,0,.66-.6,1.12,1.12,0,0,0,0-.88l-2.67-7.48a1.15,1.15,0,0,0-.6-.66,1.17,1.17,0,0,0-.49-.11Z" />
            <path class="cls-6" d="M111.33,157.46l-.16,0a.63.63,0,0,1-.39-.36l-.77-2.15-3.5-9.81a.54.54,0,0,1,0-.45.56.56,0,0,1,.33-.29l5-1.78.21,0a.69.69,0,0,1,.24.05.57.57,0,0,1,.3.33l3.72,10.36a.58.58,0,0,1-.2.65l-4.41,3.38A.55.55,0,0,1,111.33,157.46Z" />
            <path d="M112,143.15l3.71,10.35-4.41,3.38-.77-2.14-3.51-9.82,4.82-1.71.16-.06m0-1.16a1.14,1.14,0,0,0-.41.07l-.16.06-4.8,1.71a1.18,1.18,0,0,0-.7,1.48l3.51,9.82.77,2.14a1.16,1.16,0,0,0,.76.72,1.26,1.26,0,0,0,.33,0,1.12,1.12,0,0,0,.7-.24l4.41-3.38a1.15,1.15,0,0,0,.39-1.31l-3.71-10.35a1.18,1.18,0,0,0-.61-.67,1.15,1.15,0,0,0-.48-.1Z" />
            <path class="cls-6" d="M128.27,167.08a5.21,5.21,0,0,1-4.89-3.45l-7.51-21A5.21,5.21,0,0,1,119,136l40.5-14.49a5.28,5.28,0,0,1,1.75-.3,5,5,0,0,1,1.91.37,5.16,5.16,0,0,1,3,3.08l.19.52,7.32,20.47a5.21,5.21,0,0,1-3.15,6.65L137.73,164l-7.7,2.76A5.29,5.29,0,0,1,128.27,167.08Z" />
            <path d="M161.27,121.78a4.64,4.64,0,0,1,4.36,3.06l.2.53,5.79,16.22,1.52,4.25a4.61,4.61,0,0,1-2.79,5.9l-32.81,11.73-7.71,2.76a4.46,4.46,0,0,1-1.56.27,4.61,4.61,0,0,1-4.34-3.06l-7.51-21a4.61,4.61,0,0,1,2.79-5.9l40.51-14.49a4.44,4.44,0,0,1,1.55-.27m0-1.16h0a5.68,5.68,0,0,0-2,.34l-40.5,14.49a5.78,5.78,0,0,0-3.49,7.38l7.51,21a5.79,5.79,0,0,0,5.43,3.83,5.64,5.64,0,0,0,1.95-.34l7.71-2.76,32.81-11.73a5.78,5.78,0,0,0,3.49-7.38l-1.52-4.25L166.92,125l-.2-.54a5.75,5.75,0,0,0-3.35-3.42,5.65,5.65,0,0,0-2.1-.4Z" />
            <path class="cls-6" d="M198.63,144h-.1l-18.13-3.27h-.05l-3.33-.6a.59.59,0,0,1-.44-.38l-5.8-16.22a.59.59,0,0,1,.08-.53l13.41-18.72a.58.58,0,0,1,.47-.24h.08a.57.57,0,0,1,.46.37l13.9,38.82a.56.56,0,0,1-.11.57A.58.58,0,0,1,198.63,144Z" />
            <path d="M184.74,104.63l13.89,38.82-18.17-3.28h0l-3.33-.6-5.79-16.23L183.74,106l1-1.4m0-1.16a1.15,1.15,0,0,0-.94.49l-1,1.39-12.41,17.32a1.12,1.12,0,0,0-.15,1.06L176,140a1.18,1.18,0,0,0,.89.75l3.32.6h.09l18.1,3.27.2,0a1.15,1.15,0,0,0,1.09-1.55l-13.89-38.82a1.16,1.16,0,0,0-.93-.76Z" />
            <line class="cls-7" x1="150.91" y1="100.43" x2="109.46" y2="114.19" />
            <line class="cls-7" x1="166.47" y1="117.05" x2="131.51" y2="161.98" />
            <line class="cls-7" x1="108.9" y1="137.64" x2="127.88" y2="162.91" />
            <path class="cls-8" d="M116.06,135.34a11.61,11.61,0,0,1-5-1.13,11.74,11.74,0,0,1,5-22.35,11.61,11.61,0,0,1,5,1.13,11.74,11.74,0,0,1-5,22.35Z" />
            <path d="M116.08,112.29a11.3,11.3,0,1,1-10.23,6.47,11.29,11.29,0,0,1,10.23-6.47m0-.87a12.18,12.18,0,0,0-5.22,23.18,12.08,12.08,0,0,0,5.2,1.17,12.18,12.18,0,1,0,0-24.35Z" />
            <path class="cls-9" d="M116.06,140.1a16.51,16.51,0,0,1-14.9-23.56,16.56,16.56,0,0,1,14.92-9.44A16.5,16.5,0,0,1,131,130.65a16.57,16.57,0,0,1-14.92,9.45Zm-1.64-10.47h-.29a3.47,3.47,0,0,0,.29,6.93l.29,0a3.47,3.47,0,0,0,1.2-6.59A3.52,3.52,0,0,0,114.42,129.63Zm9-3.21-.28,0a3.47,3.47,0,0,0,.28,6.92h.29a3.47,3.47,0,0,0-.29-6.93Zm-16.42-3h-.29a3.47,3.47,0,0,0,.29,6.93h.28a3.47,3.47,0,0,0,1.2-6.6A3.44,3.44,0,0,0,107,123.39Zm18.24-6.53h-.28a3.47,3.47,0,0,0-1.2,6.6,3.44,3.44,0,0,0,1.48.33h.29a3.47,3.47,0,0,0-.29-6.93Zm-16.42-3h-.29a3.46,3.46,0,0,0-1.19,6.59,3.45,3.45,0,0,0,1.48.34h.29a3.47,3.47,0,0,0,1.19-6.6A3.44,3.44,0,0,0,108.77,113.83Zm9-3.21-.29,0a3.47,3.47,0,0,0,.29,6.92H118a3.47,3.47,0,0,0,1.2-6.59A3.53,3.53,0,0,0,117.72,110.62Z" />
            <path d="M116.08,107.53a16.07,16.07,0,1,1-14.53,9.2,16,16,0,0,1,14.53-9.2M117.72,118H118a3.91,3.91,0,0,0,1.35-7.42,3.85,3.85,0,0,0-1.67-.38h-.32a3.91,3.91,0,0,0,.32,7.8m-9,3.2h.32a3.9,3.9,0,0,0,1.35-7.42,3.88,3.88,0,0,0-1.67-.38l-.32,0a3.9,3.9,0,0,0-1.35,7.42,4,4,0,0,0,1.67.37m16.42,3,.33,0a3.9,3.9,0,0,0,1.34-7.42,4,4,0,0,0-1.67-.37h-.32a4,4,0,0,0-3.21,2.22,3.91,3.91,0,0,0,3.53,5.58M107,130.76h.32a4,4,0,0,0,3.21-2.22A3.91,3.91,0,0,0,107,123l-.33,0a3.9,3.9,0,0,0-1.34,7.42,3.84,3.84,0,0,0,1.67.37m16.42,3h.33a3.91,3.91,0,0,0,1.34-7.42,3.85,3.85,0,0,0-1.67-.38h-.32a3.91,3.91,0,0,0,.32,7.8m-9,3.2h.32a3.9,3.9,0,0,0,1.35-7.42,3.85,3.85,0,0,0-1.67-.38l-.32,0a3.9,3.9,0,0,0-1.35,7.42,4.06,4.06,0,0,0,1.67.37m1.66-30.34a17,17,0,0,0-15.31,9.7,16.93,16.93,0,0,0,15.29,24.17,16.93,16.93,0,0,0,7.25-32.24,16.82,16.82,0,0,0-7.23-1.63Zm1.64,10.47a3.12,3.12,0,0,1-1.3-.29,3,3,0,0,1,1-5.77h.25a3,3,0,0,1,.25,6.06Zm-9,3.2a3.08,3.08,0,0,1-1.3-.29,3,3,0,0,1,1-5.77h.25a3.12,3.12,0,0,1,1.3.29,3,3,0,0,1-1,5.77Zm16.42,3a3.12,3.12,0,0,1-1.3-.29,3,3,0,0,1,1-5.77h.25a3,3,0,0,1,.25,6.06ZM107,129.9a3,3,0,0,1-.25-6.07H107a3,3,0,0,1,1.3.3,3,3,0,0,1-1,5.76l-.25,0Zm16.42,3a3,3,0,0,1-.25-6.06h.25a3,3,0,0,1,.25,6.06Zm-9,3.2a3.12,3.12,0,0,1-1.3-.29,3,3,0,0,1,1-5.77h.25a3,3,0,0,1,.25,6.06Z" />
            <path class="cls-10" d="M116.07,126.53a2.94,2.94,0,0,1,0-5.87,2.83,2.83,0,0,1,1.25.29,2.93,2.93,0,0,1-1.25,5.58Z" />
            <path d="M116.07,121.1a2.56,2.56,0,0,1,1.07.24,2.49,2.49,0,0,1-1.07,4.75,2.42,2.42,0,0,1-1.07-.24,2.49,2.49,0,0,1,1.07-4.75m0-.87a3.37,3.37,0,0,0-1.44,6.41,3.43,3.43,0,0,0,1.44.32,3.37,3.37,0,1,0,0-6.73Z" />
            <path class="cls-8" d="M151.27,123.48a11.61,11.61,0,0,1-5-1.13,11.74,11.74,0,0,1,5-22.35,11.61,11.61,0,0,1,5,1.13,11.74,11.74,0,0,1-5,22.35Z" />
            <path d="M151.29,100.43a11.31,11.31,0,1,1-10.23,6.48,11.21,11.21,0,0,1,10.23-6.48m0-.87a12.18,12.18,0,0,0-5.22,23.18,12.09,12.09,0,0,0,5.2,1.18,12.18,12.18,0,0,0,5.22-23.18,12.09,12.09,0,0,0-5.2-1.18Z" />
            <path class="cls-9" d="M151.27,128.24a16.21,16.21,0,0,1-7-1.59,16.5,16.5,0,0,1,7.06-31.41,16.5,16.5,0,0,1,14.9,23.55,16.57,16.57,0,0,1-14.92,9.45Zm-1.64-10.47h-.29a3.47,3.47,0,0,0,.29,6.93h.29a3.47,3.47,0,0,0,1.2-6.6A3.67,3.67,0,0,0,149.63,117.77Zm9-3.2h-.28a3.47,3.47,0,0,0,.28,6.93h.29a3.47,3.47,0,0,0-.29-6.93Zm-16.42-3-.29,0a3.47,3.47,0,0,0,.29,6.92h.28a3.47,3.47,0,0,0-.28-6.93ZM160.4,105h-.28a3.47,3.47,0,0,0,.28,6.93h.29a3.52,3.52,0,0,0,2.85-2,3.48,3.48,0,0,0-1.65-4.62A3.52,3.52,0,0,0,160.4,105ZM144,102h-.29a3.47,3.47,0,0,0-1.19,6.6,3.44,3.44,0,0,0,1.48.33h.29a3.47,3.47,0,0,0,1.19-6.6A3.59,3.59,0,0,0,144,102Zm9-3.2h-.29a3.47,3.47,0,0,0,.29,6.93h.29a3.47,3.47,0,0,0-.29-6.93Z" />
            <path d="M151.29,95.67a16.07,16.07,0,1,1-14.53,9.2,16,16,0,0,1,14.53-9.2m1.64,10.47h.32a3.9,3.9,0,0,0,1.35-7.42,3.85,3.85,0,0,0-1.67-.38l-.32,0a3.9,3.9,0,0,0-1.35,7.42,4.06,4.06,0,0,0,1.67.37m-9,3.21.32,0a3.9,3.9,0,0,0,1.35-7.42,3.87,3.87,0,0,0-1.67-.37h-.32a3.9,3.9,0,0,0-1.35,7.42,3.85,3.85,0,0,0,1.67.38m16.42,3h.32a3.9,3.9,0,0,0,1.35-7.42,3.85,3.85,0,0,0-1.67-.38l-.32,0a3.9,3.9,0,0,0-1.35,7.42,4.06,4.06,0,0,0,1.67.37m-18.24,6.53.32,0a3.9,3.9,0,0,0,1.35-7.42,4.06,4.06,0,0,0-1.67-.37h-.33a3.9,3.9,0,0,0-1.34,7.42,3.85,3.85,0,0,0,1.67.38m16.42,3h.33a3.9,3.9,0,0,0,1.34-7.42,3.85,3.85,0,0,0-1.67-.38l-.32,0a3.9,3.9,0,0,0,.32,7.79m-9,3.21.32,0a3.9,3.9,0,0,0,1.35-7.42,3.84,3.84,0,0,0-1.67-.37h-.32a3.91,3.91,0,0,0,.32,7.8m1.66-30.34A17,17,0,0,0,136,104.5a16.93,16.93,0,0,0,15.29,24.17A17,17,0,0,0,166.58,119a16.93,16.93,0,0,0-15.29-24.17Zm1.64,10.46a3.12,3.12,0,0,1-1.3-.29,3,3,0,0,1,1.05-5.77h.25a2.92,2.92,0,0,1,1.3.3,3,3,0,0,1-1,5.76Zm-9,3.21a3,3,0,0,1-1.3-.3,3,3,0,0,1,1-5.76l.25,0a3.13,3.13,0,0,1,1.3.3,3,3,0,0,1-1.05,5.77Zm16.42,3a3.12,3.12,0,0,1-1.3-.29,3,3,0,0,1,1.05-5.77h.25a3,3,0,0,1,.25,6.06ZM142.16,118a3,3,0,0,1-.25-6.06h.25a3.12,3.12,0,0,1,1.3.29,3,3,0,0,1-1.05,5.77Zm16.42,3a3,3,0,0,1-.25-6.06h.25a2.92,2.92,0,0,1,1.3.3,3,3,0,0,1-1,5.76Zm-9,3.21a3,3,0,0,1-1.3-.3,3,3,0,0,1,1-5.76h.25a3,3,0,0,1,.25,6.06Z" />
            <path class="cls-10" d="M151.28,114.67a2.82,2.82,0,0,1-1.25-.28,2.93,2.93,0,0,1,1.25-5.58,2.82,2.82,0,0,1,1.25.28,2.93,2.93,0,0,1-1.25,5.58Z" />
            <path d="M151.28,109.24a2.56,2.56,0,0,1,1.07.24,2.5,2.5,0,0,1-1.07,4.76,2.56,2.56,0,0,1-1.07-.24,2.5,2.5,0,0,1,1.07-4.76m0-.87a3.37,3.37,0,0,0-1.44,6.41,3.27,3.27,0,0,0,1.44.33,3.37,3.37,0,0,0,1.44-6.41,3.27,3.27,0,0,0-1.44-.33Z" />
            <path class="cls-10" d="M129.23,164a3.6,3.6,0,0,1-3.39-2.39A3.59,3.59,0,0,1,128,157a3.65,3.65,0,0,1,1.22-.22,3.61,3.61,0,0,1,0,7.21Z" />
            <path d="M129.23,157.21a3.17,3.17,0,0,1,1.06,6.15,3,3,0,0,1-1.06.19,3.17,3.17,0,0,1-1.07-6.16,3.29,3.29,0,0,1,1.07-.18m0-.87a3.94,3.94,0,0,0-1.36.24,4,4,0,0,0-2.44,5.16,4,4,0,0,0,3.8,2.68,4,4,0,0,0,1.36-.24,4,4,0,0,0-1.36-7.84Z" />
            <path class="cls-9" d="M128.29,160.71a1,1,0,1,0,.6-1.27A1,1,0,0,0,128.29,160.71Z" />
            <path class="cls-11" d="M198.63,143.45l-18.17-3.28c9.1-2.77,5.69-23.48,3.28-34.14l1-1.4Z" />
            <path class="cls-12" d="M173.14,145.84a4.61,4.61,0,0,1-2.79,5.9l-32.81,11.73a28.63,28.63,0,0,1,10.92-7.88c13.57-5.74,14.68-25.23,14.5-33.49a4.58,4.58,0,0,1,2.67,2.74l5.28,14.32,5.35.77-4.64,1.66Z" />
            <path class="cls-11" d="M115.74,153.5l-4.41,3.38-.77-2.14a38.69,38.69,0,0,0,1.31-11.53l.16-.06Z" />
            <line class="cls-13" x1="193.62" y1="136.65" x2="194.48" y2="139.09" />
            <line class="cls-13" x1="190.71" y1="128.37" x2="192.66" y2="133.92" />
            <line class="cls-13" x1="184.97" y1="112.09" x2="189.61" y2="125.27" />
            <line class="cls-13" x1="169.12" y1="144.37" x2="169.97" y2="146.8" />
            <line class="cls-13" x1="163.64" y1="128.82" x2="167.85" y2="140.78" />
            <path class="cls-13" d="M164.29,104.58a15.49,15.49,0,0,1,.79,1.69" />
            <path class="cls-13" d="M157.42,98.36a13.71,13.71,0,0,1,5.19,3.8" />
            <path class="cls-13" d="M129.22,116.67a14.85,14.85,0,0,1,.8,1.7" />
            <path class="cls-13" d="M122.36,110.45a13.68,13.68,0,0,1,5.19,3.81" />
        </g>
    </g>
</svg>