<svg xmlns="http://www.w3.org/2000/svg" viewBox="0 0 216 216"><defs><style>.cls-1{font-size:21.01px;fill:#f28cc9;stroke:#f28cc9;stroke-width:0.6px;}.cls-1,.cls-15,.cls-2,.cls-6{stroke-linecap:round;stroke-linejoin:round;}.cls-1,.cls-2,.cls-8{font-family:MyDearWatson-Regular, My Dear Watson;}.cls-2{font-size:14px;fill:#80d8ff;stroke:#80d8ff;stroke-width:0.5px;}.cls-3,.cls-4{fill:#b760c2;}.cls-13,.cls-3,.cls-4,.cls-5,.cls-6{stroke:#000;}.cls-13,.cls-3,.cls-4,.cls-5,.cls-8{stroke-miterlimit:10;}.cls-4{stroke-width:1.07px;}.cls-5,.cls-6{fill:#fff;}.cls-5{stroke-width:0.75px;}.cls-6{stroke-width:0.25px;}.cls-7,.cls-8{fill:#ff6363;}.cls-8{font-size:15px;stroke:#ff6363;stroke-width:0.5px;}.cls-9{fill:#f8b51e;}.cls-10{fill:#39444a;}.cls-11{fill:#778d9a;}.cls-12{fill:#54646e;}.cls-13,.cls-16{fill:#434f57;}.cls-13{stroke-width:1.13px;}.cls-14{fill:#59cb8d;}.cls-15{fill:none;stroke:#48a371;stroke-width:1.47px;}</style></defs><g id="sticker"><text class="cls-1" transform="translate(30.04 97.53)">11 plays of<tspan x="0" y="20">The Beatles</tspan></text><text class="cls-2" transform="translate(36.11 131)">1 play per<tspan x="0" y="14">pound of a</tspan><tspan x="0" y="28">vacuum</tspan></text><rect class="cls-3" x="110.78" y="143.04" width="3.7" height="16.31"/><rect class="cls-4" x="106.8" y="158.48" width="82.54" height="8.02" rx="2.08"/><circle class="cls-3" cx="112.11" cy="136.3" r="7.02"/><circle class="cls-5" cx="112.11" cy="136.3" r="4.98"/><line class="cls-6" x1="112.11" y1="132.35" x2="112.11" y2="133.25"/><line class="cls-6" x1="110.76" y1="132.59" x2="111.07" y2="133.44"/><line class="cls-6" x1="109.58" y1="133.27" x2="110.16" y2="133.97"/><line class="cls-6" x1="108.7" y1="134.32" x2="109.48" y2="134.77"/><line class="cls-6" x1="108.23" y1="135.61" x2="109.12" y2="135.77"/><line class="cls-6" x1="108.23" y1="136.98" x2="109.12" y2="136.82"/><line class="cls-6" x1="108.7" y1="138.27" x2="109.48" y2="137.82"/><line class="cls-6" x1="109.58" y1="139.32" x2="110.16" y2="138.63"/><line class="cls-6" x1="110.76" y1="140" x2="111.07" y2="139.15"/><line class="cls-6" x1="112.11" y1="140.24" x2="112.11" y2="139.34"/><line class="cls-6" x1="113.46" y1="140" x2="113.16" y2="139.15"/><line class="cls-6" x1="114.65" y1="139.32" x2="114.07" y2="138.63"/><line class="cls-6" x1="115.53" y1="138.27" x2="114.75" y2="137.82"/><line class="cls-6" x1="116" y1="136.98" x2="115.11" y2="136.82"/><line class="cls-6" x1="116" y1="135.61" x2="115.11" y2="135.77"/><line class="cls-6" x1="115.53" y1="134.32" x2="114.75" y2="134.77"/><line class="cls-6" x1="114.65" y1="133.27" x2="114.07" y2="133.97"/><line class="cls-6" x1="113.46" y1="132.59" x2="113.16" y2="133.44"/><polygon points="111.89 136 114.07 134.78 112.34 136.59 111.89 136"/><circle class="cls-7" cx="112.11" cy="136.3" r="0.69"/><text class="cls-8" transform="translate(131.53 88.23)">~11 lbs</text><path class="cls-9" d="M127.83,156.49V125.41a16.83,16.83,0,0,1,16.81-16.82h2.44a16.83,16.83,0,0,1,16.81,16.82v31.08Z"/><path d="M147.08,109.16a16.24,16.24,0,0,1,16.24,16.25v30.51H128.39V125.41a16.25,16.25,0,0,1,16.25-16.25h2.44m0-1.13h-2.44a17.4,17.4,0,0,0-17.38,17.38v31.64h37.2V125.41A17.4,17.4,0,0,0,147.08,108Z"/><rect class="cls-10" x="124.35" y="136.17" width="6.67" height="22.22" rx="3.14"/><path d="M127.87,136.74a2.58,2.58,0,0,1,2.58,2.57v15.94a2.58,2.58,0,0,1-2.58,2.58h-.38a2.57,2.57,0,0,1-2.58-2.58V139.31a2.57,2.57,0,0,1,2.58-2.57h.38m0-1.13h-.38a3.71,3.71,0,0,0-3.71,3.7v15.94a3.71,3.71,0,0,0,3.71,3.71h.38a3.71,3.71,0,0,0,3.71-3.71V139.31a3.71,3.71,0,0,0-3.71-3.7Z"/><rect class="cls-10" x="160.71" y="136.17" width="6.67" height="22.22" rx="3.14"/><path d="M164.23,136.74a2.58,2.58,0,0,1,2.58,2.57v15.94a2.58,2.58,0,0,1-2.58,2.58h-.38a2.57,2.57,0,0,1-2.58-2.58V139.31a2.57,2.57,0,0,1,2.58-2.57h.38m0-1.13h-.38a3.71,3.71,0,0,0-3.71,3.7v15.94a3.71,3.71,0,0,0,3.71,3.71h.38a3.71,3.71,0,0,0,3.71-3.71V139.31a3.71,3.71,0,0,0-3.71-3.7Z"/><rect class="cls-11" x="139.37" y="128.34" width="12.97" height="3.71" rx="1.75"/><path d="M150.59,128.72A1.38,1.38,0,0,1,152,130.1v.2a1.38,1.38,0,0,1-1.38,1.38h-9.46a1.38,1.38,0,0,1-1.38-1.38v-.2a1.38,1.38,0,0,1,1.38-1.38h9.46m0-.75h-9.46A2.13,2.13,0,0,0,139,130.1v.2a2.13,2.13,0,0,0,2.13,2.13h9.46a2.13,2.13,0,0,0,2.13-2.13v-.2a2.13,2.13,0,0,0-2.13-2.13Z"/><path class="cls-11" d="M145.86,127.29a5.32,5.32,0,1,1,5.32-5.32A5.33,5.33,0,0,1,145.86,127.29Z"/><path d="M145.86,117a4.94,4.94,0,1,1-4.94,4.94,4.94,4.94,0,0,1,4.94-4.94m0-.75a5.69,5.69,0,1,0,5.69,5.69,5.69,5.69,0,0,0-5.69-5.69Z"/><circle class="cls-12" cx="145.86" cy="121.97" r="3.15"/><path class="cls-13" d="M172.15,153.53a1.71,1.71,0,0,1-1.72-1.71V102.64a6.3,6.3,0,0,0-12.59,0v9.07a12,12,0,0,1-12,12,1.72,1.72,0,0,1,0-3.44,8.55,8.55,0,0,0,8.54-8.54v-9.07a9.74,9.74,0,0,1,19.47,0v49.18A1.71,1.71,0,0,1,172.15,153.53Z"/><path class="cls-14" d="M137.39,156.3V144a7.91,7.91,0,0,1,7.91-7.9h1.12a7.9,7.9,0,0,1,7.9,7.9V156.3Z"/><path d="M146.42,136.43A7.53,7.53,0,0,1,154,144v12H137.77V144a7.53,7.53,0,0,1,7.53-7.52h1.12m0-.76H145.3A8.29,8.29,0,0,0,137,144v12.72H154.7V144a8.29,8.29,0,0,0-8.28-8.28Z"/><line class="cls-15" x1="140.92" y1="144.21" x2="150.8" y2="144.21"/><line class="cls-15" x1="140.92" y1="147.28" x2="150.8" y2="147.28"/><line class="cls-15" x1="140.92" y1="150.36" x2="150.8" y2="150.36"/><rect class="cls-16" x="164.43" y="146.72" width="15.44" height="3.56" rx="1.7"/><path d="M178.18,147.28a1.14,1.14,0,0,1,1.13,1.13v.17a1.13,1.13,0,0,1-1.13,1.13H166.13a1.12,1.12,0,0,1-1.13-1.13v-.17a1.13,1.13,0,0,1,1.13-1.13h12.05m0-1.13H166.13a2.27,2.27,0,0,0-2.27,2.26v.17a2.27,2.27,0,0,0,2.27,2.27h12.05a2.27,2.27,0,0,0,2.26-2.27v-.17a2.27,2.27,0,0,0-2.26-2.26Z"/><path class="cls-14" d="M160.63,158.22a2.18,2.18,0,0,1-2.18-2.18V151.5a2.17,2.17,0,0,1,2.18-2.17H184a2.17,2.17,0,0,1,2.17,2.17V156a2.18,2.18,0,0,1-2.17,2.18Z"/><path d="M184,149.81a1.69,1.69,0,0,1,1.68,1.69V156a1.68,1.68,0,0,1-1.68,1.69H160.63a1.69,1.69,0,0,1-1.7-1.69V151.5a1.7,1.7,0,0,1,1.7-1.69H184m0-1H160.63A2.67,2.67,0,0,0,158,151.5V156a2.68,2.68,0,0,0,2.67,2.67H184a2.67,2.67,0,0,0,2.66-2.67V151.5a2.67,2.67,0,0,0-2.66-2.66Z"/></g></svg>