<svg xmlns="http://www.w3.org/2000/svg" xmlns:xlink="http://www.w3.org/1999/xlink" viewBox="0 0 216 216"><defs><style>.cls-1,.cls-11,.cls-15,.cls-16{fill:none;}.cls-2{isolation:isolate;}.cls-13,.cls-3{fill:#fff;}.cls-4{fill:#d6f2ff;}.cls-5{fill:#f9a223;stroke:#000;}.cls-11,.cls-13,.cls-15,.cls-16,.cls-5{stroke-linecap:round;stroke-miterlimit:10;}.cls-13,.cls-5{stroke-width:0.78px;}.cls-6{mix-blend-mode:multiply;}.cls-7{fill:#e6e6e6;}.cls-8{fill:#784629;}.cls-9{fill:#9a5f3d;}.cls-10,.cls-17{fill:#0a0a0a;}.cls-11{stroke:#fff;}.cls-11,.cls-15{stroke-width:2px;}.cls-12{clip-path:url(#clip-path);}.cls-13,.cls-16{stroke:#0a0a0a;}.cls-14{fill:#f2f2f2;}.cls-15{stroke:#ccc;}.cls-16{stroke-width:0.95px;}.cls-17{font-size:7.98px;font-family:MyDearWatson-Regular, My Dear Watson;}</style><clipPath id="clip-path"><polygon id="fill-mask" class="cls-1" points="150.35 42.17 72.05 42.17 72.25 158.38 150.55 158.38 150.35 42.17"/></clipPath></defs><g class="cls-2"><g id="sticker"><path class="cls-3" d="M74.87,182.52H147a12.27,12.27,0,0,0,12.25-12.26v-2.65a12.22,12.22,0,0,0-5-9.87c-.09-.27-.18-.54-.29-.8a11,11,0,0,0-5.13-5.61V137.47c0-12.53-5.49-22.72-15.48-29.37a34.83,34.83,0,0,0,7.26-6.22c5.24-6,8-13.5,8.21-22.38,0-.28,0-.59,0-.92V63.92A11,11,0,0,0,154,58.29c.1-.26.2-.51.28-.77a12.26,12.26,0,0,0,5-9.88V45A12.27,12.27,0,0,0,147,32.73H74.87A12.27,12.27,0,0,0,62.62,45v2.64a12.26,12.26,0,0,0,5,9.88c.09.27.18.53.29.79A11,11,0,0,0,73,63.92V78.58c0,.33,0,.64,0,1,.21,8.86,3,16.38,8.21,22.35a35.29,35.29,0,0,0,7.25,6.21C78.52,114.74,73,124.92,73,137.47v13.87A11,11,0,0,0,67.89,157c-.1.25-.2.51-.28.77a12.24,12.24,0,0,0-5,9.87v2.65A12.27,12.27,0,0,0,74.87,182.52Z"/><path class="cls-4" d="M81.74,160.53V137.47c0-13.65,8.38-23.34,23.6-27.27l.31-.09v-4.18c-15.56-3.9-23.6-12.88-23.9-26.69,0-.21,0-.43,0-.66V55.24h58.37V78.58c0,.23,0,.45,0,.67-.3,13.8-8.34,22.78-23.9,26.68v4.17c9,2.3,23.91,8.88,23.91,27.37v23.06Z"/><path d="M139.39,56V78.58c0,.22,0,.43,0,.64-.35,16.58-11.95,23.28-23.9,26.15v5.3l.42.1c11.94,3,23.49,10.52,23.49,26.7v22.34H82.46V137.47c0-16,11.26-23.53,23.06-26.58l.85-.22v-5.3c-11.94-2.87-23.55-9.57-23.9-26.15,0-.21,0-.42,0-.64V56h56.93m1.43-1.43H81v24c0,.24,0,.47,0,.71.3,14,8.33,23.14,23.9,27.2v3.07c-15.42,4-23.91,14-23.91,27.91v23.77h59.79V137.47c0-14-8.48-23.84-23.91-27.92v-3.06c15.56-4.06,23.6-13.22,23.9-27.24,0-.2,0-.43,0-.67v-24Z"/><path class="cls-5" d="M115.65,132.55l-.17,0V105.37c11.94-2.88,23.55-9.57,23.9-26.15H82.47c.35,16.58,12,23.27,23.9,26.15v27.15c-.29,0-.57.07-.85.12-14.41,2.19-20.51,13.12-23.06,21v6.17h56.93V154.2C136.74,145.7,130.52,134.5,115.65,132.55Z"/><g class="cls-6"><path class="cls-4" d="M115.48,105.37v5.3l.42.1c11.94,3,23.49,10.52,23.49,26.7v22.34H129.13V137.47c0-16.18-4.85-23.81-14-26.8,3.33-.11,0,0-.1,0v-5.31c9.13-2.87,13.8-9.53,14.07-26.11,0-.21,0-.42,0-.64V56h10.26V78.58c0,.22,0,.43,0,.64C139,95.8,127.43,102.5,115.48,105.37Z"/></g><g class="cls-6"><path class="cls-7" d="M139.39,58.92V56H82.46v3h0V78.58c0,.22,0,.43,0,.64.36,16.58,12,23.28,23.9,26.15v5.27h.44v-5.31C97.68,102.46,93,95.8,92.73,79.22c0-.21,0-.42,0-.64V58.92Z"/><path class="cls-7" d="M106,110.77c-11.94,3-23.49,10.52-23.49,26.7v22.34H92.72V137.47c0-16.18,4.85-23.81,14-26.8l-.33,0v0Z"/><path class="cls-7" d="M106.37,110.65h0C105.6,110.63,104.26,110.59,106.37,110.65Z"/></g><path class="cls-8" d="M78.11,56.43A2.33,2.33,0,0,1,76,55a2.45,2.45,0,0,1-.16-.87,2.33,2.33,0,0,1,2.32-2.33h65.63a2.33,2.33,0,1,1,0,4.65Z"/><path d="M143.74,52.5a1.6,1.6,0,0,1,1.6,1.61,1.49,1.49,0,0,1-.11.6,1.6,1.6,0,0,1-1.49,1H78.11a1.6,1.6,0,0,1-1.49-1,1.5,1.5,0,0,1-.12-.6,1.61,1.61,0,0,1,1.61-1.61h65.63m0-1.43H78.11a3,3,0,1,0,0,6.08h65.63a3,3,0,0,0,0-6.08Z"/><path class="cls-9" d="M145.23,54.71a1.6,1.6,0,0,1-1.49,1H78.11a1.6,1.6,0,0,1-1.49-1,1.6,1.6,0,0,1,1.49-1h65.63A1.6,1.6,0,0,1,145.23,54.71Z"/><path class="cls-9" d="M74.87,51.19a3.55,3.55,0,0,1-3.54-3.55V45a3.55,3.55,0,0,1,3.54-3.55H147A3.55,3.55,0,0,1,150.52,45v2.64A3.55,3.55,0,0,1,147,51.19Z"/><path class="cls-10" d="M147,42.17A2.83,2.83,0,0,1,149.8,45v2.64A2.83,2.83,0,0,1,147,50.47H74.87a2.83,2.83,0,0,1-2.82-2.83V45a2.83,2.83,0,0,1,2.82-2.83H147m0-1.44H74.87A4.26,4.26,0,0,0,70.62,45v2.64a4.26,4.26,0,0,0,4.25,4.27H147a4.26,4.26,0,0,0,4.25-4.27V45A4.27,4.27,0,0,0,147,40.73Z"/><path class="cls-8" d="M78.11,52.5H92.73v3.21H78.11a1.61,1.61,0,1,1,0-3.21Z"/><path class="cls-8" d="M92.75,42.17c0,2.26,0,5.35,0,8.3H74.87a2.83,2.83,0,0,1-2.82-2.83V45a2.83,2.83,0,0,1,2.82-2.83Z"/><path class="cls-8" d="M78.11,163.47a2.33,2.33,0,0,1,0-4.65h65.63a2.3,2.3,0,0,1,2.15,1.46,2.21,2.21,0,0,1,.17.87,2.32,2.32,0,0,1-2.32,2.32Z"/><path class="cls-10" d="M143.74,159.54a1.6,1.6,0,0,1,1.49,1,1.57,1.57,0,0,1,.11.61,1.59,1.59,0,0,1-1.6,1.6H78.11a1.6,1.6,0,0,1-1.61-1.6,1.58,1.58,0,0,1,.12-.61,1.6,1.6,0,0,1,1.49-1h65.63m0-1.43H78.11a3,3,0,0,0-2.82,1.9,3,3,0,0,0-.22,1.14,3,3,0,0,0,3,3h65.63a3.05,3.05,0,0,0,3-3,3,3,0,0,0-.23-1.16,3,3,0,0,0-2.81-1.88Z"/><path class="cls-9" d="M145.23,160.54a1.6,1.6,0,0,0-1.49-1H78.11a1.09,1.09,0,1,0,0,2h65.63A1.59,1.59,0,0,0,145.23,160.54Z"/><path class="cls-9" d="M74.87,173.8a3.55,3.55,0,0,1-3.54-3.54v-2.65a3.55,3.55,0,0,1,3.54-3.55H147a3.55,3.55,0,0,1,3.54,3.55v2.65A3.55,3.55,0,0,1,147,173.8Z"/><path class="cls-10" d="M147,164.78a2.83,2.83,0,0,1,2.82,2.83v2.65a2.83,2.83,0,0,1-2.82,2.83H74.87a2.83,2.83,0,0,1-2.82-2.83v-2.65a2.83,2.83,0,0,1,2.82-2.83H147m0-1.43H74.87a4.25,4.25,0,0,0-4.25,4.26v2.65a4.25,4.25,0,0,0,4.25,4.26H147a4.26,4.26,0,0,0,4.25-4.26v-2.65a4.26,4.26,0,0,0-4.25-4.26Z"/><path class="cls-8" d="M78.11,162.75H92.73v-3.21H78.11a1.61,1.61,0,1,0,0,3.21Z"/><path class="cls-8" d="M92.75,173.09c0-2.27,0-5.36,0-8.31H74.87a2.83,2.83,0,0,0-2.82,2.83v2.65a2.83,2.83,0,0,0,2.82,2.83Z"/><path class="cls-11" d="M131.36,92.54c-.24.3-.48.59-.73.87"/><path class="cls-11" d="M135.44,82.92a21,21,0,0,1-2.57,7.41"/><path class="cls-11" d="M135.79,59.56v19c0,.16,0,.32,0,.47"/><path class="cls-11" d="M131.36,123.82c-.24-.3-.48-.59-.73-.87"/><path class="cls-11" d="M135.44,133.43a20.9,20.9,0,0,0-2.57-7.4"/><path class="cls-11" d="M135.79,151.93V137.78c0-.17,0-.32,0-.48"/><g class="cls-12"><path class="cls-3" d="M81.74,160.53V137.47c0-13.65,8.38-23.34,23.6-27.27l.31-.09v-4.18c-15.56-3.9-23.6-12.88-23.9-26.69,0-.21,0-.43,0-.66V55.24h58.37V78.58c0,.23,0,.45,0,.67-.3,13.8-8.34,22.78-23.9,26.68v4.17c9,2.3,23.91,8.88,23.91,27.37v23.06Z"/><path class="cls-10" d="M139.39,56V78.58c0,.22,0,.43,0,.64-.35,16.58-11.95,23.28-23.9,26.15v5.3l.42.1c11.94,3,23.49,10.52,23.49,26.7v22.34H82.46V137.47c0-16,11.26-23.53,23.06-26.58l.85-.22v-5.3c-11.94-2.87-23.55-9.57-23.9-26.15,0-.21,0-.42,0-.64V56h56.93m1.43-1.43H81v24c0,.24,0,.47,0,.71.3,14,8.33,23.14,23.9,27.2v3.07c-15.42,4-23.91,14-23.91,27.91v23.77h59.79V137.47c0-14-8.48-23.84-23.91-27.92v-3.06c15.56-4.06,23.6-13.22,23.9-27.24,0-.2,0-.43,0-.67v-24Z"/><path class="cls-13" d="M115.65,132.55l-.17,0V105.37c11.94-2.88,23.55-9.57,23.9-26.15H82.47c.35,16.58,12,23.27,23.9,26.15v27.15c-.29,0-.57.07-.85.12-14.41,2.19-20.51,13.12-23.06,21v6.17h56.93V154.2C136.74,145.7,130.52,134.5,115.65,132.55Z"/><g class="cls-6"><path class="cls-14" d="M115.48,105.37v5.3l.42.1c11.94,3,23.49,10.52,23.49,26.7v22.34H129.13V137.47c0-16.18-4.85-23.81-14-26.8,3.33-.11,0,0-.1,0v-5.31c9.13-2.87,13.8-9.53,14.07-26.11,0-.21,0-.42,0-.64V56h10.26V78.58c0,.22,0,.43,0,.64C139,95.8,127.43,102.5,115.48,105.37Z"/></g><g class="cls-6"><path class="cls-7" d="M139.39,58.92V56H82.46v3h0V78.58c0,.22,0,.43,0,.64.36,16.58,12,23.28,23.9,26.15v5.27h.44v-5.31C97.68,102.46,93,95.8,92.73,79.22c0-.21,0-.42,0-.64V58.92Z"/><path class="cls-7" d="M106,110.77c-11.94,3-23.49,10.52-23.49,26.7v22.34H92.72V137.47c0-16.18,4.85-23.81,14-26.8l-.33,0v0Z"/><path class="cls-7" d="M106.37,110.65h0C105.6,110.63,104.26,110.59,106.37,110.65Z"/></g><path class="cls-7" d="M78.11,56.43A2.33,2.33,0,0,1,76,55a2.45,2.45,0,0,1-.16-.87,2.33,2.33,0,0,1,2.32-2.33h65.63a2.33,2.33,0,1,1,0,4.65Z"/><path class="cls-10" d="M143.74,52.5a1.6,1.6,0,0,1,1.6,1.61,1.49,1.49,0,0,1-.11.6,1.6,1.6,0,0,1-1.49,1H78.11a1.6,1.6,0,0,1-1.49-1,1.5,1.5,0,0,1-.12-.6,1.61,1.61,0,0,1,1.61-1.61h65.63m0-1.43H78.11a3,3,0,1,0,0,6.08h65.63a3,3,0,0,0,0-6.08Z"/><path class="cls-7" d="M145.23,54.71a1.6,1.6,0,0,1-1.49,1H78.11a1.6,1.6,0,0,1-1.49-1,1.6,1.6,0,0,1,1.49-1h65.63A1.6,1.6,0,0,1,145.23,54.71Z"/><path class="cls-3" d="M74.87,51.19a3.55,3.55,0,0,1-3.54-3.55V45a3.55,3.55,0,0,1,3.54-3.55H147A3.55,3.55,0,0,1,150.52,45v2.64A3.55,3.55,0,0,1,147,51.19Z"/><path d="M147,42.17A2.83,2.83,0,0,1,149.8,45v2.64A2.83,2.83,0,0,1,147,50.47H74.87a2.83,2.83,0,0,1-2.82-2.83V45a2.83,2.83,0,0,1,2.82-2.83H147m0-1.44H74.87A4.26,4.26,0,0,0,70.62,45v2.64a4.26,4.26,0,0,0,4.25,4.27H147a4.26,4.26,0,0,0,4.25-4.27V45A4.27,4.27,0,0,0,147,40.73Z"/><path class="cls-7" d="M78.11,52.5H92.73v3.21H78.11a1.61,1.61,0,1,1,0-3.21Z"/><path class="cls-7" d="M92.75,42.17c0,2.26,0,5.35,0,8.3H74.87a2.83,2.83,0,0,1-2.82-2.83V45a2.83,2.83,0,0,1,2.82-2.83Z"/><path class="cls-8" d="M78.11,163.47a2.33,2.33,0,0,1,0-4.65h65.63a2.3,2.3,0,0,1,2.15,1.46,2.21,2.21,0,0,1,.17.87,2.32,2.32,0,0,1-2.32,2.32Z"/><path d="M143.74,159.54a1.6,1.6,0,0,1,1.49,1,1.57,1.57,0,0,1,.11.61,1.59,1.59,0,0,1-1.6,1.6H78.11a1.6,1.6,0,0,1-1.61-1.6,1.58,1.58,0,0,1,.12-.61,1.6,1.6,0,0,1,1.49-1h65.63m0-1.43H78.11a3,3,0,0,0-2.82,1.9,3,3,0,0,0-.22,1.14,3,3,0,0,0,3,3h65.63a3.05,3.05,0,0,0,3-3,3,3,0,0,0-.23-1.16,3,3,0,0,0-2.81-1.88Z"/><path class="cls-9" d="M145.23,160.54a1.6,1.6,0,0,0-1.49-1H78.11a1.09,1.09,0,1,0,0,2h65.63A1.59,1.59,0,0,0,145.23,160.54Z"/><path class="cls-9" d="M74.87,173.8a3.55,3.55,0,0,1-3.54-3.54v-2.65a3.55,3.55,0,0,1,3.54-3.55H147a3.55,3.55,0,0,1,3.54,3.55v2.65A3.55,3.55,0,0,1,147,173.8Z"/><path d="M147,164.78a2.83,2.83,0,0,1,2.82,2.83v2.65a2.83,2.83,0,0,1-2.82,2.83H74.87a2.83,2.83,0,0,1-2.82-2.83v-2.65a2.83,2.83,0,0,1,2.82-2.83H147m0-1.43H74.87a4.25,4.25,0,0,0-4.25,4.26v2.65a4.25,4.25,0,0,0,4.25,4.26H147a4.26,4.26,0,0,0,4.25-4.26v-2.65a4.26,4.26,0,0,0-4.25-4.26Z"/><path class="cls-8" d="M78.11,162.75H92.73v-3.21H78.11a1.61,1.61,0,1,0,0,3.21Z"/><path class="cls-8" d="M92.75,173.09c0-2.27,0-5.36,0-8.31H74.87a2.83,2.83,0,0,0-2.82,2.83v2.65a2.83,2.83,0,0,0,2.82,2.83Z"/><path class="cls-15" d="M131.36,92.54c-.24.3-.48.59-.73.87"/><path class="cls-15" d="M135.44,82.92a21,21,0,0,1-2.57,7.41"/><path class="cls-15" d="M135.79,59.56v19c0,.16,0,.32,0,.47"/><path class="cls-11" d="M131.36,123.82c-.24-.3-.48-.59-.73-.87"/><path class="cls-11" d="M135.44,133.43a20.9,20.9,0,0,0-2.57-7.4"/><path class="cls-11" d="M135.79,151.93V137.78c0-.17,0-.32,0-.48"/></g><line class="cls-16" x1="78.6" y1="156.97" x2="82.38" y2="156.97"/><text class="cls-17" transform="translate(73.41 157.94)">0</text><line class="cls-16" x1="77.72" y1="58.93" x2="81.51" y2="58.93"/><text class="cls-17" transform="translate(73.53 63.44)">5</text><line class="cls-16" x1="102.22" y1="108.43" x2="106.01" y2="108.43"/><text class="cls-17" transform="translate(91.49 110.63)">2.5</text></g></g></svg>