<svg xmlns="http://www.w3.org/2000/svg" xmlns:xlink="http://www.w3.org/1999/xlink" viewBox="0 0 216 216"><defs><style>.cls-1,.cls-15,.cls-16,.cls-19,.cls-20,.cls-8{fill:none;}.cls-2{fill:#fff;}.cls-3{clip-path:url(#clip-path);}.cls-10,.cls-4{fill:#f28cc9;}.cls-4,.cls-5,.cls-6{fill-rule:evenodd;}.cls-11,.cls-5{fill:#c26fa0;}.cls-13,.cls-6{fill:#ff4040;}.cls-7{fill:#0a0a0a;}.cls-15,.cls-20,.cls-8{stroke:#0a0a0a;}.cls-15,.cls-16,.cls-20,.cls-8{stroke-miterlimit:10;}.cls-8{stroke-width:2.43px;}.cls-9{fill:#7dc142;}.cls-12{fill:#f1c40f;}.cls-14{fill:#e0e0e0;}.cls-15,.cls-16,.cls-19,.cls-20{stroke-linecap:round;}.cls-15{stroke-width:1.41px;}.cls-16{stroke:#d6d6d6;stroke-width:1.4px;}.cls-17{fill:#d6d6d6;}.cls-18{fill:#ab7a5e;}.cls-19{stroke:#f4eeeb;stroke-linejoin:round;stroke-width:2.39px;}.cls-21{font-size:7.98px;font-family:MyDearWatson-Regular, My Dear Watson;}</style><clipPath id="clip-path"><rect id="fill-mask" class="cls-1" x="-57.34" y="23.05" width="112.21" height="127.05"/></clipPath></defs><g id="sticker"><path class="cls-2" d="M57.52,81.49v61.77a14.79,14.79,0,0,0,.95,5.25,15,15,0,0,0,14,9.74h12.4v.5a14.38,14.38,0,0,0-3.47,6.61,35.84,35.84,0,0,0-.67,8.67v.46c0,14.52,7.26,19.67,13.49,19.67a11.52,11.52,0,0,0,4.72-1,17.53,17.53,0,0,0,20.41,4.59c2.67,5.13,7,7.18,10.92,7.18,6.22,0,13.49-5.16,13.49-19.68a40.64,40.64,0,0,0-.64-8.86,14.62,14.62,0,0,0-3.77-7.08v-11H149a15,15,0,0,0,15-15V81.49A14,14,0,0,0,177.3,67.54V64.68a14,14,0,0,0-14-14h-.14l-6,.06L119.82,19a14,14,0,0,0-18.11,0L64.29,50.77l-6-.06H58.2a14,14,0,0,0-14,14v2.86A14,14,0,0,0,57.52,81.49Z"/><g class="cls-3"><path class="cls-4" d="M153.26,71.31v72.18a4.56,4.56,0,0,1-4.57,4.56H72.21a4.57,4.57,0,0,1-4.29-3,4.38,4.38,0,0,1-.28-1.58V71.31h5.58l37.06-31.78L147.5,71.31Z"/><path class="cls-5" d="M71.86,73.58l-3.62,71.25a4.29,4.29,0,0,1-.29-1.57V73.58Z"/><path class="cls-5" d="M153.58,71.07v6.24h-4.45a3.56,3.56,0,0,1-2.31-.85l-33.92-29a3.53,3.53,0,0,0-4.61,0l-33.76,29a3.47,3.47,0,0,1-2.3.86H68V71.07h5.59L110.59,39.3l37.22,31.77Z"/><path class="cls-6" d="M166.87,61.68v2.86a3.55,3.55,0,0,1-3.54,3.54H149.12a3.53,3.53,0,0,1-2.3-.85l-33.93-29a3.53,3.53,0,0,0-4.6,0l-33.76,29a3.53,3.53,0,0,1-2.3.85h-14a3.55,3.55,0,0,1-3.54-3.54V61.68a3.54,3.54,0,0,1,3.58-3.54l9.71.1h.14L108.47,23.9a3.53,3.53,0,0,1,4.59,0l40.38,34.34h.14l9.71-.1A3.54,3.54,0,0,1,166.87,61.68Z"/></g><path class="cls-7" d="M110.59,39.3l37.22,31.77h5.77v72.19a4.56,4.56,0,0,1-4.57,4.56H72.52a4.54,4.54,0,0,1-4.28-3,4.29,4.29,0,0,1-.29-1.57V71.07h5.59L110.59,39.3m0-3.2L109,37.45,72.64,68.64H65.52v74.62a6.8,6.8,0,0,0,.44,2.43,7,7,0,0,0,6.56,4.56H149a7,7,0,0,0,7-7V68.64h-7.3L112.17,37.45l-1.58-1.35Z"/><line class="cls-8" x1="112.29" y1="148.76" x2="112.29" y2="173.6"/><line class="cls-8" x1="94.13" y1="148.76" x2="94.13" y2="165.25"/><path class="cls-9" d="M94.27,185c-2.94,0-4.28-5.42-4.28-10.46V174a29.76,29.76,0,0,1,.42-6.51c.69-2.88,2.48-3.49,3.86-3.49,4.27,0,4.27,5.08,4.27,10.46C98.54,179.53,97.2,185,94.27,185Z"/><path class="cls-7" d="M94.27,165.25c3.06,0,3.06,4.14,3.06,9.24s-1.37,9.24-3.06,9.24-3.06-4.14-3.06-9.24-.1-9.24,3.06-9.24m0-2.43c-1.49,0-4.12.57-5,4.41a30.88,30.88,0,0,0-.44,6.8v.46c0,5.38,1.43,11.67,5.49,11.67s5.49-6.29,5.49-11.67a33.92,33.92,0,0,0-.45-7.08c-.91-4-3.55-4.59-5-4.59Z"/><line class="cls-8" x1="130.19" y1="148.76" x2="130.19" y2="175.99"/><path class="cls-10" d="M130.32,195.69c-2.94,0-4.27-5.42-4.27-10.46v-.46a29.88,29.88,0,0,1,.41-6.51c.69-2.88,2.48-3.48,3.86-3.48,4.27,0,4.27,5.08,4.27,10.45C134.59,190.27,133.26,195.69,130.32,195.69Z"/><path class="cls-7" d="M130.32,176c3.06,0,3.06,4.14,3.06,9.24s-1.37,9.24-3.06,9.24-3.06-4.13-3.06-9.24-.1-9.24,3.06-9.24m0-2.43c-1.48,0-4.12.57-5,4.42a30.72,30.72,0,0,0-.45,6.79v.46c0,5.39,1.44,11.68,5.49,11.68s5.49-6.29,5.49-11.68a34.57,34.57,0,0,0-.44-7.07c-.92-4-3.56-4.6-5.05-4.6Z"/><circle class="cls-11" cx="107.92" cy="105.97" r="25.93"/><path class="cls-12" d="M112.29,190a8.38,8.38,0,1,1,8.38-8.37A8.39,8.39,0,0,1,112.29,190Z"/><path class="cls-7" d="M112.29,174.49a7.16,7.16,0,1,1-7.15,7.16,7.15,7.15,0,0,1,7.15-7.16m0-2.43a9.59,9.59,0,1,0,9.59,9.59,9.6,9.6,0,0,0-9.59-9.59Z"/><path class="cls-13" d="M110.42,130.34a26.88,26.88,0,1,1,26.89-26.88A26.91,26.91,0,0,1,110.42,130.34Z"/><path class="cls-7" d="M110.42,77.53A25.93,25.93,0,1,1,84.5,103.46a25.93,25.93,0,0,1,25.92-25.93m0-1.91a27.84,27.84,0,1,0,27.84,27.84,27.86,27.86,0,0,0-27.84-27.84Z"/><path class="cls-14" d="M110.42,123.82a20.37,20.37,0,1,1,13.28-4.93A20.38,20.38,0,0,1,110.42,123.82Z"/><path class="cls-7" d="M110.42,83.8a19.67,19.67,0,1,1-14.88,6.83,19.66,19.66,0,0,1,14.88-6.83m0-1.4a21.06,21.06,0,1,0,21.06,21.06A21,21,0,0,0,110.42,82.4Z"/><path class="cls-2" d="M128,105.5a19.49,19.49,0,0,1-4.79,12.85,19.65,19.65,0,0,1-27.7-27.72A19.65,19.65,0,0,1,128,105.5Z"/><line class="cls-15" x1="110.63" y1="119.56" x2="110.63" y2="123.11"/><line class="cls-15" x1="118.65" y1="117.3" x2="120.43" y2="120.38"/><line class="cls-15" x1="124.47" y1="111.33" x2="127.55" y2="113.11"/><line class="cls-15" x1="126.52" y1="103.25" x2="130.08" y2="103.25"/><line class="cls-15" x1="124.26" y1="95.23" x2="127.34" y2="93.45"/><line class="cls-15" x1="118.29" y1="89.41" x2="120.07" y2="86.34"/><line class="cls-15" x1="110.21" y1="87.36" x2="110.21" y2="83.81"/><line class="cls-15" x1="102.19" y1="89.62" x2="100.42" y2="86.54"/><line class="cls-15" x1="96.38" y1="95.59" x2="93.3" y2="93.81"/><line class="cls-15" x1="94.33" y1="103.67" x2="90.77" y2="103.67"/><line class="cls-15" x1="96.59" y1="111.69" x2="93.51" y2="113.47"/><line class="cls-15" x1="102.56" y1="117.51" x2="100.78" y2="120.58"/><line class="cls-16" x1="109.43" y1="94.09" x2="109.4" y2="104.16"/><line class="cls-16" x1="109.4" y1="104.16" x2="119.18" y2="104.16"/><circle class="cls-17" cx="109.95" cy="104.16" r="2.51"/><line class="cls-15" x1="110.45" y1="93.07" x2="110.42" y2="103.46"/><line class="cls-15" x1="110.42" y1="103.46" x2="120.07" y2="103.46"/><circle class="cls-18" cx="110.42" cy="103.46" r="2.04"/><path class="cls-7" d="M110.42,101.89a1.57,1.57,0,1,1-1.57,1.57,1.57,1.57,0,0,1,1.57-1.57m0-.94a2.51,2.51,0,1,0,2.51,2.51,2.51,2.51,0,0,0-2.51-2.51Z"/><line class="cls-19" x1="150.34" y1="81.04" x2="150.34" y2="103.11"/><line class="cls-19" x1="150.34" y1="107.5" x2="150.34" y2="112.22"/><line class="cls-19" x1="150.34" y1="117.4" x2="150.34" y2="118.74"/><path class="cls-7" d="M110.77,23.05a3.5,3.5,0,0,1,2.29.85l40.38,34.34h.14l9.71-.1h0a3.55,3.55,0,0,1,3.54,3.54v2.86a3.55,3.55,0,0,1-3.54,3.54H149.12a3.53,3.53,0,0,1-2.3-.85l-33.93-29a3.56,3.56,0,0,0-2.3-.85,3.52,3.52,0,0,0-2.3.86l-33.76,29a3.53,3.53,0,0,1-2.3.85h-14a3.55,3.55,0,0,1-3.54-3.54V61.68a3.55,3.55,0,0,1,3.54-3.54h0l9.71.1h.14L108.47,23.9a3.51,3.51,0,0,1,2.3-.85m0-2.43A6,6,0,0,0,106.89,22L67.2,55.8l-8.94-.09H58.2a6,6,0,0,0-6,6v2.86a6,6,0,0,0,6,6h14a6,6,0,0,0,3.89-1.44l33.75-28.95a1.14,1.14,0,0,1,1.45,0l33.92,29a6,6,0,0,0,3.88,1.43h14.21a6,6,0,0,0,6-6V61.68a6,6,0,0,0-6-6h-.06l-8.94.09L114.64,22a6,6,0,0,0-3.87-1.42Z"/><line class="cls-20" x1="58.21" y1="64.02" x2="58.21" y2="68.25"/><line class="cls-20" x1="110.44" y1="23.05" x2="110.44" y2="27.28"/><text class="cls-21" transform="translate(56.26 77.06)">0</text><text class="cls-21" transform="translate(102.25 18.62)">2500</text><line class="cls-20" x1="161.19" y1="64.71" x2="161.19" y2="68.93"/><text class="cls-21" transform="translate(158.86 76.95)">5</text></g></svg>