<svg xmlns="http://www.w3.org/2000/svg" viewBox="0 0 216 216">
    <defs>
        <style>.cls-1{isolation:isolate;}.cls-13,.cls-2,.cls-8,.cls-9{fill:#fff;}.cls-3{fill:#4f4f4f;}.cls-4{font-size:23px;fill:#f28cc9;stroke:#f28cc9;stroke-width:0.65px;}.cls-17,.cls-4,.cls-5,.cls-9{stroke-linecap:round;stroke-linejoin:round;}.cls-11,.cls-4,.cls-5{font-family:MyDearWatson-Regular, My Dear Watson;}.cls-5{font-size:14px;fill:#7d141c;stroke:#7d141c;stroke-width:0.5px;}.cls-6,.cls-7{fill:#b760c2;}.cls-13,.cls-6,.cls-7,.cls-8,.cls-9{stroke:#000;}.cls-11,.cls-13,.cls-6,.cls-7,.cls-8{stroke-miterlimit:10;}.cls-7{stroke-width:1.07px;}.cls-8{stroke-width:0.75px;}.cls-9{stroke-width:0.25px;}.cls-10,.cls-11{fill:#ff6363;}.cls-11{font-size:15px;stroke:#ff6363;stroke-width:0.5px;}.cls-12,.cls-16{fill:silver;}.cls-13,.cls-17{stroke-width:1.17px;}.cls-14{fill:#8a8a8a;}.cls-15{fill:#e8e8e8;}.cls-16{mix-blend-mode:multiply;}.cls-17{fill:none;stroke:#fff;}</style>
    </defs>
    <g class="cls-1">
        <g id="sticker">
            <rect class="cls-3" x="130.31" y="100.61" width="46.15" height="5.75" />
            <path d="M175.9,101.17v4.64h-45v-4.64h45m1.11-1.11H129.76v6.86H177v-6.86Z" />
            <rect class="cls-3" x="130.31" y="146.54" width="46.15" height="5.75" />
            <path d="M175.9,147.09v4.65h-45v-4.65h45M177,146H129.76v6.87H177V146Z" />
            <text class="cls-4" transform="translate(26.35 99.1)">
                2 hours,
                <tspan x="0" y="20">42 minutes</tspan>
            </text>
            <text class="cls-5" transform="translate(36.11 135.75)">
                1 minute
                <tspan x="0" y="14">per pound</tspan>
                <tspan x="0" y="28">of a keg</tspan>
            </text>
            <rect class="cls-6" x="110.78" y="143.04" width="3.7" height="16.31" />
            <rect class="cls-7" x="106.8" y="158.48" width="82.54" height="8.02" rx="2.08" />
            <circle class="cls-6" cx="112.11" cy="136.3" r="7.02" />
            <circle class="cls-8" cx="112.11" cy="136.3" r="4.98" />
            <line class="cls-9" x1="112.11" y1="132.35" x2="112.11" y2="133.25" />
            <line class="cls-9" x1="110.76" y1="132.59" x2="111.07" y2="133.44" />
            <line class="cls-9" x1="109.58" y1="133.27" x2="110.16" y2="133.97" />
            <line class="cls-9" x1="108.7" y1="134.32" x2="109.48" y2="134.77" />
            <line class="cls-9" x1="108.23" y1="135.61" x2="109.12" y2="135.77" />
            <line class="cls-9" x1="108.23" y1="136.98" x2="109.12" y2="136.82" />
            <line class="cls-9" x1="108.7" y1="138.27" x2="109.48" y2="137.82" />
            <line class="cls-9" x1="109.58" y1="139.32" x2="110.16" y2="138.63" />
            <line class="cls-9" x1="110.76" y1="140" x2="111.07" y2="139.15" />
            <line class="cls-9" x1="112.11" y1="140.24" x2="112.11" y2="139.34" />
            <line class="cls-9" x1="113.46" y1="140" x2="113.16" y2="139.15" />
            <line class="cls-9" x1="114.65" y1="139.32" x2="114.07" y2="138.63" />
            <line class="cls-9" x1="115.53" y1="138.27" x2="114.75" y2="137.82" />
            <line class="cls-9" x1="116" y1="136.98" x2="115.11" y2="136.82" />
            <line class="cls-9" x1="116" y1="135.61" x2="115.11" y2="135.77" />
            <line class="cls-9" x1="115.53" y1="134.32" x2="114.75" y2="134.77" />
            <line class="cls-9" x1="114.65" y1="133.27" x2="114.07" y2="133.97" />
            <line class="cls-9" x1="113.46" y1="132.59" x2="113.16" y2="133.44" />
            <polygon points="111.89 136 114.07 134.78 112.34 136.59 111.89 136" />
            <circle class="cls-10" cx="112.11" cy="136.3" r="0.69" />
            <text class="cls-11" transform="translate(131.53 84.56)">~160 lbs</text>
            <path class="cls-12" d="M131.63,103.19a3,3,0,0,1-3-3V94.22a3,3,0,0,1,3-3h43.49a3,3,0,0,1,3,3v5.94a3,3,0,0,1-3,3Z" />
            <path d="M175.13,91.73a2.48,2.48,0,0,1,2.48,2.49v5.94a2.47,2.47,0,0,1-1.71,2.35,2.42,2.42,0,0,1-.76.12H131.63a2.42,2.42,0,0,1-.76-.12,2.47,2.47,0,0,1-1.71-2.35V94.22a2.48,2.48,0,0,1,2.48-2.49h43.49m0-1.11H131.64a3.6,3.6,0,0,0-3.59,3.6v5.94a3.59,3.59,0,0,0,3.58,3.58h43.51a3.77,3.77,0,0,0,1.1-.17,3.58,3.58,0,0,0,2.48-3.41V94.22a3.6,3.6,0,0,0-3.59-3.6Z" />
            <path class="cls-12" d="M131.63,158a3,3,0,0,1-3-3v-1.7a3,3,0,0,1,2.09-2.81,3,3,0,0,1,.94-.15h43.49a3,3,0,0,1,.94.15,3,3,0,0,1,2.09,2.81V155a3,3,0,0,1-3,3Z" />
            <path d="M175.13,150.89a2.49,2.49,0,0,1,.77.13,2.43,2.43,0,0,1,1.71,2.29V155a2.44,2.44,0,0,1-2.47,2.4H131.63a2.44,2.44,0,0,1-2.47-2.4v-1.7a2.43,2.43,0,0,1,1.71-2.29,2.49,2.49,0,0,1,.77-.13h43.49m0-1.09H131.64a3.83,3.83,0,0,0-1.11.17,3.54,3.54,0,0,0-2.46,3.34V155a3.53,3.53,0,0,0,3.56,3.5h43.51a3.54,3.54,0,0,0,3.56-3.5v-1.7a3.54,3.54,0,0,0-2.47-3.34,3.77,3.77,0,0,0-1.1-.17Z" />
            <path class="cls-12" d="M131.63,148.54a3,3,0,0,1-.93-.15,2.94,2.94,0,0,1-2.09-2.81V143.9a1.41,1.41,0,0,1,0-.28h0a.36.36,0,0,1,0-.18v-35.9a2.94,2.94,0,0,1,2.09-2.81,3,3,0,0,1,.94-.15h43.49a3,3,0,0,1,.94.15,2.94,2.94,0,0,1,2.09,2.81v35.9a.5.5,0,0,1,0,.19,1.57,1.57,0,0,1,0,.27v1.68a2.94,2.94,0,0,1-2.09,2.81,3,3,0,0,1-.93.15Z" />
            <path d="M175.13,105.13a2.48,2.48,0,0,1,.77.12,2.42,2.42,0,0,1,1.71,2.29v35.9a.9.9,0,0,1,0,.16c0,.1,0,.2,0,.3v1.68a2.47,2.47,0,0,1-2.47,2.41H131.63a2.47,2.47,0,0,1-2.47-2.41V143.9c0-.1,0-.2,0-.3a.9.9,0,0,1,0-.16v-35.9a2.42,2.42,0,0,1,1.71-2.29,2.48,2.48,0,0,1,.77-.12h43.49m0-1.1H131.64a3.53,3.53,0,0,0-1.11.18,3.48,3.48,0,0,0-2.46,3.33v35.9a1.34,1.34,0,0,0,0,.21,2.09,2.09,0,0,0,0,.25v1.68a3.48,3.48,0,0,0,2.47,3.33,3.44,3.44,0,0,0,1.09.17h43.51a3.44,3.44,0,0,0,1.09-.17,3.48,3.48,0,0,0,2.47-3.33V143.9a2.09,2.09,0,0,0,0-.25,1.34,1.34,0,0,0,0-.21v-35.9a3.5,3.5,0,0,0-2.47-3.34,3.72,3.72,0,0,0-1.1-.17Z" />
            <path class="cls-12" d="M147.79,100.19a2.83,2.83,0,0,1-2.73-2.11l0-.1a2.85,2.85,0,0,1-.07-.61,2.81,2.81,0,0,1,.83-2,2.78,2.78,0,0,1,2-.82H158.9a2.82,2.82,0,0,1,2.81,2.83,2.55,2.55,0,0,1-.07.59,1.3,1.3,0,0,1,0,.15,2.94,2.94,0,0,1-.72,1.24,2.81,2.81,0,0,1-2,.84Z" />
            <path d="M158.9,95.05a2.3,2.3,0,0,1,2.3,2.32,2.52,2.52,0,0,1,0,.48.54.54,0,0,0,0,.1,2.34,2.34,0,0,1-2.22,1.73H147.79A2.31,2.31,0,0,1,145.56,98a.54.54,0,0,0,0-.1,2.52,2.52,0,0,1-.05-.48,2.3,2.3,0,0,1,2.31-2.32H158.9m0-1H147.79a3.33,3.33,0,0,0-3.33,3.34,3.58,3.58,0,0,0,.08.7v.05l0,.11a3.32,3.32,0,0,0,3.21,2.47H158.9a3.35,3.35,0,0,0,2.35-1,3.42,3.42,0,0,0,.86-1.5s0-.07,0-.1v-.05a3.58,3.58,0,0,0,.08-.7A3.34,3.34,0,0,0,158.9,94Z" />
            <path class="cls-13" d="M161.15,98a.61.61,0,0,0,0,.11,2.59,2.59,0,0,1-.6,1.15,2.17,2.17,0,0,1-1.62.76H147.79a2.37,2.37,0,0,1-2.23-1.91.61.61,0,0,0,0-.11,2.71,2.71,0,0,1,.63-1.24,2.19,2.19,0,0,1,1.63-.74H158.9A2.39,2.39,0,0,1,161.15,98Z" />
            <rect class="cls-14" x="129.16" y="116.39" width="48.45" height="2.38" />
            <rect class="cls-14" x="129.16" y="139.83" width="48.45" height="3.18" />
            <path class="cls-15" d="M128.23,117.51a2.14,2.14,0,0,1-2-1.44,2.22,2.22,0,0,1-.12-.69,2.14,2.14,0,0,1,2.14-2.14h50.31a2.14,2.14,0,0,1,0,4.27Z" />
            <path d="M178.54,113.79a1.59,1.59,0,0,1,1.59,1.59,1.65,1.65,0,0,1-.09.51,1.59,1.59,0,0,1-1.5,1.08H128.23a1.59,1.59,0,0,1-1.5-1.08,1.65,1.65,0,0,1-.09-.51,1.59,1.59,0,0,1,1.59-1.59h50.31m0-1.1H128.23a2.69,2.69,0,0,0-2.68,2.69,2.62,2.62,0,0,0,.15.88,2.67,2.67,0,0,0,2.53,1.8h50.31a2.66,2.66,0,0,0,2.53-1.82,2.43,2.43,0,0,0,.15-.86,2.69,2.69,0,0,0-2.68-2.69Z" />
            <path class="cls-12" d="M180,115.89a1.59,1.59,0,0,1-1.5,1.08H128.23a1.15,1.15,0,1,1,0-2.18h50.31A1.59,1.59,0,0,1,180,115.89Z" />
            <path class="cls-15" d="M128.23,141.66a2.14,2.14,0,0,1-2-1.44,2.33,2.33,0,0,1-.12-.69,2.14,2.14,0,0,1,2.14-2.14h50.31a2.13,2.13,0,0,1,2.13,2.14,2,2,0,0,1-.12.69,2.12,2.12,0,0,1-2,1.44Z" />
            <path d="M178.54,137.93a1.59,1.59,0,0,1,1.59,1.6,1.65,1.65,0,0,1-.09.51,1.59,1.59,0,0,1-1.5,1.08H128.23a1.59,1.59,0,0,1-1.5-1.08,1.65,1.65,0,0,1-.09-.51,1.59,1.59,0,0,1,1.59-1.6h50.31m0-1.09H128.23a2.69,2.69,0,0,0-2.68,2.69,2.62,2.62,0,0,0,.15.88,2.67,2.67,0,0,0,2.53,1.8h50.31a2.66,2.66,0,0,0,2.53-1.82,2.43,2.43,0,0,0,.15-.86,2.69,2.69,0,0,0-2.68-2.69Z" />
            <path class="cls-12" d="M180,140a1.59,1.59,0,0,1-1.5,1.08H128.23a1.15,1.15,0,1,1,0-2.18h50.31A1.59,1.59,0,0,1,180,140Z" />
            <path class="cls-16" d="M147.22,157.41H131.63a2.44,2.44,0,0,1-2.47-2.4v-1.7a2.43,2.43,0,0,1,1.71-2.29v-3.15a2.42,2.42,0,0,1-1.71-2.29V143.9c0-.1,0-.2,0-.3a.9.9,0,0,1,0-.16v-2.32h-.93a1.59,1.59,0,0,1-1.5-1.08,1.65,1.65,0,0,1-.09-.51,1.59,1.59,0,0,1,1.59-1.6h.93V117h-.93a1.59,1.59,0,0,1-1.5-1.08,1.65,1.65,0,0,1-.09-.51,1.59,1.59,0,0,1,1.59-1.59h.93v-6.25a2.42,2.42,0,0,1,1.71-2.29v-2.74a2.47,2.47,0,0,1-1.71-2.35V94.22a2.48,2.48,0,0,1,2.48-2.49h5.68c-.22,2.21-.51,5.48-.72,9.44,0,.47,0,1-.07,1.46,0,.81-.08,1.64-.11,2.5,0,.22,0,.45,0,.68-.09,2.51-.12,5.18-.09,8,0,.33,0,.66,0,1,0,.54,0,1.07,0,1.6,0,.2,0,.39,0,.58,0,.6,0,1.21.05,1.8a115.71,115.71,0,0,0,2.23,19.16c.07.35.15.68.22,1s.14.6.2.89.21.86.32,1.29q.26,1,.54,1.89c.4,1.41.85,2.76,1.35,4.08.11.3.23.6.35.9.4,1,.84,2,1.3,2.9.13.29.28.57.43.85A28.77,28.77,0,0,0,147.22,157.41Z" />
            <line class="cls-17" x1="174.81" y1="132.32" x2="174.81" y2="135.22" />
            <line class="cls-17" x1="174.81" y1="119.98" x2="174.81" y2="129.58" />
            <line class="cls-17" x1="174.81" y1="108.21" x2="174.81" y2="111.11" />
            <line class="cls-17" x1="174.81" y1="95.05" x2="174.81" y2="97.95" />
            <line class="cls-17" x1="174.81" y1="152.71" x2="174.81" y2="155.6" />
            <line class="cls-17" x1="174.81" y1="100.06" x2="174.81" y2="100.55" />
        </g>
    </g>
</svg>