<svg xmlns="http://www.w3.org/2000/svg" viewBox="0 0 216 216"><defs><style>.cls-1{fill:#fff;}.cls-2{fill:#ff6363;stroke:#ff6363;stroke-width:0.81px;}.cls-10,.cls-2,.cls-3{stroke-miterlimit:10;}.cls-3{fill:#24bcff;stroke:#24bcff;stroke-width:0.5px;}.cls-4{fill:#666;}.cls-5{fill:#424242;}.cls-6{fill:#888;}.cls-7{fill:#444;}.cls-8{fill:#d1d1d1;}.cls-9{fill:#e6e6e6;}.cls-10{stroke:#000;stroke-width:0.53px;}</style></defs><g id="cutlines"><path class="cls-1" d="M196.25,107.34a8.44,8.44,0,0,0-4.11,1.08l-.15-.06a27,27,0,0,0-.94-3c-3.27-8.45-9-12.57-17.38-12.57-1.38,0-2.74.1-4.06.19l-2.37.14h-.3l-.3-.42a18,18,0,0,0-4.57-5,16.34,16.34,0,0,0-2.82-1.6c2.93-4.43,3.53-9.88,3.29-13.79a10.13,10.13,0,0,0,2.58-.32,6.85,6.85,0,0,0,1.37.13h1a20.94,20.94,0,0,0,4-.32,12.85,12.85,0,0,0,2.35-.73,13,13,0,0,0,1.45.71,10.3,10.3,0,0,0,8.54-.49,11.39,11.39,0,0,0,5.8-7.87,9.66,9.66,0,0,0-1.29-7c0-.06,0-.11,0-.16a7.73,7.73,0,0,0-2.27-5.44A10.49,10.49,0,0,0,178.35,48a11.42,11.42,0,0,0-4.16.74,2.18,2.18,0,0,0-.09-.23l-.12-.34-.16-.32a7.63,7.63,0,0,0-4.75-3.94,9.21,9.21,0,0,0-2.61-.38,9.11,9.11,0,0,0-1.88.22,9.8,9.8,0,0,0-2.25-.26,9.65,9.65,0,0,0-4.45,1.08l-1.84.93a12,12,0,0,0-5.25-1.21h-.31a11.45,11.45,0,0,0-5,1.36,11.92,11.92,0,0,0-5.54-1.37h-.31a11.34,11.34,0,0,0-5.93,1.88A10.63,10.63,0,0,0,129,44.34l-.44-.06h-.45a9.63,9.63,0,0,0-6.21,2.4l-1.38-1a8.35,8.35,0,0,0-4.94-1.43,13,13,0,0,0-2.65.27,10.06,10.06,0,0,0-1.94-.18,9.91,9.91,0,0,0-5,1.25l-2.18,1.31a3,3,0,0,0-1.43,2.54h0a10.68,10.68,0,0,0-1.86.62l-.76.34L98.26,51.5l-.53.64c-2.57,3.08-1.94,7.39-1,9.38l1.66,3.32a9.75,9.75,0,0,0-2.86,5.33c-.42,2-1.32,9.17,4.67,17a34,34,0,0,0,2.57,3,3.88,3.88,0,0,1-.69.88c-3.46,3.62-5.35,9.15-5.18,15.17a25.63,25.63,0,0,0,.23,2.64,10.08,10.08,0,0,0-2.81.44,10,10,0,0,0-2.19-.24,10.16,10.16,0,0,0-3.14.5c-.25-.09-.5-.17-.76-.24a13.93,13.93,0,0,0,5.43-8.45,11,11,0,0,0-2-8.73L91.58,92a9.92,9.92,0,0,0,.1-1.31,7.94,7.94,0,0,0-2.35-5.62,10.93,10.93,0,0,0-3.91-2.48,12.12,12.12,0,0,0,3.87-4.28l.09-.17a13.92,13.92,0,0,0,.75-10.55A14.29,14.29,0,0,0,88.57,55l-.11-.16a12.17,12.17,0,0,0-7.13-4.74,14.27,14.27,0,0,0-3.46-.43,13.13,13.13,0,0,0-5.5,1.17,10.93,10.93,0,0,0-1.68.93q-.75-.47-1.56-.87L69,50.87a12,12,0,0,0-5.16-1.18,12.56,12.56,0,0,0-3.8.61l-.38.14L57,49.92a11.09,11.09,0,0,0-2.44-.21c-.1,0-9.41,0-13.42,1.2l0,0-1.6.54c-2-1.43-4.33-1.72-8-1.72,0,0-1.53,0-2.13.05l-1.22.09a24.86,24.86,0,0,0-6.7,1.05h0A7.58,7.58,0,0,0,17,55.29h0a12.2,12.2,0,0,0-.63,4.63V60c0,1.88.05,5.8.13,7.17a8,8,0,0,0,1.9,4.92,15.56,15.56,0,0,0,1.53,1.67,10.44,10.44,0,0,0,1.38,6.61,8.14,8.14,0,0,0,2.11,2.27A11.15,11.15,0,0,0,19.73,85a12.14,12.14,0,0,0-3.4,6.74,10.85,10.85,0,0,0,.52,6.06v2a9.56,9.56,0,0,0,1,4.13,15.24,15.24,0,0,0,2.73,3.76,7.7,7.7,0,0,0-1.09.51h0a7.46,7.46,0,0,0-3.75,5.28h0c-.28,1.71,0,9,.09,10.36,0,.45.08,2,.14,2.76l.28,4,.63.36a7.8,7.8,0,0,0-.73,3.43c0,.63.46,6,.67,7.63s.27,2.71.32,3.3l-.74.43.08,4.4c0,.69.08,1.59.14,2.18v.12l.11.71v.1l.29,2.42c.09.75.18,1.5.28,2.31l0,.17a9.88,9.88,0,0,0,.59,2.56l.1.25.18.4.1.18a7.51,7.51,0,0,0,6.56,4H25a11.34,11.34,0,0,0,4.33-.83l.25-.11.24-.12h0l.39.18a8.43,8.43,0,0,0,3.68.76,9.58,9.58,0,0,0,2.91-.44,9.25,9.25,0,0,0,2,.21,11.14,11.14,0,0,0,1.69-.14,8.27,8.27,0,0,0,3.82-.07l.43,0c.27,0,.64,0,1,0a14.08,14.08,0,0,0,2-.11l.51-.07.47.09a12.83,12.83,0,0,0,2,.16,11.39,11.39,0,0,0,2.18-.2l.24,0,.23-.07a6.13,6.13,0,0,0,.72-.25,10.41,10.41,0,0,0,2.48.32,9.87,9.87,0,0,0,1-.05,9.66,9.66,0,0,0,3.24-.94h0a11.53,11.53,0,0,0,4,.7,10.54,10.54,0,0,0,3.73-.67,10.51,10.51,0,0,0,2.51.56,8.94,8.94,0,0,0,1,.06,10.48,10.48,0,0,0,2.9-.42,7.35,7.35,0,0,0,1.93.32h.32a11.23,11.23,0,0,0,4.34-.83l.25-.1.23-.13a7.72,7.72,0,0,0,.91-.57,11,11,0,0,0,5.24,1.39,9.87,9.87,0,0,0,1,0,9.64,9.64,0,0,0,2.8-.73,5.31,5.31,0,0,0,.55.23,9.92,9.92,0,0,0,8.2-.64,10.87,10.87,0,0,0,5.39-7.63,9.38,9.38,0,0,0-1.24-6.51,7.6,7.6,0,0,0-2.36-5.24,9,9,0,0,0-3.22-2c0-.17.08-.33.1-.5l0-.29c.08-1,.11-3,.15-5.81,0,0,0-1.29,0-1.54l.13-1.72a9,9,0,0,0,2-.6l.27-.11.25-.14a7.5,7.5,0,0,0,3.65-4.36l.38-.15a7.47,7.47,0,0,0,.75-.37,32.67,32.67,0,0,0,3.39,9.77l.33.59c.44,11.13.89,12.67,1.15,13.51.63,2.15,3.09,7.15,12.09,7.15a13.33,13.33,0,0,0,5.43-1,11.65,11.65,0,0,0,7.21,2.12c1.77,0,6.21-.25,9.23-2.65a10.1,10.1,0,0,0,3.43-5.8c1.22-.15,2.55-.37,4-.68a8.39,8.39,0,0,0,.89,2.06c1.34,2.24,4.25,4.92,10.53,4.92a15.07,15.07,0,0,0,5.55-.94,12.65,12.65,0,0,0,6.54,1.56,30.16,30.16,0,0,0,5.15-.5c6.74-1.25,7.66-7.83,8.73-15.46.11-.83.21-1.55.29-2l0-.18c.5-2.61,1.06-5.94,1.48-9.57,5.91,0,10-4.61,11.52-9.21l.12-.41.08-.38c.27-1.31,1.09-5.28-1.61-8.6A8.23,8.23,0,0,0,196.25,107.34Z"/></g><g id="sticker"><path class="cls-2" d="M29.31,77.05c-.4-.09-1.34-.27-1.56-.64a3.19,3.19,0,0,1,.06-3c1.1.15,2.05,1,3.18.85C34,74,35.3,69,33.77,66.61a1.9,1.9,0,0,0-2.69-.7,19.19,19.19,0,0,0-2.72,1.52c-.39.25-.79.52-1.19.8-.18.09-1,.73-1.25.61a5.84,5.84,0,0,1-1.74-1.62.47.47,0,0,1-.12-.34c-.06-.94-.16-5-.13-6.81a8.73,8.73,0,0,1,.13-2,31.35,31.35,0,0,1,6-.7c1.07-.06,4.77,0,5.13.28A2.73,2.73,0,0,1,35,60c-.88,0-2.81,0-3.42.09-1.53.12-3.42.09-4.92.34.15,1.1.25,3.11.31,4.64,0-.24,1.31-1,1.52-1.07a9.33,9.33,0,0,1,1.68-.76,6.22,6.22,0,0,1,3.52-.09,5.09,5.09,0,0,1,2.93,1.92,6.48,6.48,0,0,1,.79,4.15,12.91,12.91,0,0,1-1.58,5.23,5.26,5.26,0,0,1-4.37,2.87A7.92,7.92,0,0,1,29.31,77.05Z"/><path class="cls-2" d="M42.11,75.5c0,.27-.65,1.77-.86,2.35a5.16,5.16,0,0,1-.46,1,2.09,2.09,0,0,1-.79-.28,12.74,12.74,0,0,1,1.13-3.45A1.64,1.64,0,0,1,42.11,75.5Z"/><path class="cls-2" d="M49.86,77.15l-.09-.07v-.15c.06-.58.31-2.29.46-3.42l.12-1c.4-3,1.38-8.79,2-12-2.72.28-8.07.49-8.46.4l-.1,0-.06-.13a5.21,5.21,0,0,1-.15-2.47l0-.27.09,0c.34-.19,10.72-1,11.76-.71l.15,0v.13a7.87,7.87,0,0,1-.06,2.29l-.06.33c-.58,4.28-2.38,15.64-2.84,16.95l0,.1-.09,0a3.9,3.9,0,0,1-1.1.15A4.76,4.76,0,0,1,49.86,77.15Z"/><path class="cls-2" d="M60.74,75a.14.14,0,0,1,.15-.19A5,5,0,0,0,65,72.41c1.41-1.92,2.78-5.28,2.26-8.06-3,2.72-6.87,3.11-8.67-.37A3.69,3.69,0,0,1,59,60.19a6.31,6.31,0,0,1,3.4-2.65,4.37,4.37,0,0,1,3.35.21,7.38,7.38,0,0,1,4.16,5,13.1,13.1,0,0,1-3.54,12.92c-.71.73-2.39,1.68-3.55,1.37A4,4,0,0,1,60.74,75ZM65.9,62.24a3.09,3.09,0,0,0-1.07-1.92c-1.13-.74-3.06-.07-4,1.49a1.48,1.48,0,0,0,.88,2.35C63.61,64.59,65.9,62.24,65.9,62.24Z"/><path class="cls-2" d="M76,77.12a4,4,0,0,1-2.45-2A5.37,5.37,0,0,1,73,72.9c0-.12.12-.18.25-.24a9.45,9.45,0,0,1,1.31-.16H75a.5.5,0,0,1,.39.34c.37,1.31,1,2.78,2.57,2.56s2-1.92,2.11-2.9a6.32,6.32,0,0,0-.25-2.44,2.7,2.7,0,0,0-2.41-1.65,7.13,7.13,0,0,1-.73-.06l-.22,0a.27.27,0,0,1-.27-.28V66.55c.06-.22.3-.22.46-.22h0c3.11,0,3.45-2,3.45-2A6.57,6.57,0,0,0,80,61.84c-.22-1-1-2.62-2.48-2.62s-2,1.58-2.2,2.93a.54.54,0,0,1-.36.36,1.08,1.08,0,0,1-.34,0H74.6a4.92,4.92,0,0,1-1.31,0,.32.32,0,0,1-.28-.19,5.28,5.28,0,0,1,.28-2.29,3.78,3.78,0,0,1,2.17-2.29,6.23,6.23,0,0,1,4.06-.3,4.55,4.55,0,0,1,2.75,1.77,6.81,6.81,0,0,1,.58,6.11,3.85,3.85,0,0,1-1.25,1.83l-.16.12a3.66,3.66,0,0,1,.92,1.25,6.72,6.72,0,0,1,.21,6.14,4.78,4.78,0,0,1-2.47,2.14,7.2,7.2,0,0,1-2.51.49A5.94,5.94,0,0,1,76,77.12Z"/><path class="cls-2" d="M32.24,90.44a.37.37,0,0,1,.12.24,2.47,2.47,0,0,1-.45,1.41.44.44,0,0,1-.37.12c-.21-.06-.52-.15-.86-.27s-.55-.22-.79-.28a3.05,3.05,0,0,0-2.5.21A2.9,2.9,0,0,0,26.47,94a1.13,1.13,0,0,0,.43,1,2.49,2.49,0,0,0,1.65.27l.21,0a8.65,8.65,0,0,1,2.17-.09,4.51,4.51,0,0,1,3,1.68,3.27,3.27,0,0,1,.58,2.66,6,6,0,0,1-2.93,4.06,4.29,4.29,0,0,1-3.66.21,6.55,6.55,0,0,1-3.33-3.2,1.68,1.68,0,0,1-.16-.67v-.1l.06-.06a5.5,5.5,0,0,1,1.62-.52.34.34,0,0,1,.37.22A4.11,4.11,0,0,0,29,101.8a1.52,1.52,0,0,0,1.31-.15,3.38,3.38,0,0,0,1.53-3.09A1.59,1.59,0,0,0,31,97.4a2,2,0,0,0-.79-.18,5.41,5.41,0,0,0-1,0l-.34,0-.21,0a5.64,5.64,0,0,1-2.9-.24,3.62,3.62,0,0,1-2-3.82A5,5,0,0,1,25,90.47a4.88,4.88,0,0,1,3.52-1.1C29.62,89.37,31.26,89.46,32.24,90.44Z"/><path class="cls-2" d="M39.54,99.21c-.09-1.75-.18-4.43-.21-7.09-1.84,0-3.48,0-3.64-.06a3.6,3.6,0,0,1,0-2.14,35.87,35.87,0,0,1,3.64-.21c0-3.46,0-6.42,0-6.75a3.87,3.87,0,0,1,3.08-.16c.09.19.22,3.18.31,6.84a21.67,21.67,0,0,1,3.17.1,5.12,5.12,0,0,1,0,2.13c-.42,0-1.89.1-2.16.1l-.92.06c.12,5.1.18,10.6,0,11.51a5.41,5.41,0,0,1-3.06.09C39.66,102.72,39.57,99.75,39.54,99.21Z"/><path class="cls-2" d="M48.58,93.37c1.13-3.79,5-5.1,7.91-3a3.18,3.18,0,0,1,.64,4.18c-1.1,1.86-3.63,3-5.71,3.24a3.06,3.06,0,0,0,1,3,2.11,2.11,0,0,0,2.87.1c.73-.65,1.31-1.44,2.11-2.3a.52.52,0,0,1,.55-.12,2.51,2.51,0,0,1,1.56,1.65,20.53,20.53,0,0,1-2.72,2.51,5.44,5.44,0,0,1-3.7.94C48.06,103,47.51,97,48.58,93.37ZM55,94c.8-1,.68-1.49.4-2a1.54,1.54,0,0,0-1.53-.67c-1.4.39-2.23,2.32-2.35,4.15A5.18,5.18,0,0,0,55,94Z"/><path class="cls-2" d="M63,102c-.28-2.23-.83-11.94-.83-12.12,0-.4.43-.34.43-.34h1.56c.18,0,.24.09.24.25.09.82.31,2.59.46,3.69.4-.7,1-1.65,1.34-2.11,1.65-2.35,4-2.84,5.44-1.68A4.28,4.28,0,0,1,73,92.27a13.26,13.26,0,0,1,.25,3.33,9.82,9.82,0,0,1-.92,3.64A8.09,8.09,0,0,1,71.12,101a3.89,3.89,0,0,1-4.8.61,4.71,4.71,0,0,1-.85-.58l-.21-.13a76.37,76.37,0,0,1,.36,8.25,2.6,2.6,0,0,1-2.08.12C63.48,109,63.45,107.36,63,102Zm7.36-4c.88-2,1.13-5.13-.52-5.89-2.63-1.22-4.28,4.73-4.13,6.32C66.48,99.36,69.2,100.64,70.36,98Z"/><path class="cls-2" d="M84,90.44a.37.37,0,0,1,.12.24,2.4,2.4,0,0,1-.46,1.41.42.42,0,0,1-.37.12c-.21-.06-.52-.15-.85-.27s-.55-.22-.79-.28a3.08,3.08,0,0,0-2.51.21A2.9,2.9,0,0,0,78.17,94a1.16,1.16,0,0,0,.43,1,2.49,2.49,0,0,0,1.65.27l.21,0a8.68,8.68,0,0,1,2.17-.09,4.53,4.53,0,0,1,3,1.68,3.31,3.31,0,0,1,.58,2.66,6,6,0,0,1-2.93,4.06,4.31,4.31,0,0,1-3.67.21,6.55,6.55,0,0,1-3.33-3.2,1.85,1.85,0,0,1-.15-.67v-.1l.06-.06a5.32,5.32,0,0,1,1.62-.52.33.33,0,0,1,.36.22,4.11,4.11,0,0,0,2.54,2.44,1.51,1.51,0,0,0,1.31-.15,3.38,3.38,0,0,0,1.53-3.09,1.59,1.59,0,0,0-.89-1.16,2,2,0,0,0-.79-.18,5.46,5.46,0,0,0-1,0l-.33,0-.22,0a5.66,5.66,0,0,1-2.9-.24,3.6,3.6,0,0,1-2-3.82,4.06,4.06,0,0,1,4.73-3.88C81.32,89.37,83,89.46,84,90.44Z"/><path class="cls-3" d="M23.26,123.62c-.16-2.5-.25-8.51-.19-8.88a1.91,1.91,0,0,1,1.59-.1c.09.27.45,10.38.29,11.34a2.77,2.77,0,0,1-1.57.07C23.33,125.54,23.26,123.92,23.26,123.62Z"/><path class="cls-3" d="M26.71,125.84a.45.45,0,0,1-.22-.43.73.73,0,0,1,.17-.27,1.48,1.48,0,0,1,1.66,0,.55.55,0,0,1,.24.33.61.61,0,0,1-.39.51A1.63,1.63,0,0,1,26.71,125.84Z"/><path class="cls-3" d="M31.78,125.87a2.24,2.24,0,0,1-1.42-1.1A3,3,0,0,1,30,123.5a.26.26,0,0,1,.14-.15c.14,0,.38-.06.75-.1h.22a.28.28,0,0,1,.24.18c.22.75.59,1.58,1.5,1.44S34,123.75,34,123.19a3.77,3.77,0,0,0-.17-1.4,1.55,1.55,0,0,0-1.4-.91l-.42,0-.13,0a.15.15,0,0,1-.16-.15l0-.86c0-.12.18-.12.26-.12h0c1.79,0,1.95-1.18,1.95-1.22a3.74,3.74,0,0,0-.06-1.4c-.13-.55-.59-1.49-1.45-1.47s-1.13.93-1.22,1.71a.33.33,0,0,1-.21.21.68.68,0,0,1-.19,0h0a2.59,2.59,0,0,1-.76,0,.15.15,0,0,1-.16-.1,3.32,3.32,0,0,1,.13-1.31,2.22,2.22,0,0,1,1.22-1.34,3.59,3.59,0,0,1,2.32-.22,2.62,2.62,0,0,1,1.59,1,3.88,3.88,0,0,1,.41,3.49,2.16,2.16,0,0,1-.7,1.06l-.08.07a2.34,2.34,0,0,1,.54.71,3.82,3.82,0,0,1,.19,3.51,2.74,2.74,0,0,1-1.39,1.26,4.43,4.43,0,0,1-1.42.31A3.35,3.35,0,0,1,31.78,125.87Z"/><path class="cls-3" d="M45.52,118.08a.21.21,0,0,1,.07.14,1.36,1.36,0,0,1-.24.81.25.25,0,0,1-.21.08c-.12,0-.3-.08-.49-.15s-.32-.12-.46-.15a1.76,1.76,0,0,0-1.43.15,1.65,1.65,0,0,0-.5,1.2.65.65,0,0,0,.26.56,1.42,1.42,0,0,0,.94.14l.12,0a4.32,4.32,0,0,1,1.25-.08,2.6,2.6,0,0,1,1.75.92,1.91,1.91,0,0,1,.36,1.52,3.47,3.47,0,0,1-1.63,2.36,2.45,2.45,0,0,1-2.09.16,3.77,3.77,0,0,1-1.95-1.79,1.1,1.1,0,0,1-.09-.39v-.05l0,0a2.78,2.78,0,0,1,.92-.32.18.18,0,0,1,.21.12,2.39,2.39,0,0,0,1.48,1.37.85.85,0,0,0,.75-.11,1.92,1.92,0,0,0,.84-1.78.87.87,0,0,0-.52-.65,1.08,1.08,0,0,0-.46-.1,3.63,3.63,0,0,0-.56,0l-.19,0-.12,0a3.28,3.28,0,0,1-1.67-.1,2.08,2.08,0,0,1-1.18-2.17,2.84,2.84,0,0,1,.67-1.6,2.77,2.77,0,0,1,2-.67A3,3,0,0,1,45.52,118.08Z"/><path class="cls-3" d="M49.8,123c-.07-1-.16-2.53-.21-4.05-1,0-2,0-2.08,0a2,2,0,0,1,0-1.22,19,19,0,0,1,2.08-.17c-.06-2-.1-3.67-.06-3.86a2.23,2.23,0,0,1,1.76-.13c0,.11.16,1.82.26,3.91a14.85,14.85,0,0,1,1.82,0,3,3,0,0,1,0,1.22c-.24,0-1.08.08-1.24.08l-.52.05c.13,2.92.23,6.06.14,6.59a3.17,3.17,0,0,1-1.75.09C49.91,125,49.83,123.33,49.8,123Z"/><path class="cls-3" d="M54.9,119.57a2.9,2.9,0,0,1,4.5-1.83,1.83,1.83,0,0,1,.41,2.39,4.58,4.58,0,0,1-3.23,1.92,1.75,1.75,0,0,0,.62,1.72,1.2,1.2,0,0,0,1.64,0c.41-.38.73-.84,1.18-1.34a.3.3,0,0,1,.31-.08,1.43,1.43,0,0,1,.91.93,11.47,11.47,0,0,1-1.52,1.47,3.16,3.16,0,0,1-2.11.58C54.72,125.08,54.34,121.66,54.9,119.57Zm3.68.29c.45-.57.37-.87.21-1.13a.88.88,0,0,0-.88-.36c-.8.24-1.25,1.35-1.3,2.4A2.93,2.93,0,0,0,58.58,119.86Z"/><path class="cls-3" d="M63.26,124.31c-.19-1.28-.62-6.83-.62-6.93s.24-.2.24-.2l.89,0c.11,0,.14,0,.14.14.07.47.21,1.48.31,2.11.22-.41.56-1,.74-1.22.92-1.37,2.28-1.68,3.1-1a2.37,2.37,0,0,1,.81,1.49,7.09,7.09,0,0,1,.18,1.9,5.51,5.51,0,0,1-.48,2.09,4.36,4.36,0,0,1-.68,1,2.2,2.2,0,0,1-2.73.41,2.14,2.14,0,0,1-.5-.32l-.12-.07a41.27,41.27,0,0,1,.3,4.72,1.48,1.48,0,0,1-1.18.09C63.62,128.31,63.58,127.4,63.26,124.31ZM67.42,122c.48-1.17.59-3-.37-3.37-1.51-.67-2.39,2.76-2.28,3.67C65.22,122.78,66.79,123.48,67.42,122Z"/><path class="cls-3" d="M75.11,117.47a.21.21,0,0,1,.07.13,1.3,1.3,0,0,1-.25.81.23.23,0,0,1-.2.08l-.5-.15-.45-.15a1.73,1.73,0,0,0-1.44.16,1.65,1.65,0,0,0-.49,1.2.63.63,0,0,0,.25.55,1.4,1.4,0,0,0,1,.14l.12,0a5,5,0,0,1,1.24-.08,2.58,2.58,0,0,1,1.75.92,1.91,1.91,0,0,1,.37,1.52,3.5,3.5,0,0,1-1.63,2.36,2.51,2.51,0,0,1-2.1.17,3.8,3.8,0,0,1-1.94-1.8.9.9,0,0,1-.1-.38v-.06l0,0a2.84,2.84,0,0,1,.93-.32.19.19,0,0,1,.21.12A2.36,2.36,0,0,0,73.41,124a.88.88,0,0,0,.75-.1,1.94,1.94,0,0,0,.83-1.79.89.89,0,0,0-.52-.65,1.19,1.19,0,0,0-.45-.1,3.57,3.57,0,0,0-.56,0l-.19,0-.13,0a3.24,3.24,0,0,1-1.66-.1,2.07,2.07,0,0,1-1.18-2.16,2.86,2.86,0,0,1,.66-1.61,2.79,2.79,0,0,1,2-.67A3.06,3.06,0,0,1,75.11,117.47Z"/><path class="cls-3" d="M82.08,123.91c-.19-1.27-.62-6.82-.62-6.93s.24-.19.24-.19l.89,0c.11,0,.14,0,.15.13.06.48.2,1.49.3,2.11.22-.4.56-1,.75-1.22.91-1.36,2.27-1.67,3.09-1a2.44,2.44,0,0,1,.82,1.48,7.64,7.64,0,0,1,.17,1.91,5.37,5.37,0,0,1-.48,2.09,4.36,4.36,0,0,1-.68,1,2.21,2.21,0,0,1-2.73.41,3.06,3.06,0,0,1-.5-.32l-.12-.07a46.13,46.13,0,0,1,.31,4.71,1.51,1.51,0,0,1-1.19.1C82.44,127.91,82.4,127,82.08,123.91Zm4.16-2.36c.49-1.16.59-3-.37-3.36-1.51-.67-2.39,2.76-2.28,3.66C84,122.39,85.61,123.09,86.24,121.55Z"/><path class="cls-3" d="M89.35,118.85A2.89,2.89,0,0,1,93.84,117a1.84,1.84,0,0,1,.42,2.39A4.62,4.62,0,0,1,91,121.33a1.76,1.76,0,0,0,.61,1.72,1.2,1.2,0,0,0,1.64,0,16.51,16.51,0,0,0,1.18-1.34.29.29,0,0,1,.32-.07,1.42,1.42,0,0,1,.91.92,11.74,11.74,0,0,1-1.53,1.47,3.08,3.08,0,0,1-2.1.58C89.17,124.36,88.78,120.94,89.35,118.85Zm3.68.29c.44-.57.36-.87.2-1.13a.88.88,0,0,0-.88-.36c-.8.24-1.25,1.35-1.3,2.4A3,3,0,0,0,93,119.14Z"/><path class="cls-3" d="M97.33,124.51a5.67,5.67,0,0,1-.17-1c-.19-1.5-.36-3-.55-4.5,0-.32-.09-.61-.13-.93s-.09-1.13-.1-1.59a3.16,3.16,0,0,1,1.5-.15,17.21,17.21,0,0,1,.34,2c.24-.25.39-.37.53-.53a4.68,4.68,0,0,1,1.43-1.1c1.07-.6,3-.17,3.24,1.26.1.49.18,1,.23,1.45a.12.12,0,0,1-.07.12,2.13,2.13,0,0,1-1,.08.17.17,0,0,1-.11-.11c0-.43-.3-1.69-1.09-1.77-1.1-.14-2.38,1.34-2.8,2.08.14,1,.34,3.91.34,4.49,0,0,0,.07-.07.09a4.73,4.73,0,0,1-1.4.19A.12.12,0,0,1,97.33,124.51Z"/><path class="cls-3" d="M24.2,141.13c-.18-1.28-.62-6.83-.62-6.93s.24-.2.24-.2l.9,0c.1,0,.14.05.14.14.06.47.2,1.48.3,2.11.22-.41.56-1,.75-1.23.91-1.36,2.27-1.67,3.09-1a2.44,2.44,0,0,1,.82,1.48,8.14,8.14,0,0,1,.18,1.91,5.7,5.7,0,0,1-.48,2.09,5.12,5.12,0,0,1-.68,1,2.21,2.21,0,0,1-2.74.41,2.37,2.37,0,0,1-.5-.32l-.12-.07a43,43,0,0,1,.31,4.72,1.5,1.5,0,0,1-1.19.09C24.56,145.12,24.53,144.22,24.2,141.13Zm4.17-2.36c.48-1.17.58-3-.37-3.37-1.52-.67-2.39,2.76-2.29,3.67C26.16,139.6,27.73,140.3,28.37,138.77Z"/><path class="cls-3" d="M32.45,140.9a4,4,0,0,1-1.2-3,4.25,4.25,0,0,1,1.57-3.57,3.48,3.48,0,0,1,2.3-.46,3.39,3.39,0,0,1,1.83.74c1.37,1.2,1.16,3.46.54,4.91a5.79,5.79,0,0,1-.81,1.4,2.36,2.36,0,0,1-1.59.9A3.63,3.63,0,0,1,32.45,140.9Zm4-2.74a3.39,3.39,0,0,0-.58-2.61,1.54,1.54,0,0,0-1.19-.41,1.62,1.62,0,0,0-1,.33,2,2,0,0,0-.53,1,6,6,0,0,0-.16,1.32,8.48,8.48,0,0,0,0,.86,2.18,2.18,0,0,0,.69,1.52,1.53,1.53,0,0,0,1.58.11A2.68,2.68,0,0,0,36.48,138.16Z"/><path class="cls-3" d="M44.7,141.57a10.7,10.7,0,0,1-.18-1.74,2.87,2.87,0,0,1-2.7,1.86c-2.21-.12-2.65-4.71-2.66-5.79,0-.33-.07-1.59,0-1.94a.23.23,0,0,1,.18-.15,5,5,0,0,1,1.27,0,.21.21,0,0,1,.15.14c.1.71.24,3.49.33,4.22s.26,1.76,1.23,1.83c1.49.11,2-5.22,2.11-6a.09.09,0,0,1,.1-.1,5.14,5.14,0,0,1,1.24,0c.06,0,.11,0,.11.1a5.11,5.11,0,0,1,.11,1.17c.15,2.09.36,4.33.33,6.44a3.33,3.33,0,0,1-1.52.09S44.72,141.63,44.7,141.57Z"/><path class="cls-3" d="M52.83,141.54a.17.17,0,0,1-.14-.15c-.09-.82-.16-3.2-.24-3.93s-.16-1.71-1.16-1.78-1.31,1.1-1.46,1.43c0,1,.1,3.71.06,4.25,0,0,0,.11-.12.11a9.83,9.83,0,0,1-1.54.05.17.17,0,0,1-.13-.11,9.23,9.23,0,0,1-.11-1.1c-.11-2-.3-4.45-.29-6.46a2,2,0,0,1,1.51-.07,3.81,3.81,0,0,1,.32,1.38,2.43,2.43,0,0,1,2.41-1.08,2.57,2.57,0,0,1,2.12,1.65,12.68,12.68,0,0,1,.39,3.84,14,14,0,0,1,0,1.83.18.18,0,0,1-.13.15A5,5,0,0,1,52.83,141.54Z"/><path class="cls-3" d="M61.37,141.26l0,0a.17.17,0,0,1-.11-.12c-.08-.48-.08-1.55-.17-2.23-.27.39-.66,1-.88,1.22-1,1.41-2.52,1.63-3.34.9a2.53,2.53,0,0,1-.77-1.63,6.78,6.78,0,0,1-.07-2,6,6,0,0,1,.65-2.19,4.8,4.8,0,0,1,.77-1,2.37,2.37,0,0,1,2.93-.27,3.68,3.68,0,0,1,.51.37l.11.09c-.12-3.2-.05-4.71,0-5a1.55,1.55,0,0,1,1.27,0c0,.15,0,1.12.16,4.38.12,1.37.24,7.24.23,7.36l0,.06a.36.36,0,0,1-.23.14H62A2,2,0,0,1,61.37,141.26Zm-.73-5.76a1.7,1.7,0,0,0-2.84.48c-.59,1.2-.8,3.53.21,4C59.56,140.79,60.7,136.46,60.64,135.5Z"/><path class="cls-3" d="M68.73,140.14a4,4,0,0,1-1.2-3,4.25,4.25,0,0,1,1.57-3.57,3.46,3.46,0,0,1,2.3-.46,3.32,3.32,0,0,1,1.83.75c1.37,1.19,1.16,3.45.54,4.9a5.79,5.79,0,0,1-.81,1.4,2.41,2.41,0,0,1-1.59.91A3.64,3.64,0,0,1,68.73,140.14Zm4-2.74a3.39,3.39,0,0,0-.58-2.61,1.55,1.55,0,0,0-1.2-.41,1.73,1.73,0,0,0-1,.33,2,2,0,0,0-.52,1,5.87,5.87,0,0,0-.16,1.31,8.48,8.48,0,0,0,0,.86,2.16,2.16,0,0,0,.69,1.52,1.52,1.52,0,0,0,1.58.11A2.71,2.71,0,0,0,72.76,137.4Z"/><path class="cls-3" d="M76.36,140.89c-.09-1.36-.23-4.35-.22-6.74a1.34,1.34,0,0,1-.62-.08c-.09-.06-.18-1-.06-1.1s.34-.06.68-.1c0-.58,0-1.07.08-1.44a3.45,3.45,0,0,1,.66-1.79,2.19,2.19,0,0,1,1.78-.9,4.1,4.1,0,0,1,2.46,1,.15.15,0,0,1,0,.07,2.22,2.22,0,0,1-.51,1.43s-.05,0-.07,0c-1.45-1.09-1.69-.84-1.94-.73-.71.37-.56,1.47-.6,2.06v.18a23.47,23.47,0,0,1,2.35-.09c.18.1.27,1.13.1,1.23a7.41,7.41,0,0,1-.77.06c-.59,0-1.13.1-1.69.13,0,1.76.07,4.35.07,4.35l.12,2.38a.09.09,0,0,1-.05.08,4.4,4.4,0,0,1-1.69.11S76.37,141,76.36,140.89Z"/><path class="cls-3" d="M90.87,140.43c-.06,0-.09-.06-.11-.12-.08-.48-.09-1.55-.17-2.23-.27.39-.66,1-.88,1.22-1,1.41-2.52,1.63-3.34.9a2.53,2.53,0,0,1-.77-1.63,7.14,7.14,0,0,1-.08-2,5.7,5.7,0,0,1,.66-2.18,4.89,4.89,0,0,1,.76-1,2.37,2.37,0,0,1,2.93-.27,3.77,3.77,0,0,1,.52.37c.12.11.3.22.37.36l.07-.33s.06-.4.08-.48,1.16-.19,1.36.05c0,.36-.07,6-.16,7.17a.31.31,0,0,1-.26.25A3.41,3.41,0,0,1,90.87,140.43Zm-.68-5.74a1.71,1.71,0,0,0-2.84.48c-.57,1.22-.8,3.54.2,4C89.11,140,90.24,135.65,90.19,134.69Z"/><path class="cls-3" d="M24.87,158a4.49,4.49,0,0,1-.18-1c-.19-1.5-.36-3-.55-4.5,0-.32-.08-.61-.12-.93s-.1-1.13-.11-1.59a3.17,3.17,0,0,1,1.5-.15,17.21,17.21,0,0,1,.34,2c.24-.25.4-.37.53-.53a4.93,4.93,0,0,1,1.43-1.1c1.07-.6,3-.17,3.25,1.26.09.49.17,1,.22,1.45a.12.12,0,0,1-.07.12,2.12,2.12,0,0,1-1,.08A.17.17,0,0,1,30,153c0-.43-.29-1.69-1.08-1.77-1.11-.14-2.39,1.34-2.81,2.08.14,1,.34,3.91.34,4.49a.11.11,0,0,1-.07.09,4.67,4.67,0,0,1-1.39.19A.11.11,0,0,1,24.87,158Z"/><path class="cls-3" d="M32.61,147.82a8.44,8.44,0,0,1,.08-2,2,2,0,0,1,1.43,0c.08,1.14.13,3.32.17,4.46,0,.64,0,.63,0,1.41,1.76-2.25,3.61-1.52,4.51-.2.76,1.14.85,4.38,1,6a2.68,2.68,0,0,1-1.45.1c-.06-.54-.09-1.69-.15-2.21-.13-1.07-.33-3.76-1.29-3.72-1.27.08-1.92,1.09-2.29,2.23-.06.6.25,3.15.21,3.76-.27.3-1.3.24-1.41.19A62.84,62.84,0,0,1,32.61,147.82Z"/><path class="cls-3" d="M41.21,148a.44.44,0,0,1-.06-.43.54.54,0,0,1,.21-.16,1.25,1.25,0,0,1,1.42.39.47.47,0,0,1,.12.34.52.52,0,0,1-.49.33A1.43,1.43,0,0,1,41.21,148Zm.15,2a1.93,1.93,0,0,1,1.45-.15c.09.27.45,6.67.32,7.67a1.62,1.62,0,0,1-1.43.1C41.56,156.91,41.32,150.41,41.36,150Z"/><path class="cls-3" d="M50,157.61a.19.19,0,0,1-.14-.16c-.09-.82-.15-3.2-.24-3.93s-.16-1.71-1.16-1.78c-.85-.07-1.3,1.1-1.45,1.43,0,1,.09,3.71,0,4.25a.12.12,0,0,1-.12.11,8.75,8.75,0,0,1-1.54.05.16.16,0,0,1-.12-.1,7.6,7.6,0,0,1-.11-1.1c-.11-2-.3-4.46-.29-6.47a2,2,0,0,1,1.5-.06,3.55,3.55,0,0,1,.32,1.37,2.47,2.47,0,0,1,2.41-1.08,2.57,2.57,0,0,1,2.12,1.65,12.68,12.68,0,0,1,.39,3.84,16.11,16.11,0,0,1,0,1.84.2.2,0,0,1-.14.14A5.31,5.31,0,0,1,50,157.61Z"/><path class="cls-3" d="M54.28,156.45a4,4,0,0,1-1.2-3,4.25,4.25,0,0,1,1.57-3.57,3.47,3.47,0,0,1,2.3-.47,3.4,3.4,0,0,1,1.83.75c1.37,1.2,1.16,3.46.54,4.9a5.44,5.44,0,0,1-.81,1.4,2.37,2.37,0,0,1-1.59.91A3.63,3.63,0,0,1,54.28,156.45Zm4-2.74a3.39,3.39,0,0,0-.58-2.61,1.56,1.56,0,0,0-1.2-.42,1.67,1.67,0,0,0-1,.34,2,2,0,0,0-.52,1,6,6,0,0,0-.16,1.32,8.23,8.23,0,0,0,0,.85,2.19,2.19,0,0,0,.69,1.53,1.52,1.52,0,0,0,1.58.11A2.72,2.72,0,0,0,58.31,153.71Z"/><path class="cls-3" d="M63.43,156.87a3.25,3.25,0,0,1-1.76-1.4,5.3,5.3,0,0,1-.32-4.4,2.41,2.41,0,0,1,.81-1.2,4,4,0,0,1,2.77-.6,2.75,2.75,0,0,1,2.23,1.37s0,.1,0,.12a4,4,0,0,1-.89.23.1.1,0,0,1-.08,0,1.8,1.8,0,0,0-1.56-.66A1.62,1.62,0,0,0,62.92,152a5.47,5.47,0,0,0,0,1.85c.17.82.72,2.12,1.81,2.2s1.53-1.24,1.67-2.13a.16.16,0,0,1,.14-.15,1.6,1.6,0,0,1,.22,0,3.43,3.43,0,0,1,.88,0l.07.07a3.92,3.92,0,0,1-.21,1.56,2.42,2.42,0,0,1-1.42,1.48A3.74,3.74,0,0,1,63.43,156.87Z"/><path class="cls-3" d="M69.17,151.28a2.89,2.89,0,0,1,4.49-1.83,1.84,1.84,0,0,1,.42,2.39,4.62,4.62,0,0,1-3.23,1.92,1.76,1.76,0,0,0,.61,1.72,1.2,1.2,0,0,0,1.64,0,16.51,16.51,0,0,0,1.18-1.34.31.31,0,0,1,.32-.08,1.43,1.43,0,0,1,.91.93A11.74,11.74,0,0,1,74,156.48a3.13,3.13,0,0,1-2.1.58C69,156.79,68.6,153.37,69.17,151.28Zm3.68.29c.44-.57.36-.87.2-1.13a.88.88,0,0,0-.88-.36c-.8.24-1.25,1.35-1.3,2.4A3,3,0,0,0,72.85,151.57Z"/><path class="cls-3" d="M77.15,156.93a5.89,5.89,0,0,1-.18-1c-.18-1.5-.35-3-.54-4.51,0-.31-.09-.61-.13-.92s-.09-1.13-.1-1.59a3.16,3.16,0,0,1,1.5-.15,17.21,17.21,0,0,1,.34,2c.24-.25.39-.37.53-.53a4.68,4.68,0,0,1,1.43-1.1c1.07-.6,3-.17,3.24,1.26.1.49.18,1,.23,1.45a.12.12,0,0,1-.07.12,2.13,2.13,0,0,1-1,.08.2.2,0,0,1-.11-.11c0-.43-.3-1.69-1.09-1.78-1.1-.13-2.38,1.35-2.8,2.09.14,1,.34,3.91.34,4.49,0,0,0,.07-.07.09a4.42,4.42,0,0,1-1.4.18A.08.08,0,0,1,77.15,156.93Z"/><path class="cls-3" d="M85.91,155.79a4,4,0,0,1-1.2-3,4.25,4.25,0,0,1,1.57-3.57,3.48,3.48,0,0,1,2.3-.47,3.4,3.4,0,0,1,1.83.75c1.37,1.2,1.16,3.46.54,4.9a5.44,5.44,0,0,1-.81,1.4,2.37,2.37,0,0,1-1.59.91A3.63,3.63,0,0,1,85.91,155.79Zm4-2.74a3.41,3.41,0,0,0-.58-2.62,1.55,1.55,0,0,0-1.2-.41,1.67,1.67,0,0,0-1,.34,2,2,0,0,0-.52,1,6,6,0,0,0-.16,1.32,8.23,8.23,0,0,0,0,.85A2.19,2.19,0,0,0,87.2,155a1.5,1.5,0,0,0,1.58.1A2.69,2.69,0,0,0,89.94,153.05Z"/><path class="cls-3" d="M97.46,149a.22.22,0,0,1,.08.13,1.44,1.44,0,0,1-.25.81.25.25,0,0,1-.21.08,4.87,4.87,0,0,1-.49-.15l-.46-.15a1.72,1.72,0,0,0-1.43.16,1.62,1.62,0,0,0-.5,1.2.66.66,0,0,0,.26.55,1.37,1.37,0,0,0,.94.14l.13,0a5,5,0,0,1,1.24-.08,2.6,2.6,0,0,1,1.75.92,1.91,1.91,0,0,1,.36,1.52,3.47,3.47,0,0,1-1.63,2.36,2.49,2.49,0,0,1-2.09.17,3.82,3.82,0,0,1-2-1.8,1.05,1.05,0,0,1-.09-.38v-.06l0,0a2.78,2.78,0,0,1,.92-.32.18.18,0,0,1,.21.12,2.39,2.39,0,0,0,1.48,1.37.88.88,0,0,0,.75-.1,2,2,0,0,0,.84-1.79.89.89,0,0,0-.52-.65,1.2,1.2,0,0,0-.46-.1,3.7,3.7,0,0,0-.56,0l-.19,0-.12,0a3.24,3.24,0,0,1-1.66-.1,2.07,2.07,0,0,1-1.19-2.16,2.87,2.87,0,0,1,.67-1.61,2.77,2.77,0,0,1,2-.67A3,3,0,0,1,97.46,149Z"/><path class="cls-4" d="M189.4,120.61a3.49,3.49,0,0,1-1-.15c-1.43-.41-4-1.32-5.49-2.9s.29-3.88.36-4l.34-.42.32.43a23,23,0,0,0,3.9,4,3.78,3.78,0,0,0,2.4.8,1.06,1.06,0,0,1,1,.36.83.83,0,0,1,0,.9A2,2,0,0,1,189.4,120.61Z"/><path d="M183.62,113.84a23.1,23.1,0,0,0,4,4.11c1.94,1.38,3,.59,3.3,1.06s-.32,1.18-1.51,1.18a3.22,3.22,0,0,1-.87-.13,12.2,12.2,0,0,1-5.3-2.78c-1.26-1.37.39-3.44.39-3.44m0-1.35-.67.84c-.78,1-1.73,3-.35,4.52s4.21,2.59,5.68,3a4,4,0,0,0,1.1.16,2.5,2.5,0,0,0,2.24-1.14,1.26,1.26,0,0,0,0-1.34,1.5,1.5,0,0,0-1.34-.54,3.33,3.33,0,0,1-2.16-.72,22.35,22.35,0,0,1-3.81-3.94l-.64-.85Z"/><path class="cls-5" d="M192.46,121.38a3.5,3.5,0,0,1-2.67-1,2.88,2.88,0,0,1-.6-2.34,2.42,2.42,0,0,1,2.43-2.11,2.3,2.3,0,0,1,.69.1,5.61,5.61,0,0,0,1.52.24,1.5,1.5,0,0,0,1.34-.54c.25-.37.64-.81,1.08-.81a.64.64,0,0,1,.51.24c.19.24.37.71.05,2.25-.06.2-1.29,3.93-4.29,3.93Z"/><path d="M196.25,115.37c.31,0,.46.54.16,2,0,0-1.16,3.59-3.89,3.59h-.05c-2.77,0-3-1.66-2.86-2.84a2,2,0,0,1,2-1.74,2.38,2.38,0,0,1,.58.08,5.68,5.68,0,0,0,1.63.27,1.88,1.88,0,0,0,1.68-.73c.26-.38.54-.63.74-.63m0-.83h0a1.83,1.83,0,0,0-1.43,1,1.13,1.13,0,0,1-1,.35,5.15,5.15,0,0,1-1.4-.23,2.79,2.79,0,0,0-.81-.12,2.84,2.84,0,0,0-2.84,2.48,3.3,3.3,0,0,0,.7,2.67,3.92,3.92,0,0,0,3,1.09h.06c3.3,0,4.62-4,4.68-4.17v-.08c.28-1.36.24-2.14-.14-2.6a1.09,1.09,0,0,0-.83-.4Z"/><path class="cls-6" d="M114,88.37c-.54,0-3.46-.28-7.73-5.84-4.12-5.38-3.44-9.94-3.26-10.8.11-.52.32-1.2.72-1.41a.82.82,0,0,1,.43-.13c.37,0,.56.28.74.54a5.07,5.07,0,0,0,2,1.75,29.34,29.34,0,0,0,5.89,2.11c.75.21,1.47.41,2.11.61,2.53.81,3.14,4,3.17,4.11l0,.13-3.82,8.91Z"/><path d="M104.18,70.6c.42,0,.39,1.07,2.57,2.25,2.52,1.35,5.75,2,8.08,2.75s2.88,3.79,2.88,3.79L114,88h0c-.29,0-3.15-.14-7.4-5.68-4.48-5.84-3.39-11.19-2.67-11.59a.53.53,0,0,1,.23-.08m0-.83a1.26,1.26,0,0,0-.63.18c-.16.09-.64.36-.92,1.7-.19.89-.9,5.61,3.33,11.13,4.39,5.72,7.48,6,8.06,6h.07l.51,0,.2-.47,3.67-8.56.1-.23,0-.25c0-.15-.69-3.55-3.45-4.43-.66-.21-1.37-.41-2.13-.62a29.45,29.45,0,0,1-5.8-2.07,4.65,4.65,0,0,1-1.89-1.62,1.3,1.3,0,0,0-1.08-.73Z"/><path class="cls-6" d="M142.12,79.82v-.09c0-.17.3-4.07,3.1-4.81l1-.25c2-.5,3.33-.84,4.85-2.4.46-.46.84-.9,1.16-1.26.7-.8,1.09-1.24,1.56-1.24s.78.64.86.89c.55,1.69.78,7.81-2,11.59a18.75,18.75,0,0,1-6.84,5.62l-.39.17Z"/><path d="M153.78,70.18c.18,0,.33.18.47.6.46,1.43.78,7.52-1.91,11.23a18.54,18.54,0,0,1-6.67,5.48l-3.13-7.74s.26-3.75,2.8-4.43,4.17-.86,6-2.76c1.31-1.33,2-2.38,2.42-2.38m0-.83h0c-.66,0-1.12.52-1.87,1.39-.33.37-.69.79-1.14,1.25-1.44,1.47-2.72,1.79-4.66,2.28l-1,.25c-3.09.82-3.41,5-3.42,5.18v.19l.07.18,3.14,7.73.32.8.78-.35a19.18,19.18,0,0,0,7-5.75c2.83-3.91,2.59-10.23,2-12-.26-.78-.68-1.18-1.26-1.18Z"/><path class="cls-4" d="M112.06,85.05a10.45,10.45,0,0,1,1.52-2.81c1.1-1.47,1.62-2.06,1.62-2.06s1.18-2-1.5-2.94-7.32-2.54-8.28-3.5-1.09-1.43-1.11,0S107.62,83.64,112.06,85.05Z"/><path class="cls-4" d="M146.72,85.07a13.36,13.36,0,0,0-1.1-3.26c-.73-1.29-1.26-2-1.26-2A6.68,6.68,0,0,1,148.13,76c2.79-1,4.45-4.06,5.12-3.17S152.62,83.6,146.72,85.07Z"/><path class="cls-7" d="M164.78,148.42c-1.58,0-3.46-.31-4-1.2-.82-1.36-.81-10.89-.8-12.79V134l.44,0c.72,0,7.15.36,8.22,2.35l0,.08v.1c.08,1.57.45,9.5-.2,10.75C168,148.34,165.52,148.42,164.78,148.42Z"/><path d="M160.42,134.44s6.89.29,7.87,2.13c0,0,.48,9.33-.15,10.54-.3.59-1.81.9-3.36.9s-3.23-.33-3.63-1c-.79-1.33-.73-12.57-.73-12.57m-.83-.87v.86c0,2.69,0,11.59.85,13s3.29,1.41,4.34,1.41,3.47-.13,4.1-1.35.39-8.09.24-11v-.19l-.09-.17c-1.12-2.09-6.84-2.49-8.57-2.56l-.86,0Z"/><path class="cls-7" d="M124.08,149.46c-.44,0-4.3-.05-4.79-1.7s-.9-13.4-.92-13.9l0-.7,9.19,4.7v.26c0,2.28-.27,9.79-.7,10.62C126.52,149.33,125.16,149.46,124.08,149.46Z"/><path d="M118.79,133.85l8.33,4.26s-.24,9.63-.66,10.43c-.16.32-1.18.5-2.38.5-1.84,0-4.1-.42-4.4-1.4-.48-1.63-.89-13.79-.89-13.79m-.88-1.38,0,1.41c0,1.25.43,12.31.93,14,.55,1.86,4.11,2,5.19,2,2.63,0,3-.71,3.12-.94.42-.81.64-6.32.75-10.8v-.52l-.46-.24-8.34-4.26-1.25-.64Z"/><path class="cls-4" d="M136.72,150.58c-1.86,0-2.92-.47-3.07-1.35a74.84,74.84,0,0,1,.09-8.58c-2.07,0-12.3-.64-16.53-8.46a26,26,0,0,1-2.43-17.36l0-.16,33.93-22.25.08,0a13.9,13.9,0,0,1,2.52-.21,9.31,9.31,0,0,1,9,4.8c1.37,2,2.55,3.79,6.6,3.79h.63c.88,0,1.74-.1,2.57-.16,1.24-.08,2.41-.16,3.54-.16,4.38,0,7.81,1.31,10.28,7.7,3.14,8.14.8,23-.36,29l0,.18c-.1.52-.22,1.36-.36,2.36-.83,5.94-1.42,8.8-2.56,9a23.44,23.44,0,0,1-3.77.38c-2.07,0-3.19-.51-3.33-1.5-.21-1.53-.29-5.75-.3-7a10.17,10.17,0,0,1-4.22-1.81c-1.41-1.13-2.78-2.08-3.28-2.43a69.61,69.61,0,0,1-12.71,5,33.46,33.46,0,0,1-8.35,1.11c-1,0-1.68,0-2.11-.09,0,1.73-.27,6.38-1.36,7.25C140.43,150.2,138.27,150.58,136.72,150.58Z"/><path d="M151.35,92.6a10.49,10.49,0,0,1,6.05,1.68c3.38,2.4,3,6.91,9.54,6.91h.64c2.2-.09,4.23-.32,6.09-.32,4.17,0,7.45,1.14,9.89,7.44,3.52,9.11,0,26.63-.41,28.92s-1.23,10.79-2.59,11a21.64,21.64,0,0,1-3.69.37c-1.46,0-2.8-.25-2.92-1.14-.24-1.76-.3-7.3-.3-7.3a10.14,10.14,0,0,1-4.37-1.78c-1.8-1.45-3.51-2.59-3.51-2.59a69.36,69.36,0,0,1-12.84,5.09,33.41,33.41,0,0,1-8.25,1.1,18.48,18.48,0,0,1-2.51-.14s-.09,6.49-1.22,7.39a8.87,8.87,0,0,1-4.23.9c-1.36,0-2.54-.27-2.66-1a86.28,86.28,0,0,1,.12-8.92H134c-1.52,0-12.12-.29-16.43-8.24a25.35,25.35,0,0,1-2.39-17.07l33.73-22.12a13.23,13.23,0,0,1,2.44-.21m0-.83h0a14.24,14.24,0,0,0-2.6.22l-.16,0-.13.08-33.73,22.13-.27.17-.08.31a25.92,25.92,0,0,0,2.46,17.67c4.1,7.57,13.35,8.56,16.47,8.67a67.52,67.52,0,0,0-.07,8.24c.13.77.84,1.69,3.48,1.69,1.63,0,3.86-.38,4.74-1.08,1.12-.89,1.44-4.53,1.52-7.13.43,0,1,.06,1.7.06a34,34,0,0,0,8.45-1.13,68.44,68.44,0,0,0,12.58-4.92c.61.42,1.81,1.27,3,2.26a10.34,10.34,0,0,0,4.07,1.83c0,1.55.1,5.29.3,6.73.17,1.23,1.43,1.85,3.74,1.85a23.06,23.06,0,0,0,3.84-.38c1.39-.26,2-2.68,2.9-9.36.14-1,.26-1.84.36-2.35l0-.17c1.44-7.5,3.4-21.26.33-29.2-2.55-6.61-6.11-8-10.66-8-1.14,0-2.32.08-3.57.17-.83.06-1.68.11-2.56.15l-.6,0c-3.84,0-5-1.68-6.27-3.61a11.23,11.23,0,0,0-2.78-3.16,11.41,11.41,0,0,0-6.54-1.83Z"/><path class="cls-6" d="M128,122.47c-8.4,0-14.86-2-19.2-6.1A14.73,14.73,0,0,1,104.56,106c-.11-3.93,1-7.56,3.08-9.69s2.58-3.93,3.26-6.49A38.86,38.86,0,0,1,114,81.49c4.13-8.26,14.55-9.44,14.65-9.45a8.6,8.6,0,0,1,1.84-.19c3.34,0,7.38,1.57,11.07,4.3,2.5,1.85,3.77,5.14,5,8.32,1.1,2.89,2.15,5.62,4,7.23,4.37,3.73,6.92,7.92,5.19,16.28s-13,13.47-23.18,14.3c-1.56.13-3.09.19-4.55.19Z"/><path d="M130.45,72.27c3.06,0,7,1.39,10.82,4.21,4.61,3.41,4.9,12,9,15.54s6.79,7.49,5,15.88-13.26,13.19-22.8,14c-1.54.12-3.05.19-4.52.19-7.68,0-14.39-1.77-18.92-6-5.4-5-5.15-15.27-1.14-19.47s2.32-6.76,6.39-14.92,14.33-9.22,14.33-9.22a8.42,8.42,0,0,1,1.79-.18m0-.83a9.16,9.16,0,0,0-1.93.19c-.86.1-10.8,1.41-14.93,9.67a39.7,39.7,0,0,0-3.09,8.41c-.66,2.49-1.1,4.14-3.16,6.3S104,102,104.15,106a15.1,15.1,0,0,0,4.37,10.67c4.42,4.13,11,6.22,19.48,6.22,1.47,0,3-.07,4.58-.19,10.37-.85,21.79-6.14,23.55-14.63s-.84-12.86-5.32-16.69c-1.8-1.53-2.83-4.22-3.92-7.06-1.24-3.23-2.52-6.58-5.13-8.51-3.76-2.78-7.88-4.37-11.31-4.37Z"/><path class="cls-8" d="M131.58,87.7s5.52,11,5,13.85-3.21,4.72-6.76,4.27-5.53-3.12-4.77-6.26S129,87.66,129,87.66,129.93,84.2,131.58,87.7Z"/><path d="M130.83,106.3a10.11,10.11,0,0,1-1.08-.07,6.19,6.19,0,0,1-4.41-2.47,5.29,5.29,0,0,1-.72-4.29c.76-3.12,3.81-11.59,3.94-12s.53-1.72,1.51-1.8c.67,0,1.29.53,1.89,1.79s5.56,11.24,5,14.12A5.88,5.88,0,0,1,130.83,106.3Zm-.67-19.75h0c-.29,0-.66.74-.79,1.22,0,.12-3.18,8.82-3.92,11.89a4.42,4.42,0,0,0,.59,3.63,5.33,5.33,0,0,0,3.84,2.11c3.18.41,5.76-1.2,6.29-3.93.42-2.2-3.42-10.56-4.94-13.59h0C130.74,86.89,130.35,86.55,130.16,86.55Z"/><path d="M119.94,104.64c-1.37,7.07,6.45,9.68,12.08,9.42,3.47-.16,7.15-1.34,8.63-4.76.8-1.84,1.1-4.89-.09-6.67-.37-.54-1.24,0-.88.51.85,1.27.73,3.48.35,4.86-1.12,4.09-5.44,5.08-9.19,5.06-4.64,0-11-2.37-9.93-8.16.13-.63-.85-.91-1-.26Z"/><path d="M123,94.3a2.92,2.92,0,1,1-2.88-3A2.93,2.93,0,0,1,123,94.3Z"/><path class="cls-1" d="M120.21,93.39a1,1,0,0,1-2,0,1,1,0,1,1,2,0Z"/><path d="M143.87,94.46a2.92,2.92,0,1,1-2.88-3A2.91,2.91,0,0,1,143.87,94.46Z"/><path class="cls-1" d="M141.07,93.54a1,1,0,1,1-1-1A1,1,0,0,1,141.07,93.54Z"/><path class="cls-9" d="M113.27,116.81a.8.8,0,0,1-.3-.06c-3.76-1.45-6.45-5.35-7-10.18s3.46-9.86,3.63-10.07a.84.84,0,0,1,1.17-.1.83.83,0,0,1,.1,1.17s-3.75,4.54-3.25,8.8,2.79,7.61,6,8.83a.83.83,0,0,1-.3,1.61Z"/><circle class="cls-9" cx="116.06" cy="117.06" r="1.12"/><path class="cls-9" d="M131.74,138.46h0c-14.37-.42-15.77-15.14-15.78-15.29a.82.82,0,0,1,.75-.89.83.83,0,0,1,.9.75c0,.55,1.3,13.39,14.17,13.77a.83.83,0,0,1,0,1.66Z"/><path class="cls-9" d="M140,148.67a.5.5,0,0,1-.17,0,.83.83,0,0,1-.65-1s.9-4.4.56-6.63a.83.83,0,1,1,1.64-.25c.38,2.53-.53,7-.57,7.22A.83.83,0,0,1,140,148.67Z"/><path class="cls-9" d="M179.23,147.33a.81.81,0,0,1-.31-.06.83.83,0,0,1-.46-1.08c1.34-3.37,3.3-19.7,3.32-19.87a.83.83,0,0,1,.93-.72.82.82,0,0,1,.72.92c-.08.68-2,16.72-3.43,20.28A.83.83,0,0,1,179.23,147.33Z"/><path class="cls-9" d="M147.15,115.16a.83.83,0,0,1-.28-1.61c5.7-2,5.77-11.2,5.77-11.3a.83.83,0,0,1,.83-.83h0a.83.83,0,0,1,.83.83c0,.43-.08,10.48-6.88,12.87A.84.84,0,0,1,147.15,115.16Z"/><path class="cls-1" d="M126.82,100a.73.73,0,0,1-.25,0,.83.83,0,0,1-.54-1l3-9.22a.82.82,0,0,1,1-.54.83.83,0,0,1,.54,1l-3,9.22A.83.83,0,0,1,126.82,100Z"/><path class="cls-10" d="M103.46,56.92c1.37-.6,1.79.12,3,.24a2.26,2.26,0,0,0,1.48-.24c.22.26.1.9,0,1.14-1,.16-2.06-.7-3.42-.56a2,2,0,0,0-1.09.68A2.68,2.68,0,0,1,103.46,56.92Z"/><path class="cls-10" d="M114.92,64.74c-.18-.89-.46-3.91-.52-4.17-.32.06-.62.08-.9.14a7,7,0,0,1-2.5,0,16.39,16.39,0,0,1-.77-3.71c-.16-1.44-.46-4.95-.46-5a3.54,3.54,0,0,1,1.87-.08c.22.94.42,3.07.54,4,.1.72.16,2,.32,3.13a14.37,14.37,0,0,0,2-.41c.12-.7-.1-3.2-.12-4.44,0-.54-.12-1.77-.1-2.31a4.22,4.22,0,0,1,2-.08,36.94,36.94,0,0,1,.5,6.19c.38-.12.78-.22,1.16-.36a3,3,0,0,1,1-.34c.26.14.9.92.78,1.4a8.48,8.48,0,0,1-1.14.53c-.62.22-1.28.42-1.94.62,0,.4.1,3.76.12,4.89A2.68,2.68,0,0,1,114.92,64.74Z"/><path class="cls-10" d="M122.78,63.69c0,.18-.42,1.17-.56,1.55a3.52,3.52,0,0,1-.3.64,1.39,1.39,0,0,1-.53-.18,8.55,8.55,0,0,1,.75-2.27A1.07,1.07,0,0,1,122.78,63.69Z"/><path class="cls-10" d="M125.56,62.27a8.69,8.69,0,0,1,.34-9,3.19,3.19,0,0,1,2.17-1.51h0a2.73,2.73,0,0,1,1.74,1,.12.12,0,0,1-.08.16,3.59,3.59,0,0,0-2.37,2.27,7.83,7.83,0,0,0-.24,5.65c1.63-2.31,4.13-3.23,5.9-1.26a2.46,2.46,0,0,1,.28,2.56,4.57,4.57,0,0,1-1.87,2.31,3,3,0,0,1-2.3.42A4.91,4.91,0,0,1,125.56,62.27Zm6.47-.94A1.09,1.09,0,0,0,131,59.81c-1.48,0-2.78,2.18-2.78,2.18a2.21,2.21,0,0,0,1.14,1.18A2.45,2.45,0,0,0,132,61.33Z"/><path class="cls-10" d="M140,65.08a4.51,4.51,0,0,1-3.51-2,9.23,9.23,0,0,1-.42-8.45,9.53,9.53,0,0,1,.82-1.4,3.72,3.72,0,0,1,3-1.51,4.36,4.36,0,0,1,3.46,1.57,4.4,4.4,0,0,1,.64,1.06,9.27,9.27,0,0,1,.45,4.22,10.6,10.6,0,0,1-1,4,6.85,6.85,0,0,1-.82,1.34,2.91,2.91,0,0,1-2.42,1.17Zm1.72-3.43c1.26-1.84.94-5.35.62-6.37a2.29,2.29,0,0,0-1.12-1.52,2,2,0,0,0-1.5,0,3.65,3.65,0,0,0-1.89,2,10.23,10.23,0,0,0-.46,3.53,7.14,7.14,0,0,0,.72,2.74l.08.14a1.65,1.65,0,0,0,1.79.86A3,3,0,0,0,141.69,61.65Z"/><path class="cls-10" d="M150.87,65.08a4.51,4.51,0,0,1-3.51-2,9.23,9.23,0,0,1-.42-8.45,9.53,9.53,0,0,1,.82-1.4,3.72,3.72,0,0,1,3-1.51,4.36,4.36,0,0,1,3.46,1.57,4.4,4.4,0,0,1,.64,1.06,9.4,9.4,0,0,1,.44,4.22,10.6,10.6,0,0,1-1,4,6.85,6.85,0,0,1-.82,1.34,2.91,2.91,0,0,1-2.42,1.17Zm1.72-3.43c1.26-1.84.94-5.35.62-6.37a2.29,2.29,0,0,0-1.12-1.52,2,2,0,0,0-1.5,0,3.65,3.65,0,0,0-1.89,2,10.23,10.23,0,0,0-.46,3.53,7.14,7.14,0,0,0,.72,2.74l.08.14a1.64,1.64,0,0,0,1.79.86A3,3,0,0,0,152.59,61.65Z"/><path class="cls-10" d="M161.4,61.87c-.18-3-.22-10.24-.14-10.66a2.57,2.57,0,0,1,2-.1c.12.34.46,12.44.24,13.61a3.83,3.83,0,0,1-2,.06C161.48,64.17,161.42,62.23,161.4,61.87Z"/><path class="cls-10" d="M166.39,64.58a36.1,36.1,0,0,1-.24-4.13c-.08-2.35-.46-8.66-.46-9.26a1.6,1.6,0,0,1,1.34-.1c.06,0,.08,0,.1.08.08.22.61,6.43.63,6.63a3.79,3.79,0,0,1,4.62-1,3.08,3.08,0,0,1,1.37,3.31,4.92,4.92,0,0,1-3.69,4.39,19,19,0,0,1-3.55.18A.13.13,0,0,1,166.39,64.58Zm3.69-1.85a3.29,3.29,0,0,0,2.28-3.5,1.64,1.64,0,0,0-.76-1.07,1.78,1.78,0,0,0-1.16-.2,3.09,3.09,0,0,0-1.4.56,5.63,5.63,0,0,0-1.08,1,29.82,29.82,0,0,0,.12,3.5C168.18,63.17,169.9,62.77,170.08,62.73Z"/><path class="cls-10" d="M180.8,56.16a.25.25,0,0,1,.08.16,1.58,1.58,0,0,1-.3.92.27.27,0,0,1-.24.08l-.56-.18c-.18-.06-.36-.14-.53-.18a2,2,0,0,0-1.64.14,1.89,1.89,0,0,0-.6,1.36.77.77,0,0,0,.28.65,1.6,1.6,0,0,0,1.08.18l.14,0a5.64,5.64,0,0,1,1.43-.06,3,3,0,0,1,2,1.1,2.15,2.15,0,0,1,.38,1.74,4,4,0,0,1-1.92,2.67,2.84,2.84,0,0,1-2.41.14,4.32,4.32,0,0,1-2.18-2.11,1.17,1.17,0,0,1-.1-.44v-.06l0,0a3.3,3.3,0,0,1,1.06-.34A.22.22,0,0,1,177,62a2.7,2.7,0,0,0,1.66,1.6,1,1,0,0,0,.87-.1,2.21,2.21,0,0,0,1-2,1,1,0,0,0-.58-.76,1.34,1.34,0,0,0-.53-.12,3.48,3.48,0,0,0-.64,0l-.22,0-.14,0a3.64,3.64,0,0,1-1.9-.16,2.37,2.37,0,0,1-1.3-2.51,3.26,3.26,0,0,1,.8-1.82,3.17,3.17,0,0,1,2.3-.72A3.51,3.51,0,0,1,180.8,56.16Z"/></g></svg>