<svg xmlns="http://www.w3.org/2000/svg" viewBox="0 0 216 216"><defs><style>.cls-1{fill:#fff;}.cls-2{fill:#f1c40f;}.cls-3{fill:#a76531;}.cls-4{fill:#b5930b;}.cls-5{fill:#f9e79f;}.cls-6{fill:#dcc1ad;}.cls-7{fill:#7dde18;stroke:#7dde18;stroke-width:0.76px;}.cls-7,.cls-8,.cls-9{stroke-miterlimit:10;}.cls-8{stroke:#000;}.cls-8,.cls-9{stroke-width:0.5px;}.cls-9{fill:#b760c2;stroke:#b760c2;}</style></defs><g id="cutlines"><path class="cls-1" d="M180.48,114.53a8.2,8.2,0,0,0-6.26,2.9c-4.69-3.93-10.56-5.63-13.8-6.56l-2.68-.78c-.09-.21-.18-.42-.28-.62a10.09,10.09,0,0,0-.29-3.33,11.42,11.42,0,0,0,.44-2.54,17.43,17.43,0,0,0,4.36-7,18.07,18.07,0,0,0-2.12-15.45,17,17,0,0,0,6.33-7.6,9.76,9.76,0,0,0,.33-7.78,7.91,7.91,0,0,0-2.94-3.51A18.49,18.49,0,0,0,167,62a12,12,0,0,0,2.09-.62,12.42,12.42,0,0,0,1.22.58,10.27,10.27,0,0,0,3.66.68,10.09,10.09,0,0,0,4.7-1.16,11.11,11.11,0,0,0,5.68-7.69,9.52,9.52,0,0,0-1.2-6.75v0a7.64,7.64,0,0,0-2.25-5.42,10.29,10.29,0,0,0-7.56-2.84,11.79,11.79,0,0,0-3.63.55l0-.09-.16-.32a7.59,7.59,0,0,0-4.77-4,9.06,9.06,0,0,0-2.54-.36,8.53,8.53,0,0,0-1.75.19,9.47,9.47,0,0,0-2.12-.24,9.58,9.58,0,0,0-4.39,1.07l-1.5.77a12,12,0,0,0-5-1.08h-.22a11.21,11.21,0,0,0-4.73,1.22,11.81,11.81,0,0,0-5.25-1.22H137a11.3,11.3,0,0,0-3.94.86,12.55,12.55,0,0,0-5.35-.85c-.8,0-1.42,0-1.44,0l-.8.05a17.38,17.38,0,0,0-4.86.8l-.14,0A12.18,12.18,0,0,0,115,35.3c-.81,0-1.43,0-1.54,0l-.7,0a17.38,17.38,0,0,0-4.86.8l-3.2,1.16-1.06,2.74a9.72,9.72,0,0,0-2.21.69l-.76.33-1.42,1.07-.54.65a7.53,7.53,0,0,0-1.38,2.58,12,12,0,0,0-5.75-3.23,14,14,0,0,0-3.34-.41,12.89,12.89,0,0,0-5.37,1.15,13,13,0,0,0-1.33.71c-.38-.23-.78-.46-1.19-.67l-.11-.05a11.65,11.65,0,0,0-5-1.14,12.09,12.09,0,0,0-3.69.59l-.22.09L69,42a11.22,11.22,0,0,0-2.36-.2c-.4,0-8.81,0-12.62,1.15v0l-1.26.42c-2.11-1.4-4.59-1.54-7.56-1.54-1,0-1.72,0-1.74,0l-.27,0L42,41.89a23.32,23.32,0,0,0-6.36,1h0a7.52,7.52,0,0,0-4.48,4.4h0a11.79,11.79,0,0,0-.62,4.49v.09c0,1.76,0,5.4.12,6.69a8,8,0,0,0,1.88,4.87,18.1,18.1,0,0,0,1.28,1.43,10.29,10.29,0,0,0,1.39,6.21,8,8,0,0,0,1.41,1.7,11,11,0,0,0-2.77,1.93,11.73,11.73,0,0,0-3.3,6.52A10.56,10.56,0,0,0,31,87v1.8a9.31,9.31,0,0,0,1,4.08,14.1,14.1,0,0,0,4.23,5,9.59,9.59,0,0,0-1.09.49L32,100.07l-.68,3.52c-.33,1.74-.17,9.42-.14,10.86,0,.47,0,2.14.09,2.93l.22,4,2.5,1.47-.07.06a7.63,7.63,0,0,0-2.62,5.78c0,.59.34,6.34.53,8.06.16,1.87.23,2.94.26,3.56A11,11,0,0,0,32.3,142l.8,3.53q-.29.42-.54.87A12.84,12.84,0,0,0,31.08,151a14.78,14.78,0,0,0,0,3.68l0,.15,0,.15a10.4,10.4,0,0,0,1.31,3.73v.48l.07.57.35,2.56L34.54,164A11.19,11.19,0,0,0,42,167.26h.24A9.51,9.51,0,0,0,49,164.41c.24,0,.48-.08.73-.14a7.44,7.44,0,0,0,1.34.17h.41a11.49,11.49,0,0,0,4.2-.74l.25-.11.25-.12a7.33,7.33,0,0,0,.67-.39,9.27,9.27,0,0,0,4.55,1.19l.77,0a10,10,0,0,0,1.35-.21,11.42,11.42,0,0,0,2.27.23l.67,0,.22,0,.21,0c.31.07.61.13.93.17a11.51,11.51,0,0,0,1.52.1,10.26,10.26,0,0,0,1.67-.14,7.21,7.21,0,0,0,1.67.44,10,10,0,0,0,1.62.13,10.29,10.29,0,0,0,3-.43l1.32-.4a11,11,0,0,0,1.41.28,10.81,10.81,0,0,0,1.27.07,10.7,10.7,0,0,0,6.25-2,18.13,18.13,0,0,0,3.24-3.08l2.1-2.8L92,153.14a8.59,8.59,0,0,0-.95-2.35,9.33,9.33,0,0,0-2.13-6.35,7.5,7.5,0,0,0,.82,0,9.61,9.61,0,0,0,2.12-.43,7.43,7.43,0,0,0,1.89.43c.5,0,1,.08,1.43.08a11.92,11.92,0,0,0,2.89-.36l.8-.19.74-.38a6.79,6.79,0,0,0,1.34-.89,9.21,9.21,0,0,0,5.23,1.62l.78,0a10.09,10.09,0,0,0,1.34-.21,11.51,11.51,0,0,0,2.28.23l.64,0,.23,0,.23,0a7.79,7.79,0,0,0,6.72-6.62l0-.28c.1-1,.18-3.12.28-6v-.15c0-.69,0-1.31.06-1.59l.26-2.83-1.83-2.34a6.2,6.2,0,0,0-.51-.57l.27-.1.25-.11.25-.12a7.53,7.53,0,0,0,3.82-4.51l.63-.21.15-.07c-1.15,6.31-1.83,14,1.66,20.13,1,19.75,1.28,20.27,2.09,21.89,1.68,3.37,5.27,5.38,9.58,5.38a11,11,0,0,0,1.74-.14,11.12,11.12,0,0,0,4.36.87,10,10,0,0,0,8.94-5,1.15,1.15,0,0,0,.14.17,9.8,9.8,0,0,0,7,3.3c.48,0,.92,0,1.32,0a12.85,12.85,0,0,0,1.69-.11,10.68,10.68,0,0,0,5.3,1.6h.41a10.67,10.67,0,0,0,9.88-6.3c.81-1.74,3.4-10.75,4.53-19.41a12.72,12.72,0,0,0,4.33-2.76,9.59,9.59,0,0,0,5.09-6c1.08-3.69.09-7.7-.49-9.51C188.84,119.73,186,114.53,180.48,114.53ZM99.31,69.09l.09-.17a13.45,13.45,0,0,0,.78-10c.14-.45.24-.9.34-1.34l1.27,2.54,3.95-3a7.37,7.37,0,0,0,.62,1.26,8.4,8.4,0,0,0,5.51,3.73,12.67,12.67,0,0,0,1.47.28,8.15,8.15,0,0,0-4.12,5.81,16.19,16.19,0,0,0,7.23,15.24A19.67,19.67,0,0,0,115,95.53a16.67,16.67,0,0,0,2,5.52h-.19a11.59,11.59,0,0,0-1.33.08l-.8-.14a10.83,10.83,0,0,0-2-.17,10.17,10.17,0,0,0-3,.43,10.28,10.28,0,0,0-5.68.17,9.1,9.1,0,0,0-3.47-.69,9,9,0,0,0-1.25.09,8.64,8.64,0,0,0-1.25.25l-.43-.07H96.14a7.68,7.68,0,0,0-4,1.09,11.33,11.33,0,0,0-5.24-1.16,11.74,11.74,0,0,0-2.71.31l.2-3.21a13,13,0,0,0,2.74,1.5,11.65,11.65,0,0,0,4.22.79A11.5,11.5,0,0,0,96.8,99a13.13,13.13,0,0,0,6.67-9.06,10.71,10.71,0,0,0-2-8.49,8.19,8.19,0,0,0,.07-1.06,7.86,7.86,0,0,0-2.34-5.59,9.84,9.84,0,0,0-3-2A11.66,11.66,0,0,0,99.31,69.09Z"/></g><g id="sticker"><path class="cls-2" d="M176.16,134.36a6.65,6.65,0,0,1-4.08-1.3l-.15-.13.54-3.85.52.83a4.51,4.51,0,0,0,3.16,2h.19c1.85,0,3.06-2,3.07-2l.17-.28,1.9.87-.15.33c-.05.13-1.46,3.2-4.45,3.48C176.63,134.34,176.39,134.36,176.16,134.36Z"/><path d="M179.72,130.1l1.29.59s-1.34,3-4.16,3.27a5.53,5.53,0,0,1-.69,0,6.3,6.3,0,0,1-3.85-1.22l.38-2.68a4.85,4.85,0,0,0,3.43,2.15h.22c2.08,0,3.38-2.16,3.38-2.16m-7.47-2L172,130l-.38,2.68,0,.4.3.25a7,7,0,0,0,4.31,1.38l.76,0c3.19-.31,4.68-3.56,4.74-3.7l.29-.64-.64-.3-1.29-.59-.58-.27-.33.55s-1.14,1.81-2.77,1.81h-.16a4.18,4.18,0,0,1-2.89-1.81l-1-1.65Z"/><path class="cls-3" d="M180.84,131.74a2.77,2.77,0,0,1-2.52-1.66,2.64,2.64,0,0,1,.54-2.7,3.72,3.72,0,0,0,.75-1.62c.07-.62.08-1.21.09-1.72,0-1,0-1.75.61-1.93l.05,0h.12c1,0,1.94,2.83,1.94,2.86s1.07,3.23.49,5.25A2.06,2.06,0,0,1,180.84,131.74Z"/><path d="M180.48,122.44c.54,0,1.43,2,1.6,2.61,0,0,1,3.12.48,5a1.71,1.71,0,0,1-1.72,1.29,2.4,2.4,0,0,1-2.19-1.45c-.7-1.69,1.1-2.42,1.31-4.13s-.08-3.2.46-3.36h.06m0-.71a.84.84,0,0,0-.27,0c-.84.25-.85,1.18-.87,2.26a14.65,14.65,0,0,1-.09,1.69,3.49,3.49,0,0,1-.68,1.46,3,3,0,0,0-.59,3,3.16,3.16,0,0,0,2.86,1.89,2.43,2.43,0,0,0,2.41-1.8c.62-2.12-.45-5.34-.49-5.47s-1-3.1-2.28-3.1Z"/><path class="cls-2" d="M126.41,78.85a11.88,11.88,0,0,1-4-.85,8.64,8.64,0,0,1-5.71-8.55.54.54,0,0,1,.57-.5,3.61,3.61,0,0,1,1,.29,25.67,25.67,0,0,0,4.07,1.15,42.92,42.92,0,0,0,7.39.8h.4l-.64,6.27,0,.05c0,.06-.67,1.34-3.07,1.34Z"/><path d="M117.25,69.31c.48,0,1.83.8,5,1.43a43.23,43.23,0,0,0,7.46.8l-.59,5.82s-.55,1.14-2.75,1.14a11.43,11.43,0,0,1-3.89-.84A8.28,8.28,0,0,1,117,69.5a.2.2,0,0,1,.22-.19m0-.72a.91.91,0,0,0-.93.8,9,9,0,0,0,6,8.94,12.08,12.08,0,0,0,4.14.88c2.58,0,3.32-1.38,3.39-1.54l.06-.11v-.13l.59-5.81.08-.79h-.79a42.63,42.63,0,0,1-7.32-.79,26.1,26.1,0,0,1-4-1.13,3.69,3.69,0,0,0-1.17-.32Z"/><path class="cls-3" d="M146,69.5s4.8,3.22,4.51,5.37S149,76.58,149,76.58a16.24,16.24,0,0,1,1.49,4.54,9.47,9.47,0,0,1,0,3.27s-5.79-2.86-5.94-4.51S146,69.5,146,69.5Z"/><path class="cls-2" d="M149.75,76.55a6.94,6.94,0,0,1-2.61-.42l-.18-.08-.87-5.1.33-.08c.43-.09,10.6-2.36,12.52-2.36.17,0,.5,0,.62.28.21.48-.26,1.67-.36,1.9a9.13,9.13,0,0,1-5,4.94A12.07,12.07,0,0,1,149.75,76.55Z"/><path d="M158.94,68.87c.18,0,.28,0,.29.06.22.5-1,4.72-5.15,6.37a11.7,11.7,0,0,1-4.33.89,6.74,6.74,0,0,1-2.47-.39l-.78-4.58s10.54-2.35,12.44-2.35m0-.71h0c-1.92,0-11.51,2.12-12.6,2.36l-.66.15.11.67.79,4.58.06.38.36.16a7.47,7.47,0,0,0,2.75.44,12.31,12.31,0,0,0,4.59-.94,9.45,9.45,0,0,0,5.19-5.13,3.53,3.53,0,0,0,.36-2.18,1,1,0,0,0-.95-.49Z"/><path class="cls-3" d="M149.15,117.44c-2,0-5.52-.33-7.41-2.48a5.6,5.6,0,0,1-1.18-4.64,18.55,18.55,0,0,1,6.73-12,.31.31,0,0,1,.21-.07.28.28,0,0,1,.15,0l1.65.78a.33.33,0,0,1,.18.22c.05.14,1,3.36.35,5-.34.83-.82,1.1-1.21,1.15.66,1,1.61,2.75,1.21,3.78a2,2,0,0,1-1.22,1.25c.86.77,2.25,2.13,2.25,3a1.08,1.08,0,0,1-1.14,1.11l1.11,2.32a.38.38,0,0,1,0,.33.39.39,0,0,1-.28.18S150,117.44,149.15,117.44Z"/><path d="M147.5,98.56l1.64.79s1,3.22.36,4.79c-.31.75-.71,1-1.05,1a1.23,1.23,0,0,1-.67-.23s2.22,2.93,1.72,4.22a1.7,1.7,0,0,1-1.61,1.15h-.11s2.72,2.22,2.72,3.22c0,.64-.55.76-.95.76a2.1,2.1,0,0,1-.41,0L150.5,117a13.27,13.27,0,0,1-1.35.06c-2.83,0-9-.68-8.24-6.71a18.34,18.34,0,0,1,6.59-11.81m0-.72a.71.71,0,0,0-.42.14,18.93,18.93,0,0,0-6.88,12.29,6,6,0,0,0,1.27,4.92c2,2.27,5.66,2.6,7.68,2.6a12.57,12.57,0,0,0,1.43-.06.72.72,0,0,0,.55-.36.73.73,0,0,0,0-.66l-.91-1.9a1.38,1.38,0,0,0,1-1.37c0-.86-1.05-2-2-2.9a2.52,2.52,0,0,0,.93-1.2c.41-1-.31-2.6-1-3.72a2.17,2.17,0,0,0,1-1.21c.72-1.76-.22-4.92-.33-5.28a.73.73,0,0,0-.38-.43l-1.64-.79a.87.87,0,0,0-.31-.07Z"/><path class="cls-4" d="M158.93,157.77l-.93,0a2.28,2.28,0,0,1-1.71-.7,2.7,2.7,0,0,1-.49-2.12c.14-1.58,2.14-11.36,2.23-11.78l0-.24,5.34-1,.92,2.6,0,.1c-.44,1.9-2.62,11.41-3.13,12.21A2.4,2.4,0,0,1,158.93,157.77Z"/><path d="M163.17,142.36l.79,2.21s-2.58,11.31-3.08,12.1c-.38.6-1,.74-1.95.74l-.91,0c-1.43-.07-2-.86-1.86-2.43s2.22-11.74,2.22-11.74l4.79-.85m.47-.82-.6.11-4.79.86-.48.09-.1.47c-.08.42-2.08,10.22-2.23,11.82a3.07,3.07,0,0,0,.58,2.38,2.65,2.65,0,0,0,2,.83l1,0a2.73,2.73,0,0,0,2.55-1.08c.52-.8,2.39-8.88,3.17-12.32l0-.2-.07-.2-.79-2.21-.2-.58Z"/><path class="cls-4" d="M135.4,158.53c-1.41,0-2.44-.44-2.82-1.2s-1.22-17.11-1.47-22.11l0-.69,6.62,4.19v17.73A2,2,0,0,1,135.4,158.53Z"/><path d="M131.47,135.2l5.87,3.72v17.53c0,1.22-.86,1.72-1.94,1.72a2.76,2.76,0,0,1-2.5-1c-.36-.72-1.43-22-1.43-22m-.79-1.34.07,1.38c.5,9.76,1.16,21.55,1.51,22.25.44.89,1.59,1.4,3.14,1.4a2.39,2.39,0,0,0,2.65-2.44V138.53l-.33-.21-5.87-3.72-1.17-.74Z"/><path class="cls-2" d="M128.68,89.29a.35.35,0,0,1-.34-.25L126.4,83a.25.25,0,0,1,0-.12c0-.27.37-6.46,1.59-10.05a13.09,13.09,0,0,1,3.7-5.58l.42-3.78a4.14,4.14,0,0,1-.88-3,2.07,2.07,0,0,1,2.15-1.89,2.24,2.24,0,0,1,2.16,1.39,4.77,4.77,0,0,1-.33,3.31l.51,2.54a14.79,14.79,0,0,1,3-.31,12.94,12.94,0,0,1,3,.32l.84-3a7.29,7.29,0,0,1-.49-2.33A1.92,1.92,0,0,1,145.34,59a2.83,2.83,0,0,1,.17,3.83l-.2,4.14a8.5,8.5,0,0,1,3.14,4.43c1,3.06,1.39,10,1.41,10.28a.37.37,0,0,1-.07.23L145,88.44a.39.39,0,0,1-.27.15Z"/><path d="M144,58.86a1.57,1.57,0,0,1,1.07.45c1.61,1.44.05,3.43.05,3.43l-.21,4.46a8,8,0,0,1,3.17,4.34c1,3.06,1.39,10.2,1.39,10.2l-4.83,6.49-16,.7-1.94-6s.36-6.37,1.58-10a12.56,12.56,0,0,1,3.7-5.51l.45-4.08a3.84,3.84,0,0,1-.9-2.86,1.73,1.73,0,0,1,1.8-1.58,1.87,1.87,0,0,1,1.82,1.15,4.6,4.6,0,0,1-.36,3.15l.6,3a14.38,14.38,0,0,1,3.32-.38,12.19,12.19,0,0,1,3.24.39l1-3.49a7.17,7.17,0,0,1-.51-2.31A1.67,1.67,0,0,1,144,58.86m0-.72a2.38,2.38,0,0,0-2.3,2.29,7.6,7.6,0,0,0,.47,2.35l-.72,2.6a14.06,14.06,0,0,0-2.73-.26,15.92,15.92,0,0,0-2.76.25l-.41-2.08a5.17,5.17,0,0,0,.29-3.46,2.56,2.56,0,0,0-2.5-1.64,2.44,2.44,0,0,0-2.5,2.2,4.44,4.44,0,0,0,.86,3.17l-.39,3.51a13.43,13.43,0,0,0-3.7,5.64c-1.23,3.63-1.6,9.87-1.61,10.14a1.07,1.07,0,0,0,0,.25L128,89.15a.71.71,0,0,0,.68.5h0l16-.71a.69.69,0,0,0,.54-.28l4.83-6.49a.68.68,0,0,0,.15-.47c0-.3-.45-7.26-1.43-10.37a9,9,0,0,0-3.12-4.5l.19-3.84a3.15,3.15,0,0,0-.28-4.22,2.33,2.33,0,0,0-1.55-.63Z"/><path class="cls-2" d="M166.16,159.26c-1.62-.06-2.49-1-2.49-1.95,0-.6,1.11-9.27,1.39-11.41a5.47,5.47,0,0,1-1.77-.58,5.74,5.74,0,0,1-1.37-1,30.08,30.08,0,0,1-8.25,1.37c-.75,0-1.44.05-2.06.05a18.48,18.48,0,0,1-5.2-.57c-.38,2.07-2,11-2.43,12.56a2.35,2.35,0,0,1-2.48,1.5h0c-1.08,0-2.32-.48-2.51-1.53-.27-1.48-.44-12.57-.47-14.36-1-.45-4.76-2.55-8.11-8.09-3.1-5.15-1.26-13.78,0-19.5.28-1.31.52-2.44.65-3.28a103.17,103.17,0,0,0,.64-11.44v-.33l15.49-1.14-.16.51c0,.07-2.38,7.65-.94,11.43,1.3,3.4,5.92,4.74,10,5.93l2.3.67c4.72,1.36,13.5,3.89,15.07,11.79,1.64,8.29-3.43,26.1-4,27.4a3.13,3.13,0,0,1-3,2Z"/><path d="M146.64,100s-2.43,7.73-.93,11.66,7.15,5.23,11.45,6.52,14.24,3.5,15.89,11.82-3.51,26.11-4,27.18a2.77,2.77,0,0,1-2.71,1.74h-.15c-1.51-.06-2.15-.95-2.15-1.6s1.43-11.73,1.43-11.73a4.63,4.63,0,0,1-2-.58,4.34,4.34,0,0,1-1.44-1.07,28.13,28.13,0,0,1-8.37,1.43q-1.11.06-2,.06c-4,0-5.47-.7-5.47-.7s-2.08,11.23-2.51,12.95a2,2,0,0,1-2.13,1.24c-1,0-2-.44-2.16-1.24-.29-1.57-.47-14.53-.47-14.53s-4.4-1.82-8.15-8,0-18.14.64-22.54a102.71,102.71,0,0,0,.64-11.49L146.64,100m1-.79-1,.08L132,100.35l-.66.05v.66a102.15,102.15,0,0,1-.64,11.39c-.12.82-.36,2-.64,3.26-1.23,5.77-3.08,14.49.09,19.75a21.44,21.44,0,0,0,8.07,8.14c0,2.53.2,12.73.47,14.2.22,1.26,1.6,1.82,2.86,1.82a2.69,2.69,0,0,0,2.83-1.78c.36-1.47,1.88-9.57,2.36-12.19a20.26,20.26,0,0,0,4.92.48c.66,0,1.36,0,2.08,0a31.76,31.76,0,0,0,8.14-1.32,6.38,6.38,0,0,0,1.29.87,5.85,5.85,0,0,0,1.54.56c-.36,2.83-1.35,10.53-1.35,11.12,0,1.07,1,2.24,2.84,2.31h.18a3.47,3.47,0,0,0,3.36-2.15c.61-1.3,5.72-19.25,4.06-27.62-1.61-8.11-10.53-10.68-15.33-12.06l-1.06-.31-1.23-.36c-4-1.16-8.52-2.48-9.75-5.72-1.4-3.66.92-11.12.94-11.2l.32-1Z"/><path class="cls-5" d="M138,140a15.16,15.16,0,0,1-3.58-8.63c-.5-4.78.79-8.39,1.58-14.31a134.74,134.74,0,0,0,.63-15.37l-4.19-.68-.42,0a102.71,102.71,0,0,1-.64,11.49c-.64,4.4-4.4,16.32-.64,22.54s8.15,8,8.15,8A3.81,3.81,0,0,0,138,140Z"/><path class="cls-6" d="M138.55,103.21c-5.44-.08-14.78-1.35-16.17-9a11.75,11.75,0,0,1,4.16-11.59c1.81-1.25,9.25-1.83,15.39-1.83,1.5,0,6.47,0,7.73.66,2.37,1.15,7.2,6.48,5.12,12.88-2,6.15-10.57,8.91-16,8.91Z"/><path d="M141.93,81.12c3.65,0,6.73.21,7.57.62,2.22,1.07,6.94,6.3,4.94,12.45s-10.43,8.66-15.67,8.66h-.22c-5.22-.07-14.45-1.21-15.81-8.73a11.29,11.29,0,0,1,4-11.23c1.74-1.2,9.22-1.77,15.19-1.77m0-.71c-4.78,0-13.44.4-15.59,1.89a11.91,11.91,0,0,0-4.31,12c1.07,5.88,6.93,9.19,16.51,9.32h.23c5.17,0,14.18-2.49,16.35-9.16s-2.86-12.13-5.31-13.31c-1.29-.63-5.94-.69-7.88-.69Z"/><path class="cls-3" d="M137.45,72.47a1.56,1.56,0,0,1-1.21-.68,2.61,2.61,0,0,1-.34-1.58,2.16,2.16,0,0,1-.35.24,1.91,1.91,0,0,1-1,.35.89.89,0,0,1-.66-.28,2.39,2.39,0,0,1-.39-1.82c.1-2.08,2.78-5,5.14-5a2.74,2.74,0,0,1,.64.08,4.52,4.52,0,0,1,3,2.34.37.37,0,0,1,0,.29.36.36,0,0,1-.21.19,3,3,0,0,0-1.1.77,7.39,7.39,0,0,0-.51,1.25c-.57,1.64-1.35,3.89-2.9,3.89Z"/><path d="M138.65,64a2.08,2.08,0,0,1,.55.07A4.16,4.16,0,0,1,142,66.23a3.3,3.3,0,0,0-1.26.88c-.56.63-1.29,5-3.14,5h-.11c-1.93-.18-1-3.19-1-3.19a3.4,3.4,0,0,1-1.11,1.22,1.73,1.73,0,0,1-.81.29c-.43,0-.76-.39-.7-1.72.1-1.94,2.7-4.69,4.79-4.69m0-.71c-2.53,0-5.39,3.14-5.5,5.36a2.7,2.7,0,0,0,.49,2.08,1.23,1.23,0,0,0,.92.4,2.1,2.1,0,0,0,1-.3A2.5,2.5,0,0,0,136,72a1.89,1.89,0,0,0,1.46.84h.18c1.8,0,2.63-2.39,3.24-4.13a7.62,7.62,0,0,1,.45-1.14,2.9,2.9,0,0,1,.94-.67.69.69,0,0,0,.42-.38.73.73,0,0,0,0-.56,4.86,4.86,0,0,0-3.27-2.55,2.92,2.92,0,0,0-.73-.09Z"/><path d="M136.82,78.82a2.3,2.3,0,1,1-2.3-2.3A2.3,2.3,0,0,1,136.82,78.82Z"/><path d="M134.52,81.48a2.66,2.66,0,1,1,2.66-2.66A2.66,2.66,0,0,1,134.52,81.48Zm0-4.61a1.95,1.95,0,1,0,1.95,1.95A2,2,0,0,0,134.52,76.87Z"/><path class="cls-1" d="M134.61,78.13a.78.78,0,1,1-.78-.77A.77.77,0,0,1,134.61,78.13Z"/><path d="M145.17,78.82a2.31,2.31,0,1,1-2.3-2.3A2.3,2.3,0,0,1,145.17,78.82Z"/><path d="M142.87,81.48a2.66,2.66,0,1,1,2.66-2.66A2.66,2.66,0,0,1,142.87,81.48Zm0-4.61a1.95,1.95,0,1,0,1.94,1.95A2,2,0,0,0,142.87,76.87Z"/><circle class="cls-1" cx="142.18" cy="78.13" r="0.77"/><path class="cls-3" d="M144.56,105.46s-1.89,1.15-2.14,1.72a12.43,12.43,0,0,0-.5,1.83s1.21,1.25,1.57,1.25.75-.68.86-1.43S144.56,105.46,144.56,105.46Z"/><path class="cls-3" d="M143.54,112.55a14.55,14.55,0,0,1,1.4,2.63c0,.43-1.11,2.84-1.63,2.74a3.16,3.16,0,0,1-1.7-2.2c-.05-.92-.05-.86.38-1.4S141.88,112.07,143.54,112.55Z"/><path class="cls-3" d="M148.32,117.92s-1.13.75-1.18,1.39-.32,1.08.59,1.45,3.11,1.4,3.49,1.24,1.61-1.38,1.45-2-.7-1.68-1.45-1.73S148.8,117.55,148.32,117.92Z"/><path class="cls-3" d="M143.87,119.91s-1.67,1.64-1.56,2.1,2.2,3,2.9,2.56a3.23,3.23,0,0,0,1.23-2.56C146.33,121.19,145.42,119.64,143.87,119.91Z"/><path class="cls-3" d="M142.92,103.82s-.9,0-1,.32-.51.64,0,.86.89.46,1-.14A2.94,2.94,0,0,0,142.92,103.82Z"/><path class="cls-3" d="M156.51,119.63s-1.53.93-1.61,1.47.22,1.54.81,1.68a1.66,1.66,0,0,0,1.81-.77A3.15,3.15,0,0,0,156.51,119.63Z"/><path class="cls-3" d="M160.41,120.81a18.47,18.47,0,0,0-1.5,2.62c0,.32,1.08,2.47,1.5,2.54s2.9.36,3.33-.36,1.08-1.47,1.08-1.9a3,3,0,0,0-2-1.86A24.57,24.57,0,0,1,160.41,120.81Z"/><path class="cls-3" d="M169.6,125.86l-1-1.32-1.27.41s-.51,2.14-.24,2.52.51.56,1.24,0A6.33,6.33,0,0,0,169.6,125.86Z"/><path class="cls-3" d="M152.68,123.45s-1.28.71-1.28,1.18,1.06.91,1.28.91.76.21.94-.5a4.48,4.48,0,0,0,0-1.59C153.62,123.21,152.68,123.45,152.68,123.45Z"/><path class="cls-3" d="M156.66,124.25s-1,.78-1.15,1.32a7.36,7.36,0,0,0-.28,2.26c.1.43,1.39,1.07,1.71,1.07s2.08-.25,2-.57a11.48,11.48,0,0,0-.61-2.76C157.91,125,157.05,123.92,156.66,124.25Z"/><path class="cls-3" d="M163.31,127.33s-1.61.14-1.71.5-.43,2.47.26,2.5a3.3,3.3,0,0,1,1.78.43c.39.32,1.39.22,1.46-.18a13.5,13.5,0,0,0,0-2.11C165.07,128,163.31,127.33,163.31,127.33Z"/><path class="cls-3" d="M169.22,128.9s-2.06,1.27-2.25,2a5.56,5.56,0,0,0,0,2.17c.1.4.71,1.83,1.32,1.83s2.25-.82,2.36-1.83a7.87,7.87,0,0,0,0-2.43C170.51,129.94,169.5,128.72,169.22,128.9Z"/><path class="cls-3" d="M148,125.36s-1.32,1.07-1.32,1.5.29,1.9.93,2a1.47,1.47,0,0,0,1.5-1.25C149.14,127,149,125.29,148,125.36Z"/><path class="cls-3" d="M144.38,126.54s-2-.28-2.29,0a10.47,10.47,0,0,0-1.36,2.38c0,.23,1.4,1.73,2.29,1.34S144.87,126.84,144.38,126.54Z"/><path class="cls-3" d="M152.33,128a14.93,14.93,0,0,0-1.11,2.79c0,.61,3.27,1.82,4,1.5a2.05,2.05,0,0,0,1.24-1.57C156.44,130.19,153,127.4,152.33,128Z"/><path class="cls-3" d="M159.45,131.12s-1.07.3-1.33.8-.39,1,.22,1.31,1.18.25,1.36-.43S160,131.3,159.45,131.12Z"/><path class="cls-3" d="M163.29,132.26a7.59,7.59,0,0,1,.67,2c.09.86-.72,2.09-1.74,1.18s0-1.45,0-2.07S162.82,131.1,163.29,132.26Z"/><path class="cls-3" d="M165.5,135.79s-2.1,1.77-1.54,2.41,2.45,2.42,3,1.61S166.52,135.41,165.5,135.79Z"/><path class="cls-3" d="M170.92,135.76a1.71,1.71,0,0,0-1.32.94c-.4.86-.24,1.4.24,1.67s1.51.07,1.67-.48S172.1,135.63,170.92,135.76Z"/><path class="cls-3" d="M169.37,140s-1.19.12-1.08.81.67,1.56,1.08,1.35S170.08,140.17,169.37,140Z"/><path class="cls-3" d="M143.63,134.45a4.76,4.76,0,0,0,.65-1.51c0-.39-3.8-1.87-4.05-1.08a2.63,2.63,0,0,0,1,2.59C142,134.77,143.34,135,143.63,134.45Z"/><path class="cls-3" d="M147.14,131.86s2.75-.27,2.83,1-1.08,3.25-1.9,3.25a1.26,1.26,0,0,1-1.36-1.14C146.67,134.34,146.75,131.89,147.14,131.86Z"/><path class="cls-3" d="M144.28,137.17s2.11-.5,2.22.25-1.19,3.47-1.61,3.47-.54,0-.76-1.11S143.67,137.52,144.28,137.17Z"/><path class="cls-5" d="M160.5,138.37s-3.66-2.88-7.89-2.28a8.07,8.07,0,0,0-5.9,4.15,9.44,9.44,0,0,1,0,2.51,19.87,19.87,0,0,1-.56,2s1.93.93,7.51.64a28.13,28.13,0,0,0,8.37-1.43,8.93,8.93,0,0,1-1.25-2.37A9.76,9.76,0,0,1,160.5,138.37Z"/><path class="cls-3" d="M133.94,90.16c-.53,3.1,1.35,5.64,4.58,5.64s5.06-2.55,4.46-5.64c-.11-.58-1-.33-.89.25.48,2.47-1,4.49-3.57,4.47a3.6,3.6,0,0,1-3.7-4.47c.1-.58-.78-.83-.88-.25Z"/><path class="cls-3" d="M137.46,85.42a.85.85,0,0,1-.85.85.86.86,0,1,1,.85-.85Z"/><path class="cls-3" d="M141.67,85.42a.78.78,0,0,1-1.55,0,.78.78,0,0,1,1.55,0Z"/><path class="cls-3" d="M119.66,72.91a6.14,6.14,0,0,1,.3-2.74c-2.18-.64-2.85-1.16-2.93-.67a8.28,8.28,0,0,0,5.49,8.16l.26.1C121.7,76.38,119.9,74.5,119.66,72.91Z"/><path class="cls-3" d="M154.08,75.3c4.15-1.65,5.37-5.87,5.15-6.37a7.25,7.25,0,0,0-2.63.24,10.84,10.84,0,0,1-.55,2.59,15.18,15.18,0,0,1-2,3.56Z"/><path class="cls-3" d="M134.83,63.21a4.6,4.6,0,0,0,.36-3.15c-.5-1.51-3.34-1.71-3.62.43a3.84,3.84,0,0,0,.9,2.86A2.4,2.4,0,0,0,134.83,63.21Z"/><path class="cls-3" d="M145.1,59.31a1.58,1.58,0,0,0-2.66,1.12,7.17,7.17,0,0,0,.51,2.31,3,3,0,0,0,2.2,0S146.71,60.75,145.1,59.31Z"/><path class="cls-1" d="M132.22,134.12a.73.73,0,0,1-.58-.3c-.13-.19-3.28-4.65-.86-13.2a64,64,0,0,0,2.34-15.38.71.71,0,0,1,.71-.72h0a.72.72,0,0,1,.72.72,64.16,64.16,0,0,1-2.4,15.77c-2.23,7.89.62,11.93.65,12a.72.72,0,0,1-.16,1A.75.75,0,0,1,132.22,134.12Z"/><path class="cls-1" d="M142.32,157.39l-.13,0a.71.71,0,0,1-.58-.83l2.2-12a.72.72,0,0,1,1.41.26l-2.2,12A.72.72,0,0,1,142.32,157.39Z"/><path class="cls-1" d="M167.87,157.05l-.16,0a.71.71,0,0,1-.53-.87l2.6-10.91a.71.71,0,1,1,1.39.33l-2.6,10.92A.73.73,0,0,1,167.87,157.05Z"/><path class="cls-1" d="M124.71,95.17a.72.72,0,0,1-.65-.42c-3-6.48,3.31-10.91,3.37-11a.72.72,0,1,1,.82,1.18c-.22.15-5.36,3.79-2.89,9.18a.7.7,0,0,1-.35.94A.66.66,0,0,1,124.71,95.17Z"/><circle class="cls-1" cx="126.08" cy="96.66" r="0.85"/><path class="cls-7" d="M43.13,67.69c-.37-.08-1.25-.25-1.45-.59a3,3,0,0,1,.06-2.76c1,.15,1.9.91,2.95.8,2.75-.26,4-4.94,2.58-7.15a2,2,0,0,0-1-.83,2.11,2.11,0,0,0-1.53.17,18.55,18.55,0,0,0-2.53,1.42c-.37.23-.74.48-1.11.74-.17.09-1,.68-1.16.57a5.43,5.43,0,0,1-1.62-1.51.44.44,0,0,1-.11-.31c-.06-.88-.14-4.63-.12-6.33a8.56,8.56,0,0,1,.12-1.9,29,29,0,0,1,5.53-.65c1-.06,4.43,0,4.77.25a2.51,2.51,0,0,1-.17,2.27c-.82,0-2.61,0-3.18.09-1.42.11-3.18.08-4.57.31.14,1,.23,2.9.29,4.32,0-.23,1.22-.88,1.41-1a9.14,9.14,0,0,1,1.57-.71,5.75,5.75,0,0,1,3.26-.08,4.73,4.73,0,0,1,2.72,1.79,6,6,0,0,1,.74,3.85,12,12,0,0,1-1.47,4.86A4.9,4.9,0,0,1,45.09,68,7.55,7.55,0,0,1,43.13,67.69Z"/><path class="cls-7" d="M55,66.24c0,.26-.6,1.65-.8,2.19a4.42,4.42,0,0,1-.42.91,1.83,1.83,0,0,1-.74-.26,11.74,11.74,0,0,1,1-3.2A1.5,1.5,0,0,1,55,66.24Z"/><path class="cls-7" d="M62.23,67.78l-.09-.06v-.14c.06-.54.29-2.13.43-3.18l.11-.88c.37-2.78,1.28-8.17,1.82-11.13-2.53.26-7.5.46-7.86.37l-.09,0-.06-.12a4.87,4.87,0,0,1-.14-2.3l0-.25.09,0c.31-.17,10-.91,10.92-.65l.14,0v.12a7.5,7.5,0,0,1,0,2.13l-.06.31c-.54,4-2.21,14.53-2.64,15.75l0,.09-.08,0a3.38,3.38,0,0,1-1,.15A4.39,4.39,0,0,1,62.23,67.78Z"/><path class="cls-7" d="M72.33,65.79a.13.13,0,0,1,.14-.17,4.64,4.64,0,0,0,3.78-2.24c1.3-1.79,2.58-4.91,2.1-7.49-2.84,2.52-6.39,2.89-8.06-.34A3.42,3.42,0,0,1,70.74,52a5.82,5.82,0,0,1,3.15-2.47,4.07,4.07,0,0,1,3.12.2,6.82,6.82,0,0,1,3.86,4.68,12.14,12.14,0,0,1-3.29,12c-.65.68-2.21,1.56-3.29,1.28A3.65,3.65,0,0,1,72.33,65.79Zm4.8-11.86a2.83,2.83,0,0,0-1-1.79c-1-.68-2.84-.06-3.72,1.39a1.39,1.39,0,0,0,.83,2.19C75,56.11,77.13,53.93,77.13,53.93Z"/><path class="cls-7" d="M86.52,67.75a3.66,3.66,0,0,1-2.27-1.85,4.73,4.73,0,0,1-.51-2.07.34.34,0,0,1,.22-.22,10.93,10.93,0,0,1,1.22-.15h.37a.47.47,0,0,1,.37.32c.34,1.22.91,2.58,2.39,2.38s1.87-1.79,2-2.7A6,6,0,0,0,90,61.19a2.53,2.53,0,0,0-2.24-1.53,6.45,6.45,0,0,1-.69-.06l-.19,0a.26.26,0,0,1-.26-.26V57.93c.06-.2.28-.2.43-.2h0c2.9,0,3.21-1.84,3.21-1.9a6,6,0,0,0-.06-2.27c-.19-.91-.9-2.44-2.29-2.44s-1.88,1.47-2,2.72a.5.5,0,0,1-.34.34,1.2,1.2,0,0,1-.31,0h-.06a4.28,4.28,0,0,1-1.22,0,.29.29,0,0,1-.25-.17A5,5,0,0,1,84,51.94a3.57,3.57,0,0,1,2-2.13,5.8,5.8,0,0,1,3.77-.28,4.26,4.26,0,0,1,2.56,1.64,6.32,6.32,0,0,1,.54,5.68,3.52,3.52,0,0,1-1.17,1.7l-.14.12a3.36,3.36,0,0,1,.85,1.16,6.28,6.28,0,0,1,.2,5.71,4.41,4.41,0,0,1-2.3,2A6.53,6.53,0,0,1,88,68,5.54,5.54,0,0,1,86.52,67.75Z"/><path class="cls-7" d="M45.85,80.13a.35.35,0,0,1,.12.23,2.2,2.2,0,0,1-.43,1.3.4.4,0,0,1-.34.12l-.79-.26c-.26-.08-.51-.2-.74-.26a2.83,2.83,0,0,0-2.33.2,2.73,2.73,0,0,0-.85,1.93,1.05,1.05,0,0,0,.4.91,2.33,2.33,0,0,0,1.53.26l.2,0a7.85,7.85,0,0,1,2-.09A4.21,4.21,0,0,1,47.44,86,3.06,3.06,0,0,1,48,88.47a5.61,5.61,0,0,1-2.72,3.78,4.05,4.05,0,0,1-3.41.2,6.08,6.08,0,0,1-3.09-3,1.6,1.6,0,0,1-.14-.63v-.08l.05-.06a4.78,4.78,0,0,1,1.51-.48.31.31,0,0,1,.34.2,3.85,3.85,0,0,0,2.35,2.27,1.42,1.42,0,0,0,1.22-.14,3.14,3.14,0,0,0,1.42-2.87,1.45,1.45,0,0,0-.82-1.08,2,2,0,0,0-.74-.17,4.72,4.72,0,0,0-.91,0l-.31,0-.2,0a5.17,5.17,0,0,1-2.69-.23A3.37,3.37,0,0,1,38,82.74a4.6,4.6,0,0,1,1.14-2.58,4.5,4.5,0,0,1,3.26-1A4.92,4.92,0,0,1,45.85,80.13Z"/><path class="cls-7" d="M52.64,88.28c-.09-1.62-.17-4.12-.2-6.59-1.71,0-3.24,0-3.38-.06a3.32,3.32,0,0,1,0-2,32.7,32.7,0,0,1,3.38-.2c0-3.21,0-6,0-6.27A3.58,3.58,0,0,1,55.3,73c.09.17.2,3,.29,6.36a20.94,20.94,0,0,1,2.95.09,4.75,4.75,0,0,1,0,2c-.4,0-1.76.09-2,.09l-.86.06c.12,4.73.17,9.84,0,10.7a5.14,5.14,0,0,1-2.83.08C52.75,91.54,52.66,88.79,52.64,88.28Z"/><path class="cls-7" d="M61,82.85c1.05-3.52,4.62-4.74,7.35-2.81A3,3,0,0,1,69,83.93c-1,1.73-3.38,2.76-5.31,3a2.86,2.86,0,0,0,.94,2.81,2,2,0,0,0,2.67.09c.68-.6,1.22-1.34,2-2.13a.5.5,0,0,1,.51-.12,2.32,2.32,0,0,1,1.45,1.54,18.93,18.93,0,0,1-2.53,2.32,5,5,0,0,1-3.43.88C60.55,91.79,60,86.23,61,82.85Zm6,.6c.73-.91.62-1.39.36-1.82A1.44,1.44,0,0,0,66,81c-1.31.37-2.08,2.16-2.19,3.86A4.87,4.87,0,0,0,67,83.45Z"/><path class="cls-7" d="M74.43,90.83c-.26-2.07-.77-11.1-.77-11.27,0-.37.4-.31.4-.31h1.45c.17,0,.23.08.23.23.08.76.28,2.41.42,3.43.37-.65.94-1.53,1.25-2,1.53-2.18,3.75-2.64,5-1.56a4,4,0,0,1,1.28,2.44,12.85,12.85,0,0,1,.23,3.1,9,9,0,0,1-.86,3.37A7.66,7.66,0,0,1,82,89.89a3.61,3.61,0,0,1-4.46.57,3.94,3.94,0,0,1-.79-.54l-.2-.11a68.23,68.23,0,0,1,.34,7.66,2.44,2.44,0,0,1-1.93.11C74.88,97.33,74.86,95.85,74.43,90.83Zm6.84-3.69c.82-1.87,1-4.77-.48-5.48-2.44-1.13-4,4.4-3.83,5.88C77.66,88.42,80.19,89.61,81.27,87.14Z"/><path class="cls-7" d="M93.9,80.13a.38.38,0,0,1,.11.23,2.27,2.27,0,0,1-.42,1.3.42.42,0,0,1-.35.12l-.79-.26c-.26-.08-.51-.2-.74-.26a2.83,2.83,0,0,0-2.33.2,2.73,2.73,0,0,0-.85,1.93,1.08,1.08,0,0,0,.4.91,2.33,2.33,0,0,0,1.53.26l.2,0a7.93,7.93,0,0,1,2-.09A4.25,4.25,0,0,1,95.49,86,3.06,3.06,0,0,1,96,88.47a5.66,5.66,0,0,1-2.73,3.78,4,4,0,0,1-3.4.2,6.14,6.14,0,0,1-3.1-3,1.79,1.79,0,0,1-.14-.63v-.08l.06-.06a4.72,4.72,0,0,1,1.5-.48.31.31,0,0,1,.34.2,3.86,3.86,0,0,0,2.36,2.27,1.43,1.43,0,0,0,1.22-.14,3.18,3.18,0,0,0,1.42-2.87,1.49,1.49,0,0,0-.83-1.08,1.91,1.91,0,0,0-.73-.17,4.67,4.67,0,0,0-.91,0l-.31,0-.2,0a5.21,5.21,0,0,1-2.7-.23A3.35,3.35,0,0,1,86,82.74a4.59,4.59,0,0,1,1.13-2.58,4.5,4.5,0,0,1,3.26-1A5,5,0,0,1,93.9,80.13Z"/><path class="cls-8" d="M104.46,47.58c1.27-.56,1.66.11,2.83.22a2.1,2.1,0,0,0,1.38-.22c.21.24.1.84,0,1.07-.9.15-1.93-.66-3.2-.53a1.92,1.92,0,0,0-1,.64A2.35,2.35,0,0,1,104.46,47.58Z"/><path class="cls-8" d="M113.66,54.87c-.24,0-.82-.16-1-.39a2,2,0,0,1,0-1.82c.68.09,1.26.6,2,.53,1.82-.17,2.65-3.27,1.71-4.73a1.18,1.18,0,0,0-1.65-.43,11.49,11.49,0,0,0-1.67.94l-.73.48c-.11.06-.64.45-.77.38a3.65,3.65,0,0,1-1.07-1,.33.33,0,0,1-.07-.21c0-.58-.1-3.06-.08-4.18a5.24,5.24,0,0,1,.08-1.26,18.65,18.65,0,0,1,3.65-.43,13,13,0,0,1,3.15.17,1.65,1.65,0,0,1-.11,1.5c-.54,0-1.72,0-2.1,0-.94.08-2.1.06-3,.21.1.68.15,1.91.19,2.85,0-.15.81-.58.94-.66a5.58,5.58,0,0,1,1-.46,3.76,3.76,0,0,1,2.15-.06,3.19,3.19,0,0,1,1.81,1.18,4,4,0,0,1,.48,2.55,7.9,7.9,0,0,1-1,3.21A3.23,3.23,0,0,1,115,55.06,4.7,4.7,0,0,1,113.66,54.87Z"/><path class="cls-8" d="M121.52,53.92c0,.17-.39,1.09-.53,1.44a2.83,2.83,0,0,1-.28.6,1.2,1.2,0,0,1-.49-.17,8,8,0,0,1,.7-2.12A1,1,0,0,1,121.52,53.92Z"/><path class="cls-8" d="M126.39,54.87c-.24,0-.82-.16-1-.39a1.93,1.93,0,0,1,0-1.82c.67.09,1.25.6,2,.53,1.81-.17,2.64-3.27,1.7-4.73a1.18,1.18,0,0,0-1.65-.43,12,12,0,0,0-1.67.94l-.73.48c-.11.06-.64.45-.77.38a3.65,3.65,0,0,1-1.07-1,.33.33,0,0,1-.07-.21c0-.58-.09-3.06-.08-4.18a5.81,5.81,0,0,1,.08-1.26,18.67,18.67,0,0,1,3.66-.43,13.07,13.07,0,0,1,3.15.17,1.68,1.68,0,0,1-.12,1.5c-.54,0-1.72,0-2.1,0-.93.08-2.1.06-3,.21.1.68.15,1.91.19,2.85,0-.15.81-.58.94-.66a5.9,5.9,0,0,1,1-.46,3.79,3.79,0,0,1,2.16-.06,3.2,3.2,0,0,1,1.8,1.18,4,4,0,0,1,.49,2.55,8.07,8.07,0,0,1-1,3.21,3.23,3.23,0,0,1-2.68,1.76A4.81,4.81,0,0,1,126.39,54.87Z"/><path class="cls-8" d="M137.4,55.21a4.24,4.24,0,0,1-3.28-1.84,8.6,8.6,0,0,1-.39-7.91,8.32,8.32,0,0,1,.76-1.31,3.53,3.53,0,0,1,2.78-1.41,4.09,4.09,0,0,1,3.24,1.46,3.64,3.64,0,0,1,.6,1,8.77,8.77,0,0,1,.42,3.95,10.18,10.18,0,0,1-.92,3.74,6.74,6.74,0,0,1-.77,1.25,2.72,2.72,0,0,1-2.27,1.09ZM139,52c1.19-1.72.89-5,.59-6a2.13,2.13,0,0,0-1-1.42,1.86,1.86,0,0,0-1.41,0,3.43,3.43,0,0,0-1.76,1.86,9.69,9.69,0,0,0-.44,3.3,6.85,6.85,0,0,0,.68,2.57l.07.13a1.55,1.55,0,0,0,1.67.81A2.73,2.73,0,0,0,139,52Z"/><path class="cls-8" d="M147.6,55.21a4.24,4.24,0,0,1-3.28-1.84,8.6,8.6,0,0,1-.39-7.91,7.65,7.65,0,0,1,.77-1.31,3.5,3.5,0,0,1,2.77-1.41,4.13,4.13,0,0,1,3.25,1.46,4.22,4.22,0,0,1,.6,1,8.9,8.9,0,0,1,.41,3.95,10.18,10.18,0,0,1-.92,3.74,6.74,6.74,0,0,1-.77,1.25,2.72,2.72,0,0,1-2.27,1.09ZM149.22,52c1.18-1.72.88-5,.58-6a2.13,2.13,0,0,0-1.05-1.42,1.86,1.86,0,0,0-1.41,0,3.43,3.43,0,0,0-1.76,1.86,9.45,9.45,0,0,0-.43,3.3,6.66,6.66,0,0,0,.67,2.57l.08.13a1.54,1.54,0,0,0,1.67.81A2.79,2.79,0,0,0,149.22,52Z"/><path class="cls-8" d="M157.47,52.21c-.17-2.81-.21-9.58-.14-10a2.42,2.42,0,0,1,1.9-.09c.11.32.43,11.65.22,12.73a3.52,3.52,0,0,1-1.87.06C157.54,54.37,157.48,52.55,157.47,52.21Z"/><path class="cls-8" d="M162.13,54.74a35.1,35.1,0,0,1-.22-3.86c-.07-2.19-.43-8.1-.43-8.66a1.49,1.49,0,0,1,1.26-.1s.07,0,.09.08c.07.2.56,6,.58,6.2a3.56,3.56,0,0,1,4.33-.91A2.87,2.87,0,0,1,169,50.58a4.6,4.6,0,0,1-3.45,4.11,18.34,18.34,0,0,1-3.32.17A.13.13,0,0,1,162.13,54.74ZM165.59,53a3.07,3.07,0,0,0,2.13-3.28,1.51,1.51,0,0,0-.71-1,1.7,1.7,0,0,0-1.09-.19,3,3,0,0,0-1.31.53,4.61,4.61,0,0,0-1,.9,28.16,28.16,0,0,0,.11,3.28C163.8,53.43,165.42,53.05,165.59,53Z"/><path class="cls-8" d="M175.62,46.87a.24.24,0,0,1,.07.15,1.47,1.47,0,0,1-.28.86.23.23,0,0,1-.22.07c-.14,0-.32-.09-.53-.16a4.11,4.11,0,0,0-.49-.17,1.81,1.81,0,0,0-1.53.13,1.73,1.73,0,0,0-.57,1.27.69.69,0,0,0,.27.6,1.46,1.46,0,0,0,1,.17l.13,0a5.32,5.32,0,0,1,1.33-.05,2.77,2.77,0,0,1,1.86,1,2,2,0,0,1,.35,1.63,3.68,3.68,0,0,1-1.8,2.49A2.63,2.63,0,0,1,173,55a4.08,4.08,0,0,1-2-2,1.06,1.06,0,0,1-.09-.42v0l0,0a3.18,3.18,0,0,1,1-.32.2.2,0,0,1,.22.13,2.53,2.53,0,0,0,1.56,1.5.89.89,0,0,0,.8-.09,2.07,2.07,0,0,0,.94-1.9,1,1,0,0,0-.54-.71,1.36,1.36,0,0,0-.49-.11,3.06,3.06,0,0,0-.6,0l-.21,0-.13,0a3.5,3.5,0,0,1-1.78-.15,2.22,2.22,0,0,1-1.22-2.35,3.18,3.18,0,0,1,.75-1.71,3,3,0,0,1,2.16-.67A3.27,3.27,0,0,1,175.62,46.87Z"/><path class="cls-9" d="M38.62,114.38c-.11-2.65-.07-9,0-9.39a2.08,2.08,0,0,1,1.69-.08c.09.3.24,11,0,12a2.88,2.88,0,0,1-1.66,0C38.66,116.41,38.62,114.69,38.62,114.38Z"/><path class="cls-9" d="M42.23,116.8a.48.48,0,0,1-.22-.47.64.64,0,0,1,.18-.27A1.55,1.55,0,0,1,44,116a.6.6,0,0,1,.24.35.64.64,0,0,1-.43.53A1.72,1.72,0,0,1,42.23,116.8Z"/><path class="cls-9" d="M45.81,114.38c-.11-2.65-.07-9,0-9.39a2,2,0,0,1,1.68-.08c.1.3.24,11,.06,12a2.88,2.88,0,0,1-1.66,0C45.85,116.41,45.81,114.69,45.81,114.38Z"/><path class="cls-9" d="M57.91,109a.2.2,0,0,1,.08.14,1.42,1.42,0,0,1-.28.85.24.24,0,0,1-.22.08c-.13,0-.31-.09-.52-.17s-.33-.13-.48-.16a1.81,1.81,0,0,0-1.51.12,1.76,1.76,0,0,0-.56,1.26.68.68,0,0,0,.26.59,1.44,1.44,0,0,0,1,.17l.13,0a5.15,5.15,0,0,1,1.31-.06,2.79,2.79,0,0,1,1.83,1,2,2,0,0,1,.35,1.61,3.67,3.67,0,0,1-1.77,2.46,2.67,2.67,0,0,1-2.22.13,4,4,0,0,1-2-1.94,1,1,0,0,1-.1-.41v-.06l0,0a3.14,3.14,0,0,1,1-.32.2.2,0,0,1,.22.13A2.48,2.48,0,0,0,56,115.89a.92.92,0,0,0,.8-.09,2,2,0,0,0,.92-1.87,1,1,0,0,0-.53-.7,1.36,1.36,0,0,0-.48-.11,2.94,2.94,0,0,0-.59,0l-.21,0h-.13A3.28,3.28,0,0,1,54,113a2.17,2.17,0,0,1-1.2-2.31,3,3,0,0,1,.74-1.69,2.93,2.93,0,0,1,2.12-.66A3.16,3.16,0,0,1,57.91,109Z"/><path class="cls-9" d="M62.33,114.32c-.06-1-.11-2.68-.13-4.29-1.11,0-2.11,0-2.2,0a2.24,2.24,0,0,1,0-1.3c.06,0,1-.09,2.2-.13,0-2.08,0-3.88,0-4.08a2.35,2.35,0,0,1,1.87-.09c.05.11.13,1.92.18,4.14a15.89,15.89,0,0,1,1.92,0,3.31,3.31,0,0,1,0,1.29l-1.32.06-.55,0c.07,3.08.11,6.41,0,7a3.35,3.35,0,0,1-1.85.06C62.4,116.44,62.35,114.65,62.33,114.32Z"/><path class="cls-9" d="M67.8,110.79A3.06,3.06,0,0,1,72.59,109a1.93,1.93,0,0,1,.38,2.53,4.87,4.87,0,0,1-3.45,2,1.86,1.86,0,0,0,.61,1.83,1.28,1.28,0,0,0,1.73.06A18,18,0,0,0,73.14,114a.31.31,0,0,1,.33-.07,1.47,1.47,0,0,1,.94,1,11.5,11.5,0,0,1-1.64,1.52,3.34,3.34,0,0,1-2.24.57C67.49,116.61,67.15,113,67.8,110.79Zm3.88.39c.48-.59.41-.91.24-1.18a.93.93,0,0,0-.92-.41c-.85.24-1.35,1.4-1.43,2.51A3.14,3.14,0,0,0,71.68,111.18Z"/><path class="cls-9" d="M76.52,116c-.17-1.35-.5-7.22-.5-7.33s.26-.21.26-.21h.94c.11,0,.15.06.15.15.06.5.18,1.57.28,2.24.24-.43.61-1,.81-1.28,1-1.42,2.44-1.72,3.29-1a2.55,2.55,0,0,1,.83,1.59,8,8,0,0,1,.15,2,5.91,5.91,0,0,1-.56,2.2,4.93,4.93,0,0,1-.73,1,2.34,2.34,0,0,1-2.91.37,2.3,2.3,0,0,1-.51-.35l-.13-.07a44.2,44.2,0,0,1,.22,5,1.6,1.6,0,0,1-1.26.07C76.82,120.21,76.8,119.25,76.52,116Zm4.45-2.4c.54-1.22.69-3.1-.31-3.57-1.59-.73-2.59,2.87-2.5,3.83C78.63,114.41,80.27,115.19,81,113.58Z"/><path class="cls-9" d="M89.2,109a.23.23,0,0,1,.07.14A1.42,1.42,0,0,1,89,110a.24.24,0,0,1-.22.08c-.13,0-.31-.09-.52-.17s-.33-.13-.48-.16a1.81,1.81,0,0,0-1.51.12,1.76,1.76,0,0,0-.56,1.26.7.7,0,0,0,.26.59,1.44,1.44,0,0,0,1,.17l.13,0a5.15,5.15,0,0,1,1.31-.06,2.77,2.77,0,0,1,1.83,1,2,2,0,0,1,.35,1.61,3.67,3.67,0,0,1-1.77,2.46,2.67,2.67,0,0,1-2.22.13,4,4,0,0,1-2-1.94,1,1,0,0,1-.1-.41v-.06l0,0a3.14,3.14,0,0,1,1-.32.2.2,0,0,1,.22.13,2.47,2.47,0,0,0,1.54,1.48.9.9,0,0,0,.79-.09,2,2,0,0,0,.92-1.87.93.93,0,0,0-.53-.7,1.36,1.36,0,0,0-.48-.11,2.94,2.94,0,0,0-.59,0l-.21,0H87a3.28,3.28,0,0,1-1.75-.14,2.17,2.17,0,0,1-1.2-2.31,3,3,0,0,1,.74-1.69,2.93,2.93,0,0,1,2.12-.66A3.2,3.2,0,0,1,89.2,109Z"/><path class="cls-9" d="M96.42,116c-.17-1.35-.5-7.22-.5-7.33s.26-.21.26-.21h.94c.11,0,.15.06.15.15,0,.5.18,1.57.28,2.24.24-.43.61-1,.81-1.28,1-1.42,2.44-1.72,3.29-1a2.55,2.55,0,0,1,.83,1.59,8,8,0,0,1,.15,2,5.91,5.91,0,0,1-.56,2.2,4.63,4.63,0,0,1-.74,1,2.56,2.56,0,0,1-3.41,0l-.13-.07a44.2,44.2,0,0,1,.22,5,1.6,1.6,0,0,1-1.26.07C96.72,120.21,96.7,119.25,96.42,116Zm4.45-2.4c.54-1.22.69-3.1-.31-3.57-1.59-.73-2.59,2.87-2.5,3.83C98.53,114.41,100.17,115.19,100.87,113.58Z"/><path class="cls-9" d="M104.22,110.79A3,3,0,0,1,109,109a1.93,1.93,0,0,1,.39,2.53,4.87,4.87,0,0,1-3.45,2,1.82,1.82,0,0,0,.61,1.83,1.28,1.28,0,0,0,1.73.06,18,18,0,0,0,1.28-1.39.31.31,0,0,1,.33-.07,1.47,1.47,0,0,1,.94,1,12.11,12.11,0,0,1-1.64,1.52A3.34,3.34,0,0,1,107,117C103.9,116.61,103.57,113,104.22,110.79Zm3.88.39c.48-.59.4-.91.24-1.18a1,1,0,0,0-.93-.41c-.85.24-1.35,1.4-1.42,2.51A3.14,3.14,0,0,0,108.1,111.18Z"/><path class="cls-9" d="M112.53,116.94a5.85,5.85,0,0,1-.17-1.09c-.16-1.59-.31-3.18-.48-4.76,0-.34-.07-.65-.11-1s-.07-1.2-.07-1.69a3.38,3.38,0,0,1,1.59-.12,17.87,17.87,0,0,1,.31,2.12c.26-.26.43-.39.58-.55a5,5,0,0,1,1.53-1.13c1.15-.61,3.14-.11,3.4,1.4a14.13,14.13,0,0,1,.2,1.54.14.14,0,0,1-.07.13,2.13,2.13,0,0,1-1.09,0,.15.15,0,0,1-.11-.11c0-.46-.28-1.79-1.11-1.9-1.17-.17-2.55,1.37-3,2.14.13,1.07.27,4.14.26,4.75,0,0,0,.07-.08.09a4.88,4.88,0,0,1-1.48.17A.11.11,0,0,1,112.53,116.94Z"/><path class="cls-9" d="M39.23,136c-.16-1.35-.49-7.22-.49-7.33s.25-.21.25-.21h.95c.11,0,.14.06.14.15.06.5.19,1.57.28,2.24.24-.43.61-1,.81-1.28,1-1.42,2.44-1.72,3.29-1a2.56,2.56,0,0,1,.84,1.59,8.44,8.44,0,0,1,.14,2,5.9,5.9,0,0,1-.55,2.2,4.63,4.63,0,0,1-.74,1,2.33,2.33,0,0,1-2.9.37,2.37,2.37,0,0,1-.52-.35l-.13-.07a44.2,44.2,0,0,1,.22,5,1.58,1.58,0,0,1-1.25.07C39.53,140.21,39.51,139.25,39.23,136Zm4.46-2.4c.53-1.22.68-3.1-.32-3.57-1.59-.73-2.58,2.87-2.49,3.83C41.34,134.41,43,135.19,43.69,133.58Z"/><path class="cls-9" d="M48,135.93a4.28,4.28,0,0,1-1.21-3.18A4.49,4.49,0,0,1,48.49,129a3.93,3.93,0,0,1,4.36.38c1.43,1.3,1.15,3.68.46,5.2a6.1,6.1,0,0,1-.88,1.46,2.55,2.55,0,0,1-1.7.92A3.83,3.83,0,0,1,48,135.93Zm4.32-2.81a3.55,3.55,0,0,0-.56-2.77,1.61,1.61,0,0,0-1.25-.47,1.74,1.74,0,0,0-1,.34,1.93,1.93,0,0,0-.58,1,6.14,6.14,0,0,0-.2,1.39c0,.28,0,.59,0,.91a2.3,2.3,0,0,0,.7,1.62,1.58,1.58,0,0,0,1.66.15A2.85,2.85,0,0,0,52.28,133.12Z"/><path class="cls-9" d="M60.89,136.91a11.5,11.5,0,0,1-.15-1.85,3,3,0,0,1-2.9,1.9c-2.33-.16-2.7-5-2.68-6.17,0-.35,0-1.68,0-2a.23.23,0,0,1,.18-.15,5.11,5.11,0,0,1,1.35,0,.21.21,0,0,1,.15.15c.09.76.18,3.7.26,4.47s.24,1.87,1.25,2c1.58.15,2.22-5.47,2.37-6.3a.1.1,0,0,1,.11-.11,5.71,5.71,0,0,1,1.31,0,.12.12,0,0,1,.11.11,4.78,4.78,0,0,1,.1,1.24c.11,2.21.27,4.58.2,6.81A3.6,3.6,0,0,1,61,137,.16.16,0,0,1,60.89,136.91Z"/><path class="cls-9" d="M69.48,137.05a.19.19,0,0,1-.15-.16c-.07-.87-.09-3.38-.16-4.16s-.13-1.81-1.19-1.9c-.9-.09-1.4,1.12-1.57,1.48,0,1.07,0,3.91,0,4.49a.15.15,0,0,1-.13.11,9.84,9.84,0,0,1-1.63,0,.15.15,0,0,1-.13-.11,9.65,9.65,0,0,1-.09-1.16c-.07-2.12-.22-4.71-.17-6.84a2.1,2.1,0,0,1,1.59,0,3.76,3.76,0,0,1,.32,1.46,2.55,2.55,0,0,1,2.56-1.09,2.68,2.68,0,0,1,2.2,1.79,13.6,13.6,0,0,1,.34,4.06,18,18,0,0,1,0,1.94.19.19,0,0,1-.15.15A5.15,5.15,0,0,1,69.48,137.05Z"/><path class="cls-9" d="M78.52,136.94l-.06,0s-.09-.07-.11-.12c-.07-.52-.06-1.65-.13-2.37-.3.41-.72,1-1,1.28-1.13,1.46-2.7,1.66-3.55.86a2.62,2.62,0,0,1-.77-1.73,7.25,7.25,0,0,1,0-2.13,6.11,6.11,0,0,1,.74-2.29,5.07,5.07,0,0,1,.83-1,2.49,2.49,0,0,1,3.1-.23,4.26,4.26,0,0,1,.54.41l.11.09c0-3.38.06-5,.07-5.28a1.7,1.7,0,0,1,1.35,0c0,.16,0,1.18.08,4.63.09,1.45.09,7.65.07,7.78l-.05.06a.4.4,0,0,1-.24.15h-.32A1.73,1.73,0,0,1,78.52,136.94Zm-.65-6.09a1.79,1.79,0,0,0-3,.44c-.65,1.26-.93,3.71.13,4.27C76.61,136.41,77.91,131.86,77.87,130.85Z"/><path class="cls-9" d="M86.31,135.93a4.23,4.23,0,0,1-1.2-3.18A4.49,4.49,0,0,1,86.85,129a3.93,3.93,0,0,1,4.36.38c1.42,1.3,1.14,3.68.46,5.2a6.15,6.15,0,0,1-.89,1.46,2.53,2.53,0,0,1-1.7.92A3.87,3.87,0,0,1,86.31,135.93Zm4.33-2.81a3.63,3.63,0,0,0-.56-2.77,1.63,1.63,0,0,0-1.25-.47,1.79,1.79,0,0,0-1.06.34,2,2,0,0,0-.57,1,5.62,5.62,0,0,0-.2,1.39c0,.28,0,.59,0,.91a2.3,2.3,0,0,0,.7,1.62,1.58,1.58,0,0,0,1.66.15A2.87,2.87,0,0,0,90.64,133.12Z"/><path class="cls-9" d="M94.37,136.89c-.08-1.44-.15-4.6-.09-7.13a1.26,1.26,0,0,1-.65-.1c-.09-.07-.17-1.11,0-1.16a6.49,6.49,0,0,1,.72-.09c0-.61.08-1.13.11-1.52a3.77,3.77,0,0,1,.74-1.88,2.34,2.34,0,0,1,1.91-.91,4.23,4.23,0,0,1,2.56,1.09s0,0,0,.08a2.41,2.41,0,0,1-.57,1.49s-.06,0-.07,0c-1.52-1.18-1.78-.92-2-.81-.75.37-.62,1.53-.68,2.16l0,.19a22.55,22.55,0,0,1,2.5,0c.18.11.25,1.2.07,1.29a6,6,0,0,1-.81.06c-.63,0-1.2.07-1.8.09,0,1.87,0,4.6,0,4.6l.07,2.51a.11.11,0,0,1-.06.1,5.13,5.13,0,0,1-1.79.07A.08.08,0,0,1,94.37,136.89Z"/><path class="cls-9" d="M109.7,136.72a.21.21,0,0,1-.11-.13c-.07-.51,0-1.64-.13-2.36-.29.4-.72,1-1,1.27-1.12,1.46-2.69,1.67-3.54.87a2.63,2.63,0,0,1-.78-1.74,7.53,7.53,0,0,1,0-2.12,6.11,6.11,0,0,1,.74-2.29,5.83,5.83,0,0,1,.83-1,2.51,2.51,0,0,1,3.11-.22,3.42,3.42,0,0,1,.53.41,1.45,1.45,0,0,1,.39.39l.08-.36c0-.05.07-.42.09-.49s1.24-.19,1.44.07c0,.39-.2,6.3-.33,7.58a.31.31,0,0,1-.28.25A3.42,3.42,0,0,1,109.7,136.72Zm-.59-6.08a1.8,1.8,0,0,0-3,.45c-.63,1.27-.92,3.71.13,4.26C107.86,136.2,109.15,131.66,109.11,130.64Z"/><path class="cls-9" d="M39.92,158.87a.07.07,0,0,1,0-.06,2,2,0,0,1,.5-1.31,0,0,0,0,1,.07,0c1.3,1,1.52.79,1.74.7.63-.28.74-2.62.74-4.56-.24.33-.54.74-.7.94-1,1.26-2.35,1.44-3.07.76a2.43,2.43,0,0,1-.68-1.5,6.51,6.51,0,0,1,0-1.87,5.06,5.06,0,0,1,.63-2,3.44,3.44,0,0,1,.72-.89,2.14,2.14,0,0,1,2.68-.2.86.86,0,0,1,.29.22v-.35s0-.06.06-.08a3.52,3.52,0,0,1,1.55-.07,73.85,73.85,0,0,1,.09,7.45c0,.51,0,1-.09,1.31a3.2,3.2,0,0,1-.63,1.62,2.09,2.09,0,0,1-1.64.8A3.77,3.77,0,0,1,39.92,158.87Zm2.84-8.56a1.62,1.62,0,0,0-2.6.35c-.52,1-.8,3,.11,3.42C41.67,154.76,42.78,151.12,42.76,150.31Z"/><path class="cls-9" d="M46.57,146.71a.49.49,0,0,1-.06-.47.73.73,0,0,1,.23-.16,1.33,1.33,0,0,1,1.49.44.5.5,0,0,1,.11.37.54.54,0,0,1-.51.33A1.53,1.53,0,0,1,46.57,146.71Zm.11,2.16a2,2,0,0,1,1.53-.13,76.41,76.41,0,0,1,.17,8.11,1.65,1.65,0,0,1-1.51.07C46.74,156.13,46.63,149.26,46.68,148.87Z"/><path class="cls-9" d="M51.19,156.94a5.06,5.06,0,0,1-.17-1.09c-.16-1.59-.31-3.18-.48-4.76,0-.34-.07-.65-.11-1s-.07-1.2-.07-1.69A3.38,3.38,0,0,1,52,148.3a20.2,20.2,0,0,1,.31,2.12c.26-.26.43-.39.57-.55a5.07,5.07,0,0,1,1.54-1.13c1.14-.61,3.14-.11,3.4,1.4.09.52.16,1,.2,1.54a.14.14,0,0,1-.07.13,2.13,2.13,0,0,1-1.09.05.17.17,0,0,1-.12-.11c0-.46-.27-1.79-1.1-1.9-1.17-.17-2.55,1.37-3,2.14.13,1.07.28,4.14.26,4.75a.11.11,0,0,1-.07.09,5,5,0,0,1-1.48.17A.1.1,0,0,1,51.19,156.94Z"/><path class="cls-9" d="M64.88,156.72a.18.18,0,0,1-.11-.13c-.07-.51-.06-1.64-.13-2.36-.3.4-.72,1-1,1.27-1.13,1.46-2.7,1.67-3.55.87a2.62,2.62,0,0,1-.77-1.74,7.18,7.18,0,0,1,0-2.12,6.11,6.11,0,0,1,.74-2.29,5.42,5.42,0,0,1,.83-1A2.5,2.5,0,0,1,64,149a3.49,3.49,0,0,1,.54.41,1.61,1.61,0,0,1,.39.39l.07-.36c0-.05.07-.42.09-.49.17-.12,1.24-.19,1.44.07,0,.39-.2,6.3-.33,7.58a.31.31,0,0,1-.28.25A3.38,3.38,0,0,1,64.88,156.72Zm-.59-6.08a1.8,1.8,0,0,0-3,.45c-.63,1.27-.93,3.71.13,4.26C63,156.2,64.33,151.66,64.29,150.64Z"/><path class="cls-9" d="M68.57,156.89c0-1.44-.12-4.6-.07-7.13a1.05,1.05,0,0,1-.59-.1,2.54,2.54,0,0,1,0-1.16c.1,0,.34-.06.65-.09,0-.61.07-1.13.11-1.52a4.09,4.09,0,0,1,.65-1.88,2,2,0,0,1,1.7-.91,3.6,3.6,0,0,1,2.29,1.09s0,0,0,.08a2.57,2.57,0,0,1-.52,1.49s0,0-.07,0c-1.35-1.18-1.56-.92-1.8-.81-.68.37-.55,1.53-.61,2.16v.19a16.21,16.21,0,0,1,2-.06c.17.11.24,1.22.07,1.29a2.66,2.66,0,0,1-.51.08l-1.59.09c0,1.87,0,4.6,0,4.6l.05,2.51a.1.1,0,0,1-.05.1,4.16,4.16,0,0,1-1.61.07S68.57,156.94,68.57,156.89Zm5.05.44c-.06-1.49-.11-5.17-.07-7.76a.92.92,0,0,1-.52-.09,2.79,2.79,0,0,1,0-1.18,2,2,0,0,1,.59-.1c0-.63,0-1.16.09-1.57a4.56,4.56,0,0,1,.58-1.92,1.74,1.74,0,0,1,1.53-.92,3.07,3.07,0,0,1,2,1.11l0,.07a2.78,2.78,0,0,1-.48,1.53s0,0-.05,0c-1.22-1.22-1.41-.94-1.61-.81-.61.37-.5,1.55-.56,2.2l0,.18a15.45,15.45,0,0,1,2,0,2,2,0,0,1,.06,1.33,5,5,0,0,1-.65,0c-.5.06-1,.08-1.44.1,0,1.92,0,4.71,0,4.71l.05,3a.19.19,0,0,1,0,.09,3,3,0,0,1-1.45.08S73.62,157.37,73.62,157.33Z"/><path class="cls-9" d="M78.13,150.79A3,3,0,0,1,82.91,149a1.93,1.93,0,0,1,.39,2.53,4.87,4.87,0,0,1-3.45,2,1.84,1.84,0,0,0,.61,1.83,1.28,1.28,0,0,0,1.73.06A18,18,0,0,0,83.47,154a.31.31,0,0,1,.33-.07,1.47,1.47,0,0,1,.94,1,12.11,12.11,0,0,1-1.64,1.52,3.34,3.34,0,0,1-2.24.57C77.81,156.61,77.48,153,78.13,150.79Zm3.88.39c.48-.59.4-.91.24-1.18a1,1,0,0,0-.93-.41c-.85.24-1.34,1.4-1.42,2.51A3.14,3.14,0,0,0,82,151.18Z"/></g></svg>