<svg xmlns="http://www.w3.org/2000/svg" xmlns:xlink="http://www.w3.org/1999/xlink" viewBox="0 0 216 216"><defs><style>.cls-1{fill:none;}.cls-2{fill:#fff;}.cls-3{fill:#b6e4f9;}.cls-4{fill:#7dde18;}.cls-5{fill:#69ba14;}.cls-6{fill:#533741;}.cls-7{fill:#472e38;}.cls-8{fill:#cbe8f9;}.cls-9{fill:#a3c2d3;}.cls-10{fill:#e3f1fb;}.cls-11{fill:#a9d2d0;}.cls-12{fill:#8eb1b1;}.cls-13{fill:#ec1c24;}.cls-14{fill:#f48120;}.cls-15{fill:#7ed2f6;}.cls-16{fill:#f6fbfd;}.cls-17{fill:#fff100;}.cls-18{fill:#a16f80;}.cls-19{fill:#f28cc9;stroke:#f28cc9;stroke-width:0.69px;}.cls-19,.cls-20,.cls-24{stroke-miterlimit:10;}.cls-20{stroke:#000;}.cls-20,.cls-24{stroke-width:0.5px;}.cls-21{clip-path:url(#clip-path);}.cls-22{clip-path:url(#clip-path-2);}.cls-23{fill:#ff6363;}.cls-24{fill:#b760c2;stroke:#b760c2;}</style><clipPath id="clip-path"><rect class="cls-1" x="259.98" y="36.89" width="148.1" height="101.25"/></clipPath><clipPath id="clip-path-2"><path class="cls-1" d="M287.48,45.43c0,21.65-20.15,39.21-45,39.21s-45-17.56-45-39.21v59h90.67Z"/></clipPath></defs><g id="cutlines"><path class="cls-2" d="M205.79,133.76l0-.09c0-.21,0-.42,0-.64.09-3.35-2.28-13.06-8.47-16.28a26.72,26.72,0,0,0-8.81-6.25c-2-12.94-8.08-22.34-17.62-27.78l.32,0a12.66,12.66,0,0,0,2.09-.62,11.25,11.25,0,0,0,1.22.57,10.08,10.08,0,0,0,3.67.69,10.24,10.24,0,0,0,4.7-1.16,11.12,11.12,0,0,0,5.67-7.69,9.57,9.57,0,0,0-1.19-6.75v0a7.68,7.68,0,0,0-2.26-5.42,10.27,10.27,0,0,0-7.56-2.83A11.39,11.39,0,0,0,174,60l0-.1-.16-.32a7.61,7.61,0,0,0-4.76-4,9.14,9.14,0,0,0-2.55-.37,9.37,9.37,0,0,0-1.75.19,10.05,10.05,0,0,0-2.11-.23,9.52,9.52,0,0,0-4.39,1.07l-1.51.77a11.91,11.91,0,0,0-5-1.08h-.19a11.35,11.35,0,0,0-4.73,1.21A12,12,0,0,0,141.47,56h-.19a11.35,11.35,0,0,0-4.73,1.21A11.91,11.91,0,0,0,131.3,56h-.22a11.34,11.34,0,0,0-3.9.84L124,56.16a9.8,9.8,0,0,0-2.08-.19,36,36,0,0,0-9.06.87v0l-4.55,1.49L108,61c-.36.11-.71.25-1.07.4l-.76.34-1.42,1.07-.53.65c-2.53,3-1.92,7.3-.94,9.27L104.88,76a4.43,4.43,0,0,0,6.63,1.56v2l3.24,2.13.42.27A9.11,9.11,0,0,0,120,83.18c.29,0,.59,0,.89-.05a8.83,8.83,0,0,0,2.38.81,29,29,0,0,0-4.58,4.28c-5.38,6.22-7.31,13.64-7.92,19.37-1.52.25-2.89.53-4.11.82a25.07,25.07,0,0,0-6.83,2.68,14.75,14.75,0,0,0-1.61-.09,11.46,11.46,0,0,0-7.5,2.64,9.44,9.44,0,0,0-1.82,2.06l-.49-.12a9,9,0,0,0-1.08-3.42,7.59,7.59,0,0,0-2.24-5.07,9,9,0,0,0-1.62-1.27,12.72,12.72,0,0,0,5-7.86,10.39,10.39,0,0,0-1.74-8c0-.34,0-.62,0-.8a7.8,7.8,0,0,0-2.32-5.55A9.61,9.61,0,0,0,82.37,82a11.18,11.18,0,0,0,2.23-2.9l.09-.17a12.83,12.83,0,0,0,.81-9.45,13.18,13.18,0,0,0-1.56-11.27L83.82,58a11.4,11.4,0,0,0-6.67-4.44,13,13,0,0,0-3.2-.4,12.44,12.44,0,0,0-5.17,1.11c-.33.15-.66.32-1,.5-.27-.15-.53-.31-.81-.45l-.11,0a11.29,11.29,0,0,0-4.84-1.1,11.61,11.61,0,0,0-3.57.57l-.07,0-2-.39a10.64,10.64,0,0,0-2.28-.19c-1.48,0-8.33.06-11.73,1.07v0l-.88.29c-2-1.23-4.38-1.34-7-1.34-.88,0-1.56,0-1.58,0h-.33c-.29,0-.63,0-1,.07a21.9,21.9,0,0,0-6,1h0a7.53,7.53,0,0,0-4.45,4.37h0A11.38,11.38,0,0,0,20.58,63v.08c0,1.62.05,4.94.11,6.14A8,8,0,0,0,22.56,74c.31.37.63.75,1,1.12A9.93,9.93,0,0,0,25,81a8.28,8.28,0,0,0,.8,1.07,10.54,10.54,0,0,0-1.94,1.47,11.27,11.27,0,0,0-3.2,6.29A10.31,10.31,0,0,0,21,95.32v1.55a9.16,9.16,0,0,0,1,4,14.34,14.34,0,0,0,2,2.89,10.64,10.64,0,0,0-1.84,1.89l-.08.11a14.93,14.93,0,0,0-1.29,2.2l-.07.13a14.79,14.79,0,0,0,.54,13.17,7.61,7.61,0,0,0-1.69,4.78c0,.56.29,5.39.46,6.92s.18,2.43.22,2.94a8.94,8.94,0,0,0,.2,1.67l.24,1.08a11.66,11.66,0,0,0-2,6.55A10.94,10.94,0,0,0,22,153.43a10.71,10.71,0,0,0,7.25,2.93,7.69,7.69,0,0,0,.83,0,8.77,8.77,0,0,0,1.7-.3,7.62,7.62,0,0,0,1.51.3,11.7,11.7,0,0,0,1.3.07c.33,0,.65,0,1,0h.11a12.71,12.71,0,0,0,1.67-.29l.77-.19.71-.36c.15-.07.29-.17.43-.25a9,9,0,0,0,4.28,1.08l.75,0a7.56,7.56,0,0,0,1-.14,10.92,10.92,0,0,0,1.9.16c.23,0,.45,0,.65,0h.22l.21,0a7.56,7.56,0,0,0,2.67-.87l.52.23a11.3,11.3,0,0,0,4,.76,10.11,10.11,0,0,0,2.87-.41,8.89,8.89,0,0,0,2.53.36l.75,0a7.56,7.56,0,0,0,1.05-.14,11,11,0,0,0,1.91.16c.23,0,.45,0,.64,0h.22l.21,0a7.68,7.68,0,0,0,1.45.21h.4a10.6,10.6,0,0,0,4-.72l.24-.1.23-.11a7.63,7.63,0,0,0,3.64-3.94l0,0a7.56,7.56,0,0,0,4.83-7.1v-.25l0-.26a18.29,18.29,0,0,0-.26-2,9.08,9.08,0,0,0-.39-1.47h0l.24,0,.11,0a8.4,8.4,0,0,0,1.59.15,6.34,6.34,0,0,0,.74,0c.32,0,.63-.07.94-.12a14.41,14.41,0,0,0,.93,4.42,11,11,0,0,0,7.24,6.8,14.86,14.86,0,0,0,4.2.6,14.44,14.44,0,0,0,4.26-.63,16.38,16.38,0,0,0,13.5,7.1c.46,0,.93,0,1.4-.06a18.09,18.09,0,0,0,13-7.27c9.75.08,21.14.13,32.85.14a16.72,16.72,0,0,0,14.09,7.63c.48,0,1,0,1.45-.06a18.57,18.57,0,0,0,12.84-6.88,19.34,19.34,0,0,0,7.05,1.32,12.39,12.39,0,0,0,8-2.53,10.93,10.93,0,0,0,3.92-7.75A15.58,15.58,0,0,0,205.79,133.76Z"/></g><g id="sticker"><path class="cls-3" d="M96.54,120.32c-1.91,0-2.58,1.08-2.83,3.33s-.25,4.92,1.83,4.67S98,123.15,98,123.15Z"/><path class="cls-4" d="M97.31,130.53a3.06,3.06,0,0,1-2.3-1.21l-.19-.19c-.8-.8-.68-4.17-.66-4.55,0-1.21.29-4.13,1.44-5.1a3.91,3.91,0,0,1,2.58-.85,12,12,0,0,1,4.45,1.12.44.44,0,0,1,.27.36l.5,5a.51.51,0,0,1-.06.27c-.1.16-2.44,4.05-4.56,4.85a4.32,4.32,0,0,1-1.47.3Z"/><path d="M98.18,119.07a11.89,11.89,0,0,1,4.28,1.08l.5,5s-2.33,3.92-4.33,4.67a3.91,3.91,0,0,1-1.32.28c-1,0-1.57-.67-2.18-1.28-.84-.84-.84-7.67.75-9a3.46,3.46,0,0,1,2.3-.75m0-.87a4.34,4.34,0,0,0-2.87,1c-1.23,1-1.53,3.83-1.59,5.41,0,.92-.1,4,.79,4.88l.18.18A3.51,3.51,0,0,0,97.31,131a4.77,4.77,0,0,0,1.63-.33c2.22-.84,4.52-4.61,4.77-5a.85.85,0,0,0,.12-.54l-.5-5a.89.89,0,0,0-.53-.73,12.37,12.37,0,0,0-4.62-1.14Z"/><path class="cls-5" d="M103,125.15l-.5-5a16.69,16.69,0,0,0-2.73-.89,14,14,0,0,0-1,1.32,17.69,17.69,0,0,0-2.79,9,2.46,2.46,0,0,0,2.66.2C100.63,129.07,103,125.15,103,125.15Z"/><path class="cls-4" d="M165.26,143.89c-20.54,0-68.44-.1-69.61-1.07-1-.8-1.79-7-.37-13,1.23-5.23,4.5-11.9,13.11-13.95a77.43,77.43,0,0,1,9.79-1.52c-.22-3.55-.19-13.67,6.24-21.1,4.23-4.89,10.43-7.64,18.42-8.17,1.61-.1,3.2-.16,4.71-.16,21,0,32.44,10.54,34,31.31a24.81,24.81,0,0,1,3.23,1c12.44,4.86,15,20.68,13.94,26.15a.45.45,0,0,1-.41.36c-3.11.11-16.37.19-33,.19Z"/><path d="M147.55,85.33c23.36,0,32.3,12.8,33.55,31.23a25.63,25.63,0,0,1,3.49,1c12.22,4.77,14.66,20.55,13.66,25.66-3.15.12-16.71.19-33,.19-29.71,0-68.47-.25-69.33-1-1.33-1.11-3.77-22.33,12.56-26.22a82.33,82.33,0,0,1,10.16-1.55c-.32-4.06-1-27.54,24.22-29.22,1.62-.11,3.18-.16,4.68-.16m0-.87c-1.52,0-3.12.05-4.74.16-8.11.53-14.41,3.33-18.72,8.31-6.3,7.28-6.56,17.07-6.37,21a76.63,76.63,0,0,0-9.44,1.48c-8.82,2.1-12.17,8.93-13.43,14.28-1.39,5.91-.67,12.48.52,13.47.39.32.83.69,24.4,1,12.14.14,28.73.22,45.49.22s29.92-.08,33-.19a.88.88,0,0,0,.83-.71c1.09-5.58-1.53-21.69-14.21-26.65a25.4,25.4,0,0,0-3-.92c-1.64-20.84-13.2-31.4-34.38-31.4Z"/><path class="cls-5" d="M106.29,140.48c-.25.09-6.75.34-9.41-.58-1.1-.38-1.36.6-1.29,1.89a1.65,1.65,0,0,0,.34.69c.32.26,5.65.46,13.75.61Z"/><path class="cls-5" d="M198.25,143.26c.89-4.56-1-17.61-10.06-23.76a12.94,12.94,0,0,1-1.11,8.53,19.21,19.21,0,0,1-4.63,5,35,35,0,0,1-7.84,5.44,28.8,28.8,0,0,1-8,2.08c-17.29,2.33-35.21-2.33-52.17,1.75.11.3.22.59.34.89C142.51,143.57,191.86,143.5,198.25,143.26Z"/><path class="cls-6" d="M107.36,134.73c-6.19,6.69-1.23,17,7,16.32,6.18-.51,10.91-6.64,8.9-12.86S111.84,129.89,107.36,134.73Z"/><path d="M113.59,151.52a9.27,9.27,0,0,1-8.4-5.39,10.3,10.3,0,0,1,1.85-11.7h0a9.79,9.79,0,0,1,9.31-2.56,9.58,9.58,0,0,1,7.33,6.19,10,10,0,0,1-1.23,8.65,10.85,10.85,0,0,1-8.06,4.78Zm.35-19a8.45,8.45,0,0,0-6.26,2.55,9.45,9.45,0,0,0-1.7,10.72,8.39,8.39,0,0,0,8.34,4.86,9.94,9.94,0,0,0,7.4-4.39,9,9,0,0,0,1.12-7.89,8.7,8.7,0,0,0-6.68-5.6A9.94,9.94,0,0,0,113.94,132.48Z"/><path class="cls-7" d="M123.26,138.19a8,8,0,0,0-2.19-3.38,7.53,7.53,0,0,1,1.27,2.35c2,6.05-2.63,12-8.65,12.5a8.65,8.65,0,0,1-8.77-5.51,9,9,0,0,0,9.44,6.9C120.54,150.54,125.27,144.41,123.26,138.19Z"/><path class="cls-7" d="M110.25,137.63c-3.57,3.85-.72,9.79,4,9.39a5.78,5.78,0,0,0,5.13-7.4C118.23,136,112.82,134.84,110.25,137.63Z"/><path class="cls-8" d="M113.88,146.59a4.72,4.72,0,0,1-4.34-2.92,5.23,5.23,0,0,1,1-5.7,4.68,4.68,0,0,1,3.48-1.43,4.85,4.85,0,0,1,4.3,7.63,5.42,5.42,0,0,1-4,2.4l-.41,0Z"/><path d="M114,137a4.64,4.64,0,0,1,4.5,3,4.83,4.83,0,0,1-4.29,6.2h-.37c-3.74,0-5.89-4.76-3-7.88A4.23,4.23,0,0,1,114,137m0-.87a5.11,5.11,0,0,0-3.8,1.57,5.67,5.67,0,0,0-1.1,6.18,5.15,5.15,0,0,0,4.74,3.18l.45,0a5.93,5.93,0,0,0,4.38-2.6A5.29,5.29,0,0,0,114,136.1Z"/><path class="cls-9" d="M118.54,139.94a3.91,3.91,0,0,0-.76-1.33,4.87,4.87,0,0,1-4.45,5.48,4.2,4.2,0,0,1-3.7-1.63,4.36,4.36,0,0,0,4.62,3.68A4.83,4.83,0,0,0,118.54,139.94Z"/><path class="cls-10" d="M112.65,138.24c-1.25-.06-2.33,1.73-2.14,2.87a.25.25,0,0,0,.44.06,11.46,11.46,0,0,1,.85-1.43c.33-.42.78-.66,1.09-1.1A.27.27,0,0,0,112.65,138.24Z"/><path class="cls-10" d="M115.21,138a1.17,1.17,0,0,0-1.54-.09.26.26,0,0,0,.13.47,5.46,5.46,0,0,1,.7,0,1.06,1.06,0,0,0,.56,0A.26.26,0,0,0,115.21,138Z"/><path class="cls-6" d="M174.9,151.52a9.32,9.32,0,0,1-8.57-5.77,10.38,10.38,0,0,1,2-11.32,9.23,9.23,0,0,1,6.88-2.83c4.51,0,8.53,2.66,9.76,6.46a10,10,0,0,1-1.23,8.65,10.85,10.85,0,0,1-8.06,4.78l-.81,0Z"/><path d="M175.24,132c4,0,8.08,2.26,9.34,6.15,2,6.22-2.71,12.35-8.9,12.86l-.78,0c-7.76,0-12.21-9.87-6.22-16.35a8.84,8.84,0,0,1,6.56-2.69m0-.87a9.62,9.62,0,0,0-7.2,3,10.79,10.79,0,0,0-2.11,11.78,9.75,9.75,0,0,0,9,6,8.19,8.19,0,0,0,.85,0,11.32,11.32,0,0,0,8.39-5,10.42,10.42,0,0,0,1.27-9c-1.28-4-5.47-6.75-10.17-6.75Z"/><path class="cls-7" d="M184.58,138.19a8,8,0,0,0-2.19-3.38,7.77,7.77,0,0,1,1.28,2.35c2,6.05-2.64,12-8.66,12.5a8.65,8.65,0,0,1-8.77-5.51,9,9,0,0,0,9.44,6.9C181.87,150.54,186.59,144.41,184.58,138.19Z"/><path class="cls-7" d="M171.57,137.63c-3.57,3.85-.71,9.79,4,9.39a5.78,5.78,0,0,0,5.13-7.4C179.55,136,174.14,134.84,171.57,137.63Z"/><path class="cls-8" d="M175.2,146.59a4.72,4.72,0,0,1-4.34-2.92,5.23,5.23,0,0,1,1-5.7,4.68,4.68,0,0,1,3.48-1.43,4.85,4.85,0,0,1,4.3,7.63,5.42,5.42,0,0,1-4,2.4l-.41,0Z"/><path d="M175.36,137a4.64,4.64,0,0,1,4.5,3,4.83,4.83,0,0,1-4.29,6.2h-.37c-3.74,0-5.89-4.76-3-7.88a4.23,4.23,0,0,1,3.16-1.3m0-.87a5.11,5.11,0,0,0-3.8,1.57,5.67,5.67,0,0,0-1.1,6.18A5.15,5.15,0,0,0,175.2,147l.45,0a5.93,5.93,0,0,0,4.38-2.6,5.29,5.29,0,0,0-4.67-8.31Z"/><path class="cls-9" d="M179.86,139.94a3.91,3.91,0,0,0-.76-1.33,4.87,4.87,0,0,1-4.45,5.48,4.2,4.2,0,0,1-3.7-1.63,4.36,4.36,0,0,0,4.62,3.68A4.83,4.83,0,0,0,179.86,139.94Z"/><path class="cls-10" d="M174,138.24c-1.25-.06-2.33,1.73-2.14,2.87a.25.25,0,0,0,.44.06,11.46,11.46,0,0,1,.85-1.43c.33-.42.78-.66,1.09-1.1A.27.27,0,0,0,174,138.24Z"/><path class="cls-10" d="M176.53,138a1.17,1.17,0,0,0-1.54-.09.26.26,0,0,0,.13.47,5.46,5.46,0,0,1,.7,0,1.06,1.06,0,0,0,.56,0A.26.26,0,0,0,176.53,138Z"/><path class="cls-11" d="M95.83,144.61a7.55,7.55,0,0,1-2.07-.29,3.52,3.52,0,0,1-2.26-2.26,6.57,6.57,0,0,1,.17-5.14,4.32,4.32,0,0,1,3.66-1.65A4.19,4.19,0,0,1,99,137.08a6.61,6.61,0,0,1,1.14,5.07c-.28,1.45-2,2.46-4.31,2.46Z"/><path d="M95.33,135.71a3.78,3.78,0,0,1,3.3,1.61,6.17,6.17,0,0,1,1.08,4.75c-.25,1.31-1.95,2.1-3.88,2.1a6.9,6.9,0,0,1-2-.27c-2.58-.75-2.83-5.08-1.83-6.75a3.92,3.92,0,0,1,3.28-1.44m0-.88a4.75,4.75,0,0,0-4,1.87,7,7,0,0,0-.19,5.52,3.91,3.91,0,0,0,2.53,2.52,7.75,7.75,0,0,0,2.2.31c2.52,0,4.42-1.13,4.74-2.82a7,7,0,0,0-1.2-5.38,4.62,4.62,0,0,0-4-2Z"/><path class="cls-12" d="M98.62,139.24A4.18,4.18,0,0,1,94,142a4.48,4.48,0,0,1-2.41-1.26,3.65,3.65,0,0,0,2.28,3.18c2.58.75,5.5-.08,5.83-1.83a6.08,6.08,0,0,0-1-4.59A4,4,0,0,1,98.62,139.24Z"/><path class="cls-11" d="M196.24,145.9c-1.87,0-4.33-.52-5-1.29-1-1.11-1.46-5-.17-6.5,1-1.19,3.17-1.72,4.82-1.72a4.22,4.22,0,0,1,3.17,1.05,7.85,7.85,0,0,1,1.56,5.2,3.35,3.35,0,0,1-1.11,2.43A5.39,5.39,0,0,1,196.24,145.9Z"/><path d="M195.85,136.83a3.86,3.86,0,0,1,2.84.9c1.34,1.5,2.25,5.59.5,7a4.88,4.88,0,0,1-2.95.73c-2,0-4.19-.57-4.71-1.14-.83-.92-1.33-4.59-.17-5.92a6.39,6.39,0,0,1,4.49-1.57m0-.88h0c-1.75,0-4,.58-5.15,1.87-1.44,1.65-.95,5.84.18,7.08.81.89,3.41,1.44,5.36,1.44a5.53,5.53,0,0,0,3.51-.93,3.78,3.78,0,0,0,1.26-2.73,8.19,8.19,0,0,0-1.66-5.53,4.63,4.63,0,0,0-3.5-1.2Z"/><path class="cls-12" d="M200.09,143c-1,.7-2.76,1.23-5.15,0-3-1.62-3.4-3.54-2.92-5.05a3,3,0,0,0-.66.55c-1.16,1.33-.66,5,.17,5.92s5.91,1.83,7.66.41A2.74,2.74,0,0,0,200.09,143Z"/><path class="cls-13" d="M195.77,134.05c-2,0-3.79-1.46-4.71-3.89a8,8,0,0,1,.49-6.12,1.74,1.74,0,0,1,1.43-.85,2,2,0,0,1,.86.22c2.56,1.28,4.5,7.67,4.45,9.4,0,.15,0,.61-.36.75a5.48,5.48,0,0,1-2.16.49Z"/><path d="M193,123.52a1.54,1.54,0,0,1,.71.19c2.67,1.33,4.89,9.22,4.12,9.55a5.13,5.13,0,0,1-2,.46c-2.25,0-3.71-1.85-4.41-3.68-.79-2.09-.28-6.52,1.62-6.52m0-.66a2,2,0,0,0-1.7,1c-1.08,1.57-1.17,4.74-.53,6.42,1,2.57,2.85,4.1,5,4.1a5.89,5.89,0,0,0,2.29-.5,1.06,1.06,0,0,0,.56-1.05c.06-2-2-8.38-4.63-9.7a2.26,2.26,0,0,0-1-.26Z"/><path class="cls-14" d="M192,131.27a4.34,4.34,0,0,0,5.85,2c.31-.13.14-1.46-.34-3.1A8.3,8.3,0,0,1,192,131.27Z"/><path class="cls-3" d="M142.57,114.8l-4.44,0c-6.89-.12-14.35-.42-16.06-.5A27.07,27.07,0,0,1,126,98.46c4-6.36,12.88-9.13,19.83-9.6.76,0,1.52-.08,2.26-.08s1.46,0,2.15.08c0,0,.11,0,.24.28,1.86,3.37.94,23.26.23,25.29A50.76,50.76,0,0,1,142.57,114.8Z"/><path d="M148,89.22c.67,0,1.34,0,2,.06,1.64,2,1.06,21.57.29,24.77a55.59,55.59,0,0,1-7.73.31l-4.44,0c-6.44-.11-13.38-.38-15.64-.48a26.34,26.34,0,0,1,3.82-15.15c3.93-6.22,12.64-8.94,19.49-9.4.75-.06,1.5-.08,2.23-.08m0-.88c-.75,0-1.51,0-2.29.08-7.6.52-16.25,3.59-20.17,9.81a27,27,0,0,0-3.89,16.47s8.53.37,16.44.5c1.53,0,3,0,4.45,0a47.17,47.17,0,0,0,8.35-.43c.84-.24,2.09-26.2-.71-26.39-.7,0-1.43-.08-2.18-.08Z"/><path class="cls-3" d="M160.56,114.8a22.73,22.73,0,0,1-5.15-.33c-.73-2.63-.93-23.91.29-25.07.35,0,.81,0,1.29,0A16.51,16.51,0,0,1,167.24,93a14.77,14.77,0,0,1,4.32,5.73,36.7,36.7,0,0,1,2.59,15.52c-1.2.08-5.16.32-9.16.43C163.48,114.77,162,114.8,160.56,114.8Z"/><path d="M157,89.8a16.15,16.15,0,0,1,10,3.58,14.61,14.61,0,0,1,4.19,5.56,36.37,36.37,0,0,1,2.57,14.94c-1.53.09-5.13.3-8.75.4-1.66.06-3.14.08-4.42.08a27.53,27.53,0,0,1-4.77-.25c-.52-3.21-.9-21.66.17-24.27.33,0,.68,0,1,0m0-.87a13.3,13.3,0,0,0-1.43.07c-1.86.19-1,25.59-.47,25.82a21,21,0,0,0,5.47.42c1.39,0,2.93,0,4.45-.08,4.82-.14,9.54-.46,9.54-.46A36.94,36.94,0,0,0,172,98.6a15.37,15.37,0,0,0-4.44-5.9A17.05,17.05,0,0,0,157,88.93Z"/><path class="cls-4" d="M120.51,118.82a3.59,3.59,0,0,1-3-1.1c-.79-1-.91-2.63-.36-5,.6-2.54,1.68-3.58,3.74-3.58l.68,0c.79.06,1.14,1.71,1,4.89s-.59,4.76-1.44,4.76Z"/><path d="M120.86,109.58l.65,0c1,.07.77,8.77-.39,8.77h-.6c-1.73,0-4.2-.3-3-5.56.63-2.7,1.76-3.24,3.31-3.24m0-.88c-2.28,0-3.52,1.17-4.16,3.92-.59,2.51-.45,4.27.43,5.38a4.15,4.15,0,0,0,3.39,1.26h.6c.51,0,1.7,0,1.88-5.18s-.9-5.3-1.43-5.34l-.71,0Z"/><path class="cls-5" d="M118.91,115a5,5,0,0,1,.37-5.07c-.75.41-1.34,1.25-1.73,2.92-1.38,5.93,1.92,5.55,3.57,5.55.25,0,.46-.4.62-1A5,5,0,0,1,118.91,115Z"/><path class="cls-5" d="M153.43,135.06c0-2,0-4,0-6,0-3.75,0-7.52-.2-11.27a.27.27,0,0,0-.53,0c-.19,3.75-.17,7.52-.2,11.27,0,1.77,0,3.54,0,5.31a25,25,0,0,0,.17,5.4.35.35,0,0,0,.67,0A21.44,21.44,0,0,0,153.43,135.06Z"/><path class="cls-5" d="M121.75,130.51c0-1.29,0-2.58,0-3.87,0-2.43,0-4.87-.21-7.3,0-.22-.5-.22-.52,0-.19,2.43-.17,4.87-.2,7.3,0,1.15,0,2.29,0,3.44a10.24,10.24,0,0,0,.17,3.49c.07.22.59.22.67,0A9.26,9.26,0,0,0,121.75,130.51Z"/><path class="cls-5" d="M176.18,127.76c0-1,0-2,0-2.93,0-1.84,0-3.69-.2-5.53,0-.16-.51-.16-.53,0-.19,1.84-.17,3.69-.2,5.53,0,.87,0,1.74,0,2.6a6.09,6.09,0,0,0,.17,2.65c.08.16.6.16.67,0A5.08,5.08,0,0,0,176.18,127.76Z"/><path class="cls-6" d="M144.23,118.94c.89-.72,4.75-.37,5.22,0s.87.88.08,1.53-4.66.52-5.3-.07S143.6,119.45,144.23,118.94Z"/><path class="cls-6" d="M168.56,118.94c.89-.72,4.75-.37,5.22,0s.87.88.08,1.53-4.67.52-5.3-.07S167.93,119.45,168.56,118.94Z"/><path class="cls-15" d="M150.32,114c-1.48.41-6.68.45-12.19.37,5.66-5.29,7-17.51,7.24-25a29.55,29.55,0,0,1,4.51,0C151.59,89.41,151.12,113.77,150.32,114Z"/><path class="cls-16" d="M126,105.06a.55.55,0,0,1-.18,0,.87.87,0,0,1-.68-1c2-9.35,12.14-12.22,12.58-12.34a.88.88,0,0,1,.46,1.69c-.1,0-9.6,2.72-11.33,11A.86.86,0,0,1,126,105.06Z"/><path class="cls-17" d="M100.42,125.18a.78.78,0,0,1-.33-.07.88.88,0,0,1-.48-1.14c2.46-6,13.59-7.27,14.06-7.33a.88.88,0,1,1,.19,1.74c-.1,0-10.57,1.25-12.63,6.25A.88.88,0,0,1,100.42,125.18Z"/><circle class="cls-17" cx="99.47" cy="126.79" r="0.95"/><path class="cls-15" d="M173.75,113.84s-4.32.29-8.74.42c4.88-4.09,3.85-13.68,2.3-20.57a14.17,14.17,0,0,1,4.07,5.4A33.94,33.94,0,0,1,173.75,113.84Z"/><path class="cls-16" d="M158.05,110.45a.87.87,0,0,1-.85-.67c-1.11-4.69-.8-17.11-.79-17.63a.88.88,0,1,1,1.75,0c0,.13-.31,12.72.74,17.18a.88.88,0,0,1-.65,1.06Z"/><circle class="cls-16" cx="158.93" cy="112.34" r="1.04"/><circle class="cls-16" cx="125.08" cy="107.3" r="1.04"/><path class="cls-17" d="M124,131.62a.87.87,0,0,1-.88-.87V117.57a.88.88,0,1,1,1.75,0v13.18A.87.87,0,0,1,124,131.62Z"/><path class="cls-17" d="M155.86,136.11a.88.88,0,0,1-.88-.87V119.5a.88.88,0,0,1,1.76,0v15.74A.87.87,0,0,1,155.86,136.11Z"/><path class="cls-18" d="M105.94,141.27h0a.42.42,0,0,1-.38-.48,8.51,8.51,0,0,1,8.43-8,.44.44,0,0,1,0,.88,7.64,7.64,0,0,0-7.56,7.21A.45.45,0,0,1,105.94,141.27Z"/><path class="cls-18" d="M167.48,141.59h0a.44.44,0,0,1-.39-.48,8.52,8.52,0,0,1,8.44-8,.44.44,0,0,1,0,.88,7.64,7.64,0,0,0-7.56,7.21A.45.45,0,0,1,167.48,141.59Z"/><path class="cls-17" d="M125.08,96.31a.84.84,0,0,1-.46-.13.89.89,0,0,1-.29-1.21c4-6.53,15.58-8.71,16.07-8.8a.87.87,0,0,1,1,.71.88.88,0,0,1-.7,1c-.11,0-11.28,2.12-14.9,8A.86.86,0,0,1,125.08,96.31Z"/><path class="cls-19" d="M32.7,77.53c-.34-.08-1.15-.23-1.33-.54a2.74,2.74,0,0,1,.05-2.52c.94.13,1.74.83,2.7.72,2.52-.23,3.66-4.51,2.36-6.53a1.85,1.85,0,0,0-.88-.76,1.92,1.92,0,0,0-1.4.16,17,17,0,0,0-2.31,1.3c-.34.2-.67.44-1,.67-.16.08-.88.62-1.06.52a5,5,0,0,1-1.48-1.37.41.41,0,0,1-.11-.29c-.05-.8-.13-4.23-.1-5.79a7.64,7.64,0,0,1,.1-1.73,25.91,25.91,0,0,1,5.06-.6c.91-.05,4.05,0,4.36.23a2.34,2.34,0,0,1-.15,2.08c-.76,0-2.39,0-2.91.08-1.3.1-2.91.07-4.18.28.13.94.21,2.65.26,4,0-.21,1.12-.81,1.3-.91a7.33,7.33,0,0,1,1.43-.65,5.22,5.22,0,0,1,3-.08,4.29,4.29,0,0,1,2.49,1.64,5.49,5.49,0,0,1,.68,3.52,11,11,0,0,1-1.35,4.44,4.47,4.47,0,0,1-3.71,2.44A6.74,6.74,0,0,1,32.7,77.53Z"/><path class="cls-19" d="M43.57,76.21c0,.23-.55,1.5-.73,2a5,5,0,0,1-.39.84,1.75,1.75,0,0,1-.67-.24,10.56,10.56,0,0,1,1-2.93A1.42,1.42,0,0,1,43.57,76.21Z"/><path class="cls-19" d="M50.16,77.61l-.08,0v-.13c.05-.5.26-2,.39-2.91l.1-.8c.34-2.55,1.17-7.48,1.66-10.18-2.31.24-6.85.42-7.19.34l-.07,0-.06-.11a4.4,4.4,0,0,1-.13-2.1l0-.23.08,0a80.32,80.32,0,0,1,10-.6l.13,0v.1a7,7,0,0,1,0,1.95l-.06.29c-.49,3.63-2,13.28-2.41,14.4l0,.07-.07,0a3.23,3.23,0,0,1-.94.13A3.83,3.83,0,0,1,50.16,77.61Z"/><path class="cls-19" d="M59.39,75.79c0-.08,0-.15.13-.15a4.25,4.25,0,0,0,3.45-2c1.2-1.64,2.36-4.49,1.92-6.85-2.59,2.31-5.84,2.64-7.37-.31a3.15,3.15,0,0,1,.42-3.22A5.36,5.36,0,0,1,60.82,61a3.76,3.76,0,0,1,2.85.18,6.26,6.26,0,0,1,3.53,4.28,11.12,11.12,0,0,1-3,11,3.8,3.8,0,0,1-3,1.17A3.42,3.42,0,0,1,59.39,75.79ZM63.78,65a2.62,2.62,0,0,0-.91-1.64c-1-.62-2.6-.05-3.4,1.27a1.27,1.27,0,0,0,.75,2C61.83,66.94,63.78,65,63.78,65Z"/><path class="cls-19" d="M72.36,77.58a3.35,3.35,0,0,1-2.07-1.68,4.5,4.5,0,0,1-.47-1.9c0-.1.1-.15.21-.21s.57-.07,1.11-.13h.34a.42.42,0,0,1,.34.29c.31,1.12.83,2.36,2.18,2.18s1.71-1.64,1.79-2.47a5.33,5.33,0,0,0-.21-2.07,2.29,2.29,0,0,0-2-1.4c-.15,0-.41,0-.62,0l-.18,0a.23.23,0,0,1-.24-.23V68.6c.05-.18.26-.18.39-.18h0c2.64,0,2.93-1.68,2.93-1.74a5.63,5.63,0,0,0,0-2.07c-.18-.83-.83-2.23-2.1-2.23S72,63.73,71.82,64.87a.48.48,0,0,1-.31.31,1.06,1.06,0,0,1-.29,0h0a4.25,4.25,0,0,1-1.12,0,.28.28,0,0,1-.23-.15,4.54,4.54,0,0,1,.23-1.95,3.24,3.24,0,0,1,1.85-2,5.35,5.35,0,0,1,3.45-.26,3.91,3.91,0,0,1,2.33,1.51,5.8,5.8,0,0,1,.5,5.19,3.34,3.34,0,0,1-1.07,1.56l-.13.1a3.11,3.11,0,0,1,.78,1.06,5.72,5.72,0,0,1,.18,5.22,4,4,0,0,1-2.1,1.81,5.87,5.87,0,0,1-2.13.42A5,5,0,0,1,72.36,77.58Z"/><path class="cls-19" d="M35.19,88.9a.32.32,0,0,1,.1.21,2.06,2.06,0,0,1-.39,1.19.38.38,0,0,1-.31.11c-.18-.06-.44-.13-.73-.24s-.46-.18-.67-.23a2.57,2.57,0,0,0-2.13.18,2.45,2.45,0,0,0-.78,1.76.94.94,0,0,0,.37.83,2.06,2.06,0,0,0,1.4.24l.18,0a7.46,7.46,0,0,1,1.84-.08,3.83,3.83,0,0,1,2.57,1.43,2.79,2.79,0,0,1,.49,2.26A5.09,5.09,0,0,1,34.64,100a3.66,3.66,0,0,1-3.11.18,5.57,5.57,0,0,1-2.83-2.72,1.52,1.52,0,0,1-.13-.57v-.08l.05-.05A4.07,4.07,0,0,1,30,96.3a.27.27,0,0,1,.31.18,3.52,3.52,0,0,0,2.15,2.07,1.27,1.27,0,0,0,1.12-.13,2.87,2.87,0,0,0,1.3-2.62,1.34,1.34,0,0,0-.76-1,1.65,1.65,0,0,0-.67-.16,4.68,4.68,0,0,0-.83,0l-.29,0-.18,0a4.71,4.71,0,0,1-2.46-.21A3.05,3.05,0,0,1,28,91.29a4.2,4.2,0,0,1,1-2.36A4.08,4.08,0,0,1,32,88,4.53,4.53,0,0,1,35.19,88.9Z"/><path class="cls-19" d="M41.39,96.35c-.08-1.48-.16-3.76-.18-6-1.56,0-3,0-3.09,0a3,3,0,0,1,0-1.82,30.21,30.21,0,0,1,3.09-.18c0-2.93,0-5.45,0-5.74a3.33,3.33,0,0,1,2.62-.13c.07.16.18,2.7.26,5.82a22.41,22.41,0,0,1,2.69.07,4.39,4.39,0,0,1,0,1.82c-.37,0-1.61.08-1.84.08l-.78,0c.1,4.33.15,9,0,9.78a4.72,4.72,0,0,1-2.6.08C41.49,99.33,41.41,96.81,41.39,96.35Z"/><path class="cls-19" d="M49.07,91.39c1-3.22,4.23-4.33,6.72-2.57a2.73,2.73,0,0,1,.54,3.56c-.93,1.58-3.09,2.51-4.85,2.75a2.59,2.59,0,0,0,.86,2.57,1.78,1.78,0,0,0,2.43.07,25,25,0,0,0,1.79-1.94.46.46,0,0,1,.47-.11,2.09,2.09,0,0,1,1.32,1.41,17,17,0,0,1-2.3,2.12,4.61,4.61,0,0,1-3.14.81C48.62,99.56,48.16,94.48,49.07,91.39Zm5.44.55c.68-.83.58-1.28.34-1.66a1.3,1.3,0,0,0-1.3-.57c-1.19.33-1.89,2-2,3.52A4.37,4.37,0,0,0,54.51,91.94Z"/><path class="cls-19" d="M61.31,98.68c-.23-1.89-.7-10.14-.7-10.3,0-.34.36-.28.36-.28H62.3c.15,0,.2.07.2.2.08.7.26,2.21.39,3.14.34-.59.86-1.4,1.15-1.79,1.4-2,3.42-2.41,4.61-1.42a3.61,3.61,0,0,1,1.17,2.23A11.63,11.63,0,0,1,70,93.29a8.28,8.28,0,0,1-.78,3.08,6.71,6.71,0,0,1-1,1.46,3.29,3.29,0,0,1-4.07.52,3.77,3.77,0,0,1-.73-.5l-.18-.1a63.12,63.12,0,0,1,.31,7,2.25,2.25,0,0,1-1.76.11C61.73,104.62,61.7,103.28,61.31,98.68Zm6.25-3.37c.76-1.71,1-4.36-.44-5-2.23-1-3.63,4-3.5,5.37C64.27,96.48,66.58,97.57,67.56,95.31Z"/><path class="cls-19" d="M79.11,88.9a.32.32,0,0,1,.1.21,2,2,0,0,1-.39,1.19.36.36,0,0,1-.31.11c-.18-.06-.44-.13-.72-.24s-.47-.18-.68-.23a2.58,2.58,0,0,0-2.13.18,2.44,2.44,0,0,0-.77,1.76.94.94,0,0,0,.36.83A2.06,2.06,0,0,0,76,93l.18,0A7.46,7.46,0,0,1,78,92.84a3.81,3.81,0,0,1,2.57,1.43,2.79,2.79,0,0,1,.5,2.26,5.13,5.13,0,0,1-2.5,3.45,3.66,3.66,0,0,1-3.11.18,5.61,5.61,0,0,1-2.83-2.72,1.52,1.52,0,0,1-.13-.57v-.08l.05-.05a4.14,4.14,0,0,1,1.38-.44.27.27,0,0,1,.31.18,3.52,3.52,0,0,0,2.15,2.07,1.27,1.27,0,0,0,1.12-.13,2.87,2.87,0,0,0,1.3-2.62,1.36,1.36,0,0,0-.75-1,1.74,1.74,0,0,0-.68-.16,4.71,4.71,0,0,0-.83,0l-.29,0-.18,0a4.72,4.72,0,0,1-2.46-.21,3.07,3.07,0,0,1-1.69-3.24,4.2,4.2,0,0,1,1-2.36,4.08,4.08,0,0,1,3-.94A4.53,4.53,0,0,1,79.11,88.9Z"/><path class="cls-20" d="M109.93,68.24c1.27-.56,1.67.12,2.83.23a2.08,2.08,0,0,0,1.39-.23,1.37,1.37,0,0,1,0,1.07c-.9.15-1.94-.65-3.21-.52a1.81,1.81,0,0,0-1,.64A2.39,2.39,0,0,1,109.93,68.24Z"/><path class="cls-20" d="M119,75.6l-.06,0v-.1c0-.35.19-1.4.29-2.1l.07-.58c.25-1.83.85-5.4,1.2-7.35-1.67.17-5,.3-5.19.25l-.06,0,0-.08a3.18,3.18,0,0,1-.09-1.52l0-.17h0a57.13,57.13,0,0,1,7.22-.44l.1,0v.08a5,5,0,0,1,0,1.4l0,.21c-.35,2.63-1.46,9.6-1.74,10.41l0,0-.06,0a2.2,2.2,0,0,1-.67.1A3,3,0,0,1,119,75.6Z"/><path class="cls-20" d="M125.43,74.58c0,.17-.39,1.09-.52,1.45a3.81,3.81,0,0,1-.28.6,1.2,1.2,0,0,1-.49-.17,8,8,0,0,1,.69-2.12A1,1,0,0,1,125.43,74.58Z"/><path class="cls-20" d="M131.45,75.88A4.24,4.24,0,0,1,128.17,74a8.63,8.63,0,0,1-.39-7.91,9,9,0,0,1,.77-1.32,3.46,3.46,0,0,1,2.77-1.4,4.1,4.1,0,0,1,3.25,1.46,4.36,4.36,0,0,1,.6,1,9,9,0,0,1,.41,4,9.75,9.75,0,0,1-.92,3.73,6.33,6.33,0,0,1-.77,1.26,2.75,2.75,0,0,1-2.27,1.09Zm1.62-3.21c1.18-1.72.88-5,.58-6a2.18,2.18,0,0,0-1.05-1.43,1.82,1.82,0,0,0-1.41,0,3.43,3.43,0,0,0-1.76,1.86,9.42,9.42,0,0,0-.43,3.3,6.66,6.66,0,0,0,.67,2.57l.08.13a1.52,1.52,0,0,0,1.67.8A2.78,2.78,0,0,0,133.07,72.67Z"/><path class="cls-20" d="M141.65,75.88A4.24,4.24,0,0,1,138.37,74a8.63,8.63,0,0,1-.39-7.91,9,9,0,0,1,.77-1.32,3.46,3.46,0,0,1,2.77-1.4,4.1,4.1,0,0,1,3.25,1.46,4.36,4.36,0,0,1,.6,1,9,9,0,0,1,.41,4,9.75,9.75,0,0,1-.92,3.73,6.33,6.33,0,0,1-.77,1.26,2.75,2.75,0,0,1-2.27,1.09Zm1.62-3.21c1.18-1.72.88-5,.58-6a2.15,2.15,0,0,0-1-1.43,1.82,1.82,0,0,0-1.41,0,3.47,3.47,0,0,0-1.76,1.86,9.42,9.42,0,0,0-.43,3.3,6.66,6.66,0,0,0,.67,2.57l.08.13a1.52,1.52,0,0,0,1.67.8A2.78,2.78,0,0,0,143.27,72.67Z"/><path class="cls-20" d="M151.86,75.88A4.25,4.25,0,0,1,148.57,74a8.66,8.66,0,0,1-.39-7.91,9.93,9.93,0,0,1,.77-1.32,3.48,3.48,0,0,1,2.77-1.4A4.1,4.1,0,0,1,155,64.87a4.36,4.36,0,0,1,.6,1,8.82,8.82,0,0,1,.41,4,9.75,9.75,0,0,1-.92,3.73,6.33,6.33,0,0,1-.77,1.26A2.75,2.75,0,0,1,152,75.9Zm1.61-3.21c1.18-1.72.88-5,.58-6A2.15,2.15,0,0,0,153,65.28a1.82,1.82,0,0,0-1.41,0,3.47,3.47,0,0,0-1.76,1.86,9.42,9.42,0,0,0-.43,3.3,6.84,6.84,0,0,0,.67,2.57l.08.13a1.52,1.52,0,0,0,1.67.8A2.75,2.75,0,0,0,153.47,72.67Z"/><path class="cls-20" d="M161.72,72.88c-.17-2.82-.21-9.59-.13-10a2.35,2.35,0,0,1,1.89-.09c.11.32.43,11.64.23,12.73a3.66,3.66,0,0,1-1.88.06C161.79,75,161.74,73.21,161.72,72.88Z"/><path class="cls-20" d="M166.39,75.41a33.29,33.29,0,0,1-.23-3.86c-.07-2.2-.43-8.11-.43-8.67a1.52,1.52,0,0,1,1.26-.09s.07,0,.09.07c.08.21.56,6,.58,6.21a3.56,3.56,0,0,1,4.34-.92,2.9,2.9,0,0,1,1.27,3.1,4.57,4.57,0,0,1-3.45,4.1,17.43,17.43,0,0,1-3.32.17A.12.12,0,0,1,166.39,75.41Zm3.45-1.73A3.08,3.08,0,0,0,172,70.4a1.54,1.54,0,0,0-.72-1,1.62,1.62,0,0,0-1.08-.19,2.9,2.9,0,0,0-1.32.53,4.61,4.61,0,0,0-1,.9,28.23,28.23,0,0,0,.11,3.28C168.06,74.1,169.67,73.72,169.84,73.68Z"/><path class="cls-20" d="M179.87,67.53a.25.25,0,0,1,.08.15,1.51,1.51,0,0,1-.29.87.26.26,0,0,1-.22.07c-.13,0-.32-.09-.53-.17s-.33-.13-.48-.17a1.87,1.87,0,0,0-1.54.13,1.79,1.79,0,0,0-.56,1.28.7.7,0,0,0,.26.6,1.46,1.46,0,0,0,1,.17l.13,0a5.33,5.33,0,0,1,1.33-.06,2.81,2.81,0,0,1,1.86,1,2,2,0,0,1,.36,1.64,3.71,3.71,0,0,1-1.8,2.49,2.66,2.66,0,0,1-2.25.13,4,4,0,0,1-2-2,1.21,1.21,0,0,1-.09-.41v-.06l0,0a2.68,2.68,0,0,1,1-.32.19.19,0,0,1,.22.13,2.56,2.56,0,0,0,1.56,1.5.94.94,0,0,0,.81-.1,2.07,2.07,0,0,0,.94-1.89,1,1,0,0,0-.55-.71,1,1,0,0,0-.49-.11,4.07,4.07,0,0,0-.6,0l-.2,0-.13,0a3.33,3.33,0,0,1-1.79-.15,2.21,2.21,0,0,1-1.21-2.34,3,3,0,0,1,.75-1.71,3,3,0,0,1,2.15-.67A3.26,3.26,0,0,1,179.87,67.53Z"/><g class="cls-21"><g class="cls-22"><path class="cls-23" d="M201.86,104.07a.74.74,0,0,1-.75-.75V45.43a.75.75,0,0,1,1.5,0v57.89A.75.75,0,0,1,201.86,104.07Z"/><path class="cls-23" d="M205.11,104.07a.74.74,0,0,1-.75-.75V45.43a.75.75,0,0,1,1.5,0v57.89A.75.75,0,0,1,205.11,104.07Z"/><path class="cls-23" d="M208.36,104.07a.74.74,0,0,1-.75-.75V45.43a.75.75,0,0,1,1.5,0v57.89A.75.75,0,0,1,208.36,104.07Z"/><path class="cls-23" d="M211.61,104.07a.74.74,0,0,1-.75-.75V45.43a.75.75,0,0,1,1.5,0v57.89A.75.75,0,0,1,211.61,104.07Z"/><path class="cls-23" d="M214.86,104.07a.74.74,0,0,1-.75-.75V45.43a.75.75,0,0,1,1.5,0v57.89A.75.75,0,0,1,214.86,104.07Z"/></g><path class="cls-23" d="M242.48,85.39c-25.23,0-45.75-17.93-45.75-40a.75.75,0,0,1,1.5,0c0,21.2,19.85,38.46,44.25,38.46s44.25-17.26,44.25-38.46a.75.75,0,0,1,1.5,0C288.23,67.46,267.71,85.39,242.48,85.39Z"/></g><path class="cls-24" d="M30.52,119.31a3.55,3.55,0,0,1-2.73-1.53,7.23,7.23,0,0,1-.33-6.59,8.22,8.22,0,0,1,.64-1.09,2.93,2.93,0,0,1,2.31-1.17,3.38,3.38,0,0,1,2.7,1.22,3.17,3.17,0,0,1,.5.82,7.45,7.45,0,0,1,.35,3.3,8.22,8.22,0,0,1-.77,3.1,5.44,5.44,0,0,1-.64,1,2.29,2.29,0,0,1-1.89.9Zm1.35-2.67c1-1.44.73-4.17.48-5a1.77,1.77,0,0,0-.88-1.19,1.53,1.53,0,0,0-1.17,0,2.87,2.87,0,0,0-1.46,1.55,8,8,0,0,0-.36,2.74A5.39,5.39,0,0,0,29,117l.06.11a1.28,1.28,0,0,0,1.39.67A2.28,2.28,0,0,0,31.87,116.64Z"/><path class="cls-24" d="M35.5,118.93a.38.38,0,0,1-.19-.39.53.53,0,0,1,.16-.23,1.33,1.33,0,0,1,1.48,0,.49.49,0,0,1,.2.3.53.53,0,0,1-.36.45A1.43,1.43,0,0,1,35.5,118.93Z"/><path class="cls-24" d="M41,119.08a2.13,2.13,0,0,1-1.45-.68,2.35,2.35,0,0,1-.6-1.74,3.49,3.49,0,0,1,.47-1.38l.11-.22.44-.75-.14-.07a2.65,2.65,0,0,1-.92-.72,3,3,0,0,1-.47-1.36c0-.53-.11-2.34,1.28-3a2.65,2.65,0,0,1,2.33,0,2.26,2.26,0,0,1,.9,1.56l.13-.14a1.42,1.42,0,0,1,.42-.41l0,0,0,0a1.87,1.87,0,0,1,1.07.87v.07l0,0c-.3.38-.64.78-1,1.22s-.86,1-1.24,1.52a4,4,0,0,1,1.41,2.77,2.48,2.48,0,0,1-.41,1.11,2.76,2.76,0,0,1-2.29,1.24Zm1.12-7.25a1.9,1.9,0,0,0-.75-1.56,1.22,1.22,0,0,0-.46-.08,1.26,1.26,0,0,0-1,.57,1.76,1.76,0,0,0-.23,1.6l0,.1a1.28,1.28,0,0,0,.53.43,3.67,3.67,0,0,0,.81.35A10.61,10.61,0,0,0,42.16,111.83Zm-.53,5.92a2,2,0,0,0,.74-1.13,2.28,2.28,0,0,0-1-1.82,4,4,0,0,0-.88,1.57c-.12.57-.09,1.27.42,1.47l.13,0A.92.92,0,0,0,41.63,117.75Z"/><path class="cls-24" d="M53.37,112.36a.2.2,0,0,1,.06.13,1.24,1.24,0,0,1-.23.72.27.27,0,0,1-.19.06l-.44-.14c-.14,0-.28-.11-.4-.14a1.54,1.54,0,0,0-1.29.11,1.48,1.48,0,0,0-.46,1.06.57.57,0,0,0,.22.5,1.25,1.25,0,0,0,.84.14l.11,0a4.53,4.53,0,0,1,1.11,0,2.3,2.3,0,0,1,1.54.85,1.69,1.69,0,0,1,.3,1.36A3.08,3.08,0,0,1,53,119a2.2,2.2,0,0,1-1.87.11,3.38,3.38,0,0,1-1.71-1.64,1,1,0,0,1-.07-.34v0l0,0a2.55,2.55,0,0,1,.82-.27.18.18,0,0,1,.19.11,2.11,2.11,0,0,0,1.3,1.25.74.74,0,0,0,.67-.08,1.72,1.72,0,0,0,.78-1.57.83.83,0,0,0-.45-.6,1,1,0,0,0-.41-.09,2.82,2.82,0,0,0-.5,0l-.17,0-.11,0a2.89,2.89,0,0,1-1.48-.13,1.84,1.84,0,0,1-1-2,2.57,2.57,0,0,1,.63-1.42,2.45,2.45,0,0,1,1.79-.56A2.73,2.73,0,0,1,53.37,112.36Z"/><path class="cls-24" d="M57.1,116.84c-.05-.89-.1-2.26-.11-3.62-.94,0-1.78,0-1.86,0a1.88,1.88,0,0,1,0-1.09A18.15,18.15,0,0,1,57,112c0-1.77,0-3.28,0-3.45a2,2,0,0,1,1.57-.08c0,.09.11,1.62.16,3.5a14.12,14.12,0,0,1,1.62,0,2.76,2.76,0,0,1,0,1.1l-1.11,0-.47,0c.06,2.6.09,5.41,0,5.88a2.87,2.87,0,0,1-1.56,0C57.16,118.64,57.11,117.12,57.1,116.84Z"/><path class="cls-24" d="M61.71,113.86a2.58,2.58,0,0,1,4.05-1.54,1.63,1.63,0,0,1,.32,2.13,4.08,4.08,0,0,1-2.91,1.66,1.57,1.57,0,0,0,.51,1.55,1.08,1.08,0,0,0,1.47,0c.37-.33.67-.73,1.07-1.17a.28.28,0,0,1,.29-.06,1.23,1.23,0,0,1,.79.84,9.52,9.52,0,0,1-1.39,1.28,2.8,2.8,0,0,1-1.89.49C61.45,118.78,61.17,115.72,61.71,113.86Zm3.28.33c.41-.5.35-.77.2-1a.77.77,0,0,0-.78-.34c-.71.2-1.14,1.18-1.2,2.12A2.67,2.67,0,0,0,65,114.19Z"/><path class="cls-24" d="M69.08,118.25c-.14-1.14-.42-6.11-.42-6.2s.22-.17.22-.17h.79c.1,0,.13.05.13.12,0,.43.15,1.33.23,1.89a11.89,11.89,0,0,1,.69-1.07c.84-1.21,2.06-1.46,2.78-.86a2.17,2.17,0,0,1,.7,1.34,6.44,6.44,0,0,1,.12,1.7,5.09,5.09,0,0,1-.46,1.86,4.49,4.49,0,0,1-.63.87,2,2,0,0,1-2.45.32,2.28,2.28,0,0,1-.44-.3l-.11-.06a36.94,36.94,0,0,1,.19,4.21,1.33,1.33,0,0,1-1.06.06C69.33,121.82,69.31,121,69.08,118.25Zm3.76-2c.45-1,.58-2.62-.26-3-1.35-.63-2.19,2.42-2.11,3.23C70.86,116.92,72.25,117.58,72.84,116.22Z"/><path class="cls-24" d="M79.78,112.36a.17.17,0,0,1,.07.13,1.24,1.24,0,0,1-.24.72.23.23,0,0,1-.18.06l-.44-.14a4,4,0,0,0-.41-.14,1.52,1.52,0,0,0-1.28.11,1.49,1.49,0,0,0-.47,1.06.59.59,0,0,0,.22.5,1.29,1.29,0,0,0,.85.14l.1,0a4.53,4.53,0,0,1,1.11,0,2.3,2.3,0,0,1,1.55.85A1.69,1.69,0,0,1,81,117a3.11,3.11,0,0,1-1.5,2.08,2.22,2.22,0,0,1-1.88.11,3.4,3.4,0,0,1-1.7-1.64,1.05,1.05,0,0,1-.08-.34v0l0,0a2.47,2.47,0,0,1,.82-.27.18.18,0,0,1,.19.11,2.11,2.11,0,0,0,1.3,1.25.74.74,0,0,0,.67-.08,1.72,1.72,0,0,0,.78-1.57.81.81,0,0,0-.46-.6.94.94,0,0,0-.4-.09,2.8,2.8,0,0,0-.5,0l-.17,0-.11,0a2.88,2.88,0,0,1-1.48-.13,1.84,1.84,0,0,1-1-2,2.51,2.51,0,0,1,.63-1.42,2.43,2.43,0,0,1,1.79-.56A2.71,2.71,0,0,1,79.78,112.36Z"/><path class="cls-24" d="M27.4,132.25c-.14-1.14-.42-6.11-.42-6.2s.22-.17.22-.17H28c.1,0,.13.05.13.12.05.43.15,1.33.23,1.89.21-.36.52-.84.69-1.07.84-1.21,2.06-1.46,2.78-.86a2.17,2.17,0,0,1,.7,1.34,6.89,6.89,0,0,1,.13,1.7,5.31,5.31,0,0,1-.47,1.86,4.1,4.1,0,0,1-.63.87,2,2,0,0,1-2.45.32,2.2,2.2,0,0,1-.43-.3l-.11-.06a38.17,38.17,0,0,1,.18,4.21,1.33,1.33,0,0,1-1.06.06C27.65,135.82,27.63,135,27.4,132.25Zm3.76-2c.46-1,.58-2.62-.26-3-1.35-.63-2.19,2.42-2.11,3.23C29.18,130.92,30.57,131.58,31.16,130.22Z"/><path class="cls-24" d="M34,127.86A2.58,2.58,0,0,1,38,126.32a1.63,1.63,0,0,1,.33,2.13,4.12,4.12,0,0,1-2.92,1.66,1.57,1.57,0,0,0,.51,1.55,1.08,1.08,0,0,0,1.47,0c.37-.33.67-.73,1.08-1.17a.26.26,0,0,1,.28-.06,1.23,1.23,0,0,1,.79.84,9,9,0,0,1-1.39,1.28,2.77,2.77,0,0,1-1.88.49C33.72,132.78,33.44,129.72,34,127.86Zm3.28.33c.41-.5.35-.77.21-1a.79.79,0,0,0-.78-.34c-.72.2-1.14,1.18-1.21,2.12A2.67,2.67,0,0,0,37.26,128.19Z"/><path class="cls-24" d="M41,133.06a3.82,3.82,0,0,1-.14-.92c-.14-1.34-.27-2.69-.41-4,0-.28-.06-.54-.09-.83s-.07-1-.07-1.42a3,3,0,0,1,1.35-.11,15.5,15.5,0,0,1,.26,1.8c.22-.22.36-.33.49-.47a4.49,4.49,0,0,1,1.29-1c1-.52,2.66-.09,2.87,1.19a11.76,11.76,0,0,1,.18,1.29.11.11,0,0,1-.07.11,1.91,1.91,0,0,1-.92.05.15.15,0,0,1-.09-.1c0-.39-.24-1.51-.94-1.6-1-.14-2.15,1.15-2.54,1.81.11.9.23,3.49.22,4,0,0,0,.06-.07.08a4.3,4.3,0,0,1-1.24.14A.08.08,0,0,1,41,133.06Z"/><path class="cls-24" d="M51.63,132.25c-.14-1.14-.42-6.11-.42-6.2s.22-.17.22-.17h.8c.09,0,.12.05.12.12,0,.43.16,1.33.24,1.89a12,12,0,0,1,.68-1.07c.85-1.21,2.06-1.46,2.78-.86a2.17,2.17,0,0,1,.7,1.34,6.89,6.89,0,0,1,.13,1.7,4.91,4.91,0,0,1-.47,1.86,4.06,4.06,0,0,1-.62.87,2,2,0,0,1-2.45.32,2,2,0,0,1-.44-.3l-.11-.06A40,40,0,0,1,53,135.9a1.35,1.35,0,0,1-1.07.06C51.88,135.82,51.87,135,51.63,132.25Zm3.77-2c.45-1,.57-2.62-.27-3-1.34-.63-2.19,2.42-2.11,3.23A1.38,1.38,0,0,0,55.4,130.22Z"/><path class="cls-24" d="M59,132.2a3.57,3.57,0,0,1-1-2.68,3.84,3.84,0,0,1,1.47-3.16,3.09,3.09,0,0,1,2.06-.37,3,3,0,0,1,1.63.7c1.2,1.09,1,3.11.39,4.39a5.2,5.2,0,0,1-.75,1.23,2.13,2.13,0,0,1-1.44.78A3.24,3.24,0,0,1,59,132.2Zm3.65-2.37a3,3,0,0,0-.47-2.34,1.4,1.4,0,0,0-1.06-.39,1.45,1.45,0,0,0-.89.28,1.65,1.65,0,0,0-.48.86,4.73,4.73,0,0,0-.17,1.17c0,.23,0,.5,0,.76a1.92,1.92,0,0,0,.59,1.38,1.34,1.34,0,0,0,1.4.12A2.39,2.39,0,0,0,62.65,129.83Z"/><path class="cls-24" d="M69.92,133a9.67,9.67,0,0,1-.12-1.56,2.56,2.56,0,0,1-2.45,1.61c-2-.15-2.28-4.25-2.27-5.22,0-.29,0-1.42,0-1.73a.19.19,0,0,1,.15-.13,4.36,4.36,0,0,1,1.14,0,.18.18,0,0,1,.13.12c.07.64.15,3.13.21,3.78s.21,1.58,1.07,1.66c1.32.12,1.87-4.62,2-5.33a.09.09,0,0,1,.1-.09,5.14,5.14,0,0,1,1.11,0s.09,0,.09.09a4.86,4.86,0,0,1,.08,1c.09,1.87.23,3.87.17,5.76a3.08,3.08,0,0,1-1.36.05S69.94,133.08,69.92,133Z"/><path class="cls-24" d="M77.18,133.15a.16.16,0,0,1-.13-.14c-.06-.73-.07-2.85-.14-3.51s-.11-1.53-1-1.61-1.18,1-1.32,1.25c0,.91,0,3.31,0,3.79,0,0,0,.1-.11.1a7.06,7.06,0,0,1-1.38,0A.13.13,0,0,1,73,133a8.36,8.36,0,0,1-.07-1c-.07-1.8-.19-4-.14-5.78a1.79,1.79,0,0,1,1.34,0,3.34,3.34,0,0,1,.26,1.23,2.21,2.21,0,0,1,2.17-.92A2.29,2.29,0,0,1,78.38,128a11.2,11.2,0,0,1,.28,3.43,15.05,15.05,0,0,1,0,1.64.16.16,0,0,1-.12.12A4.23,4.23,0,0,1,77.18,133.15Z"/><path class="cls-24" d="M84.81,133.06l0,0a.15.15,0,0,1-.09-.11c-.06-.43,0-1.38-.11-2-.25.34-.61.84-.81,1.07-1,1.24-2.28,1.41-3,.74a2.28,2.28,0,0,1-.66-1.47,6.71,6.71,0,0,1,0-1.79,5.21,5.21,0,0,1,.63-1.94,4.86,4.86,0,0,1,.7-.87,2.1,2.1,0,0,1,2.62-.19,3.63,3.63,0,0,1,.46.34l.09.08c0-2.86,0-4.2.06-4.46a1.43,1.43,0,0,1,1.14,0c0,.14,0,1,.06,3.92.08,1.22.08,6.46.07,6.57l0,.05a.3.3,0,0,1-.2.12h-.27A1.56,1.56,0,0,1,84.81,133.06Zm-.55-5.15a1.51,1.51,0,0,0-2.54.37c-.55,1.06-.78,3.14.11,3.61C83.2,132.61,84.29,128.77,84.26,127.91Z"/><path class="cls-24" d="M27.07,148a3.57,3.57,0,0,1-1-2.68,3.78,3.78,0,0,1,1.47-3.16,3.08,3.08,0,0,1,2.06-.37,3,3,0,0,1,1.62.7c1.2,1.09,1,3.11.39,4.39a5.41,5.41,0,0,1-.75,1.23,2.13,2.13,0,0,1-1.44.78A3.24,3.24,0,0,1,27.07,148Zm3.66-2.37a3,3,0,0,0-.47-2.34,1.42,1.42,0,0,0-1.06-.39,1.45,1.45,0,0,0-.89.28,1.74,1.74,0,0,0-.49.86,5.25,5.25,0,0,0-.17,1.17c0,.23,0,.5,0,.76a2,2,0,0,0,.59,1.37,1.33,1.33,0,0,0,1.41.13A2.42,2.42,0,0,0,30.73,145.64Z"/><path class="cls-24" d="M33.88,148.82c-.07-1.22-.13-3.88-.08-6a1.19,1.19,0,0,1-.55-.08c-.08-.06-.14-.94,0-1a5.82,5.82,0,0,1,.61-.08c0-.52.06-1,.09-1.28a3.18,3.18,0,0,1,.63-1.6,2,2,0,0,1,1.61-.76,3.65,3.65,0,0,1,2.17.92.11.11,0,0,1,0,.06,2.08,2.08,0,0,1-.48,1.27h-.07c-1.28-1-1.49-.78-1.71-.69-.64.31-.53,1.3-.58,1.83l0,.15c1,0,2-.06,2.11,0s.22,1,.06,1.09a4.11,4.11,0,0,1-.68,0l-1.52.08c0,1.58,0,3.89,0,3.89l.06,2.12a.1.1,0,0,1,0,.08,4.27,4.27,0,0,1-1.51.06S33.88,148.87,33.88,148.82Z"/><path class="cls-24" d="M46.47,148.79a.13.13,0,0,1-.09-.11c-.07-.43-.05-1.39-.11-2-.25.34-.61.84-.81,1.07-1,1.24-2.28,1.41-3,.74A2.28,2.28,0,0,1,41.8,147a6.38,6.38,0,0,1,0-1.8,5.22,5.22,0,0,1,.63-1.93,4.44,4.44,0,0,1,.7-.88,2.11,2.11,0,0,1,2.62-.18,3,3,0,0,1,.45.34,1.15,1.15,0,0,1,.33.33l.06-.3c0-.05.07-.36.08-.42s1-.16,1.22.06c0,.33-.17,5.33-.28,6.4a.28.28,0,0,1-.23.22A3,3,0,0,1,46.47,148.79Zm-.5-5.13a1.52,1.52,0,0,0-2.54.37c-.53,1.08-.78,3.14.11,3.61C44.91,148.36,46,144.52,46,143.66Z"/><path class="cls-24" d="M54.15,148.67a2.9,2.9,0,0,1-1.55-1.28,4.74,4.74,0,0,1-.2-3.94,2.11,2.11,0,0,1,.75-1.06,3.63,3.63,0,0,1,2.48-.48,2.49,2.49,0,0,1,2,1.26.07.07,0,0,1,0,.11,3.19,3.19,0,0,1-.8.19.19.19,0,0,1-.08,0,1.58,1.58,0,0,0-1.37-.63,1.45,1.45,0,0,0-1.53,1.47,4.64,4.64,0,0,0,0,1.66c.14.73.61,1.9,1.57,2s1.39-1.07,1.53-1.87a.13.13,0,0,1,.13-.12.66.66,0,0,1,.2,0A3,3,0,0,1,58,146a.09.09,0,0,1,.06.06,3.47,3.47,0,0,1-.21,1.39,2.19,2.19,0,0,1-1.3,1.3A3.37,3.37,0,0,1,54.15,148.67Z"/><path class="cls-24" d="M63.88,148.79s-.07-.06-.09-.11c-.06-.43,0-1.39-.11-2-.25.34-.61.84-.81,1.07-.95,1.24-2.28,1.41-3,.74a2.27,2.27,0,0,1-.65-1.47,6,6,0,0,1,0-1.8,5,5,0,0,1,.62-1.93,5.3,5.3,0,0,1,.7-.88,2.12,2.12,0,0,1,2.63-.18,3.54,3.54,0,0,1,.45.34,1.29,1.29,0,0,1,.33.33l.06-.3a3.43,3.43,0,0,1,.08-.42c.14-.09,1-.16,1.21.06,0,.33-.17,5.33-.28,6.4a.27.27,0,0,1-.23.22A3.07,3.07,0,0,1,63.88,148.79Zm-.49-5.13a1.53,1.53,0,0,0-2.55.37c-.53,1.08-.78,3.14.11,3.61C62.32,148.36,63.42,144.52,63.39,143.66Z"/><path class="cls-24" d="M67.33,149a4.46,4.46,0,0,1-.14-.92c-.14-1.34-.26-2.69-.4-4,0-.28-.07-.54-.1-.83s-.06-1-.06-1.42a3,3,0,0,1,1.34-.11,15.36,15.36,0,0,1,.27,1.8c.22-.22.36-.33.48-.47a4.41,4.41,0,0,1,1.3-.95,2,2,0,0,1,2.87,1.19,11.7,11.7,0,0,1,.17,1.29c0,.05,0,.09-.06.11a1.92,1.92,0,0,1-.92.05.17.17,0,0,1-.1-.1c0-.39-.23-1.51-.93-1.6-1-.14-2.16,1.15-2.55,1.81.11.9.24,3.49.22,4,0,0,0,.06-.06.08a4.4,4.4,0,0,1-1.25.14A.1.1,0,0,1,67.33,149Z"/></g></svg>