<svg xmlns="http://www.w3.org/2000/svg" viewBox="0 0 216 216"><defs><style>.cls-1{isolation:isolate;}.cls-2,.cls-7,.cls-8{fill:#fff;}.cls-3{font-size:21.01px;fill:#b760c2;stroke:#b760c2;stroke-width:0.6px;}.cls-10,.cls-20,.cls-3,.cls-8{stroke-linecap:round;}.cls-10,.cls-3,.cls-8{stroke-linejoin:round;}.cls-10,.cls-3,.cls-4{font-family:MyDearWatson-Regular, My Dear Watson;}.cls-4{font-size:13.7px;fill:#7dde18;stroke:#7dde18;stroke-width:0.44px;}.cls-20,.cls-4,.cls-5,.cls-6,.cls-7{stroke-miterlimit:10;}.cls-5,.cls-6{fill:#f1c40f;}.cls-5,.cls-6,.cls-7,.cls-8{stroke:#000;}.cls-5{stroke-width:0.91px;}.cls-6{stroke-width:1.05px;}.cls-7{stroke-width:0.69px;}.cls-8{stroke-width:0.23px;}.cls-9{fill:#ff6363;}.cls-10{font-size:13.43px;fill:#7d141c;stroke:#7d141c;stroke-width:0.46px;}.cls-11{fill:#51424e;}.cls-12{fill:#d65353;}.cls-13{fill:#fffafc;}.cls-14{fill:#ade5ff;}.cls-15{opacity:0.4;}.cls-16{fill:#b2a5ac;}.cls-17{mix-blend-mode:multiply;}.cls-18{fill:#d6f2ff;}.cls-19{fill:#e6e6e6;}.cls-20{fill:none;stroke:#fff;stroke-width:1.83px;}</style></defs><g class="cls-1"><g id="cutlines"><path class="cls-2" d="M188.37,146.27v-53a13.39,13.39,0,0,0-10.68-13.1,8.86,8.86,0,0,0-5.27-2.46l0-.1v0a9.59,9.59,0,0,0-.86-6.13,8.1,8.1,0,0,0-2.37-5.07,10,10,0,0,0-7.33-2.82,10.67,10.67,0,0,0-1.41.09,7.91,7.91,0,0,0-4.33-2.83,9.18,9.18,0,0,0-2.39-.32,10.86,10.86,0,0,0-1.28.09,9.93,9.93,0,0,0-1.54-.12,9.52,9.52,0,0,0-4.37,1.06l-.08,0a11.26,11.26,0,0,0-3.44-.55h-.31a10.83,10.83,0,0,0-2,.26,9.64,9.64,0,0,0-2.76-.41,9.32,9.32,0,0,0-2.28.29c-.28,0-.57-.09-.86-.12s-.67,0-1,0h0a10.6,10.6,0,0,0-7.92,3.54,9.92,9.92,0,0,0-2.3.69,7.94,7.94,0,0,0-2.91,2.2,9.15,9.15,0,0,0-1,9.55,8.22,8.22,0,0,0,1,1.53,8.79,8.79,0,0,0-3.09,2.39A13.46,13.46,0,0,0,110,89.1h-.23a12.21,12.21,0,0,0-4.59.84,11.3,11.3,0,0,0-4.31-.85h0l-.43,0a.36.36,0,0,0,0-.09,7.92,7.92,0,0,0-2.49-2.92,8,8,0,0,0-2.2-4.28,8.71,8.71,0,0,0-2-1.5c-.09-.16-.17-.32-.26-.47v-.12A8.19,8.19,0,0,0,91,73.91a11.17,11.17,0,0,0-8.23-3.08,12.44,12.44,0,0,0-4.16.68A11.18,11.18,0,0,0,75.15,71a10.39,10.39,0,0,0-1.68.13c-.28-.08-.55-.15-.84-.21a11.53,11.53,0,0,0-2.11-.18h0a11,11,0,0,0-3.55.55c-.35,0-.66,0-.91,0s-.76,0-1.11,0a8.05,8.05,0,0,0-1.47.24c-.23-.08-.47-.15-.71-.21l-.11,0A10.66,10.66,0,0,0,60.25,71h0a14.22,14.22,0,0,0-2.2.17,1.91,1.91,0,0,0-.33.06,7.27,7.27,0,0,0-.8.22,13.23,13.23,0,0,0-1.64-.33A12.68,12.68,0,0,0,53.55,71a12.28,12.28,0,0,0-4.43.82,8,8,0,0,0-2.83-4A9.22,9.22,0,0,0,40.61,66,9.67,9.67,0,0,0,36,67.09a7.73,7.73,0,0,0-1.26.85,11.51,11.51,0,0,0-3.68-1c-.38,0-.76,0-1.14,0A11.94,11.94,0,0,0,19.42,73l-.07.12a14,14,0,0,0-1.51,5.45,8,8,0,0,0,1.36,5.13,11.14,11.14,0,0,0-.62,6.38,7.89,7.89,0,0,0-.77,3.37c0,.79.44,5.26.52,6,.52,5.31,1.76,7.07,2.23,7.73a8.07,8.07,0,0,0,3.29,2.7,8,8,0,0,0,1.34,2.1,14.83,14.83,0,0,0-1.25,2.11l-.06.15a14.12,14.12,0,0,0,.8,13.26l.06.08a8.11,8.11,0,0,0-2,5.33c0,.58.26,4.7.4,6.09s.16,2.07.19,2.48a9.67,9.67,0,0,0,.21,1.72,7.1,7.1,0,0,0,.32,1,10.78,10.78,0,0,0-1.17,3.27,9.35,9.35,0,0,0,.15,4.28v.1a8.81,8.81,0,0,0,.91,3.91l0,.07a10.86,10.86,0,0,0,5.67,5.21l.05,0a9.8,9.8,0,0,0,3.58.67,9.59,9.59,0,0,0,2.65-.38,10,10,0,0,0,2.47.3,9.83,9.83,0,0,0,3-.47,10.25,10.25,0,0,0,2.75.38q.42,0,.84,0a9.39,9.39,0,0,0,2.12-.43,7.88,7.88,0,0,0,1.44.4,11.27,11.27,0,0,0,5.18-.33,11.2,11.2,0,0,0,1.55.32,11.7,11.7,0,0,0,1.19.07,10.38,10.38,0,0,0,6.08-2,15.09,15.09,0,0,0,2.87-2.75,7.94,7.94,0,0,0,1.39-6.69,8.67,8.67,0,0,0-.61-1.73A9.12,9.12,0,0,0,65.8,147a10.37,10.37,0,0,0,1.36.1,8.06,8.06,0,0,0,.85,0,8.19,8.19,0,0,0,1.3-.21,7,7,0,0,0,1.13.2,12.31,12.31,0,0,0,1.33.08,11.31,11.31,0,0,0,2.59-.3,8.4,8.4,0,0,0,1.7-.61,9.41,9.41,0,0,0,3.69.76,10.18,10.18,0,0,0,1.57-.12,11.77,11.77,0,0,0,1.63.12l.58,0,.52,0a8.21,8.21,0,0,0,7.15-7.05l0-.26c.08-.75.13-2,.23-4.61,0-.53,0-1,0-1.17a8.45,8.45,0,0,0-.1-1.88c.18-.06.36-.1.54-.18l.41-.18A7.83,7.83,0,0,0,94,130.39a14.79,14.79,0,0,0,4.6,15.43v3a10.54,10.54,0,0,0-3.71,8v3.25a10.58,10.58,0,0,0,10.57,10.56h82.82a10.58,10.58,0,0,0,10.57-10.56v-3.25A10.58,10.58,0,0,0,188.37,146.27Zm-87.82-24.39"/></g><g id="sticker"><text class="cls-3" transform="translate(24.93 88.47)">2 hours,<tspan x="0" y="18.27">42 minutes</tspan></text><text class="cls-4" transform="translate(126.24 77.83)">~210 lbs</text><rect class="cls-5" x="107.09" y="140.69" width="3.38" height="14.89"/><rect class="cls-6" x="103.46" y="154.8" width="86.9" height="7.33" rx="2.04"/><circle class="cls-5" cx="108.31" cy="134.53" r="6.41"/><circle class="cls-7" cx="108.31" cy="134.53" r="4.55"/><line class="cls-8" x1="108.31" y1="130.93" x2="108.31" y2="131.76"/><line class="cls-8" x1="107.08" y1="131.15" x2="107.36" y2="131.92"/><line class="cls-8" x1="105.99" y1="131.77" x2="106.53" y2="132.41"/><line class="cls-8" x1="105.19" y1="132.73" x2="105.91" y2="133.14"/><line class="cls-8" x1="104.76" y1="133.91" x2="105.58" y2="134.05"/><line class="cls-8" x1="104.76" y1="135.16" x2="105.58" y2="135.02"/><line class="cls-8" x1="105.19" y1="136.34" x2="105.91" y2="135.92"/><line class="cls-8" x1="105.99" y1="137.3" x2="106.53" y2="136.66"/><line class="cls-8" x1="107.08" y1="137.92" x2="107.36" y2="137.14"/><line class="cls-8" x1="108.31" y1="138.14" x2="108.31" y2="137.31"/><line class="cls-8" x1="109.54" y1="137.92" x2="109.26" y2="137.14"/><line class="cls-8" x1="110.63" y1="137.3" x2="110.1" y2="136.66"/><line class="cls-8" x1="111.43" y1="136.34" x2="110.72" y2="135.92"/><line class="cls-8" x1="111.86" y1="135.16" x2="111.05" y2="135.02"/><line class="cls-8" x1="111.86" y1="133.91" x2="111.05" y2="134.05"/><line class="cls-8" x1="111.43" y1="132.73" x2="110.72" y2="133.14"/><line class="cls-8" x1="110.63" y1="131.77" x2="110.1" y2="132.41"/><line class="cls-8" x1="109.54" y1="131.15" x2="109.26" y2="131.92"/><polygon points="108.1 134.26 110.1 133.14 108.52 134.8 108.1 134.26"/><circle class="cls-9" cx="108.31" cy="134.53" r="0.63"/><text class="cls-10" transform="translate(30.04 124.33)">0.8 mins per<tspan x="0" y="14.61">pound of a</tspan><tspan x="0" y="29.23">stove</tspan></text><path class="cls-11" d="M123.72,88.93a.45.45,0,0,1-.37-.2.47.47,0,0,1,0-.43l.77-1.9a.44.44,0,0,1,.42-.28H145a.44.44,0,0,1,.42.28l.77,1.9a.5.5,0,0,1-.05.43.46.46,0,0,1-.38.2Z"/><path d="M145,86.57l.76,1.9H123.72l.77-1.9H145m0-.91H124.49a.92.92,0,0,0-.85.57l-.76,1.9A.92.92,0,0,0,123,89a.91.91,0,0,0,.75.4h22.07a.91.91,0,0,0,.76-.4.93.93,0,0,0,.09-.84l-.76-1.91a.93.93,0,0,0-.85-.57Z"/><path class="cls-11" d="M150.18,88.93a.48.48,0,0,1-.38-.2.47.47,0,0,1,0-.43l.76-1.9a.46.46,0,0,1,.42-.28h20.55a.46.46,0,0,1,.42.28l.76,1.9a.44.44,0,0,1,0,.43.45.45,0,0,1-.37.2Z"/><path d="M171.49,86.57l.76,1.9H150.18l.76-1.9h20.55m0-.91H150.94a.91.91,0,0,0-.84.57l-.76,1.91a.91.91,0,0,0,.84,1.24h22.07a.91.91,0,0,0,.84-1.24l-.76-1.91a.91.91,0,0,0-.84-.57Z"/><path class="cls-9" d="M122.68,154.62a4.84,4.84,0,0,1-4.83-4.83V93.27a4.84,4.84,0,0,1,4.83-4.83H175a4.84,4.84,0,0,1,4.84,4.83v56.52a4.84,4.84,0,0,1-4.84,4.83Z"/><path d="M175,89a4.3,4.3,0,0,1,4.29,4.29v56.52a4.28,4.28,0,0,1-4.29,4.28H122.68a4.29,4.29,0,0,1-4.29-4.28V93.27A4.3,4.3,0,0,1,122.68,89H175m0-1.09H122.68a5.39,5.39,0,0,0-5.38,5.38v56.52a5.39,5.39,0,0,0,5.38,5.37H175a5.38,5.38,0,0,0,5.38-5.37V93.27A5.39,5.39,0,0,0,175,87.89Z"/><path class="cls-12" d="M134.09,154.07H122.68a4.29,4.29,0,0,1-4.29-4.28V93.27A4.3,4.3,0,0,1,122.68,89h4.95S125.82,149,134.09,154.07Z"/><rect class="cls-13" x="122.89" y="93.76" width="51.51" height="13.09" rx="3.69"/><path d="M170.71,94.22A3.24,3.24,0,0,1,174,97.45v5.71a3.24,3.24,0,0,1-3.24,3.24H126.58a3.25,3.25,0,0,1-3.24-3.24V97.45a3.24,3.24,0,0,1,3.24-3.23h44.13m0-.91H126.58a4.15,4.15,0,0,0-4.14,4.14v5.71a4.15,4.15,0,0,0,4.14,4.14h44.13a4.15,4.15,0,0,0,4.15-4.14V97.45a4.15,4.15,0,0,0-4.15-4.14Z"/><rect class="cls-14" x="122.51" y="110.35" width="52.28" height="34.71" rx="3.74"/><path d="M171.05,110.8a3.28,3.28,0,0,1,3.28,3.29v27.23a3.28,3.28,0,0,1-3.28,3.29h-44.8a3.29,3.29,0,0,1-3.29-3.29V114.09a3.29,3.29,0,0,1,3.29-3.29h44.8m0-.9h-44.8a4.2,4.2,0,0,0-4.19,4.19v27.23a4.2,4.2,0,0,0,4.19,4.19h44.8a4.2,4.2,0,0,0,4.19-4.19V114.09a4.2,4.2,0,0,0-4.19-4.19Z"/><path class="cls-11" d="M167.65,102.37a2.67,2.67,0,1,0-3.75-.38A2.66,2.66,0,0,0,167.65,102.37Z"/><path class="cls-11" d="M153.41,100.31a2.67,2.67,0,1,0-2.67,2.66A2.67,2.67,0,0,0,153.41,100.31Z"/><path class="cls-11" d="M132.86,100.31a2.67,2.67,0,1,0-2.67,2.66A2.67,2.67,0,0,0,132.86,100.31Z"/><g class="cls-15"><rect class="cls-11" x="128.57" y="116.73" width="41.86" height="2.28" rx="0.86"/></g><path class="cls-16" d="M130.51,99.43V97.64a.43.43,0,1,0-.86,0v1.79a.43.43,0,1,0,.86,0Z"/><path class="cls-16" d="M151.09,99.43V97.64a.43.43,0,0,0-.43-.43.44.44,0,0,0-.43.43v1.79a.43.43,0,0,0,.43.43A.43.43,0,0,0,151.09,99.43Z"/><path class="cls-16" d="M167,100.13,168.34,99a.43.43,0,1,0-.55-.66l-1.38,1.13a.43.43,0,0,0-.06.6.41.41,0,0,0,.33.16A.39.39,0,0,0,167,100.13Z"/><rect x="127.53" y="115.24" width="41.86" height="2.28" rx="0.86"/><g class="cls-17"><path class="cls-18" d="M123,114.09v27.23a3.29,3.29,0,0,0,3.29,3.29h9.83c-10.6-7.6-7.57-29.49-6.87-33.81h-3A3.29,3.29,0,0,0,123,114.09Z"/></g><g class="cls-17"><path class="cls-19" d="M123.34,97.45v5.71a3.25,3.25,0,0,0,3.24,3.24h8.17c-7.3-.82-6.41-10.22-6.14-12.18h-2A3.24,3.24,0,0,0,123.34,97.45Z"/></g><line class="cls-20" x1="169.39" y1="120.85" x2="169.39" y2="133.14"/><line class="cls-20" x1="169.39" y1="136.34" x2="169.39" y2="138.14"/></g></g></svg>