<svg xmlns="http://www.w3.org/2000/svg" viewBox="0 0 216 216"><defs><style>.cls-1,.cls-5,.cls-6{fill:#fff;}.cls-2{font-size:22.41px;fill:#24bcff;stroke:#24bcff;stroke-width:0.64px;}.cls-14,.cls-17,.cls-2,.cls-6,.cls-9{stroke-linecap:round;}.cls-14,.cls-2,.cls-6,.cls-9{stroke-linejoin:round;}.cls-2,.cls-8,.cls-9{font-family:MyDearWatson-Regular, My Dear Watson;}.cls-3,.cls-4{fill:#7dde18;}.cls-14,.cls-3,.cls-4,.cls-5,.cls-6{stroke:#000;}.cls-17,.cls-3,.cls-4,.cls-5,.cls-8{stroke-miterlimit:10;}.cls-14,.cls-3{stroke-width:0.97px;}.cls-4{stroke-width:1.12px;}.cls-5{stroke-width:0.73px;}.cls-6{stroke-width:0.24px;}.cls-7{fill:#ff6363;}.cls-8{font-size:14.62px;fill:#f28cc9;stroke:#f28cc9;stroke-width:0.49px;}.cls-9{font-size:14.33px;fill:#7d141c;stroke:#7d141c;stroke-width:0.49px;}.cls-10{fill:#b16e3e;}.cls-11,.cls-14{fill:#e78447;}.cls-12{fill:#db7d42;}.cls-13{fill:#dfa675;}.cls-15{fill:#231f20;}.cls-16{fill:#fff6eb;}.cls-17{fill:none;stroke:#ffbe86;stroke-width:1.95px;}</style></defs><g id="cutlines"><path class="cls-1" d="M165,101.19a7.69,7.69,0,0,0,.83,0,10.27,10.27,0,0,0,4.34-1,9.86,9.86,0,0,0,4,.8,10.44,10.44,0,0,0,2-.2c.31,0,.63.06.95.06h.69a17.33,17.33,0,0,0,3.41-.28,9.47,9.47,0,0,0,1.08-.27l.26.12a10.39,10.39,0,0,0,3.69.69A10.14,10.14,0,0,0,191,100a10.87,10.87,0,0,0,5.54-7.46,9.66,9.66,0,0,0-.91-6.34,8.11,8.11,0,0,0-2.38-5.19,10.1,10.1,0,0,0-7.44-2.85,11.91,11.91,0,0,0-1.74.14,8,8,0,0,0-4.51-3.08,9.42,9.42,0,0,0-2.43-.32,8.91,8.91,0,0,0-1.36.11,9.74,9.74,0,0,0-1.64-.14A9.61,9.61,0,0,0,169.67,76l-.27.15a11.37,11.37,0,0,0-3.73-.63h-.32a11,11,0,0,0-3.66.76,9.77,9.77,0,0,0-5.84-.54,9.83,9.83,0,0,0-2.64-.37,9.55,9.55,0,0,0-3.38.63,22.7,22.7,0,0,0,1.76-12.1c-1-6.35-5.6-9.19-9.74-9.19a9.62,9.62,0,0,0-3.88.77,9.64,9.64,0,0,0-6-2.08c-3.73,0-8.51,2.33-9.72,8.9a29.46,29.46,0,0,0-.38,4.16,18.47,18.47,0,0,0-8.72,8.38,9.31,9.31,0,0,0-3.25,7,9.59,9.59,0,0,0,2.78,6.69l-.62.23a11.63,11.63,0,0,0-4.59-.94c-.26,0-.53,0-.79,0-.06-.14-.12-.28-.2-.43a8,8,0,0,0-2.65-3,8,8,0,0,0-2.26-4.53,9.35,9.35,0,0,0-2.12-1.53,8.46,8.46,0,0,0-.44-.77v-.28a8.18,8.18,0,0,0-2.43-5.83,11.36,11.36,0,0,0-8.39-3.13,12.6,12.6,0,0,0-4.42.76,11.37,11.37,0,0,0-3.71-.62,11.11,11.11,0,0,0-1.83.15,9.83,9.83,0,0,0-1-.25,11.67,11.67,0,0,0-2.13-.18,11.24,11.24,0,0,0-3.74.6c-.39,0-.75,0-1,0s-.78,0-1.15,0a8.57,8.57,0,0,0-1.62.28q-.44-.15-.87-.27l-.1,0a10.55,10.55,0,0,0-2.46-.26,15.15,15.15,0,0,0-2.27.17l-.32,0a9.67,9.67,0,0,0-1,.27,14,14,0,0,0-1.82-.38A15.49,15.49,0,0,0,57,68.55,12.25,12.25,0,0,0,52,69.61,8,8,0,0,0,49,65a9.32,9.32,0,0,0-5.73-1.8,9.86,9.86,0,0,0-4.68,1.09A8.15,8.15,0,0,0,37,65.36,11.63,11.63,0,0,0,33,64.23c-.38,0-.77,0-1.16,0a12.22,12.22,0,0,0-10.73,6.24l-.06.12a14.23,14.23,0,0,0-1.56,5.6A7.91,7.91,0,0,0,21,81.52a11.22,11.22,0,0,0-.73,6.94A8,8,0,0,0,19.43,92c0,.82.47,5.58.56,6.4h0c.53,5.53,1.81,7.33,2.28,8a8,8,0,0,0,3.48,2.77,8.11,8.11,0,0,0,2.79,3.58l.35.2a14.52,14.52,0,0,0,.94,13.33,10.8,10.8,0,0,0,1.86,2.19,8.13,8.13,0,0,0-1,3.86c0,.54.27,5,.43,6.46s.17,2.23.2,2.67,0,.67.09,1l-.1.08-.12.12A12,12,0,0,0,29.36,145c-.05.08-.1.16-.14.24a12.68,12.68,0,0,0-1.51,4.67,13.76,13.76,0,0,0,.05,3.79,9.84,9.84,0,0,0,3.13,6.1,9.34,9.34,0,0,0,6.33,2.44,10.36,10.36,0,0,0,1.67-.14,12,12,0,0,0,1.74.13,6,6,0,0,0,.61,0l.5,0a7.61,7.61,0,0,0,1.26-.26,9.87,9.87,0,0,0,3.33.55,10.25,10.25,0,0,0,2-.2,7,7,0,0,0,1,.07,8.06,8.06,0,0,0,2.13-.3,9.9,9.9,0,0,0,2,.21,10.26,10.26,0,0,0,1.67-.14,12,12,0,0,0,1.74.13,5.92,5.92,0,0,0,.61,0l.27,0a3.85,3.85,0,0,0,.49.08,15.76,15.76,0,0,0,3,0l.12,0c.22.05.44.08.65.11a11.3,11.3,0,0,0,6.09,2.17h.27a9.61,9.61,0,0,0,6.36-2.45h0a12,12,0,0,0,1.74.13,6.12,6.12,0,0,0,.62,0l.29,0a8.89,8.89,0,0,0,1.36.18h.41a10.88,10.88,0,0,0,4.08-.73c.14-.05.27-.12.4-.18a10.08,10.08,0,0,0,4.12.91c.32,0,.63,0,1,0a9.22,9.22,0,0,0,2.37-.57,11.71,11.71,0,0,0,2,.24v1.05a10.74,10.74,0,0,0,10.73,10.73h80.46A10.75,10.75,0,0,0,195,163.05v-3.47a10.75,10.75,0,0,0-10.74-10.74h-9.6c9.82-1.82,16.07-9.9,18.07-17.92.39-1.61,1.45-5.87-1.49-9.63a9.1,9.1,0,0,0-7.22-3.52c-2.31,0-5.68.86-8.62,5l-.11.15A12.94,12.94,0,0,1,173,125.4a17.31,17.31,0,0,1-5.35-7.05c-.24-.79-.5-1.57-.78-2.32l-.06-.27a8,8,0,0,0-1.16-2.64A46,46,0,0,0,159,102.66,16.5,16.5,0,0,1,157.8,101a9.86,9.86,0,0,0,3.52-.74A11.39,11.39,0,0,0,165,101.19Z"/></g><g id="sticker"><text class="cls-2" transform="translate(26.49 86.64)">2 hours,<tspan x="0" y="19.49">42 minutes</tspan></text><rect class="cls-3" x="105.53" y="142.36" width="3.6" height="15.89"/><rect class="cls-4" x="101.66" y="157.4" width="84.81" height="7.82" rx="2.17"/><circle class="cls-3" cx="106.83" cy="135.78" r="6.84"/><circle class="cls-5" cx="106.83" cy="135.78" r="4.85"/><line class="cls-6" x1="106.83" y1="131.94" x2="106.83" y2="132.82"/><line class="cls-6" x1="105.52" y1="132.17" x2="105.82" y2="133"/><line class="cls-6" x1="104.36" y1="132.84" x2="104.93" y2="133.51"/><line class="cls-6" x1="103.5" y1="133.86" x2="104.27" y2="134.3"/><line class="cls-6" x1="103.04" y1="135.11" x2="103.91" y2="135.27"/><line class="cls-6" x1="103.04" y1="136.45" x2="103.91" y2="136.3"/><line class="cls-6" x1="103.5" y1="137.71" x2="104.27" y2="137.26"/><line class="cls-6" x1="104.36" y1="138.73" x2="104.93" y2="138.05"/><line class="cls-6" x1="105.52" y1="139.4" x2="105.82" y2="138.57"/><line class="cls-6" x1="106.83" y1="139.63" x2="106.83" y2="138.75"/><line class="cls-6" x1="108.15" y1="139.4" x2="107.85" y2="138.57"/><line class="cls-6" x1="109.31" y1="138.73" x2="108.74" y2="138.05"/><line class="cls-6" x1="110.16" y1="137.71" x2="109.4" y2="137.26"/><line class="cls-6" x1="110.62" y1="136.45" x2="109.75" y2="136.3"/><line class="cls-6" x1="110.62" y1="135.11" x2="109.75" y2="135.27"/><line class="cls-6" x1="110.16" y1="133.86" x2="109.4" y2="134.3"/><line class="cls-6" x1="109.31" y1="132.84" x2="108.74" y2="133.51"/><line class="cls-6" x1="108.15" y1="132.17" x2="107.85" y2="133"/><polygon points="106.61 135.49 108.74 134.3 107.06 136.07 106.61 135.49"/><circle class="cls-7" cx="106.83" cy="135.78" r="0.67"/><text class="cls-8" transform="translate(147.18 92.91)">~190 lbs</text><text class="cls-9" transform="translate(35.1 123.08)">0.9 mins per<tspan x="0" y="15.59" xml:space="preserve"> pound of</tspan><tspan x="0" y="31.18">a kangaro</tspan></text><path class="cls-10" d="M136.13,156.92c-1.38,0-3-.14-3-1.21a2.27,2.27,0,0,1,2.43-2.13,8.15,8.15,0,0,0,4.55-4.69c.85-2.7-.07-6-2.73-9.76-8.23-11.68-7.59-14.51-5.36-19.79,1.26-3,5.46-5.4,9.38-5.4,4.2,0,7.15,2.64,8.09,7.23.1,1.08,2.32,25.37-6,34.86l-.11.13-.17,0A53.08,53.08,0,0,1,136.13,156.92Z"/><path d="M141.44,114.43c3.36,0,6.59,1.84,7.61,6.84,0,0,2.39,25-5.87,34.44a53.34,53.34,0,0,1-7.05.72c-1.41,0-2.47-.18-2.47-.72,0-1.64,2-1.64,2-1.64s10.22-3.72,2.12-15.22-7.51-14.11-5.31-19.32c1.17-2.76,5.13-5.1,8.93-5.1m0-1h0c-4.16,0-8.48,2.5-9.83,5.69C129.15,125,129,128,137,139.41c2.56,3.64,3.46,6.78,2.67,9.33a7.65,7.65,0,0,1-4.2,4.36,2.72,2.72,0,0,0-2.81,2.61c0,1.7,2.51,1.7,3.45,1.7a53.4,53.4,0,0,0,7.22-.74l.34-.06.23-.26c8.43-9.65,6.2-34.14,6.1-35.17v-.11c-1-4.84-4.11-7.61-8.56-7.61Z"/><path class="cls-11" d="M139.3,77c-.34,0-3.33-.28-4.11-1.87a2.21,2.21,0,0,1,.32-2.27c.48-.75,1.12-2,1.79-3.34,2-4,3.3-6.38,4.55-6.38,1,0,1.27,1.51,1.35,2,.87,5.66-3.29,11.41-3.47,11.66l-.16.21Z"/><path d="M141.85,63.66c.39,0,.69.47.87,1.59.85,5.53-3.38,11.3-3.38,11.3s-5.37-.4-3.43-3.39c1.56-2.39,4.41-9.5,5.94-9.5m0-1c-1.48,0-2.66,2-5,6.64-.67,1.32-1.3,2.57-1.77,3.3a2.68,2.68,0,0,0-.35,2.75c.89,1.79,3.92,2.09,4.52,2.14l.53,0,.32-.44c.19-.25,4.47-6.16,3.56-12-.25-1.6-.86-2.41-1.83-2.41Z"/><path class="cls-10" d="M138.48,75.64s2.45-3.33,2-6.52-2.81,2.83-3.93,4.56S138.48,75.64,138.48,75.64Z"/><path class="cls-11" d="M132.57,76.13a2.14,2.14,0,0,1-2.37-2.64c.11-.89.11-2.3.12-3.8,0-4.87.16-7.83,1.66-7.83.52,0,1.06.41,1.68,1.29,3.3,4.69,2.13,11.69,2.08,12l-.05.27-.25.1a8.9,8.9,0,0,1-2.87.62Z"/><path d="M132,62.35c.33,0,.75.33,1.28,1.09,3.23,4.57,2,11.62,2,11.62a8.41,8.41,0,0,1-2.69.58c-1.1,0-2.07-.44-1.88-2.1.34-3-.34-11.19,1.29-11.19m0-1c-2.1,0-2.12,3.48-2.15,8.31,0,1.48,0,2.88-.11,3.74a2.84,2.84,0,0,0,.59,2.32,2.89,2.89,0,0,0,2.26.86,9.69,9.69,0,0,0,3.06-.65l.5-.21.09-.53c.05-.3,1.26-7.5-2.16-12.35-.49-.69-1.18-1.49-2.08-1.49Z"/><path class="cls-10" d="M134.09,74.62s.71-4.07-1.15-6.71-1.25,3.79-1.49,5.84S134.09,74.62,134.09,74.62Z"/><path class="cls-11" d="M170.48,140.74c-10.77,0-19.13-6.53-24.84-19.4l-.24-.56,13.24-2.61.11.45c0,.1,2.34,9.61,11,14.78a5.93,5.93,0,0,0,3.09.89c5,0,9.48-6.52,9.53-6.59.47-.66,1.15-1.44,1.72-1.44a.69.69,0,0,1,.54.26c.23.3.31.81-.07,2.35C183.42,133.28,179.24,140.74,170.48,140.74Z"/><path d="M158.28,118.74s2.27,9.73,11.18,15.08a6.37,6.37,0,0,0,3.34,1c5.37,0,9.93-6.81,9.93-6.81s.88-1.23,1.32-1.23c.27,0,.38.48,0,2-1.11,4.51-5.31,11.5-13.56,11.5s-17.59-3.79-24.39-19.11l12.19-2.4m.73-1.14-.92.18-12.19,2.41-1.2.23.5,1.12c5.79,13.06,14.3,19.68,25.28,19.68,9.06,0,13.38-7.69,14.51-12.23.38-1.52.37-2.27,0-2.77a1.15,1.15,0,0,0-.92-.45c-.23,0-.94,0-2.11,1.64-.06.08-4.36,6.39-9.14,6.39A5.44,5.44,0,0,1,170,133c-8.44-5.07-10.72-14.38-10.74-14.48l-.22-.91Z"/><path class="cls-11" d="M140.23,143.35a14.1,14.1,0,0,1-10.8-4.75c-5.34-5.82-6.36-14.89-6.13-17.53.55-6.23,2.85-11.89,4.89-16.89,2.92-7.16,5.44-13.34,2.19-19l-.25-.45,10.29-5.33.15.6c.05.2,5.17,20.26,12,28.22,3.74,4.35,10.07,14.88,7.22,23.56-1.78,5.44-6.85,9.16-15.07,11.05A20.16,20.16,0,0,1,140.23,143.35Z"/><path d="M140.09,80.1s5.13,20.28,12.13,28.42c5.49,6.38,17.71,28-7.59,33.82a19.73,19.73,0,0,1-4.4.53c-13.88,0-16.82-17.44-16.44-21.75,1.3-15,12.74-26.2,7-36.21l9.29-4.81m.65-1.43-1.09.56-9.3,4.82-.9.46.51.89c3.13,5.47.65,11.56-2.22,18.6-2,5-4.37,10.73-4.92,17-.24,2.7.8,12,6.25,17.9a14.59,14.59,0,0,0,11.16,4.91,20.55,20.55,0,0,0,4.62-.55c8.39-1.93,13.58-5.76,15.43-11.37,2.91-8.89-3.51-19.61-7.32-24-6.77-7.87-11.87-27.82-11.92-28l-.3-1.19Z"/><path class="cls-12" d="M143.42,157.25c-1.37,0-2.95-.14-2.95-1.22a2.26,2.26,0,0,1,2.43-2.12,8.21,8.21,0,0,0,4.55-4.69c.84-2.7-.08-6-2.74-9.76-8.22-11.68-7.58-14.51-5.35-19.79,1.25-3,5.46-5.4,9.37-5.4,4.2,0,7.15,2.64,8.09,7.23,0,.18,4.08,19-5.93,34.79l-.12.19-.21,0A52,52,0,0,1,143.42,157.25Z"/><path d="M148.73,114.76c3.37,0,6.59,1.83,7.61,6.84,0,0,4.16,18.65-5.86,34.43a52.65,52.65,0,0,1-7.06.73c-1.41,0-2.47-.18-2.47-.73,0-1.64,2-1.64,2-1.64s10.22-3.71,2.12-15.21-7.51-14.11-5.3-19.32c1.16-2.77,5.13-5.1,8.92-5.1m0-1h0c-4.16,0-8.47,2.51-9.82,5.7-2.46,5.83-2.61,8.88,5.41,20.26,2.56,3.65,3.46,6.79,2.66,9.34a7.61,7.61,0,0,1-4.19,4.35A2.72,2.72,0,0,0,140,156c0,1.71,2.5,1.71,3.44,1.71a52.37,52.37,0,0,0,7.22-.75l.43-.07.23-.36c10.12-15.95,6.17-34.4,6-35.18-1-4.82-4.1-7.6-8.56-7.6Z"/><path class="cls-13" d="M129.66,139.36a5.49,5.49,0,0,1-4.19-1.9c-4.88-5.34-3.6-20.31-3.54-21a.49.49,0,0,1,.26-.39.59.59,0,0,1,.22-.05.48.48,0,0,1,.24.06,9.55,9.55,0,0,0,4.72,1.25,9.36,9.36,0,0,0,1.3-.09l8.94-1.22h.06a.51.51,0,0,1,.31.11.48.48,0,0,1,.18.35c0,.63.8,15.59-4.25,20.93A5.68,5.68,0,0,1,129.66,139.36Z"/><path d="M137.67,116.55s1.24,22.32-8,22.32-7.25-22.32-7.25-22.32h0a10,10,0,0,0,5,1.31,10.24,10.24,0,0,0,1.36-.09l8.94-1.22m0-1h-.13l-8.94,1.22a10,10,0,0,1-1.23.08,9.17,9.17,0,0,1-4.48-1.18.89.89,0,0,0-.48-.13c-.94,0-1,.58-1.06,2.3,0,.8-.09,2.07-.09,3.56a43.17,43.17,0,0,0,1.33,11.46c1.71,5.74,4.79,6.94,7.07,6.94a6.17,6.17,0,0,0,4.6-2c5.2-5.5,4.42-20.66,4.38-21.3a1,1,0,0,0-1-.92Z"/><path class="cls-14" d="M134.38,112.76s-2.79,7.2-6,8c0,0-.7,1.19,1.42,1.59s6.31-2.66,8.79-6.78"/><path class="cls-11" d="M133.4,88.1C127.8,88.1,120,85,120,81.91c0-4.83,4.27-8.45,11.42-9.67a10.36,10.36,0,0,1,1.63-.14,7.39,7.39,0,0,1,6.72,4.26,18.5,18.5,0,0,1,.93,6.17,4.86,4.86,0,0,1-2.24,4.35,9.29,9.29,0,0,1-5.08,1.22Z"/><path d="M133.07,72.59a6.83,6.83,0,0,1,6.27,4,18.13,18.13,0,0,1,.89,6c0,3.73-3.1,5.08-6.83,5.08-5.7,0-12.89-3.13-12.89-5.7,0-4.26,3.69-7.94,11-9.19a9.62,9.62,0,0,1,1.55-.13m0-1a10.35,10.35,0,0,0-1.72.15C124,73,119.54,76.82,119.54,81.91c0,3.69,8.38,6.67,13.86,6.67,5,0,7.8-2.2,7.8-6a19,19,0,0,0-.95-6.33,7.74,7.74,0,0,0-7.18-4.59Z"/><path class="cls-15" d="M117.91,81.86a1.65,1.65,0,0,1,3.26,0,1.63,1.63,0,1,1-3.26,0Z"/><path class="cls-10" d="M130.64,77.49a2.06,2.06,0,1,0-2,2.06A2.05,2.05,0,0,0,130.64,77.49Z"/><path class="cls-15" d="M129.8,77.49A1.46,1.46,0,1,0,128.34,79,1.46,1.46,0,0,0,129.8,77.49Z"/><path class="cls-16" d="M129.48,76.69a.65.65,0,1,0-.65.64A.65.65,0,0,0,129.48,76.69Z"/><path d="M124.53,85.68a9.21,9.21,0,0,0,1.69.18,8.33,8.33,0,0,0,1.72-.15,6,6,0,0,0,1.64-.57,5.16,5.16,0,0,0,1.4-1.07,5.51,5.51,0,0,1-1.27,1.28,6.66,6.66,0,0,1-1.64.83,9.31,9.31,0,0,1-1.81.41,9.84,9.84,0,0,1-1.89,0Z"/><path class="cls-17" d="M140.5,89.39s2.86,11.94,10.05,21"/></g></svg>