<svg xmlns="http://www.w3.org/2000/svg" viewBox="0 0 216 216"><defs><style>.cls-1,.cls-10{fill:#fff;}.cls-2{font-size:15px;fill:#7dde18;stroke:#7dde18;stroke-width:0.5px;}.cls-2,.cls-4{stroke-miterlimit:10;}.cls-2,.cls-3,.cls-4{font-family:MyDearWatson-Regular, My Dear Watson;}.cls-3{font-size:14.7px;fill:#7d141c;stroke:#7d141c;stroke-width:0.5px;}.cls-12,.cls-13,.cls-3,.cls-8{stroke-linecap:round;stroke-linejoin:round;}.cls-4{font-size:20.84px;fill:#ff6363;stroke:#ff6363;stroke-width:0.74px;}.cls-5{fill:#b0673e;}.cls-6{fill:#f6e7dd;}.cls-7{fill:#bf6735;}.cls-12,.cls-13,.cls-8{fill:none;}.cls-13,.cls-8{stroke:#000;}.cls-8{stroke-width:0.78px;stroke-dasharray:1.03 2.05;}.cls-9{fill:#fafafa;}.cls-10{opacity:0.15;}.cls-11{fill:#4d4d4d;opacity:0.14;}.cls-12{stroke:#fff;}.cls-12,.cls-13{stroke-width:1.5px;}</style></defs><g id="cutlines"><path class="cls-1" d="M187.6,81.57v0a9.69,9.69,0,0,0-.94-6.36A8.11,8.11,0,0,0,184.33,70l-.05,0a10.17,10.17,0,0,0-7.48-2.87,11,11,0,0,0-4.16.78l-.6-.09H172c-.27,0-.54,0-.81,0a9.25,9.25,0,0,0-6.32-2.56,8.76,8.76,0,0,0-3.7.82l-.21.1a8.17,8.17,0,0,0-2,1.41h-.09l-.22,0a9.12,9.12,0,0,0-2.62-.37l-.4,0a10.24,10.24,0,0,0-6.14-2.75c-.33,0-.67,0-1,0h0a11.14,11.14,0,0,0-2.24.25,9.74,9.74,0,0,0-2.72-.39,9.63,9.63,0,0,0-4.42,1.09,8.08,8.08,0,0,0-2.6,2.18,10.23,10.23,0,0,0-2.23-.25c-.35,0-.7,0-1.05,0l-.34-.07a10.47,10.47,0,0,0-1.92-.17,10.6,10.6,0,0,0-2.81.38h-.37c-.33,0-.65,0-1,0s-.53.06-.8.1h0l-.12,0a10,10,0,0,0-2.25-.24,13.24,13.24,0,0,0-1.92.14l-.29,0-.19,0c-.28-.06-.56-.1-.85-.14a11.48,11.48,0,0,0-1.54-.1,11.17,11.17,0,0,0-1.93.18,7.89,7.89,0,0,0-1.88-2,9,9,0,0,0-5.42-1.73,9.16,9.16,0,0,0-4.37,1l-.19.12-.53-.16a11.69,11.69,0,0,0-2.71-.33,10.8,10.8,0,0,0-4.5,1,10,10,0,0,0-3.72,2.91,10.16,10.16,0,0,0-2.16.67A8.08,8.08,0,0,0,88.48,71a9,9,0,0,0-1.71,7.63A11.94,11.94,0,0,0,80.44,77a12.53,12.53,0,0,0-4.13.67,11.38,11.38,0,0,0-3.42-.54,10.35,10.35,0,0,0-1.67.13,7.75,7.75,0,0,0-.83-.21,11.3,11.3,0,0,0-2.09-.18h0a11,11,0,0,0-3.54.55l-.89,0c-.38,0-.75,0-1.1,0a7.57,7.57,0,0,0-1.45.23l-.69-.2-.11,0a10.66,10.66,0,0,0-2.41-.26,14.22,14.22,0,0,0-2.2.17l-.3.05c-.28.06-.55.14-.82.22a12.07,12.07,0,0,0-1.61-.32,12.68,12.68,0,0,0-1.73-.12A12.3,12.3,0,0,0,47.1,78a8,8,0,0,0-2.81-4,9.3,9.3,0,0,0-5.67-1.78A9.7,9.7,0,0,0,34,73.32a8.22,8.22,0,0,0-1.25.83,11.51,11.51,0,0,0-3.64-1c-.37,0-.75,0-1.13,0a11.92,11.92,0,0,0-10.46,6.09l-.07.13A13.92,13.92,0,0,0,16,84.8a8,8,0,0,0,1.34,5.1,11.05,11.05,0,0,0-.61,6.31,8,8,0,0,0-.76,3.36c0,.79.44,5.21.52,6,.51,5.29,1.76,7.05,2.23,7.71A7.93,7.93,0,0,0,21.94,116a6.45,6.45,0,0,0,.38.74,10.71,10.71,0,0,0-1.94,2l-.09.13A14.58,14.58,0,0,0,19,121a1,1,0,0,0-.07.15,14.75,14.75,0,0,0,.18,12.62,8.39,8.39,0,0,0-.92,2.2c0,.06,0,.13,0,.19a8.75,8.75,0,0,0-.19,2.35l0,1.33v.65c0,1,0,2.1,0,3.23,0,.85.07,1.66.11,2.45v.11c0,.34,0,.67,0,1a11.52,11.52,0,0,0,.47,2.93,2.76,2.76,0,0,0,.08.27,8.13,8.13,0,0,0,5.75,5.25l.07,0a10.61,10.61,0,0,0,2.49.29,11.07,11.07,0,0,0,1.85-.16l.18,0,.43-.1A9.15,9.15,0,0,0,31,156h.63a10.79,10.79,0,0,0,1.42-.1,10,10,0,0,0,1.1.08c.31,0,.62,0,1-.05l.71-.06a8.1,8.1,0,0,0,1.47-.27,7.87,7.87,0,0,0,2.19.41c.34,0,.71,0,1.14,0s1.44,0,2.33-.09l.5,0c.72,0,1.4-.1,2.08-.19a11.2,11.2,0,0,0,6.49,2.48h.28a9.61,9.61,0,0,0,6.44-2.51h.1a11.44,11.44,0,0,0,1.79.14l.6,0c.13,0,.25,0,.37,0h0l.25,0a9.85,9.85,0,0,0,1.37.09,12.74,12.74,0,0,0,1.41-.08,11.49,11.49,0,0,0,1.57.11,9.54,9.54,0,0,0,1.43-.1,11.13,11.13,0,0,0,1.44.09,9.78,9.78,0,0,0,2.27-.24,10.66,10.66,0,0,0,1.13.19,9,9,0,0,0,1.19.07,10.62,10.62,0,0,0,6.21-2,16.49,16.49,0,0,0,3-2.87,8,8,0,0,0,1.38-6.67,8.29,8.29,0,0,0-.69-1.9,9.49,9.49,0,0,0-.51-2.85c.17,0,.32.09.5.12l.23,0a10.1,10.1,0,0,0,1.38.09,12.74,12.74,0,0,0,1.41-.08,11.38,11.38,0,0,0,1.57.11,9.5,9.5,0,0,0,1.42-.1,11.36,11.36,0,0,0,1.44.09,10.13,10.13,0,0,0,2.17-.21,9.57,9.57,0,0,0,1.41.11,9.91,9.91,0,0,0,1.72-.15,11.32,11.32,0,0,0,1.78.14l.61,0h0a10.88,10.88,0,0,0,2.2.21,9.6,9.6,0,0,0,3.84-.76c.83,5.77,2.76,11.29,6.36,14.89,4.35,4.35,12.31,6.85,21.83,6.85.88,0,1.77,0,2.66-.07,1.66-.08,3.35-.23,5-.46A54.73,54.73,0,0,0,188.19,111c.74-7.55,0-17-3.83-23.63A11.1,11.1,0,0,0,187.6,81.57Z"/></g><g id="sticker"><text class="cls-2" transform="translate(93.92 81.95)">~3 hour, 12 mins</text><text class="cls-3" transform="translate(24.98 131.83)">0.8x a normal<tspan x="0" y="16">NFL game</tspan></text><text class="cls-4" transform="translate(23.06 94.6)">2 hours,<tspan x="0" y="18.13">42 minutes</tspan></text><path class="cls-5" d="M133.05,152.19c-7,0-13-1.64-15.63-4.28-3.25-3.25-4.92-11.56-4.06-20.22a46.88,46.88,0,0,1,13.3-28.52A45.42,45.42,0,0,1,143,88.72a48.77,48.77,0,0,1,16.79-3.07c7,0,13,1.64,15.63,4.29,5.69,5.7,8.2,31.3-9.23,48.73a46.4,46.4,0,0,1-26.67,13.07c-1.4.2-2.82.33-4.22.39Q134.13,152.19,133.05,152.19Z"/><path d="M159.76,86.43c7.06,0,12.74,1.72,15.08,4.06,5.63,5.63,7.68,30.72-9.23,47.63A45.85,45.85,0,0,1,139.38,151c-1.41.2-2.8.32-4.15.39-.74,0-1.47,0-2.19,0-7.06,0-12.74-1.71-15.07-4-5.64-5.63-7.68-30.73,9.24-47.64a44.9,44.9,0,0,1,16-10.27,47.24,47.24,0,0,1,7.23-2.07,46.73,46.73,0,0,1,9.29-.95m0-1.56A48.87,48.87,0,0,0,142.69,88a46.14,46.14,0,0,0-16.58,10.62,47.66,47.66,0,0,0-13.53,29c-.89,9,.83,17.39,4.29,20.84,2.78,2.78,9,4.51,16.17,4.51.75,0,1.51,0,2.27-.06,1.43-.07,2.87-.2,4.29-.4a46.69,46.69,0,0,0,40.62-42.28c.89-9-.83-17.39-4.28-20.84-2.78-2.79-9-4.52-16.18-4.52Z"/><path class="cls-6" d="M113.6,127.92l0-.24a48.09,48.09,0,0,1,2.4-10.93l.27-.78L149.36,149l-.78.27a48.09,48.09,0,0,1-10.93,2.4l-.24,0Zm29.85-39.11.78-.27a48.09,48.09,0,0,1,10.93-2.4l.24,0,23.81,23.81,0,.24a48.09,48.09,0,0,1-2.4,10.93l-.27.78Z"/><path d="M155.21,86.66l23.46,23.46a48.06,48.06,0,0,1-2.37,10.81L144.4,89a47.41,47.41,0,0,1,10.81-2.37m-38.7,30.26,31.9,31.9a47.52,47.52,0,0,1-10.81,2.37l-23.46-23.46a47.52,47.52,0,0,1,2.37-10.81m39.08-31.34-.49,0a48.63,48.63,0,0,0-11,2.42l-1.57.54,1.18,1.17,31.89,31.9,1.18,1.18.54-1.57a48.59,48.59,0,0,0,2.42-11l.05-.48-.35-.35L155.94,85.92l-.35-.34ZM116.07,115l-.54,1.57a49.15,49.15,0,0,0-2.43,11l0,.48.35.35,23.47,23.47.34.34.49-.05a48.59,48.59,0,0,0,11.05-2.42l1.56-.54-1.17-1.17-31.9-31.9L116.07,115Z"/><path class="cls-7" d="M145.4,127.82c1.53-1.29,4.11-1.93,6-3.86s2.57-4.51,3.86-6c1.95-2.32,4.29-3.54,5-5.12,1.55-3.24-.06-5-1.46-6.37s-3.13-3-6.36-1.45c-1.58.76-2.8,3.1-5.12,5-1.54,1.29-4.12,1.93-6,3.86s-2.57,4.5-3.86,6c-1.95,2.32-4.29,3.54-5.06,5.12-1.55,3.24.07,5,1.46,6.36s3.13,3,6.36,1.46C141.86,132.11,143.08,129.77,145.4,127.82Z"/><path class="cls-8" d="M145.4,127.82c1.53-1.29,4.11-1.93,6-3.86s2.57-4.51,3.86-6c1.95-2.32,4.29-3.54,5-5.12,1.55-3.24-.06-5-1.46-6.37s-3.13-3-6.36-1.45c-1.58.76-2.8,3.1-5.12,5-1.54,1.29-4.12,1.93-6,3.86s-2.57,4.5-3.86,6c-1.95,2.32-4.29,3.54-5.06,5.12-1.55,3.24.07,5,1.46,6.36s3.13,3,6.36,1.46C141.86,132.11,143.08,129.77,145.4,127.82Z"/><path class="cls-9" d="M158.06,110.82l-.56-.55a.77.77,0,0,1,0-1.09l.17-.16a.79.79,0,0,0,0-1.09l-.28-.27a.76.76,0,0,0-1.08,0l-.16.17a.77.77,0,0,1-1.09,0l-.55-.56a.77.77,0,1,0-1.09,1.09l.56.55a.77.77,0,0,1,0,1.09l-.95.94a.76.76,0,0,1-1.08,0l-.56-.56a.76.76,0,0,0-1.08,0h0a.77.77,0,0,0,0,1.09l.56.55a.77.77,0,0,1,0,1.09l-1,.94a.76.76,0,0,1-1.08,0l-.56-.55a.76.76,0,0,0-1.08,1.08l.55.56a.76.76,0,0,1,0,1.08l-.94.94a.76.76,0,0,1-1.08,0l-.56-.55a.76.76,0,0,0-1.08,0h0a.76.76,0,0,0,0,1.08l.55.56a.76.76,0,0,1,0,1.08l-.94,1a.79.79,0,0,1-1.09,0l-.55-.56a.77.77,0,0,0-1.09,0,.76.76,0,0,0,0,1.08l.56.56a.76.76,0,0,1,0,1.08l-.94,1a.77.77,0,0,1-1.09,0l-.55-.56a.77.77,0,0,0-1.09,1.09l.56.55a.77.77,0,0,1,0,1.09l-.95.94a.76.76,0,0,1-1.08,0l-.56-.56a.76.76,0,0,0-1.08,0h0a.77.77,0,0,0,0,1.09l.56.55a.77.77,0,0,1,0,1.09l-.17.16a.77.77,0,0,0,0,1.09l.27.27a.77.77,0,0,0,1.09,0l.16-.17a.77.77,0,0,1,1.09,0l.55.56a.77.77,0,0,0,1.09,0h0a.79.79,0,0,0,0-1.09l-.56-.55a.77.77,0,0,1,0-1.09l.94-.94a.77.77,0,0,1,1.09,0l.55.56a.77.77,0,0,0,1.09,0h0a.77.77,0,0,0,0-1.09l-.56-.55a.77.77,0,0,1,0-1.09l.95-.94a.76.76,0,0,1,1.08,0l.56.55a.76.76,0,0,0,1.08,0h0a.76.76,0,0,0,0-1.08l-.56-.56a.76.76,0,0,1,0-1.08l.95-.94a.76.76,0,0,1,1.08,0l.56.55a.76.76,0,0,0,1.08,0h0a.76.76,0,0,0,0-1.08l-.56-.56a.78.78,0,0,1,0-1.08l1-1a.76.76,0,0,1,1.08,0l.56.56a.76.76,0,0,0,1.08,0h0a.76.76,0,0,0,0-1.08l-.55-.56a.76.76,0,0,1,0-1.08l.94-1a.76.76,0,0,1,1.08,0l.56.56a.76.76,0,0,0,1.08,0,.77.77,0,0,0,0-1.09l-.55-.55a.77.77,0,0,1,0-1.09l.94-.94a.77.77,0,0,1,1.09,0l.55.56a.77.77,0,0,0,1.09-1.09Z"/><path class="cls-10" d="M165.61,138.12A45.85,45.85,0,0,1,139.38,151C156.8,141.35,168.56,127,168.76,110c.14-13-9.84-19.48-18.29-22.66,11.1-2.26,21.07-.2,24.37,3.11C180.47,96.12,182.52,121.21,165.61,138.12Z"/><path class="cls-11" d="M122.73,139.74c1.71,5,6.47,8.8,12.5,11.62-8.06.39-14.69-1.43-17.26-4-5.64-5.63-7.68-30.73,9.24-47.64a44.9,44.9,0,0,1,16-10.27C133.29,98.27,117,116.76,122.73,139.74Z"/><path class="cls-12" d="M168.53,130.12a41.15,41.15,0,0,1-4,4.61"/><path class="cls-12" d="M173.91,120.25a41.77,41.77,0,0,1-3.34,6.83"/><path class="cls-12" d="M173.45,91.87c1.62,1.61,3,5.75,3.24,11.11"/><path class="cls-13" d="M121.9,113.68a41.87,41.87,0,0,1,3.74-6.89"/><path class="cls-13" d="M119.61,139.58a29.27,29.27,0,0,1-1.14-7"/><path class="cls-13" d="M120.64,142.14c-.13-.24-.26-.5-.38-.78"/></g></svg>