<svg xmlns="http://www.w3.org/2000/svg" viewBox="0 0 216 216"><defs><style>.cls-1{isolation:isolate;}.cls-2,.cls-7,.cls-8{fill:#fff;}.cls-3{font-size:21.01px;fill:#f18bc8;stroke:#f18bc8;stroke-width:0.6px;}.cls-21,.cls-3,.cls-4,.cls-8{stroke-linecap:round;stroke-linejoin:round;}.cls-10,.cls-3,.cls-4{font-family:MyDearWatson-Regular, My Dear Watson;}.cls-4{font-size:14px;fill:#80d7ff;stroke:#80d7ff;stroke-width:0.5px;}.cls-5,.cls-6{fill:#b660c1;}.cls-5,.cls-6,.cls-7,.cls-8{stroke:#000;}.cls-10,.cls-5,.cls-6,.cls-7{stroke-miterlimit:10;}.cls-6{stroke-width:1.07px;}.cls-7{stroke-width:0.75px;}.cls-8{stroke-width:0.25px;}.cls-10,.cls-9{fill:#ff6363;}.cls-10{font-size:15px;stroke:#ff6363;stroke-width:0.5px;}.cls-11{fill:#b08481;}.cls-12{fill:#936362;}.cls-13{fill:#946865;}.cls-14{fill:#eddfdf;}.cls-15{fill:#eda55c;}.cls-16{fill:#d4c7c7;opacity:0.38;mix-blend-mode:multiply;}.cls-17{fill:#ed725c;}.cls-18{fill:#be9a98;}.cls-19{opacity:0.11;}.cls-20{fill:#db6751;}.cls-21{fill:none;stroke:#ffefef;}</style></defs><g class="cls-1"><g id="cutlines"><path class="cls-2" d="M200.72,137.41l-.54-2.32a15.34,15.34,0,0,0-6.76-9.49,12.15,12.15,0,0,0-2.91-2.68V110.19a11.6,11.6,0,0,0-1.72-6.1c0-.07-.1-.13-.14-.2a11.07,11.07,0,0,0,2.58-5.16v0a9.7,9.7,0,0,0-.94-6.36A8.11,8.11,0,0,0,188,87.15l-.05-.06a9.55,9.55,0,0,0-4.64-2.54,7.93,7.93,0,0,0-3.05-2.69,9.1,9.1,0,0,0-4.11-1h0a9.79,9.79,0,0,0-3.16.53,8,8,0,0,0-4.29,3.49h0a9.11,9.11,0,0,0-1-.06,9.48,9.48,0,0,0-2.8-.4,10.05,10.05,0,0,0-1.61.14,13.68,13.68,0,0,0-1.41-.08c-.32,0-.65,0-.95,0a6.82,6.82,0,0,0-.79.1l-.09,0a9.8,9.8,0,0,0-2.31-.26,12.08,12.08,0,0,0-1.93.15l-.28,0-.19,0c-.28-.06-.56-.11-.85-.15a13.41,13.41,0,0,0-1.54-.1,11,11,0,0,0-2.38.28,9.54,9.54,0,0,0-3.22-.57h0a9.18,9.18,0,0,0-2.16.25l-.67,0h-.79l-.48,0a11.27,11.27,0,0,0-7.51-2.86h-.32a10.81,10.81,0,0,0-3.76.8,10.07,10.07,0,0,0-3.89-.8,10.3,10.3,0,0,0-3.11.48l-.09,0a10.92,10.92,0,0,0-4.93,3.29,10,10,0,0,0-2.61.75,8,8,0,0,0-2.9,2.18,9.28,9.28,0,0,0-1,9.66l.13.23a11.4,11.4,0,0,0-3.73-.82,11.27,11.27,0,0,0,.42-1.54v0a10.32,10.32,0,0,0-1.35-7.41v-.12a8.19,8.19,0,0,0-2.42-5.82,11.18,11.18,0,0,0-8.22-3.08h0l0-.07A8,8,0,0,0,92.56,75a10.94,10.94,0,0,0-3-.42,10.44,10.44,0,0,0-4.76,1.15,8,8,0,0,0-3.63,3.81,10.51,10.51,0,0,0-1.37-.09,10.67,10.67,0,0,0-4.38.94,11.51,11.51,0,0,0-4.93-1.12,11.28,11.28,0,0,0-4.59,1,1.59,1.59,0,0,0-.07-.2,8,8,0,0,0-5.52-5.07,9.45,9.45,0,0,0-2.71-.39,9.56,9.56,0,0,0-4.87,1.33A7.81,7.81,0,0,0,51.36,77l0,0a11,11,0,0,0-5.72-1.57,11.88,11.88,0,0,0-4.84,1,12.66,12.66,0,0,0-5-1h-.33a12.23,12.23,0,0,0-3.37.6,6.72,6.72,0,0,0-1-.35A10.52,10.52,0,0,0,28,75.14a10,10,0,0,0-4.71,1.17,8,8,0,0,0-4.15,5.59c-.38,2-.18,10.74-.14,12.27,0,.58,0,2.53.1,3.37h0a8.29,8.29,0,0,0,1.24,3.72,8.16,8.16,0,0,0-1.22,4.29c0,.68.39,7.19.6,9.13.18,2.14.26,3.36.3,4a11.71,11.71,0,0,0,.23,1.94,7.48,7.48,0,0,0,.51,1.49c-.09,1.51-.16,4,0,7.21,0,.53,0,1.71.08,2.28h0a8,8,0,0,0,1,3.3,8.13,8.13,0,0,0-1,3.87c0,.61.26,4.9.41,6.32s.17,2.17.19,2.6a10.77,10.77,0,0,0,.22,1.73,7.79,7.79,0,0,0,.28.94,12,12,0,0,0-1.34,5.4A11.12,11.12,0,0,0,24,164.08l0,0a11,11,0,0,0,7.42,3c.28,0,.57,0,.85,0a10.89,10.89,0,0,0,1.39-.23,7.92,7.92,0,0,0,1.2.21,10.65,10.65,0,0,0,1.36.08,11.06,11.06,0,0,0,2.63-.31,7.52,7.52,0,0,0,1.79-.65l0,0a9.24,9.24,0,0,0,3.86.84,9.9,9.9,0,0,0,1.64-.14,11.39,11.39,0,0,0,1.7.13l.59,0a4.93,4.93,0,0,0,.54,0,7.7,7.7,0,0,0,1.44-.32,8,8,0,0,0,2.61.44h.67a17.41,17.41,0,0,0,3.33-.28c.36-.07.72-.17,1.08-.27a10.54,10.54,0,0,0,2.33.54,9.83,9.83,0,0,0,1.21.08,10.44,10.44,0,0,0,2.61-.34,9.67,9.67,0,0,0,4.23.24,9.11,9.11,0,0,0,1.53.12h.33a8.42,8.42,0,0,0,1.33-.11,8.27,8.27,0,0,0,4.7-2.54,8,8,0,0,0,2.12-4.4c.16-1.17.06-5.43,0-7a8.94,8.94,0,0,0,1-.11,9.14,9.14,0,0,0,1.54.12h.32a8.42,8.42,0,0,0,1.33-.11,8.12,8.12,0,0,0,5.63-3.76,10.61,10.61,0,0,0-1,4.51v3.86A10.62,10.62,0,0,0,98,168.23h93.57a10.62,10.62,0,0,0,10.61-10.61v-3.86a10.57,10.57,0,0,0-3.16-7.55A11,11,0,0,0,200.72,137.41Z"/></g><g id="sticker"><text class="cls-3" transform="translate(26.04 96.88)">108 beats<tspan x="0" y="18">per minute</tspan></text><text class="cls-4" transform="translate(28.11 131)">1.2 beats<tspan x="0" y="14">per pound </tspan><tspan x="0" y="28">of a bed</tspan></text><rect class="cls-5" x="99.92" y="136.23" width="3.7" height="16.31"/><rect class="cls-6" x="95.95" y="151.68" width="97.72" height="8.02" rx="2.08"/><circle class="cls-5" cx="101.26" cy="129.49" r="7.02"/><circle class="cls-7" cx="101.26" cy="129.49" r="4.98"/><line class="cls-8" x1="101.26" y1="125.54" x2="101.26" y2="126.45"/><line class="cls-8" x1="99.91" y1="125.78" x2="100.22" y2="126.63"/><line class="cls-8" x1="98.72" y1="126.47" x2="99.3" y2="127.16"/><line class="cls-8" x1="97.84" y1="127.52" x2="98.62" y2="127.97"/><line class="cls-8" x1="97.37" y1="128.8" x2="98.26" y2="128.96"/><line class="cls-8" x1="97.37" y1="130.17" x2="98.26" y2="130.02"/><line class="cls-8" x1="97.84" y1="131.46" x2="98.62" y2="131.01"/><line class="cls-8" x1="98.72" y1="132.51" x2="99.3" y2="131.82"/><line class="cls-8" x1="99.91" y1="133.2" x2="100.22" y2="132.35"/><line class="cls-8" x1="101.26" y1="133.44" x2="101.26" y2="132.53"/><line class="cls-8" x1="102.61" y1="133.2" x2="102.3" y2="132.35"/><line class="cls-8" x1="103.79" y1="132.51" x2="103.21" y2="131.82"/><line class="cls-8" x1="104.68" y1="131.46" x2="103.89" y2="131.01"/><line class="cls-8" x1="105.14" y1="130.17" x2="104.25" y2="130.02"/><line class="cls-8" x1="105.14" y1="128.8" x2="104.25" y2="128.96"/><line class="cls-8" x1="104.68" y1="127.52" x2="103.89" y2="127.97"/><line class="cls-8" x1="103.79" y1="126.47" x2="103.21" y2="127.16"/><line class="cls-8" x1="102.61" y1="125.78" x2="102.3" y2="126.63"/><polygon points="101.03 129.19 103.21 127.97 101.49 129.78 101.03 129.19"/><circle class="cls-9" cx="101.26" cy="129.49" r="0.69"/><text class="cls-10" transform="translate(119.45 99.11)">~90 pounds</text><rect class="cls-11" x="172.53" y="148.04" width="7.94" height="3.06" rx="0.5"/><path d="M180,148.54v2.06H173v-2.06H180m0-1H173a1,1,0,0,0-1,1v2.06a1,1,0,0,0,1,1H180a1,1,0,0,0,1-1v-2.06a1,1,0,0,0-1-1Z"/><rect class="cls-12" x="173.03" y="148.54" width="6.94" height="1.03"/><rect class="cls-11" x="118.95" y="148.04" width="7.94" height="3.06" rx="0.5"/><path d="M126.39,148.54v2.06h-6.94v-2.06h6.94m0-1h-6.94a1,1,0,0,0-1,1v2.06a1,1,0,0,0,1,1h6.94a1,1,0,0,0,1-1v-2.06a1,1,0,0,0-1-1Z"/><rect class="cls-12" x="119.45" y="148.54" width="6.94" height="1.03"/><path class="cls-11" d="M117.9,130.7a.5.5,0,0,1-.5-.5v-20a3.15,3.15,0,0,1,3.14-3.15h58.33a3.15,3.15,0,0,1,2.68,1.51,3.1,3.1,0,0,1,.46,1.64v20a.5.5,0,0,1-.5.5Z"/><path d="M178.87,107.54a2.63,2.63,0,0,1,2.25,1.27,2.58,2.58,0,0,1,.39,1.38v20H117.9v-20a2.65,2.65,0,0,1,2.64-2.65h58.33m0-1H120.54a3.66,3.66,0,0,0-3.64,3.65v20a1,1,0,0,0,1,1h63.61a1,1,0,0,0,1-1v-20a3.56,3.56,0,0,0-.54-1.91,3.63,3.63,0,0,0-3.1-1.74Z"/><path class="cls-13" d="M181.51,124.42v5.78H117.9v-1.81A512.56,512.56,0,0,0,181.51,124.42Z"/><path class="cls-14" d="M164.82,132a59,59,0,0,1-10.15-.89.51.51,0,0,1-.39-.32,20.82,20.82,0,0,1,0-14.39.51.51,0,0,1,.39-.32,58.38,58.38,0,0,1,20.31,0,.5.5,0,0,1,.38.32,20.82,20.82,0,0,1,0,14.39.5.5,0,0,1-.38.32A59.1,59.1,0,0,1,164.82,132Z"/><path d="M164.82,115.69a59.06,59.06,0,0,1,10.07.88,20.21,20.21,0,0,1,0,14.05,58,58,0,0,1-20.13,0,20.21,20.21,0,0,1,0-14.05,58.94,58.94,0,0,1,10.06-.88m0-1a59,59,0,0,0-10.24.9,1,1,0,0,0-.77.64,21.32,21.32,0,0,0,0,14.73,1,1,0,0,0,.77.64,58.7,58.7,0,0,0,20.48,0,1,1,0,0,0,.77-.64,21.32,21.32,0,0,0,0-14.73,1,1,0,0,0-.77-.64,59,59,0,0,0-10.24-.9Z"/><path class="cls-15" d="M171.91,116.13,171,116v15.13l.91-.1Z"/><path class="cls-15" d="M174.56,116.52l-.9-.15v14.45l.9-.15Z"/><path class="cls-15" d="M165.7,131.49l.9,0V115.72l-.9,0Z"/><path class="cls-15" d="M169.25,115.87l-.9-.07v15.59l.9-.07Z"/><path class="cls-15" d="M158.64,116l-.9.1v14.93l.9.1Z"/><path class="cls-15" d="M164,115.7l-.91,0v15.75l.91,0Z"/><path class="cls-15" d="M155.08,130.67l.91.15V116.37l-.91.15Z"/><path class="cls-15" d="M161.29,115.8l-.9.07v15.45l.9.07Z"/><path class="cls-14" d="M134.6,132a59,59,0,0,1-10.15-.89.49.49,0,0,1-.39-.32,23.18,23.18,0,0,1-.73-2.5,20.69,20.69,0,0,1,.73-11.89.51.51,0,0,1,.39-.32,58.32,58.32,0,0,1,20.3,0,.51.51,0,0,1,.39.32,21.65,21.65,0,0,1,1,3.69,20.7,20.7,0,0,1-1,10.7.51.51,0,0,1-.39.32A59,59,0,0,1,134.6,132Z"/><path d="M134.6,115.69a57.94,57.94,0,0,1,10.06.88,20.82,20.82,0,0,1,1,3.6,20.05,20.05,0,0,1-1,10.45,58,58,0,0,1-20.13,0,22.51,22.51,0,0,1-.72-2.44,20.08,20.08,0,0,1,.72-11.61,58.06,58.06,0,0,1,10.07-.88m0-1a60,60,0,0,0-10.24.89,1,1,0,0,0-.77.65,21.16,21.16,0,0,0-.75,12.18,24.86,24.86,0,0,0,.75,2.55,1,1,0,0,0,.77.64,58.7,58.7,0,0,0,20.48,0,1,1,0,0,0,.77-.64,21.18,21.18,0,0,0,1-11,22,22,0,0,0-1-3.76,1,1,0,0,0-.77-.65,60,60,0,0,0-10.24-.89Z"/><path class="cls-15" d="M141.68,116.13l-.9-.1v15.13l.9-.1Z"/><path class="cls-15" d="M144.34,116.52l-.91-.15v14.45l.91-.15Z"/><path class="cls-15" d="M135.47,131.49l.91,0V115.72l-.91,0Z"/><path class="cls-15" d="M139,115.87l-.9-.07v15.59l.9-.07Z"/><path class="cls-15" d="M128.42,116l-.91.1v14.93l.91.1Z"/><path class="cls-15" d="M133.72,115.7l-.9,0v15.75l.9,0Z"/><path class="cls-15" d="M124.86,130.67l.9.15V116.37l-.9.15Z"/><path class="cls-15" d="M131.07,115.8l-.9.07v15.45l.9.07Z"/><path class="cls-16" d="M144.66,130.62a58.16,58.16,0,0,1-20.13,0,22.51,22.51,0,0,1-.72-2.44c13.83.71,19.55-4.53,21.8-8A20.05,20.05,0,0,1,144.66,130.62Z"/><path class="cls-16" d="M174.89,130.62a58.16,58.16,0,0,1-20.13,0,22.51,22.51,0,0,1-.72-2.44c13.83.71,19.55-4.53,21.8-8A20.05,20.05,0,0,1,174.89,130.62Z"/><path class="cls-17" d="M111.78,134.51v-1.12a4.06,4.06,0,0,1,4-4h67.76a4.06,4.06,0,0,1,4,4v1.12Z"/><path d="M183.59,129.84a3.55,3.55,0,0,1,3.55,3.55V134H112.28v-.62a3.55,3.55,0,0,1,3.55-3.55h67.76m0-1H115.83a4.55,4.55,0,0,0-4.55,4.55V135h76.86v-1.62a4.55,4.55,0,0,0-4.55-4.55Z"/><path class="cls-11" d="M112,149a2.45,2.45,0,0,1-2.44-2.44V138a.5.5,0,0,1,.5-.5h79.35a.5.5,0,0,1,.5.5v8.63a2.44,2.44,0,0,1-2.44,2.44Z"/><path d="M189.38,138v8.63a1.94,1.94,0,0,1-1.94,1.94H112A1.94,1.94,0,0,1,110,146.6V138h79.35m0-1H110a1,1,0,0,0-1,1v8.63a2.94,2.94,0,0,0,2.94,2.94h75.47a2.94,2.94,0,0,0,2.94-2.94V138a1,1,0,0,0-1-1Z"/><rect class="cls-12" x="110.03" y="137.97" width="79.35" height="5.29"/><path class="cls-14" d="M109.47,142.48a2.56,2.56,0,0,1-2.49-3.14l.54-2.32a6.89,6.89,0,0,1,4.59-5,.47.47,0,0,1,.21-.06,6.37,6.37,0,0,1,1.92-.29h70.93a6.48,6.48,0,0,1,2,.3,6.9,6.9,0,0,1,4.74,5l.54,2.33a2.56,2.56,0,0,1-2.5,3.14Z"/><path d="M185.17,132.18a5.88,5.88,0,0,1,1.83.28,6.38,6.38,0,0,1,4.41,4.67l.54,2.32a2.06,2.06,0,0,1-2,2.53H109.47a2.06,2.06,0,0,1-2-2.53l.54-2.32a6.39,6.39,0,0,1,4.3-4.64.2.2,0,0,1,.11,0,5.88,5.88,0,0,1,1.83-.28h70.93m0-1H114.24a6.85,6.85,0,0,0-2,.3.92.92,0,0,0-.27.08,7.44,7.44,0,0,0-4.9,5.34l-.54,2.32a3.07,3.07,0,0,0,3,3.76h80.47a3.07,3.07,0,0,0,3-3.76l-.54-2.32a7.41,7.41,0,0,0-5.11-5.4,6.72,6.72,0,0,0-2.11-.32Z"/><path class="cls-15" d="M108,137.13l0,.07h83.44l0-.07A6.1,6.1,0,0,0,191,136H108.39A6.1,6.1,0,0,0,108,137.13Z"/><path class="cls-15" d="M111.42,132.83a6.53,6.53,0,0,0-1.69,1.21h80a6.53,6.53,0,0,0-1.69-1.21Z"/><path class="cls-15" d="M107.47,139.45a2,2,0,0,0,0,.9H192a2.1,2.1,0,0,0,0-.9l-.08-.31H107.54Z"/><path class="cls-17" d="M136,129.46a13.07,13.07,0,0,1-3.65-.48,4.17,4.17,0,0,1-1.25-.57,3.91,3.91,0,0,1-1.23-3.17c0-1.49.41-3.34,1.43-4.11s3.37-.88,4-.88,3.57.09,4.6,1.19a3.41,3.41,0,0,1,.69,1.25c.67,2,.4,4.94-1,6a6.91,6.91,0,0,1-3.68.8Z"/><path d="M135.39,120.75c1.78,0,3.59.34,4.24,1a2.89,2.89,0,0,1,.58,1.06c.59,1.75.37,4.54-.79,5.42a6.22,6.22,0,0,1-3.38.7,12.57,12.57,0,0,1-3.5-.46,4,4,0,0,1-1.11-.5c-1.52-1.07-1.24-5.38.21-6.48a7.22,7.22,0,0,1,3.75-.77m0-1c-.92,0-3.19.1-4.36,1s-1.64,3-1.62,4.52c0,1,.23,2.72,1.44,3.57a4.94,4.94,0,0,0,1.4.64,13.65,13.65,0,0,0,3.79.5,7.19,7.19,0,0,0,4-.9c1.71-1.3,1.76-4.69,1.14-6.54a3.86,3.86,0,0,0-.8-1.41c-1.14-1.23-3.85-1.36-5-1.36Z"/><path class="cls-18" d="M181.12,108.81c-10.92.07-52.71.71-63.22,5.86v-4.48a2.65,2.65,0,0,1,2.64-2.65h58.33A2.63,2.63,0,0,1,181.12,108.81Z"/><path class="cls-19" d="M176.14,148.54v2.06H180v-2.06h7.48a1.94,1.94,0,0,0,1.94-1.94V142h.56a2.06,2.06,0,0,0,2-2.53l-.54-2.32a6.39,6.39,0,0,0-4.3-4.64,2.38,2.38,0,0,1,0,.36c0,.32-.07.72-.14,1.16a12.56,12.56,0,0,1-1.31,4,7.47,7.47,0,0,1-6.54,4,9.59,9.59,0,0,1,.29,1.28C179.71,145.17,179.76,148.54,176.14,148.54Z"/><path class="cls-20" d="M132.54,128.5c2.09.63,5.69.66,6.88-.24s1.38-3.67.79-5.42A11.68,11.68,0,0,1,132.54,128.5Z"/><path class="cls-17" d="M165.64,129.46A13.07,13.07,0,0,1,162,129a4.17,4.17,0,0,1-1.25-.57,3.91,3.91,0,0,1-1.23-3.17c0-1.49.4-3.34,1.42-4.11s3.38-.88,4.06-.88,3.57.09,4.6,1.19a3.41,3.41,0,0,1,.69,1.25c.67,2,.4,4.94-1,6a6.91,6.91,0,0,1-3.68.8Z"/><path d="M165,120.75c1.77,0,3.59.34,4.24,1a2.89,2.89,0,0,1,.58,1.06c.59,1.75.37,4.54-.79,5.42a6.22,6.22,0,0,1-3.38.7,12.57,12.57,0,0,1-3.5-.46A4,4,0,0,1,161,128c-1.52-1.07-1.24-5.38.21-6.48a7.17,7.17,0,0,1,3.75-.77m0-1c-.92,0-3.2.1-4.36,1s-1.65,3-1.62,4.52c0,1,.23,2.72,1.44,3.57a4.94,4.94,0,0,0,1.4.64,13.65,13.65,0,0,0,3.79.5,7.21,7.21,0,0,0,4-.9c1.71-1.3,1.76-4.69,1.13-6.54a3.71,3.71,0,0,0-.79-1.41c-1.14-1.23-3.86-1.36-5-1.36Z"/><path class="cls-20" d="M162.14,128.5c2.09.63,5.69.66,6.88-.24s1.38-3.67.79-5.42A11.68,11.68,0,0,1,162.14,128.5Z"/><line class="cls-21" x1="150.27" y1="146.79" x2="150.82" y2="146.79"/><line class="cls-21" x1="139.62" y1="146.79" x2="147.74" y2="146.79"/><line class="cls-21" x1="113.16" y1="146.79" x2="137.32" y2="146.79"/><line class="cls-21" x1="141.49" y1="109.29" x2="140.93" y2="109.29"/><line class="cls-21" x1="152.14" y1="109.29" x2="144.02" y2="109.29"/><line class="cls-21" x1="178.6" y1="109.29" x2="154.43" y2="109.29"/></g></g></svg>