<svg xmlns="http://www.w3.org/2000/svg" viewBox="0 0 216 216"><defs><style>.cls-1,.cls-7,.cls-8{fill:#fff;}.cls-2{font-size:13.7px;fill:#f0c30f;stroke:#f0c30f;stroke-width:0.44px;}.cls-13,.cls-2,.cls-5,.cls-6,.cls-7{stroke-miterlimit:10;}.cls-2,.cls-3,.cls-4{font-family:MyDearWatson-Regular, My Dear Watson;}.cls-3{font-size:13.43px;fill:#7d141c;stroke:#7d141c;stroke-width:0.46px;}.cls-3,.cls-4,.cls-8{stroke-linecap:round;stroke-linejoin:round;}.cls-4{font-size:21.01px;fill:#b660c1;stroke:#b660c1;stroke-width:0.6px;}.cls-5,.cls-6{fill:#7ddd18;}.cls-13,.cls-5,.cls-6,.cls-7,.cls-8{stroke:#000;}.cls-5{stroke-width:0.97px;}.cls-6{stroke-width:1.12px;}.cls-7{stroke-width:0.73px;}.cls-8{stroke-width:0.24px;}.cls-9{fill:#ff6363;}.cls-10{fill:#f2891f;}.cls-11{fill:#eda55c;}.cls-12{fill:#d49352;}.cls-13{fill:#e04444;stroke-width:0.84px;}</style></defs><g id="cutlines"><path class="cls-1" d="M182.9,146.59h-3.35V81.19a9.08,9.08,0,0,0-.05-.91,10.89,10.89,0,0,0,3-5.52v-.05a9.61,9.61,0,0,0-.86-6.14,8.08,8.08,0,0,0-2.37-5.06A9.48,9.48,0,0,0,175,61.07a7.9,7.9,0,0,0-2.91-2.49,9.13,9.13,0,0,0-4.05-.95,9.6,9.6,0,0,0-3.12.53,7.91,7.91,0,0,0-4,3.12l-.52,0a9.6,9.6,0,0,0-2.66-.36h0a10.19,10.19,0,0,0-1.48.12c-.5,0-.95-.06-1.27-.06s-.63,0-.93,0-.43,0-.64.07h0a9.63,9.63,0,0,0-2.2-.24,12.66,12.66,0,0,0-1.87.14l-.32.06h0l-.65-.11a12.57,12.57,0,0,0-1.49-.1,10.88,10.88,0,0,0-2.14.24,9.1,9.1,0,0,0-3-.51h0a9.13,9.13,0,0,0-2,.23,5.15,5.15,0,0,0-.56,0h-.91A11,11,0,0,0,131,58.15h-.31a10.14,10.14,0,0,0-2,.27A9.27,9.27,0,0,0,126,58a11,11,0,0,0-1.28.09,9.91,9.91,0,0,0-1.29-.09A9.41,9.41,0,0,0,119,59.09a8,8,0,0,0-3.16,3l-.72.28a8,8,0,0,0-2.92,2.2,9.15,9.15,0,0,0-1,9.55A8,8,0,0,0,115.36,78a9.08,9.08,0,0,0,.73,1.42,9,9,0,0,0-.18,1.82v9.06a11.57,11.57,0,0,0-1.77-.22,11.68,11.68,0,0,0,.42-1.54v0A10.3,10.3,0,0,0,113.22,81v-.12a8.19,8.19,0,0,0-2.42-5.82A11.14,11.14,0,0,0,102.58,72h0l0-.08a8,8,0,0,0-5.21-4.2,11,11,0,0,0-3-.41,10.32,10.32,0,0,0-4.76,1.15A8,8,0,0,0,86,72.28a10.63,10.63,0,0,0-5.75.85A11.52,11.52,0,0,0,75.28,72h0a11.28,11.28,0,0,0-4.59,1,1.59,1.59,0,0,0-.07-.2,7.33,7.33,0,0,0-.39-.91A8.14,8.14,0,0,0,65.1,67.7a9.85,9.85,0,0,0-2.71-.38,9.65,9.65,0,0,0-4.87,1.32,8.36,8.36,0,0,0-1.41,1.08l0,0a11,11,0,0,0-5.72-1.57,11.72,11.72,0,0,0-4.84,1,12.69,12.69,0,0,0-5-1h-.33a12.61,12.61,0,0,0-3.37.6c-.32-.13-.65-.25-1-.35a10.93,10.93,0,0,0-3.07-.46,10,10,0,0,0-4.71,1.17,8,8,0,0,0-4.15,5.59c-.39,2-.18,10.74-.14,12.27,0,.58,0,2.53.1,3.37h0A8.29,8.29,0,0,0,25.11,94a8.16,8.16,0,0,0-1.22,4.29c0,.68.39,7.18.6,9.13.18,2.14.26,3.35.3,4A11.71,11.71,0,0,0,25,113.4a7.93,7.93,0,0,0,1.49,3.14c-.18,2.26-.07,6.64,0,7.59,0,.48,0,1.68.07,2.27h0a8.12,8.12,0,0,0,1.25,3.73,8.09,8.09,0,0,0-1.24,4.3c0,.59.26,4.71.4,6.09s.16,2.08.18,2.49a10.8,10.8,0,0,0,.22,1.72,7.71,7.71,0,0,0,.45,1.33,10,10,0,0,0-.72,1.55l0,.1a12,12,0,0,0,.75,9.9,10.53,10.53,0,0,0,5.47,4.67,11.13,11.13,0,0,0,4,.75,10.64,10.64,0,0,0,2.47-.3,9.35,9.35,0,0,0,2.18.26,9.16,9.16,0,0,0,1.57-.13,10.28,10.28,0,0,0,1.62.12h.61l.42,0a8.68,8.68,0,0,0,1.26.1H48a17.46,17.46,0,0,0,3.26-.27l.16,0a8.93,8.93,0,0,0,2.74.44,9.19,9.19,0,0,0,1.58-.15,15,15,0,0,0,2.79,0h0a11.5,11.5,0,0,0,2.21.2,10.07,10.07,0,0,0,1.86-.16l.47-.1.06,0c.2,0,.39.08.59.1a9.39,9.39,0,0,0,1.19.07,10.49,10.49,0,0,0,2.85-.4,9.89,9.89,0,0,0,3.16.49,9.38,9.38,0,0,0,4.58-1.12,8,8,0,0,0,4-5.43,10.46,10.46,0,0,0,.2-2.26A9.3,9.3,0,0,0,81,148a9.45,9.45,0,0,0,2.55.35,9.07,9.07,0,0,0,1.57-.13,11.67,11.67,0,0,0,1.63.12l.58,0,.52,0A8.23,8.23,0,0,0,95,141.25l0-.26c.08-.74.13-2,.22-4.6,0-.53,0-1,0-1.17a8,8,0,0,0-1.69-5.48A8.32,8.32,0,0,0,90,127.1,8.08,8.08,0,0,0,91.75,122c0-.2,0-.4,0-.6a17.61,17.61,0,0,0-.25-1.91A9.1,9.1,0,0,0,90,115.88a6.57,6.57,0,0,0,.66-.09l.51-.1c.25-.07.49-.16.74-.24a11.45,11.45,0,0,0,1.83.31c.26,0,.5,0,.75,0a11.14,11.14,0,0,0,1.74-.13h.09a13,13,0,0,0,2.47.23,11,11,0,0,0,3-.41,11.16,11.16,0,0,0,3.31.46,10.15,10.15,0,0,0,4.4-.92,11.85,11.85,0,0,0,2.86.7,11.59,11.59,0,0,0,1.33.08,11.85,11.85,0,0,0,2.22-.22V119a15.14,15.14,0,0,0-5-.84,15.33,15.33,0,0,0-9.79,27.12V149a10.74,10.74,0,0,0-4,8.31v3.47a10.75,10.75,0,0,0,10.74,10.73h75a10.74,10.74,0,0,0,10.73-10.73v-3.47A10.74,10.74,0,0,0,182.9,146.59Z"/></g><g id="sticker"><text class="cls-2" transform="translate(117.74 74.97)">~110 pounds</text><text class="cls-3" transform="translate(33.85 125.78)">1 beat per<tspan x="0" y="14.61">pound of a</tspan><tspan x="0" y="29.23">cabinet</tspan></text><text class="cls-4" transform="translate(30.79 89.65)">108 beats<tspan x="0" y="18">per minute</tspan></text><rect class="cls-5" x="109.6" y="140.1" width="3.6" height="15.89"/><rect class="cls-6" x="105.73" y="155.15" width="79.35" height="7.82" rx="2.17"/><circle class="cls-5" cx="110.9" cy="133.53" r="6.84"/><circle class="cls-7" cx="110.9" cy="133.53" r="4.85"/><line class="cls-8" x1="110.9" y1="129.68" x2="110.9" y2="130.56"/><line class="cls-8" x1="109.59" y1="129.91" x2="109.89" y2="130.74"/><line class="cls-8" x1="108.43" y1="130.58" x2="109" y2="131.26"/><line class="cls-8" x1="107.57" y1="131.6" x2="108.34" y2="132.04"/><line class="cls-8" x1="107.11" y1="132.86" x2="107.98" y2="133.01"/><line class="cls-8" x1="107.11" y1="134.19" x2="107.98" y2="134.04"/><line class="cls-8" x1="107.57" y1="135.45" x2="108.34" y2="135.01"/><line class="cls-8" x1="108.43" y1="136.47" x2="109" y2="135.8"/><line class="cls-8" x1="109.59" y1="137.14" x2="109.89" y2="136.31"/><line class="cls-8" x1="110.9" y1="137.37" x2="110.9" y2="136.49"/><line class="cls-8" x1="112.22" y1="137.14" x2="111.92" y2="136.31"/><line class="cls-8" x1="113.37" y1="136.47" x2="112.81" y2="135.8"/><line class="cls-8" x1="114.23" y1="135.45" x2="113.47" y2="135.01"/><line class="cls-8" x1="114.69" y1="134.19" x2="113.82" y2="134.04"/><line class="cls-8" x1="114.69" y1="132.86" x2="113.82" y2="133.01"/><line class="cls-8" x1="114.23" y1="131.6" x2="113.47" y2="132.04"/><line class="cls-8" x1="113.37" y1="130.58" x2="112.81" y2="131.26"/><line class="cls-8" x1="112.22" y1="129.91" x2="111.92" y2="130.74"/><polygon points="110.68 133.24 112.81 132.04 111.13 133.81 110.68 133.24"/><circle class="cls-9" cx="110.9" cy="133.53" r="0.67"/><rect class="cls-10" x="124.51" y="80.59" width="46.43" height="74.47" rx="0.6"/><path d="M170.34,81.19v73.27H125.12V81.19h45.22m0-1.21H125.12a1.21,1.21,0,0,0-1.21,1.21v73.27a1.21,1.21,0,0,0,1.21,1.2h45.22a1.21,1.21,0,0,0,1.21-1.2V81.19A1.21,1.21,0,0,0,170.34,80Z"/><rect class="cls-11" x="126.99" y="83.47" width="19.36" height="38.99" rx="0.42"/><path d="M145.93,83.89v38.16H127.41V83.89h18.52m0-.84H127.41a.85.85,0,0,0-.84.84v38.16a.85.85,0,0,0,.84.84h18.52a.84.84,0,0,0,.84-.84V83.89a.84.84,0,0,0-.84-.84Z"/><rect class="cls-11" x="148.84" y="83.47" width="19.36" height="38.99" rx="0.42"/><path d="M167.78,83.89v38.16H149.27V83.89h18.51m0-.84H149.27a.85.85,0,0,0-.85.84v38.16a.85.85,0,0,0,.85.84h18.51a.85.85,0,0,0,.85-.84V83.89a.85.85,0,0,0-.85-.84Z"/><polygon class="cls-12" points="127.41 83.89 127.41 85.02 144.58 85.02 144.58 122.05 145.93 122.05 145.93 83.89 127.41 83.89"/><polygon class="cls-12" points="149.26 83.89 149.26 85.02 166.43 85.02 166.43 122.05 167.78 122.05 167.78 83.89 149.26 83.89"/><rect class="cls-11" x="126.99" y="124.4" width="41.21" height="7.78" rx="0.42"/><path d="M167.78,124.82v6.93H127.41v-6.93h40.37m0-.84H127.41a.84.84,0,0,0-.84.84v6.93a.85.85,0,0,0,.84.85h40.37a.85.85,0,0,0,.85-.85v-6.93a.84.84,0,0,0-.85-.84Z"/><polygon class="cls-12" points="127.41 124.82 127.41 125.62 166.8 125.62 166.8 131.75 167.78 131.75 167.78 124.82 127.41 124.82"/><rect class="cls-11" x="126.99" y="134.11" width="41.21" height="7.78" rx="0.42"/><path d="M167.78,134.53v6.93H127.41v-6.93h40.37m0-.85H127.41a.85.85,0,0,0-.84.85v6.93a.84.84,0,0,0,.84.84h40.37a.84.84,0,0,0,.85-.84v-6.93a.85.85,0,0,0-.85-.85Z"/><rect class="cls-11" x="126.99" y="143.81" width="41.21" height="7.78" rx="0.42"/><path d="M167.78,144.23v6.94H127.41v-6.94h40.37m0-.84H127.41a.85.85,0,0,0-.84.84v6.94a.85.85,0,0,0,.84.84h40.37a.85.85,0,0,0,.85-.84v-6.94a.85.85,0,0,0-.85-.84Z"/><polygon class="cls-12" points="127.41 134.53 127.41 135.33 166.8 135.33 166.8 141.46 167.78 141.46 167.78 134.53 127.41 134.53"/><polygon class="cls-12" points="127.41 144.24 127.41 145.03 166.8 145.03 166.8 151.17 167.78 151.17 167.78 144.24 127.41 144.24"/><circle class="cls-13" cx="142.38" cy="102.97" r="1.68"/><circle class="cls-13" cx="138.17" cy="128.29" r="1.68"/><circle class="cls-13" cx="157.02" cy="128.29" r="1.68"/><circle class="cls-13" cx="138.17" cy="137.99" r="1.68"/><circle class="cls-13" cx="157.02" cy="137.99" r="1.68"/><circle class="cls-13" cx="138.17" cy="147.7" r="1.68"/><circle class="cls-13" cx="157.02" cy="147.7" r="1.68"/><circle class="cls-13" cx="151.94" cy="102.97" r="1.68"/></g></svg>