<svg xmlns="http://www.w3.org/2000/svg" viewBox="0 0 216 216"><defs><style>.cls-1,.cls-4,.cls-5{fill:#fff;}.cls-2,.cls-3{fill:#f0c30f;}.cls-2,.cls-3,.cls-4,.cls-5{stroke:#000;}.cls-2,.cls-3,.cls-4,.cls-8{stroke-miterlimit:10;}.cls-2{stroke-width:0.91px;}.cls-3{stroke-width:1.05px;}.cls-4{stroke-width:0.69px;}.cls-11,.cls-14,.cls-5,.cls-7,.cls-9{stroke-linecap:round;stroke-linejoin:round;}.cls-5{stroke-width:0.23px;}.cls-6{fill:#ff6363;}.cls-7{font-size:21px;fill:#24bbff;stroke:#24bbff;stroke-width:0.64px;}.cls-7,.cls-8,.cls-9{font-family:MyDearWatson-Regular, My Dear Watson;}.cls-8{font-size:14.62px;fill:#f18bc8;stroke:#f18bc8;stroke-width:0.49px;}.cls-9{font-size:14.33px;fill:#f44748;stroke:#f44748;stroke-width:0.49px;}.cls-10,.cls-11{fill:#c37ff7;}.cls-11,.cls-14{stroke:#fff;stroke-width:1.31px;}.cls-12{fill:#52377c;}.cls-13{fill:#e3c2ff;}.cls-14{fill:none;}</style></defs><g id="cutlines"><path class="cls-1" d="M184.64,151.64a9.71,9.71,0,0,0-2.12-8.48l-.07-.08a7.57,7.57,0,0,0-.87-.92l-.08-.06c-.28-.25-.56-.49-.85-.71A23.94,23.94,0,0,0,178.13,122a4.31,4.31,0,0,1-.51-1.07l.06-.19a9.65,9.65,0,0,0-1-9.23,9.48,9.48,0,0,0-7.74-4,10.52,10.52,0,0,0-1.12.07,23.52,23.52,0,0,0-2.82-4.85l.5,0a10.39,10.39,0,0,0,1.68-.14,10,10,0,0,0,1.6.13h.34a8,8,0,0,0,1.29-.11c.13,0,.25-.06.37-.09a10,10,0,0,0,2.65.36,10.14,10.14,0,0,0,4.69-1.16,10.89,10.89,0,0,0,5.54-7.46,9.68,9.68,0,0,0-.91-6.35,8.11,8.11,0,0,0-2.38-5.18,9.48,9.48,0,0,0-4.55-2.52,8,8,0,0,0-3-2.63,9.14,9.14,0,0,0-4.09-1,9.77,9.77,0,0,0-3.14.53,8,8,0,0,0-4.22,3.38c-.3,0-.61-.05-.91-.05a9.61,9.61,0,0,0-2.77-.39h0a10.08,10.08,0,0,0-1.57.13c-.54,0-1-.07-1.36-.07s-.64,0-.94,0-.51,0-.75.09h0l-.1,0a10,10,0,0,0-2.24-.25,13.33,13.33,0,0,0-1.92.15l-.32.06-.11,0c-.27,0-.53-.1-.79-.13a11.44,11.44,0,0,0-1.53-.1,11,11,0,0,0-2.3.26,9.4,9.4,0,0,0-5.28-.31c-.21,0-.43,0-.64,0h-.77l-.4,0a11.17,11.17,0,0,0-7.39-2.78H129a10.6,10.6,0,0,0-2.18.3l-.1,0a9.07,9.07,0,0,0-4.14-.31,9.31,9.31,0,0,0-5.8,1,8,8,0,0,0-3.25,3.16,8.89,8.89,0,0,0-.93.36,7.1,7.1,0,0,0-.91.47,11.26,11.26,0,0,0-8-2.86h0l0-.12A8,8,0,0,0,98.4,75a10.94,10.94,0,0,0-3-.42,10.44,10.44,0,0,0-4.76,1.15,8,8,0,0,0-3.63,3.8,12.44,12.44,0,0,0-1.37-.08,10.65,10.65,0,0,0-4.37.94,11.52,11.52,0,0,0-4.93-1.13h0a11.28,11.28,0,0,0-4.59,1l-.06-.2c-.1-.26-.21-.52-.33-.77a8.12,8.12,0,0,0-5.28-4.33,9.63,9.63,0,0,0-2.62-.36,9.53,9.53,0,0,0-4.87,1.33A7.81,7.81,0,0,0,57.22,77l0,0a11,11,0,0,0-5.72-1.57,11.88,11.88,0,0,0-4.84,1,12.66,12.66,0,0,0-5-1h-.33a12.09,12.09,0,0,0-3.36.6,7.16,7.16,0,0,0-1-.35,10.53,10.53,0,0,0-3.08-.47,10,10,0,0,0-4.71,1.17A8,8,0,0,0,25,81.91c-.39,2-.18,10.74-.14,12.27,0,.57,0,2.53.1,3.36h0a8.31,8.31,0,0,0,1.25,3.72,8.23,8.23,0,0,0-1.23,4.3c0,.68.4,7.18.61,9.12.18,2.16.26,3.37.3,4s.06.91.12,1.32a8.09,8.09,0,0,0-.34,1.19,69.74,69.74,0,0,0-.14,9c0,.52,0,1.73.08,2.34h0a7.93,7.93,0,0,0,.95,3.21,8.12,8.12,0,0,0-.94,3.79c0,.55.26,5,.42,6.46s.17,2.23.2,2.67a9,9,0,0,0,.21,1.69,8.42,8.42,0,0,0,.24.86,12.29,12.29,0,0,0-1.32,5.39,11.17,11.17,0,0,0,3.4,8.35l0,0a10.94,10.94,0,0,0,7.46,3c.29,0,.58,0,.86,0a10.05,10.05,0,0,0,2.54-.57,11.39,11.39,0,0,0,3.37.52,10.64,10.64,0,0,0,2.7-.35,10.08,10.08,0,0,0,3.31.52,9.8,9.8,0,0,0,3.2-.52,10.13,10.13,0,0,0,1.43.31A8,8,0,0,0,56.58,170a9.06,9.06,0,0,0,3.53.72A9.56,9.56,0,0,0,63.8,170a8.11,8.11,0,0,0,2.84-2l.17,0,.69,0a10.36,10.36,0,0,0,1.12-.07,12.13,12.13,0,0,0,1.81.14,10.79,10.79,0,0,0,1.93-.19,10,10,0,0,0,7.13-.85,10.79,10.79,0,0,0,5.5-7.42,9.68,9.68,0,0,0-.68-5.86,9.66,9.66,0,0,0,1.62.14,10.36,10.36,0,0,0,1.67-.14,11.86,11.86,0,0,0,1.73.13l.62,0,.49,0a8.25,8.25,0,0,0,6.66-5.14v3a10.57,10.57,0,0,0-3.7,8v3.25A10.58,10.58,0,0,0,104,173.49h73.82a10.58,10.58,0,0,0,10.57-10.56v-3.25A10.55,10.55,0,0,0,184.64,151.64Z"/></g><g id="sticker"><rect class="cls-2" x="105.56" y="143.53" width="3.38" height="14.89"/><rect class="cls-3" x="101.93" y="157.64" width="77.9" height="7.33" rx="2.04"/><circle class="cls-2" cx="106.78" cy="137.37" r="6.41"/><circle class="cls-4" cx="106.78" cy="137.37" r="4.55"/><line class="cls-5" x1="106.78" y1="133.77" x2="106.78" y2="134.59"/><line class="cls-5" x1="105.55" y1="133.98" x2="105.83" y2="134.76"/><line class="cls-5" x1="104.46" y1="134.61" x2="104.99" y2="135.24"/><line class="cls-5" x1="103.66" y1="135.57" x2="104.37" y2="135.98"/><line class="cls-5" x1="103.23" y1="136.75" x2="104.04" y2="136.89"/><line class="cls-5" x1="103.23" y1="138" x2="104.04" y2="137.85"/><line class="cls-5" x1="103.66" y1="139.18" x2="104.37" y2="138.76"/><line class="cls-5" x1="104.46" y1="140.13" x2="104.99" y2="139.5"/><line class="cls-5" x1="105.55" y1="140.76" x2="105.83" y2="139.98"/><line class="cls-5" x1="106.78" y1="140.98" x2="106.78" y2="140.15"/><line class="cls-5" x1="108.01" y1="140.76" x2="107.73" y2="139.98"/><line class="cls-5" x1="109.1" y1="140.13" x2="108.56" y2="139.5"/><line class="cls-5" x1="109.9" y1="139.18" x2="109.18" y2="138.76"/><line class="cls-5" x1="110.33" y1="138" x2="109.51" y2="137.85"/><line class="cls-5" x1="110.33" y1="136.75" x2="109.51" y2="136.89"/><line class="cls-5" x1="109.9" y1="135.57" x2="109.18" y2="135.98"/><line class="cls-5" x1="109.1" y1="134.61" x2="108.56" y2="135.24"/><line class="cls-5" x1="108.01" y1="133.98" x2="107.73" y2="134.76"/><polygon points="106.57 137.1 108.56 135.98 106.99 137.64 106.57 137.1"/><circle class="cls-6" cx="106.78" cy="137.37" r="0.63"/><text class="cls-7" transform="translate(31.91 96.88)">108 beats<tspan x="0" y="18">per minute</tspan></text><text class="cls-8" transform="translate(115.12 94.6)">~110 pounds</text><text class="cls-9" transform="translate(32.89 131.93)">1 play per<tspan x="0" y="14">pound of a</tspan><tspan x="0" y="28">octopus</tspan></text><path class="cls-10" d="M130.08,157.63c-.43,0-.87,0-1.33-.06-6-.48-8.53-3.19-10.8-5.59-1.84-1.93-3.43-3.6-6.55-3.77h-.06a1.07,1.07,0,0,1-1-.45.8.8,0,0,1,0-.82c.41-.7,2.21-1.48,4-1.48a4.9,4.9,0,0,1,2.32.53c.37.19.83.48,1.36.82,1.88,1.18,4.73,3,7.92,3a9.28,9.28,0,0,0,6.07-2.44,14.34,14.34,0,0,1-4,.58h0a12.75,12.75,0,0,1-9.88-4.77c-6.4-7.36-1.32-12.37,2-15.69.58-.57,1.13-1.11,1.55-1.6,2.46-2.85,1.58-4.9.71-6.19a1.77,1.77,0,0,1-.37-1.79,1,1,0,0,1,1-.54c1,0,2.44,1.08,3.23,3.08A11.2,11.2,0,0,1,124,132.06a3.65,3.65,0,0,0-.68,4.06,5.16,5.16,0,0,0,4.71,2.76,7.75,7.75,0,0,0,5-2.09,4,4,0,0,0,1.47-2.85,7.05,7.05,0,0,0-2.08-4.64,15.9,15.9,0,0,1-4.6-14.64c1.36-8.08,10-13.08,17.23-13.08h.39a15.88,15.88,0,0,1,15.7,14.27c.68,5.22-1.7,9.38-3.62,12.73-1.38,2.42-2.58,4.52-2.32,6.36.3,2.16,3.21,3.29,5.93,3.29,2.39,0,5-.91,5.37-2.94.29-1.49-.35-3.64-1-5.91-1.39-4.67-3.12-10.48,3-13.15l.07,0h.06l.26,0a.8.8,0,0,1,.66.33c.27.38.12.78-.08,1.34-.49,1.37-1.51,4.22,1.22,8.68a15,15,0,0,1,.62,14.67c-2.1,3.75-5.93,5.82-10.78,5.82h0a24.08,24.08,0,0,1-7.76-1.44,3.51,3.51,0,0,0,.1,2.38,2.31,2.31,0,0,0,1.7,1.08,2.93,2.93,0,0,0,.53,0,20,20,0,0,0,4.85-1.12,31.35,31.35,0,0,1,8.88-1.78,9.9,9.9,0,0,1,6.87,2.41l0,0,0,0a1.14,1.14,0,0,1,.32,1.19,1.05,1.05,0,0,1-1,.49l-.72,0c-.4,0-.88-.06-1.45-.06a12.81,12.81,0,0,0-9,3.65,14.93,14.93,0,0,1-9.9,3.68A13,13,0,0,1,142,149.75,12.79,12.79,0,0,1,130.08,157.63Z"/><path d="M145.1,102.23h.37a15.15,15.15,0,0,1,15.07,13.69c1.13,8.75-6.62,14.28-5.94,19.1.36,2.52,3.51,3.86,6.58,3.86,2.81,0,5.56-1.12,6-3.48.95-4.92-6.83-14.91,1.63-18.58l.13,0c.92,0-2.76,3.52,1.24,10,4.69,7.65,1.9,19.49-9.6,19.49a24,24,0,0,1-8.17-1.63s-1.76,4.17,2.08,4.94a3.45,3.45,0,0,0,.66.06c3,0,8.55-2.91,13.73-2.91a9.31,9.31,0,0,1,6.43,2.25c.41.5.3.62-.2.62s-1.19-.1-2.17-.1a13.41,13.41,0,0,0-9.4,3.83,14.29,14.29,0,0,1-9.46,3.51c-4.93,0-10-2.55-12.14-9,0,0-2.41,9-11.87,9-.41,0-.84,0-1.28-.05-10.53-.86-10-9-17.37-9.37h-.08c-1.38,0,.72-1.45,3-1.45a4.39,4.39,0,0,1,2,.46c1.72.89,5.3,3.87,9.58,3.87,2.71,0,5.71-1.19,8.69-4.86a14.15,14.15,0,0,1-6.59,1.69,12.1,12.1,0,0,1-9.39-4.54c-7.07-8.13.72-13.11,3.59-16.43s1.58-5.79.76-7c-.58-.86-.42-1.3,0-1.3.65,0,1.91.86,2.62,2.66.61,1.56,2,6.12-2.18,11-3,3.5.1,7.89,4.53,7.89a8.29,8.29,0,0,0,5.44-2.25c3.59-3.12.59-7.26-.56-8.44a15.21,15.21,0,0,1-4.42-14.07c1.37-8.15,10.14-12.54,16.58-12.54m0-1.31h0c-7.5,0-16.46,5.22-17.87,13.64a18.36,18.36,0,0,0,0,6.64c-.11-.4-.23-.73-.33-1-.9-2.29-2.62-3.49-3.84-3.49a1.68,1.68,0,0,0-1.53.88,2.3,2.3,0,0,0,.4,2.47c.82,1.2,1.48,2.91-.67,5.39-.4.47-.94,1-1.51,1.56-3.32,3.28-8.88,8.77-2.07,16.59a13.5,13.5,0,0,0,10.37,5c.28,0,.57,0,.84,0a7.67,7.67,0,0,1-2.94.58c-3,0-5.75-1.73-7.57-2.88-.53-.34-1-.63-1.41-.84a5.5,5.5,0,0,0-2.62-.61c-1.72,0-4.78.86-4.78,2.57a1.43,1.43,0,0,0,.89,1.33,2,2,0,0,0,.86.16h.06c2.83.18,4.26,1.68,6.06,3.58,2.24,2.35,5,5.28,11.22,5.78.47,0,.94.06,1.39.06a13.17,13.17,0,0,0,11.88-7.1,13.52,13.52,0,0,0,12.13,7,15.63,15.63,0,0,0,10.34-3.85,12.19,12.19,0,0,1,8.52-3.49c.54,0,1,0,1.41.06l.76,0a1.61,1.61,0,0,0,1.62-.86,1.76,1.76,0,0,0-.41-1.89l-.06-.08-.08-.07a10.64,10.64,0,0,0-7.3-2.58l-.64,0a11.61,11.61,0,0,0,3.69-4,15.62,15.62,0,0,0-.63-15.33c-2.57-4.19-1.62-6.85-1.16-8.12a2,2,0,0,0,0-1.94,1.46,1.46,0,0,0-1.2-.61,1.81,1.81,0,0,0-.39,0l-.13,0-.13.06c-6.69,2.9-4.79,9.28-3.4,13.93.65,2.2,1.27,4.27,1,5.6-.32,1.67-2.61,2.42-4.73,2.42-2.38,0-5-1-5.28-2.73-.23-1.62.91-3.63,2.24-5.95,2-3.43,4.4-7.69,3.7-13.14a16.52,16.52,0,0,0-16.33-14.83Zm-17,37.3a4.5,4.5,0,0,1-4.12-2.37,3,3,0,0,1,.59-3.37,11.94,11.94,0,0,0,3-10.22,16.76,16.76,0,0,0,4.49,7.5,6.45,6.45,0,0,1,1.9,4.16,3.28,3.28,0,0,1-1.25,2.37,7.09,7.09,0,0,1-4.59,1.93Zm27.1,10.19a2.33,2.33,0,0,1-.4,0c-1-.2-1.18-.62-1.25-.75a2.24,2.24,0,0,1-.17-1.21,26,26,0,0,0,5.6,1.16,15.74,15.74,0,0,1-3.78.83Z"/><path class="cls-11" d="M137.09,134c.13-3.42-2.51-6.21-2.81-6.52"/><path class="cls-11" d="M131.71,140.64a11.51,11.51,0,0,0,3-1.94"/><path class="cls-11" d="M128.06,141.41a9.32,9.32,0,0,0,1.29-.09"/><path class="cls-11" d="M129.88,151.6a15.25,15.25,0,0,0,6.26-4.83"/><path class="cls-11" d="M126,152.33a10.28,10.28,0,0,0,1.57-.12"/><path class="cls-11" d="M158.25,151.1c.78-.21,1.62-.46,2.5-.73"/><path class="cls-11" d="M151.86,150.51a5.32,5.32,0,0,0,2.27,1,5.64,5.64,0,0,0,1,.09"/><path class="cls-11" d="M150.68,144a6.52,6.52,0,0,0,0,5.13"/><path class="cls-11" d="M155.84,126.5l-.47.82"/><path class="cls-11" d="M158.74,118.44a15.52,15.52,0,0,1-1.69,5.77"/><path class="cls-11" d="M155,108.16a13.72,13.72,0,0,1,3.66,8"/><path class="cls-12" d="M151,123.57a2.1,2.1,0,1,1-1.73-2.42A2.1,2.1,0,0,1,151,123.57Z"/><path class="cls-1" d="M150.49,123a.88.88,0,1,1-.72-1A.88.88,0,0,1,150.49,123Z"/><path class="cls-12" d="M140.71,123.57a2.1,2.1,0,1,1-1.72-2.42A2.1,2.1,0,0,1,140.71,123.57Z"/><path class="cls-1" d="M140.18,123a.87.87,0,1,1-.72-1A.87.87,0,0,1,140.18,123Z"/><path class="cls-13" d="M168.05,126.63c2.87,7.52,1.6,17.53-8.37,19.69,12.26.64,15.32-11.61,10.51-19.46-4-6.52-.34-10-1.24-10C167.76,118.16,166,121.26,168.05,126.63Z"/><path class="cls-13" d="M121.39,130c3.26-3.32,3.83-5.81,3.26-8.73a5.15,5.15,0,0,0-1.87-3.18c-.19.18-.16.58.26,1.2.82,1.2,2.12,3.67-.76,7s-10.66,8.3-3.59,16.43a12.13,12.13,0,0,0,12.71,4.12C118.91,146.24,116.52,135,121.39,130Z"/><path class="cls-13" d="M167,149.34C162.17,151.32,153,160,142,148c3.78,11.06,16,10.62,21.6,5.45,6.06-5.56,11.75-3.23,12-3.86A11.26,11.26,0,0,0,167,149.34Z"/><path class="cls-13" d="M121.19,152.25c-2.16-1.44-3.58-3.82-6.14-4.81a6.53,6.53,0,0,0-4.12-.15c-.08.17.06.28.5.26,7.38.41,6.84,8.51,17.37,9.37S142,148,142,148C135.56,157.91,125.51,155.15,121.19,152.25Z"/><path class="cls-12" d="M147,128.57a3,3,0,1,1-6,0"/><path class="cls-14" d="M153.51,137a6.76,6.76,0,0,0,6.17,3.66"/></g></svg>