<svg xmlns="http://www.w3.org/2000/svg" xmlns:xlink="http://www.w3.org/1999/xlink" viewBox="0 0 216 216"><defs><style>.cls-1{fill:none;}.cls-2{fill:#fff;}.cls-3{font-size:21.01px;fill:#24bbff;stroke:#24bbff;stroke-width:0.6px;}.cls-3,.cls-5{stroke-linecap:round;stroke-linejoin:round;}.cls-3,.cls-4,.cls-5{font-family:MyDearWatson-Regular, My Dear Watson;}.cls-4{font-size:15px;fill:#b660c1;stroke:#b660c1;stroke-width:0.5px;}.cls-4,.cls-7{stroke-miterlimit:10;}.cls-5{font-size:14.7px;fill:#7d141c;stroke:#7d141c;stroke-width:0.5px;}.cls-6{clip-path:url(#clip-path);}.cls-7{fill:#a6c459;stroke:#000;stroke-width:0.98px;}.cls-8{fill:#e3a67f;}.cls-9{fill:#231f20;}.cls-10{fill:#daeefd;}.cls-11{fill:#285bb3;}.cls-12{clip-path:url(#clip-path-2);}.cls-13{fill:#f2f9ff;}.cls-14{fill:#b34242;}.cls-15{clip-path:url(#clip-path-4);}.cls-16{fill:#cf5353;}</style><clipPath id="clip-path"><path class="cls-1" d="M192.54,128.22c0,31.94-20.87,39.16-46.62,39.16S99.29,144,99.29,128.22,120.17,99.7,145.92,99.7,192.54,112.47,192.54,128.22Z"/></clipPath><clipPath id="clip-path-2"><path class="cls-1" d="M170.29,136.25c.72-.48,1-4.6,1.8-5.18s1.31,3.16,1.31,3.16,14.44-2,12.62,0c-5.24,5.85-20.29,13.34-20.29,13.34-4.15-2.94-2.09-7.82-2.09-7.82S168.17,139.37,170.29,136.25Z"/></clipPath><clipPath id="clip-path-4"><path class="cls-1" d="M125.25,141.76c.84.17,4-2.54,4.93-2.39s-1.31,3.16-1.31,3.16,11.65,8.78,8.92,8.93c-7.83.43-23.77-4.92-23.77-4.92-.85-5,4-7,4-7S121.54,142.46,125.25,141.76Z"/></clipPath></defs><g id="cutlines"><path class="cls-2" d="M192.67,127.18a14.47,14.47,0,0,0-8.9-2.94,16.18,16.18,0,0,0-2.3.17h0a9.19,9.19,0,0,0-2.82-.44h-.43l-.05-.18a9,9,0,0,0-1-2.26c-.49-1.21-1-2.4-1.54-3.56a9,9,0,0,0-1.07-7.07c-.15-.24-2-3.15-4.49-7,.19,0,.36,0,.56,0a10.09,10.09,0,0,0,3.21-.52,10.54,10.54,0,0,0,1.69.34,10,10,0,0,0,1.23.08,10.63,10.63,0,0,0,6.23-2,16.26,16.26,0,0,0,3-2.9,8,8,0,0,0,1.37-6.66,9,9,0,0,0-.71-1.94,9.48,9.48,0,0,0-2.94-6.7c.13-.42.25-.84.34-1.27v0a9.69,9.69,0,0,0-.94-6.36,8.11,8.11,0,0,0-2.34-5.18l0,0a9.87,9.87,0,0,0-6.19-2.8,8,8,0,0,0-4.48-3,9.94,9.94,0,0,0-2.69-.37,9.72,9.72,0,0,0-4.44,1.07A8,8,0,0,0,160.07,68a10.15,10.15,0,0,0-2.81.48,10.47,10.47,0,0,0-3.56-.63,10.69,10.69,0,0,0-2.13.23A8,8,0,0,0,147,64.82a8.93,8.93,0,0,0-2.47-.34h0a9.11,9.11,0,0,0-4.07,1,14.49,14.49,0,0,0-3.92-.41c-.46,0-.85,0-1.09,0h-.22l-.51,0c-.47,0-1,.07-1.5.13h0a9.93,9.93,0,0,0-2.11-.2h0a29.77,29.77,0,0,0-7.83.83v0a8.11,8.11,0,0,0-4.38,3.56l-.53.2a8,8,0,0,0-2.9,2.19,9.28,9.28,0,0,0-1,9.66c.07.14.15.27.23.4a8.2,8.2,0,0,0-3.7,4,11.52,11.52,0,0,0-4-.94,11.27,11.27,0,0,0,.42-1.54v-.05A10.31,10.31,0,0,0,106,75.94v-.12A8.19,8.19,0,0,0,103.55,70a11.14,11.14,0,0,0-8.22-3.08h0l0-.07a8,8,0,0,0-5.21-4.21,11,11,0,0,0-3-.41,10.44,10.44,0,0,0-4.76,1.15,8,8,0,0,0-3.63,3.81A10.63,10.63,0,0,0,73,68,11.51,11.51,0,0,0,68,66.92h0a11.28,11.28,0,0,0-4.59,1,1.59,1.59,0,0,0-.07-.2,7.33,7.33,0,0,0-.39-.91,8.09,8.09,0,0,0-5.13-4.16,9.59,9.59,0,0,0-7.58.94,7.81,7.81,0,0,0-1.41,1.07l0,0A11,11,0,0,0,43.11,63a11.88,11.88,0,0,0-4.84,1,12.69,12.69,0,0,0-5-1h-.33a12.22,12.22,0,0,0-3.37.59,8.74,8.74,0,0,0-1-.34,10.52,10.52,0,0,0-3.07-.47A10,10,0,0,0,20.8,64a8,8,0,0,0-4.15,5.59c-.39,2-.18,10.74-.14,12.27,0,.58,0,2.53.1,3.37h0a8.29,8.29,0,0,0,1.24,3.72,8.16,8.16,0,0,0-1.22,4.29c0,.68.39,7.19.6,9.13.18,2.14.26,3.36.3,4a11.71,11.71,0,0,0,.23,1.94,8,8,0,0,0,4.66,5.62,9.39,9.39,0,0,0,3.71.75,10.2,10.2,0,0,0,4-.81,8,8,0,0,0,4-3.7,11.56,11.56,0,0,0,2.15.46,9.65,9.65,0,0,0,1.32.08,11.74,11.74,0,0,0,3.29-.48,8.1,8.1,0,0,0,2.46.5h.47a12.33,12.33,0,0,0,4.56-.8q.27-.1.54-.24a8.37,8.37,0,0,0,2.66-2.11,8.29,8.29,0,0,0,5,2.93l.26,0a11.47,11.47,0,0,0,1.49.09,12.37,12.37,0,0,0,2.08-.16,11.28,11.28,0,0,0,2.18.21,10.78,10.78,0,0,0,2-.18,11.07,11.07,0,0,0,2.09.17,11.68,11.68,0,0,0,2-.16,9.62,9.62,0,0,0,2.28.28,10,10,0,0,0,2.43-.29c.16,0,.32.07.48.09.46,0,1,.07,1.62.07a14.91,14.91,0,0,0,2-.11l.54-.08.25.07.45.09a14.51,14.51,0,0,0,2.61.23,12.4,12.4,0,0,0,2.1-.17l.51-.11c.25-.07.49-.16.74-.24a10.43,10.43,0,0,0,1.83.31c.26,0,.5,0,.75,0a11.14,11.14,0,0,0,1.74-.14l.09,0a13.69,13.69,0,0,0,2.47.22,10.58,10.58,0,0,0,3-.41,11.16,11.16,0,0,0,3.31.46,10.15,10.15,0,0,0,4.4-.92,11.85,11.85,0,0,0,2.86.7,9.7,9.7,0,0,0,1.33.08,11.75,11.75,0,0,0,6.85-2.2,21.74,21.74,0,0,0,2.77-2.48,8.62,8.62,0,0,0,1,.32c0,.47-.08.94-.1,1.41a95.58,95.58,0,0,1-1.46,11.55,7.91,7.91,0,0,0-2.45-2.07,8.65,8.65,0,0,0-4.16-1c-.32,0-.64,0-1,0a9.23,9.23,0,0,0-1.18-.07h0a9.7,9.7,0,0,0-3.63.71c-.35-.08-.68-.13-1-.17h-.07c-.25,0-.5,0-.75,0A9.21,9.21,0,0,0,95,114.17a8.43,8.43,0,0,0-1.42.13,8,8,0,0,0-2.68-1.25,9.77,9.77,0,0,0-2.6-.36h0a10.05,10.05,0,0,0-1.73.18,9.61,9.61,0,0,0-5.94,1,8.06,8.06,0,0,0-2.9,2.53,9.35,9.35,0,0,0-5.19.12,7.5,7.5,0,0,0-1.26-.32,8.36,8.36,0,0,0-.86-.09l-.53,0a11.53,11.53,0,0,0-3.57.6,9.41,9.41,0,0,0-2.07-.24h-.46a10.13,10.13,0,0,0-2.13-.22h0a10,10,0,0,0-4,.82,10.06,10.06,0,0,0-4.15-.9l-.83,0a9.26,9.26,0,0,0-.92.13h-.13a7.89,7.89,0,0,0-1.53-1.41,8.49,8.49,0,0,0-5.06-1.52,12,12,0,0,0-2,.17,9,9,0,0,0-1.39-.1,11.2,11.2,0,0,0-2.68.33,3.4,3.4,0,0,0-.34-.12,9.52,9.52,0,0,0-7.22.67,8,8,0,0,0-4.15,5.58,70.28,70.28,0,0,0-.14,9.19c0,.54,0,1.78.08,2.38h0a8,8,0,0,0,.66,2.65,8.1,8.1,0,0,0-.65,3.2c0,.55.27,5.08.43,6.61s.18,2.29.21,2.74a9.25,9.25,0,0,0,.21,1.72A8,8,0,0,0,32.82,154a8.94,8.94,0,0,0,3.54.73,9.62,9.62,0,0,0,3.71-.76,8.1,8.1,0,0,0,3-2.16h.32a9.71,9.71,0,0,0,1.71-.15,10.47,10.47,0,0,0,1.79.15l.6,0,.52-.05a7.65,7.65,0,0,0,1.08-.22,11.06,11.06,0,0,0,2.68.34,10.78,10.78,0,0,0,3-.41,11.37,11.37,0,0,0,2,.42,11,11,0,0,0,1.19.07,10.65,10.65,0,0,0,6.21-2,16.16,16.16,0,0,0,3-2.87,8,8,0,0,0,1.38-6.67,9,9,0,0,0-.69-1.9,8.81,8.81,0,0,0,2.67.4,8.93,8.93,0,0,0,2.13-.25,8.5,8.5,0,0,0,2,.24,9.31,9.31,0,0,0,2.24-.31,9.2,9.2,0,0,0,2.1.24,9.91,9.91,0,0,0,1.72-.15,10.36,10.36,0,0,0,1.78.15l.61,0H83a10.43,10.43,0,0,0,3.71.1,11.36,11.36,0,0,0,1.82.15,9.93,9.93,0,0,0,2.06-.2,8,8,0,0,0,2.6-.08,9.06,9.06,0,0,0,2.09.26,8.86,8.86,0,0,0,1.71-.18l.09,0c.4,0,.86.06,1.37.06a13.84,13.84,0,0,0,1.65-.09l.14,0c.24,0,.49.08.72.11a11.43,11.43,0,0,0,4.63,2,14.71,14.71,0,0,0-.46,7,8.78,8.78,0,0,0,1.15,3.11,7.92,7.92,0,0,0,.5.9c.47,9.65,13.07,12.21,17.26,13.07A132.59,132.59,0,0,0,149,167.28a132.51,132.51,0,0,0,24.88-2.16c4.27-.87,17.27-3.51,17.27-13.63a10.12,10.12,0,0,0-2.73-7c5.08-4,6.69-6.88,7.16-9.77A8,8,0,0,0,192.67,127.18Z"/></g><g id="sticker"><text class="cls-3" transform="translate(23.54 84.56)">108 beats<tspan x="0" y="18">per minute</tspan></text><text class="cls-4" transform="translate(120.83 82.71)">~75 beats<tspan x="-3.35" y="13">per minute</tspan></text><text class="cls-5" transform="translate(34.54 130.82)">1.4x a walking <tspan x="0" y="13">pace</tspan></text><g class="cls-6"><path class="cls-7" d="M182.62,151.49c0,4-15.07,7.3-33.66,7.3s-33.66-3.27-33.66-7.3,15.07-7.31,33.66-7.31S182.62,147.45,182.62,151.49Z"/><path class="cls-8" d="M162.16,135.67a.41.41,0,0,1-.16,0,.5.5,0,0,1-.32-.33c-4.6-16.61-16.18-22.79-17.49-23.44a.55.55,0,0,1-.28-.38.49.49,0,0,1,.15-.43l8.49-7.67a.51.51,0,0,1,.33-.13.46.46,0,0,1,.23.06,29.46,29.46,0,0,1,7.92,7.14,57.05,57.05,0,0,1,9.67,18.36.48.48,0,0,1-.17.54l-8.08,6.21A.51.51,0,0,1,162.16,135.67Z"/><path class="cls-9" d="M152.88,103.75a28.93,28.93,0,0,1,7.77,7,56.37,56.37,0,0,1,9.58,18.2l-8.07,6.21c-4.91-17.72-17.68-23.7-17.77-23.76l8.49-7.67m0-1a1,1,0,0,0-.66.25l-8.49,7.67a1,1,0,0,0-.32.83,1,1,0,0,0,.48.74l.09,0c1.28.64,12.69,6.71,17.23,23.13a1,1,0,0,0,.63.67,1.19,1.19,0,0,0,.32,0,1,1,0,0,0,.59-.2l8.08-6.21a1,1,0,0,0,.33-1.08,57.43,57.43,0,0,0-9.75-18.52,29.41,29.41,0,0,0-8.07-7.26.93.93,0,0,0-.46-.12Z"/><path class="cls-10" d="M164.43,142.25h-.12a.51.51,0,0,1-.34-.3l-3.51-8.74a.5.5,0,0,1,.15-.57l8.62-6.62a.57.57,0,0,1,.3-.1l.15,0a.48.48,0,0,1,.32.33l2.6,8.58a.49.49,0,0,1-.14.51l-7.71,6.78A.49.49,0,0,1,164.43,142.25Z"/><path class="cls-9" d="M169.53,126.4l2.6,8.58-7.7,6.78L160.91,133l8.62-6.62m0-1a1,1,0,0,0-.59.2l-8.62,6.62a1,1,0,0,0-.32,1.15l3.52,8.74a1,1,0,0,0,.68.58.85.85,0,0,0,.23,0,1,1,0,0,0,.64-.24l7.71-6.78a1,1,0,0,0,.29-1l-2.6-8.58a1,1,0,0,0-.64-.65,1,1,0,0,0-.3,0Z"/><path class="cls-11" d="M165.73,148.06a.47.47,0,0,1-.28-.09c-4.42-3.13-2.28-8.35-2.26-8.41a.49.49,0,0,1,.41-.29s4.32-.41,6.29-3.29a.4.4,0,0,1,.13-.13,8.91,8.91,0,0,0,.65-2.18c.36-1.61.61-2.61,1.13-3a.79.79,0,0,1,.46-.15c.26,0,1,0,1.55,3.15a90.59,90.59,0,0,1,9.75-.84c2.24,0,2.84.31,3.05.77a.85.85,0,0,1-.22.95C181.15,140.41,166.57,147.7,166,148A.54.54,0,0,1,165.73,148.06Z"/><path class="cls-9" d="M172.26,131c.7,0,1.14,3.22,1.14,3.22a97,97,0,0,1,10.16-.9c1.87,0,3.07.23,2.46.9-5.24,5.85-20.29,13.34-20.29,13.34-4.15-2.94-2.09-7.82-2.09-7.82s4.53-.38,6.65-3.5c.72-.48,1-4.6,1.8-5.18a.29.29,0,0,1,.17-.06m0-1h0a1.29,1.29,0,0,0-.75.24c-.67.49-.94,1.57-1.32,3.29a11.39,11.39,0,0,1-.54,2,.69.69,0,0,0-.16.18c-1.85,2.7-5.89,3.07-5.93,3.08a1,1,0,0,0-.82.59,7.48,7.48,0,0,0,2.43,9,1,1,0,0,0,.56.18,1,1,0,0,0,.44-.1c.62-.31,15.28-7.65,20.58-13.56a1.31,1.31,0,0,0,.3-1.48c-.34-.77-1.29-1.06-3.49-1.06a85,85,0,0,0-9.35.79c-.58-3.1-1.53-3.1-2-3.1Z"/><path class="cls-10" d="M174.13,136.92a.79.79,0,0,1-.81-.74,6.77,6.77,0,0,1,.38-2.56.77.77,0,0,1,.74-.54.8.8,0,0,1,.65.32.71.71,0,0,1,.1.66,5.43,5.43,0,0,0-.32,2.07.71.71,0,0,1-.18.55.78.78,0,0,1-.56.24Z"/><path d="M174.44,133.45a.38.38,0,0,1,.4.5,5.74,5.74,0,0,0-.33,2.21.36.36,0,0,1-.38.39.41.41,0,0,1-.44-.39,6.3,6.3,0,0,1,.36-2.43.39.39,0,0,1,.39-.28m0-.74a1.13,1.13,0,0,0-1.09.8,7.18,7.18,0,0,0-.4,2.7,1.17,1.17,0,0,0,1.18,1.08,1.1,1.1,0,0,0,1.11-1.19,5.1,5.1,0,0,1,.3-1.92,1.08,1.08,0,0,0-.15-1,1.17,1.17,0,0,0-.95-.48Z"/><path class="cls-10" d="M176.22,136.54a.78.78,0,0,1-.8-.74,6.77,6.77,0,0,1,.38-2.56.75.75,0,0,1,.74-.54.81.81,0,0,1,.65.32.73.73,0,0,1,.1.66,5.43,5.43,0,0,0-.32,2.07.72.72,0,0,1-.19.55.75.75,0,0,1-.56.24Z"/><path d="M176.54,133.07a.39.39,0,0,1,.4.5,6,6,0,0,0-.34,2.21.35.35,0,0,1-.38.39.43.43,0,0,1-.44-.39,6.47,6.47,0,0,1,.37-2.43.38.38,0,0,1,.39-.28m0-.74a1.13,1.13,0,0,0-1.09.8,7,7,0,0,0-.4,2.7,1.15,1.15,0,0,0,1.17,1.07,1.09,1.09,0,0,0,.83-.35,1.08,1.08,0,0,0,.29-.83,5,5,0,0,1,.3-1.93,1.12,1.12,0,0,0-.15-1,1.19,1.19,0,0,0-1-.47Z"/><path class="cls-10" d="M178.3,136.17a.79.79,0,0,1-.81-.73,7,7,0,0,1,.38-2.57.78.78,0,0,1,.74-.54.83.83,0,0,1,.66.32.75.75,0,0,1,.09.67,5.54,5.54,0,0,0-.32,2.06.73.73,0,0,1-.18.56A.75.75,0,0,1,178.3,136.17Z"/><path d="M178.61,132.7a.38.38,0,0,1,.4.5,5.74,5.74,0,0,0-.33,2.21.35.35,0,0,1-.38.39.42.42,0,0,1-.44-.39,6.41,6.41,0,0,1,.36-2.42.41.41,0,0,1,.39-.29m0-.73a1.14,1.14,0,0,0-1.09.79,7.23,7.23,0,0,0-.39,2.7,1.17,1.17,0,0,0,2,.73,1.12,1.12,0,0,0,.28-.83,5.12,5.12,0,0,1,.3-1.93,1.08,1.08,0,0,0-.15-1,1.15,1.15,0,0,0-.95-.47Z"/><g class="cls-12"><path class="cls-13" d="M181.41,132.59s-.74,1.2.2,3.45l-17.29,11,1.85,1.73s20.72-10.68,21.48-15.31A7,7,0,0,0,181.41,132.59Z"/></g><g class="cls-12"><path class="cls-13" d="M181.41,132.59s-.74,1.2.2,3.45l-17.29,11,1.85,1.73s20.72-10.68,21.48-15.31A7,7,0,0,0,181.41,132.59Z"/></g><path class="cls-14" d="M154.58,126.89a.49.49,0,0,1-.35-.15,117.88,117.88,0,0,0-11.32-10.29,72.91,72.91,0,0,1-10.38-10.28.49.49,0,0,1,0-.66l16.24-15.89a.48.48,0,0,1,.34-.14h0a.44.44,0,0,1,.34.16c5.19,5.74,17.26,25,17.77,25.78a.5.5,0,0,1,0,.5c-3.64,6.51-12.13,10.74-12.49,10.92A.54.54,0,0,1,154.58,126.89Z"/><path class="cls-9" d="M149.15,90c5.21,5.78,17.71,25.71,17.71,25.71-3.61,6.46-12.28,10.72-12.28,10.72a117.1,117.1,0,0,0-11.37-10.34,71.44,71.44,0,0,1-10.3-10.2L149.15,90m0-1a1,1,0,0,0-.68.28l-16.24,15.89a1,1,0,0,0-.08,1.32,71.47,71.47,0,0,0,10.47,10.36,118.84,118.84,0,0,1,11.26,10.24,1,1,0,0,0,.7.3,1,1,0,0,0,.44-.1c.36-.18,9-4.48,12.7-11.12a1,1,0,0,0,0-1c-.51-.82-12.6-20.07-17.81-25.85a1,1,0,0,0-.7-.32Z"/><path class="cls-8" d="M130.75,139.15l-.14,0-9.75-2.94a.48.48,0,0,1-.24-.77c10.79-13.43,9-26.45,8.8-27.89a.54.54,0,0,1,.14-.45.52.52,0,0,1,.35-.14H130l11.18,2.42a.49.49,0,0,1,.39.41,29.63,29.63,0,0,1-1.17,10.6,56.8,56.8,0,0,1-9.25,18.57A.5.5,0,0,1,130.75,139.15Z"/><path class="cls-9" d="M129.9,107.42l11.18,2.42a28.55,28.55,0,0,1-1.15,10.4,56.4,56.4,0,0,1-9.18,18.42L121,135.73c11.51-14.34,8.91-28.2,8.9-28.31m0-1a1,1,0,0,0-.65.25,1,1,0,0,0-.33.82.36.36,0,0,0,0,.1c.23,1.42,1.95,14.23-8.71,27.5a1,1,0,0,0-.17.91,1,1,0,0,0,.66.64l9.75,2.93a.92.92,0,0,0,.28,0,1,1,0,0,0,.79-.41,57.46,57.46,0,0,0,9.34-18.74,29.78,29.78,0,0,0,1.17-10.78,1,1,0,0,0-.76-.83l-11.19-2.41a.64.64,0,0,0-.2,0Z"/><path class="cls-10" d="M127,144.2l-.11,0-10-2.29a.5.5,0,0,1-.34-.29.48.48,0,0,1,0-.45l5-8A.49.49,0,0,1,122,133a.32.32,0,0,1,.14,0l10.41,3.13a.47.47,0,0,1,.33.31.48.48,0,0,1-.08.45L127.37,144A.46.46,0,0,1,127,144.2Z"/><path class="cls-9" d="M122,133.46l10.41,3.12L127,143.71l-10-2.3,5-7.95m0-1a1,1,0,0,0-.83.45l-5,8a.94.94,0,0,0-.07.89,1,1,0,0,0,.68.59l10,2.29a.78.78,0,0,0,.22,0,1,1,0,0,0,.77-.39l5.45-7.12a1,1,0,0,0,.15-.9,1,1,0,0,0-.65-.63l-10.41-3.13a.86.86,0,0,0-.28,0Z"/><path class="cls-11" d="M136.86,152c-8.09,0-22.39-4.76-23-5a.47.47,0,0,1-.32-.38c-.91-5.34,4.29-7.52,4.35-7.54a.53.53,0,0,1,.18,0,.47.47,0,0,1,.31.12,10.24,10.24,0,0,0,5.69,2.22h0a5.6,5.6,0,0,0,1.09-.1h.18a8.45,8.45,0,0,0,2-1.08,6.71,6.71,0,0,1,2.77-1.32h.16a.74.74,0,0,1,.59.46c.27.67-.5,2-1.3,3.08,4.48,3.4,9.53,7.59,9.11,9a.83.83,0,0,1-.84.56C137.51,152,137.19,152,136.86,152Z"/><path class="cls-9" d="M130.1,139.37h.08c1,.16-1.31,3.16-1.31,3.16s11.65,8.78,8.92,8.93q-.45,0-.93,0c-8.11,0-22.84-5-22.84-5-.85-5,4-7,4-7a10.61,10.61,0,0,0,6,2.34,6,6,0,0,0,1.18-.11h.08c.91,0,3.74-2.4,4.77-2.4m0-1c-.76,0-1.65.53-3,1.4a11.21,11.21,0,0,1-1.76,1h-.24a5.47,5.47,0,0,1-1,.09,9.65,9.65,0,0,1-5.37-2.1.94.94,0,0,0-.63-.24,1,1,0,0,0-.37.08,7.46,7.46,0,0,0-4.65,8.07,1,1,0,0,0,.66.77c.6.2,15,5,23.15,5,.34,0,.67,0,1,0a1.31,1.31,0,0,0,1.28-.91c.18-.59.6-1.95-8.9-9.2,1.47-2.17,1.19-2.88,1.07-3.16a1.22,1.22,0,0,0-1-.76.86.86,0,0,0-.23,0Z"/><path class="cls-10" d="M128,145.18a.82.82,0,0,1-.71-.48.78.78,0,0,1,.12-.84,6.71,6.71,0,0,1,2.08-1.54.81.81,0,0,1,.37-.09.82.82,0,0,1,.77.62.73.73,0,0,1-.39.83,5.56,5.56,0,0,0-1.69,1.23.73.73,0,0,1-.55.27Z"/><path d="M129.88,142.59c.37,0,.62.55.21.76a5.86,5.86,0,0,0-1.8,1.32.35.35,0,0,1-.27.14.43.43,0,0,1-.31-.71,6.28,6.28,0,0,1,2-1.46.49.49,0,0,1,.2,0m0-.73a1.13,1.13,0,0,0-.54.13,7.09,7.09,0,0,0-2.19,1.63,1.17,1.17,0,0,0,.87,1.92,1.06,1.06,0,0,0,.83-.39,5.1,5.1,0,0,1,1.58-1.15,1.08,1.08,0,0,0,.57-1.23,1.17,1.17,0,0,0-1.12-.91Z"/><path class="cls-10" d="M129.77,146.39a.79.79,0,0,1-.7-.48.75.75,0,0,1,.12-.84,6.57,6.57,0,0,1,2.07-1.54.79.79,0,0,1,1.14.53.72.72,0,0,1-.39.83,5.6,5.6,0,0,0-1.69,1.24.7.7,0,0,1-.54.26Z"/><path d="M131.63,143.81c.37,0,.62.55.22.75a5.93,5.93,0,0,0-1.81,1.33.35.35,0,0,1-.27.13.44.44,0,0,1-.31-.71,6.53,6.53,0,0,1,2-1.45.37.37,0,0,1,.2-.05m0-.74a1.19,1.19,0,0,0-.53.13,7.14,7.14,0,0,0-2.19,1.63,1.14,1.14,0,0,0-.18,1.23,1.15,1.15,0,0,0,1,.7,1.09,1.09,0,0,0,.83-.39,5.22,5.22,0,0,1,1.58-1.15,1.07,1.07,0,0,0,.57-1.24,1.17,1.17,0,0,0-1.12-.91Z"/><path class="cls-10" d="M131.5,147.6a.8.8,0,0,1-.71-.48.78.78,0,0,1,.12-.84,6.62,6.62,0,0,1,2.08-1.54.78.78,0,0,1,1.13.53.7.7,0,0,1-.38.83,5.48,5.48,0,0,0-1.69,1.24.72.72,0,0,1-.55.26Z"/><path d="M133.35,145c.38,0,.63.55.22.75a5.62,5.62,0,0,0-1.8,1.33.36.36,0,0,1-.27.13.43.43,0,0,1-.31-.71,6.25,6.25,0,0,1,2-1.45.36.36,0,0,1,.19,0m0-.74a1.25,1.25,0,0,0-.53.13,6.93,6.93,0,0,0-2.18,1.63,1.13,1.13,0,0,0-.18,1.23,1.16,1.16,0,0,0,1,.7,1.09,1.09,0,0,0,.83-.39,5,5,0,0,1,1.58-1.15,1.1,1.1,0,0,0,.57-1.24,1.18,1.18,0,0,0-1.13-.91Z"/><g class="cls-15"><path class="cls-13" d="M135.69,147s-1.37.33-2.3,2.59l-20-4.49.09,2.53s22.2,7.11,26,4.37A7,7,0,0,0,135.69,147Z"/></g><path class="cls-1" d="M125.25,141.76c.84.17,4-2.54,4.93-2.39s-1.31,3.16-1.31,3.16,11.65,8.78,8.92,8.93c-7.83.43-23.77-4.92-23.77-4.92-.85-5,4-7,4-7S121.54,142.46,125.25,141.76Z"/><path class="cls-16" d="M138.14,128c-7,0-14.22-4-14.52-4.16a.48.48,0,0,1-.24-.53,120.21,120.21,0,0,0,2.05-15.16A71.68,71.68,0,0,1,128,93.73a.48.48,0,0,1,.47-.35h.09l22.3,4.35a.49.49,0,0,1,.32.22.48.48,0,0,1,.06.37c-1.78,7.53-10.76,28.38-11.14,29.26a.46.46,0,0,1-.4.29c-.51.05-1,.08-1.56.08Z"/><path class="cls-9" d="M128.47,93.87l22.3,4.35c-1.8,7.57-11.12,29.18-11.12,29.18-.5,0-1,.07-1.52.07-6.95,0-14.27-4.1-14.27-4.1a119.79,119.79,0,0,0,2.06-15.23,71.14,71.14,0,0,1,2.55-14.27m0-1a1,1,0,0,0-.94.7,70.77,70.77,0,0,0-2.59,14.5,120.6,120.6,0,0,1-2,15.09,1,1,0,0,0,.48,1c.31.17,7.62,4.22,14.75,4.22.55,0,1.09,0,1.61-.08a1,1,0,0,0,.81-.58c.38-.89,9.37-21.78,11.17-29.34a1,1,0,0,0-.13-.76,1,1,0,0,0-.64-.43l-22.3-4.35-.18,0Z"/></g></g></svg>