<svg xmlns="http://www.w3.org/2000/svg" xmlns:xlink="http://www.w3.org/1999/xlink" viewBox="0 0 216 216"><defs><style>.cls-1,.cls-16,.cls-17,.cls-19,.cls-20{fill:none;}.cls-2{isolation:isolate;}.cls-3,.cls-4,.cls-5,.cls-6{fill:#fff;}.cls-10,.cls-19,.cls-4,.cls-5,.cls-9{stroke:#0a0a0a;}.cls-10,.cls-16,.cls-20,.cls-4,.cls-5,.cls-9{stroke-miterlimit:10;}.cls-10,.cls-16,.cls-17,.cls-4,.cls-5,.cls-9{stroke-width:2px;}.cls-10,.cls-11,.cls-13,.cls-5,.cls-6{fill-rule:evenodd;}.cls-18,.cls-7{fill:#0a0a0a;}.cls-8{clip-path:url(#clip-path);}.cls-9{fill:#ffce45;}.cls-10{fill:#aeb4b8;}.cls-11{fill:#f54748;}.cls-12{fill:#c71017;}.cls-13{fill:#404040;}.cls-14{fill:#e3e3e3;mix-blend-mode:multiply;}.cls-15{fill:#ffeabe;}.cls-16{stroke:#ccc;}.cls-16,.cls-17,.cls-19{stroke-linecap:round;}.cls-17{stroke:#fff;}.cls-17,.cls-19{stroke-linejoin:round;}.cls-18{font-size:6.99px;font-family:MyDearWatson-Regular, My Dear Watson;}.cls-19{stroke-width:1.5px;}.cls-20{stroke:#ee344c;}</style><clipPath id="clip-path"><rect id="fill-mask" class="cls-1" x="-79.11" y="67.16" width="125.84" height="116.38"/></clipPath></defs><g class="cls-2"><g id="cutlines"><path class="cls-3" d="M55.58,181.57a11.94,11.94,0,0,0,3.6,2.92l.8.37a20.28,20.28,0,0,0,2.49,1,11.52,11.52,0,0,0,2.11.4c1,.15,1.89.21,2.52.24A8.88,8.88,0,0,0,69,188a11.68,11.68,0,0,0,2.08.94c.58.22,1,.35,1.65.54a18.54,18.54,0,0,0,1.88.5,15.93,15.93,0,0,0,2.32.14c.73,0,.72,0,2.45,0a17.32,17.32,0,0,0,2.08,0,10.28,10.28,0,0,0,2-.4A15.72,15.72,0,0,0,86,188.56c.28-.15,1.07-.55,2.08-1.14A16.72,16.72,0,0,0,90,186.21a12.29,12.29,0,0,0,1.71-1.92A18.44,18.44,0,0,0,93.33,182a16.68,16.68,0,0,0,1.14-2.38,20.64,20.64,0,0,0,.84-2.72c.16-.67.26-1.24.33-1.68v-49.7a15,15,0,0,0-.4-1.68A18.2,18.2,0,0,0,94.1,121a16.66,16.66,0,0,0-1.92-3.09A17.11,17.11,0,0,0,90,115.69a17.77,17.77,0,0,0-2.46-1.91A14,14,0,0,0,83.05,112a20.64,20.64,0,0,0-4.87-.5,27.79,27.79,0,0,0-4.83.4l2.15-4.46a42.16,42.16,0,0,1,2.78-4.23,35.22,35.22,0,0,1,3.06-3.66,33,33,0,0,1,5.3-4.5c.74-.5,1.4-.9,2.19-1.38,1.24-.75,2.34-1.42,3.66-2.08a36.4,36.4,0,0,1,5.37-2.12,36.82,36.82,0,0,1,4-1.11c1-.2,1.72-.3,2.49-.4a45.73,45.73,0,0,1,4.93-.4,31.3,31.3,0,0,1,9.57,1,37.67,37.67,0,0,1,4.13,1.24A40,40,0,0,1,129.52,93a41.76,41.76,0,0,1,5.41,3.8,37.39,37.39,0,0,1,4.77,4.77,38.77,38.77,0,0,1,3.36,4.73,38.11,38.11,0,0,1,2.71,5.47L137,111.7a19.17,19.17,0,0,0-5.85,2.65,20.05,20.05,0,0,0-3.45,3,15,15,0,0,0-3.06,4.47,13.32,13.32,0,0,0-1,4.53v49a16.66,16.66,0,0,0,2,6.21,17.31,17.31,0,0,0,7.45,7,19.8,19.8,0,0,0,15.21.41,15,15,0,0,0,3.93-2.66h4a14.32,14.32,0,0,0,8.9-6.64,31.65,31.65,0,0,0,5.71-4.24,34.24,34.24,0,0,0,6-7.62,35.14,35.14,0,0,0,3.43-7.85,31.67,31.67,0,0,0,1.1-6.18v-31.4A70.51,70.51,0,0,0,179.76,112a77.19,77.19,0,0,0-4.1-12.35,53.17,53.17,0,0,0-4.18-8.46,56.21,56.21,0,0,0-6.19-7.94c-1.48-1.64-2.62-2.73-4.48-4.54a73.67,73.67,0,0,0-7-6.32,57.27,57.27,0,0,0-8.22-5.08c-2.43-1.29-4.53-2.25-6.09-2.92-2.09-.91-4-1.61-5.64-2.16a71.34,71.34,0,0,0-13.34-2.92c-.7-.09-2.9-.35-5.93-.5a78.71,78.71,0,0,0-21.22,1.4,69.26,69.26,0,0,0-13.1,4.12,70.06,70.06,0,0,0-12.41,7.09A73,73,0,0,0,55.5,82.57a80.37,80.37,0,0,0-6.84,9.07c-3.53,5.22-5.44,8-7,12.4A55.06,55.06,0,0,0,39,115.13a80.32,80.32,0,0,0-.91,8.57q0,14.87,0,29.75a31.18,31.18,0,0,0,3.22,12.61,31.84,31.84,0,0,0,4.36,6.51c.43.51,4.23,5,6.88,6.14a6,6,0,0,1,1.41.82A6.19,6.19,0,0,1,55.58,181.57Z"/></g><g id="sticker"><path class="cls-4" d="M172.45,127.56a63,63,0,0,0-15-38.42c-1-1.2-2.14-2.41-3.32-3.59a62.84,62.84,0,0,0-107.23,42c-.05,1.23-.05,2.44-.05,3.61v22.74H61.3V131.46c0-1.36,0-2.65.07-4A48.22,48.22,0,0,1,75.46,95.8a48.34,48.34,0,0,1,82.37,30.14c.16,1.92.16,3.85.15,5.89v23.6H172.5V131.14C172.5,130,172.5,128.76,172.45,127.56Z"/><path class="cls-5" d="M158.59,176.31l-.09,0c-.31.14-.63.28-1,.41l-.25.09-.84.31-1,.3,0,0a24.77,24.77,0,0,1-4.43.83c-.72.06-1.44.1-2.17.1h-.14a22.52,22.52,0,0,1-2.86-.2,23.23,23.23,0,0,1-5.64-1.43V132.56a23.23,23.23,0,0,1,5.64-1.43,22.8,22.8,0,0,1,3-.19h0c.72,0,1.44,0,2.14.09a23.14,23.14,0,0,1,4.43.85h0l.11,0,.59.18.73.25.42.15a23.94,23.94,0,0,1,7.58,4.69,23.73,23.73,0,0,1-6.28,39.13Z"/><path class="cls-6" d="M142.76,180.87a6,6,0,0,1-6-6V134.46a6,6,0,0,1,6-6h10a6,6,0,0,1,5.49,3.62l.08.19v0a5.88,5.88,0,0,1,.41,2.16v40.43a6,6,0,0,1-6,6Z"/><path class="cls-7" d="M152.72,129.47a5,5,0,0,1,4.57,3h0a4.91,4.91,0,0,1,.41,2v40.43a5,5,0,0,1-5,5h-10a5,5,0,0,1-5-5V134.46a5,5,0,0,1,5-5h10m0-2h-10a7,7,0,0,0-7,7v40.43a7,7,0,0,0,7,7h10a7,7,0,0,0,6.41-4.23,6.81,6.81,0,0,0,.57-2.75V134.46a6.86,6.86,0,0,0-.41-2.34v0l-.16-.38a7,7,0,0,0-6.41-4.23Z"/><rect class="cls-3" x="145.84" y="129.47" width="5.17" height="50.4"/><path class="cls-6" d="M140.35,184.54a7.74,7.74,0,0,1-7.72-7.73V131.44a7.74,7.74,0,0,1,7.72-7.72h1.82a7.8,7.8,0,0,1,7.38,5.46,7.11,7.11,0,0,1,.32,1.68,5.49,5.49,0,0,1,0,.58v45.37a8,8,0,0,1-.22,1.83,7.6,7.6,0,0,1-.63,1.68,7.72,7.72,0,0,1-6.88,4.22Z"/><path class="cls-7" d="M142.17,124.72a6.76,6.76,0,0,1,6.43,4.75,7.08,7.08,0,0,1,.28,1.47c0,.16,0,.33,0,.5v45.37a6.35,6.35,0,0,1-.2,1.59,6.62,6.62,0,0,1-.54,1.47,6.76,6.76,0,0,1-6,3.67h-1.82a6.75,6.75,0,0,1-6.72-6.73V131.44a6.75,6.75,0,0,1,6.72-6.72h1.82m0-2h-1.82a8.73,8.73,0,0,0-8.72,8.72v45.37a8.74,8.74,0,0,0,8.72,8.73h1.82a8.74,8.74,0,0,0,8.48-6.67,8.93,8.93,0,0,0,.25-2.06V131.44c0-.22,0-.44,0-.65a8.48,8.48,0,0,0-.36-1.9,8.8,8.8,0,0,0-8.34-6.17Z"/><path class="cls-5" d="M79.1,132.56v44.22a23.79,23.79,0,0,1-5.65,1.44,24.5,24.5,0,0,1-2.85.19h-.14c-.73,0-1.46,0-2.17-.1a24.6,24.6,0,0,1-4.43-.83l0,0c-.33-.09-.65-.2-1-.3s-.57-.2-.84-.31l-.25-.09-1-.43-.87-.42-.07,0h0a23.79,23.79,0,0,1-11.43-12.55,23.74,23.74,0,0,1,1.12-19.78,23.89,23.89,0,0,1,8.36-9A22.45,22.45,0,0,1,62,132.49l.42-.15.73-.25.59-.18.11,0h0a23,23,0,0,1,4.43-.85c.7-.06,1.42-.09,2.13-.09h0a24.62,24.62,0,0,1,3,.18A23.79,23.79,0,0,1,79.1,132.56Z"/><path class="cls-6" d="M66.58,180.87a6,6,0,0,1-5.49-3.63,5.72,5.72,0,0,1-.49-2.35V134.46a6.08,6.08,0,0,1,.4-2.16h0l.09-.2a6,6,0,0,1,5.49-3.62h10a6,6,0,0,1,6,6v40.43a6,6,0,0,1-6,6Z"/><path class="cls-7" d="M76.54,129.47a5,5,0,0,1,5,5v40.43a5,5,0,0,1-5,5h-10a5,5,0,0,1-4.58-3,4.94,4.94,0,0,1-.4-2V134.46a4.91,4.91,0,0,1,.4-2h0a5,5,0,0,1,4.58-3h10m0-2h-10a7,7,0,0,0-6.41,4.23l-.17.38v0a7.1,7.1,0,0,0-.4,2.34v40.43a6.81,6.81,0,0,0,.57,2.75,7,7,0,0,0,6.41,4.23h10a7,7,0,0,0,7-7V134.46a7,7,0,0,0-7-7Z"/><rect class="cls-3" x="68.28" y="129.47" width="5.16" height="50.4"/><path class="cls-6" d="M77.13,184.54a7.71,7.71,0,0,1-6.88-4.22,7.42,7.42,0,0,1-.63-1.68,7.57,7.57,0,0,1-.22-1.83V131.44c0-.2,0-.39,0-.58a7.74,7.74,0,0,1,7.71-7.14h1.81a7.74,7.74,0,0,1,7.73,7.72v45.37a7.74,7.74,0,0,1-7.73,7.73Z"/><path class="cls-7" d="M78.94,124.72a6.75,6.75,0,0,1,6.73,6.72v45.37a6.75,6.75,0,0,1-6.73,6.73H77.13a6.74,6.74,0,0,1-6-3.67,6.64,6.64,0,0,1-.55-1.47,6.85,6.85,0,0,1-.19-1.59V131.44c0-.17,0-.34,0-.5a6,6,0,0,1,.28-1.47,6.75,6.75,0,0,1,6.43-4.75h1.81m0-2H77.13a8.8,8.8,0,0,0-8.34,6.16,8.7,8.7,0,0,0-.37,1.91c0,.21,0,.43,0,.65v45.37a8.5,8.5,0,0,0,.25,2.07,8,8,0,0,0,.71,1.9,8.7,8.7,0,0,0,7.77,4.76h1.81a8.74,8.74,0,0,0,8.73-8.73V131.44a8.74,8.74,0,0,0-8.73-8.72Z"/><g class="cls-8"><g id="head_phone" data-name="head phone"><path class="cls-9" d="M172.45,127.56a63,63,0,0,0-15-38.42c-1-1.2-2.14-2.41-3.32-3.59a62.84,62.84,0,0,0-107.23,42c-.05,1.23-.05,2.44-.05,3.61v22.74H61.3V131.46c0-1.36,0-2.65.07-4A48.22,48.22,0,0,1,75.46,95.8a48.34,48.34,0,0,1,82.37,30.14c.16,1.92.16,3.85.15,5.89v23.6H172.5V131.14C172.5,130,172.5,128.76,172.45,127.56Z"/><path class="cls-10" d="M158.59,176.31l-.08,0-1,.41-.25.09c-.27.11-.55.21-.84.31s-.64.21-1,.3l0,0a23.91,23.91,0,0,1-4.43.83c-.72.07-1.44.1-2.17.1h-.14a22.52,22.52,0,0,1-2.86-.2,23.23,23.23,0,0,1-5.64-1.43V132.56a23.23,23.23,0,0,1,5.64-1.43,22.8,22.8,0,0,1,3-.19h0c.71,0,1.43,0,2.13.1a22.24,22.24,0,0,1,4.43.84h0l.11,0,.59.18.73.26.42.14a23.72,23.72,0,0,1,12.51,11.06,23.73,23.73,0,0,1-11.21,32.76Z"/><path class="cls-11" d="M142.76,180.87a6,6,0,0,1-6-6V134.46a6,6,0,0,1,6-6h10a6,6,0,0,1,5.49,3.63l.08.19h0a5.88,5.88,0,0,1,.41,2.16v40.43a6,6,0,0,1-6,6Z"/><path class="cls-7" d="M152.72,129.47a5,5,0,0,1,4.57,3h0a4.91,4.91,0,0,1,.41,2v40.43a4.91,4.91,0,0,1-.41,2,5,5,0,0,1-4.57,3h-10a5,5,0,0,1-5-5V134.46a5,5,0,0,1,5-5h10m0-2h-10a7,7,0,0,0-7,7v40.43a7,7,0,0,0,7,7h10a7,7,0,0,0,6.41-4.23,6.77,6.77,0,0,0,.57-2.75V134.46a6.86,6.86,0,0,0-.41-2.34v0l-.16-.39a7,7,0,0,0-6.41-4.23Z"/><rect class="cls-12" x="145.84" y="129.47" width="5.17" height="50.4"/><path class="cls-13" d="M140.35,184.54a7.73,7.73,0,0,1-7.72-7.73V131.45a7.72,7.72,0,0,1,7.72-7.72h1.82a7.79,7.79,0,0,1,7.38,5.45,7.66,7.66,0,0,1,.32,1.68,5.82,5.82,0,0,1,0,.59v45.36a7.51,7.51,0,0,1-.22,1.83,8,8,0,0,1-.62,1.69,7.71,7.71,0,0,1-6.88,4.21Z"/><path class="cls-7" d="M142.17,124.73a6.75,6.75,0,0,1,6.43,4.74,7.08,7.08,0,0,1,.28,1.47c0,.17,0,.33,0,.51v45.36a6.43,6.43,0,0,1-.19,1.6,6.71,6.71,0,0,1-6.53,5.13h-1.82a6.75,6.75,0,0,1-6.72-6.73V131.45a6.74,6.74,0,0,1,6.72-6.72h1.82m0-2h-1.82a8.73,8.73,0,0,0-8.72,8.72v45.36a8.73,8.73,0,0,0,8.72,8.73h1.82a8.71,8.71,0,0,0,7.77-4.76,8.9,8.9,0,0,0,.71-1.9,9,9,0,0,0,.24-2.07V131.45c0-.23,0-.44,0-.66a9.09,9.09,0,0,0-.36-1.9,8.82,8.82,0,0,0-8.34-6.16Z"/><path class="cls-10" d="M79.09,132.56v44.22a23.71,23.71,0,0,1-5.64,1.44,24.53,24.53,0,0,1-2.86.19h-.13c-.73,0-1.46,0-2.18-.1a23.81,23.81,0,0,1-4.42-.83l0,0q-.48-.14-1-.3l-.85-.31-.25-.09-1-.43-.87-.42-.07,0h0a23.86,23.86,0,0,1-11.44-12.54,23.72,23.72,0,0,1,9.49-28.77A24,24,0,0,1,62,132.49l.43-.14.73-.26.59-.18.11,0h0a22.28,22.28,0,0,1,4.42-.84c.71-.06,1.42-.1,2.14-.1h0a24.62,24.62,0,0,1,3,.18A23.71,23.71,0,0,1,79.09,132.56Z"/><path class="cls-11" d="M66.58,180.87a6,6,0,0,1-6-6V134.46a6.08,6.08,0,0,1,.4-2.16h0l.08-.19a6,6,0,0,1,5.5-3.63h10a6,6,0,0,1,6,6v40.43a6,6,0,0,1-6,6Z"/><path class="cls-7" d="M76.54,129.47a5,5,0,0,1,5,5v40.43a5,5,0,0,1-5,5h-10a5,5,0,0,1-4.58-3,4.91,4.91,0,0,1-.4-2V134.46a4.91,4.91,0,0,1,.4-2h0a5,5,0,0,1,4.58-3h10m0-2h-10a7,7,0,0,0-6.41,4.23l-.17.38v0a6.85,6.85,0,0,0-.4,2.34v40.43a6.86,6.86,0,0,0,.57,2.76,7,7,0,0,0,6.41,4.22h10a7,7,0,0,0,7-7V134.46a7,7,0,0,0-7-7Z"/><rect class="cls-12" x="68.28" y="129.47" width="5.16" height="50.4"/><path class="cls-13" d="M77.13,184.54a7.7,7.7,0,0,1-6.88-4.21,7.5,7.5,0,0,1-.63-1.69,8,8,0,0,1-.22-1.83V131.45c0-.2,0-.4,0-.59a7.73,7.73,0,0,1,7.71-7.13H79a7.72,7.72,0,0,1,7.72,7.72v45.36A7.73,7.73,0,0,1,79,184.54Z"/><path class="cls-7" d="M79,124.73a6.73,6.73,0,0,1,6.72,6.72v45.36A6.75,6.75,0,0,1,79,183.54H77.13a6.77,6.77,0,0,1-6.54-5.13,6.94,6.94,0,0,1-.19-1.6V131.45c0-.18,0-.34,0-.51a7.08,7.08,0,0,1,.28-1.47,6.75,6.75,0,0,1,6.43-4.74H79m0-2H77.13a8.8,8.8,0,0,0-8.34,6.15,8.13,8.13,0,0,0-.36,1.91c0,.22,0,.43,0,.66v45.36a9,9,0,0,0,.25,2.07,8.9,8.9,0,0,0,.71,1.9,8.7,8.7,0,0,0,7.77,4.76H79a8.73,8.73,0,0,0,8.72-8.73V131.45A8.73,8.73,0,0,0,79,122.73Z"/></g><path class="cls-14" d="M158.59,176.31l-.08,0-1,.41-.25.09a5,5,0,0,1-4.57,3h-4.56a6.74,6.74,0,0,1-6,3.67h-1.82a6.75,6.75,0,0,1-6.72-6.73v-6.65a32.4,32.4,0,0,0,4.15.11c.78,0,1.59-.08,2.42-.18a27.47,27.47,0,0,0,5.64-1.25,26.3,26.3,0,0,0,3-1.27,22.22,22.22,0,0,0,2.12-1.18,25.08,25.08,0,0,0,4.43-3.55,27.43,27.43,0,0,0,2.26-2.58,30.61,30.61,0,0,0,1.79-2.61,32,32,0,0,0,1.94-3.6c.25-.53.49-1.07.72-1.63a41.42,41.42,0,0,0,2.73-15.24c.23-15.86-.85-31-10-50.78,8.54,10,16.94,25.94,17.48,39.95.05,1.17.11,3.63.11,4.79v12.61c.07,3.66.07,6.91.07,10.93A23.74,23.74,0,0,1,158.59,176.31Z"/><path class="cls-14" d="M85.67,137.12v39.69A6.75,6.75,0,0,1,79,183.54H77.13a6.74,6.74,0,0,1-6-3.67H66.58a5,5,0,0,1-4.58-3l-.25-.09-1-.43-.87-.42-.07,0h0a23.86,23.86,0,0,1-11.44-12.54,44.9,44.9,0,0,0,11.44-1c.62-.13,1.21-.28,1.8-.44.77-.21,1.52-.45,2.26-.71a31.13,31.13,0,0,0,4.42-1.91c.74-.38,1.44-.79,2.12-1.21a31.43,31.43,0,0,0,3-2.17,33.2,33.2,0,0,0,5.64-5.82,39.11,39.11,0,0,0,2.43-3.59A44.34,44.34,0,0,0,85.67,137.12Z"/><path class="cls-15" d="M136,74.21S63.92,51.07,47.9,135V130.9c0-1.2,0-2.39.05-3.6A61.52,61.52,0,0,1,136,74.21Z"/><line class="cls-16" x1="145.84" y1="157.1" x2="145.84" y2="157.85"/><line class="cls-16" x1="145.84" y1="147.37" x2="145.84" y2="152.4"/><line class="cls-16" x1="145.84" y1="131.13" x2="145.84" y2="143.06"/><line class="cls-16" x1="81.52" y1="157.1" x2="81.52" y2="157.85"/><line class="cls-16" x1="81.52" y1="147.37" x2="81.52" y2="152.4"/><line class="cls-16" x1="81.52" y1="131.13" x2="81.52" y2="143.06"/><path class="cls-17" d="M162.9,104q.38.75.72,1.53"/><path class="cls-17" d="M154.67,91.47a58.15,58.15,0,0,1,6.22,8.78"/><path class="cls-17" d="M135.26,76.56a58.91,58.91,0,0,1,16.28,11.53"/></g><text class="cls-18" transform="translate(106.68 76.3)">mid</text><line class="cls-19" x1="109.65" y1="78.02" x2="109.65" y2="81.49"/><text class="cls-18" transform="translate(51.49 131.82)">0</text><line class="cls-19" x1="56.96" y1="130.01" x2="61.6" y2="130.01"/><text class="cls-18" transform="translate(163.26 131.5)">goal</text><line class="cls-19" x1="157.7" y1="129.98" x2="162.34" y2="129.98"/><path class="cls-1" d="M38.54,94.56a.28.28,0,0,0-.26.1l-.07.07a2.41,2.41,0,0,0-.72,1.8.29.29,0,0,0,.12.23c.41.31,6.69,3.35,9.19,4.43.32.15,2,.92,2.53,1.12a.28.28,0,0,0,.13,0,.34.34,0,0,0,.17,0,3.37,3.37,0,0,0,.87-1.9.29.29,0,0,0-.13-.22C49.62,99.63,39.12,94.64,38.54,94.56Z"/><path class="cls-1" d="M40.53,90.83a.3.3,0,0,0-.27.08l-.07.07a2.43,2.43,0,0,0-.82,1.76.32.32,0,0,0,.11.24c.4.32,6.5,3.7,8.94,4.9.33.18,1.95,1,2.47,1.26a.23.23,0,0,0,.14,0,.47.47,0,0,0,.17,0,3.46,3.46,0,0,0,1-1.85.32.32,0,0,0-.11-.23C51.33,96.47,41.1,90.94,40.53,90.83Z"/><path class="cls-1" d="M55.22,90.05l.22-.09A2.86,2.86,0,0,0,57.2,86.9a5.92,5.92,0,0,0-.44-1.4,6.65,6.65,0,0,0-1.6-2,9.32,9.32,0,0,0-1.89-1.23,3.07,3.07,0,0,0-2.11-.34,2.12,2.12,0,0,0-1.34,1,3.51,3.51,0,0,0-.15,2.83c0,.19.15.47.26.77l-1.34-.78c-.11-.09-.34-.2-.64.09l-.59.77a.61.61,0,0,0-.17.44.51.51,0,0,0,.21.37s5.32,3.61,6.66,4.39c1.84,1.17,2.87,1.85,3.42,2.22a5.62,5.62,0,0,0,.6.38.31.31,0,0,0,.13,0,.23.23,0,0,0,.14,0,2,2,0,0,0,.9-1.31.28.28,0,0,0-.09-.3A41.53,41.53,0,0,0,55.22,90.05Zm-.34-2.45a1.93,1.93,0,0,1-1.35.85c-.65-.47-2.06-2.27-2-3.39a.77.77,0,0,1,.42-.69.86.86,0,0,1,.39-.09c.85,0,2,1.08,2.48,2h0A1.22,1.22,0,0,1,54.88,87.6Z"/><path class="cls-1" d="M51.65,74.83a.28.28,0,0,0-.28,0l-.11.07A2.71,2.71,0,0,0,50,76.57a.34.34,0,0,0,0,.26c.29.39,5.66,5.3,7.94,7.16l.7.6,1.49,1.27a.32.32,0,0,0,.21.08l.09,0a3.73,3.73,0,0,0,1.5-1.72.3.3,0,0,0,0-.24C61.13,83,52,75,51.65,74.83Z"/><path class="cls-1" d="M64.33,72.84c-.67-.81-1.25-1.51-1.33-1.62a.39.39,0,0,0-.19-.12c-.57-.1-1.48.91-1.56,1.2a.3.3,0,0,0,0,.21l.19.33h0a4.34,4.34,0,0,0-.78.06,3,3,0,0,0-2.59,2.68,6.68,6.68,0,0,0,.08,1.52,7,7,0,0,0,1.1,2.48,8.25,8.25,0,0,0,1.61,1.74,3.18,3.18,0,0,0,2,.91H63a2.22,2.22,0,0,0,1.61-.73,3.7,3.7,0,0,0,.88-2.83c0-.22,0-.57-.07-.92l.34.35c.34.36.67.7.94.93a.49.49,0,0,0,.45,0h0a4.59,4.59,0,0,0,1-.75.62.62,0,0,0,0-.77C67.64,76.83,65.73,74.52,64.33,72.84ZM62,74.62c.6.72,2,3.56,1.62,4.81a.62.62,0,0,1-.48.49c-1,.25-2.42-1.72-2.81-3.13a1.61,1.61,0,0,1,.34-1.63,1.85,1.85,0,0,1,1.23-.55Z"/><path class="cls-1" d="M73.17,74.09c-.3-1.25-2.43-6.73-2.92-7.91l0-.05a.41.41,0,0,0-.28-.19h-.11a3.94,3.94,0,0,0-1.58.65.27.27,0,0,0-.14.22.6.6,0,0,0,0,.23l.9,2.33s.31.7.69,1.68c-1.41-.67-4.56-2.14-4.83-2.14h0a.33.33,0,0,0-.23.12A2.24,2.24,0,0,0,64,70.49a.28.28,0,0,0,.1.24c.26.23,4.32,2.18,5.76,2.77l.53.23.32.14c.86,2.72.58,3.11.5,3.2s-.22.26-1.63-.28a.47.47,0,0,0-.28.07.22.22,0,0,0-.09.1,3,3,0,0,0,0,1.82l.07.12a.24.24,0,0,0,.09.08,3.9,3.9,0,0,0,2.76.29,2.4,2.4,0,0,0,1.47-1.62,4.3,4.3,0,0,0,0-2.1A10.28,10.28,0,0,0,73.17,74.09Z"/><path class="cls-1" d="M79.7,65.55a3.25,3.25,0,0,0-2.49-.06,5.89,5.89,0,0,0-1.3.75l-.11.08a1.35,1.35,0,0,1-.83.29.49.49,0,0,1-.31-.28,1.59,1.59,0,0,1-.1-1.21,1.74,1.74,0,0,1,1.19-.73l.29,0,.22,0,.61-.1a.59.59,0,0,0,.39-.39,1.91,1.91,0,0,0-.18-1.17.53.53,0,0,0-.32-.25,3.72,3.72,0,0,0-2.71.53,2.93,2.93,0,0,0-1.71,4A2.67,2.67,0,0,0,75,68.78a3.87,3.87,0,0,0,1.91-.8l.29-.19a2.91,2.91,0,0,1,.5-.29,1,1,0,0,1,.39-.11c.33,0,.53.1.62.25a1.89,1.89,0,0,1,0,2,.69.69,0,0,1-.5.34,2.43,2.43,0,0,1-2-.58.51.51,0,0,0-.65,0s-.77.59-.9,1a.54.54,0,0,0,0,.28,1.47,1.47,0,0,0,.39.45,4.72,4.72,0,0,0,2.7.92,2.69,2.69,0,0,0,.4,0,3.09,3.09,0,0,0,2.27-1.36A4.24,4.24,0,0,0,81,67.1,2.42,2.42,0,0,0,79.7,65.55Z"/><path class="cls-1" d="M90.43,57.73a4.57,4.57,0,0,0-5,1.06,5.15,5.15,0,0,0-.67,4.68,4.83,4.83,0,0,0,2.4,3.08h0a4.74,4.74,0,0,0,2.06.47,3.51,3.51,0,0,0,1.37-.25,3,3,0,0,0,1.63-1.65,6.6,6.6,0,0,0,.48-1.87C93,61.23,92.36,58.64,90.43,57.73Zm-.38,6.73a1.43,1.43,0,0,1-1.44.31,2.15,2.15,0,0,1-1.08-1.28c-.07-.21-.13-.42-.19-.62l-.09-.29A7.25,7.25,0,0,1,87,61.16a2,2,0,0,1,.22-1.06,1.62,1.62,0,0,1,.83-.57,2.25,2.25,0,0,1,.64-.09.9.9,0,0,1,.54.13,3.58,3.58,0,0,1,1.33,2.48h0A2.84,2.84,0,0,1,90.05,64.46Z"/><path class="cls-1" d="M96.49,53.13c.15-.11.4-.29,1.92.51a.36.36,0,0,0,.46,0,2.86,2.86,0,0,0,.4-2,.38.38,0,0,0-.14-.25A4.83,4.83,0,0,0,96,50.65a2.82,2.82,0,0,0-2.08,1.48,4.3,4.3,0,0,0-.45,2.31c0,.37.08.84.14,1.4-.27.08-.47.15-.59.2a.49.49,0,0,0-.16.43s.12,1.13.45,1.31a1.05,1.05,0,0,0,.6,0c.44,2.7,1.09,5.85,1.43,7.29a.39.39,0,0,0,.36.32h0a5.37,5.37,0,0,0,2-.49.41.41,0,0,0,.15-.41l-.56-2.65s-.5-2.66-.82-4.61L97.91,57l.26-.06.25-.06a2.73,2.73,0,0,0,.7-.21c.16-.12.21-.33.15-.7,0,0-.15-1-.62-1.19a20.28,20.28,0,0,0-2.42.45c0-.09,0-.19,0-.29C96.1,54.27,96,53.5,96.49,53.13Z"/><path class="cls-1" d="M112.49,49.47a7.69,7.69,0,0,0-2.28-.11h-1.56c-.93,0-2,0-2.68,0h-.17a3.89,3.89,0,0,0-.75.05c-.26.07-.31.4-.34.7,0,0-.13,1.63.35,1.86a5.75,5.75,0,0,0,1.39.05h.87c0,.11,0,.22,0,.32s0,.38,0,.65l.14,8c0,.17.06,2.3.16,2.79a.37.37,0,0,0,.12.24.47.47,0,0,0,.29.13c.21,0,.45,0,.69,0a4.72,4.72,0,0,0,1.64-.23.52.52,0,0,0,.25-.43c0-.41-.07-1.69-.17-3.3-.16-2.85-.41-7.07-.28-8.23l.68,0a12.34,12.34,0,0,0,1.51-.09.42.42,0,0,0,.27-.25,5.15,5.15,0,0,0-.1-2.13A.16.16,0,0,0,112.49,49.47Z"/><path class="cls-1" d="M119.18,55.4a3.37,3.37,0,0,0-2.69.84,1.11,1.11,0,0,1,0-.19c0-.17,0-.35.07-.67s.09-.89.15-1.42c.13-1.29.29-2.75.35-3.66a.28.28,0,0,0-.09-.23,2.53,2.53,0,0,0-1.94-.29.29.29,0,0,0-.17.19,9.63,9.63,0,0,0-.39,2.1l0,.18a70.87,70.87,0,0,0-.6,11.63.29.29,0,0,0,.13.19c.17.12,1.48.41,2,0a.32.32,0,0,0,.1-.17,20.31,20.31,0,0,0,.15-2.08c0-.87.1-1.87.15-2.13.71-1.45,1.55-2.08,2.64-2,.72.07.65,2.81.63,3.71v.39c0,.3,0,.77-.08,1.24s-.08,1-.09,1.29a.28.28,0,0,0,.15.26,2.93,2.93,0,0,0,1.22.21,2.67,2.67,0,0,0,.66-.07.3.3,0,0,0,.22-.27c0-.27,0-.58.06-.91.15-2.09.36-4.95-.26-6.23A3.3,3.3,0,0,0,119.18,55.4Z"/><path class="cls-1" d="M129.7,60.71a2.38,2.38,0,0,0,.28-3.16,3.57,3.57,0,0,0-3-1.29,3.9,3.9,0,0,0-3,2h0a7,7,0,0,0-.81,5.41,3.53,3.53,0,0,0,2.19,2.21,3.8,3.8,0,0,0,1.35.24,3.65,3.65,0,0,0,1.36-.25,13.76,13.76,0,0,0,2.2-1.19.3.3,0,0,0,.11-.23,1.88,1.88,0,0,0-.86-1.55.64.64,0,0,0-.69,0c-.23.15-.45.3-.65.45a9,9,0,0,1-1,.64,1.06,1.06,0,0,1-1.41-.4,1.67,1.67,0,0,1-.22-1.61A5.45,5.45,0,0,0,129.7,60.71Zm-1.2-2c.06.18.13.41-.45.85a3,3,0,0,1-1.87.4c.37-.88,1-1.69,1.76-1.71C128.1,58.25,128.42,58.47,128.5,58.74Z"/><path class="cls-1" d="M143.74,65.9a5.91,5.91,0,0,0,2.52-1.79,5.38,5.38,0,0,0,1.25-3,3.31,3.31,0,0,0-.23-1.56l-.09-.17a3.82,3.82,0,0,0-1-1.34,7,7,0,0,0-.7-.55,13.52,13.52,0,0,0-3.87-1.84l-.08,0c-.35-.1-1.16-.33-1.39.32-.38,1.16-.37,1.51-.31,1.7a.2.2,0,0,0,.05.09.59.59,0,0,0,.23.16s.06,0,0,.06a8.09,8.09,0,0,1-.58,1.65c-.07.15-.13.3-.2.46-.3.73-.59,1.46-.89,2.23-.18.48-.46,1.14-.76,1.87a33.59,33.59,0,0,0-1.83,5v0a.66.66,0,0,0,.28.56,11.85,11.85,0,0,0,1.93.88,8.11,8.11,0,0,0,2.41.59h.19a4.29,4.29,0,0,0,1.38-.22,3.91,3.91,0,0,0,2.55-3.06A2.15,2.15,0,0,0,143.74,65.9Zm-2.66.56c.27.06.92.27,1.1.72a.74.74,0,0,1-.07.6,2,2,0,0,1-.81.8,4,4,0,0,1-2.62,0c.2-.6.39-1,.62-1.57l.26-.61h.71A3.76,3.76,0,0,1,141.08,66.46Zm2-2.85a4.13,4.13,0,0,1-1.65.39h0c-.12,0-.72,0-1.1,0l.15-.36c.06-.15.12-.29.14-.35l1.62-4.21a2.75,2.75,0,0,1,.14-.3,4,4,0,0,1,2.15.84,1.84,1.84,0,0,1,.39,1.75A3.47,3.47,0,0,1,143.13,63.61Z"/><path class="cls-1" d="M150.74,73.33a.63.63,0,0,0-.64-.24l-.77.21a9.43,9.43,0,0,1-1.18.27,1.08,1.08,0,0,1-1.2-.85,1.69,1.69,0,0,1,.34-1.59,5.45,5.45,0,0,0,4.33.21,2.39,2.39,0,0,0,1.32-2.88,3.58,3.58,0,0,0-2.41-2.22,3.87,3.87,0,0,0-3.46.87h0a7,7,0,0,0-2.57,4.83,3.5,3.5,0,0,0,1.33,2.81,3.85,3.85,0,0,0,2.42.9h.13a13.2,13.2,0,0,0,2.48-.39.32.32,0,0,0,.18-.18A1.89,1.89,0,0,0,150.74,73.33Zm-2.2-3.84c.64-.71,1.54-1.25,2.23-1a.75.75,0,0,1,.37.62c0,.19,0,.43-.71.65A2.94,2.94,0,0,1,148.54,69.49Z"/><path class="cls-1" d="M162,76.32a.32.32,0,0,0,.1-.2c0-.58-1.09-1.36-1.38-1.4a.31.31,0,0,0-.21.06l-.31.23V75a4.25,4.25,0,0,0-.15-.76,3,3,0,0,0-3-2.23,6.48,6.48,0,0,0-1.5.27,7.07,7.07,0,0,0-2.32,1.39,8.45,8.45,0,0,0-1.53,1.82,3.22,3.22,0,0,0-.65,2.16,2.19,2.19,0,0,0,.93,1.56,3.68,3.68,0,0,0,2.91.52c.23,0,.56-.1.91-.18l-.31.38a12.3,12.3,0,0,0-.8,1,.51.51,0,0,0,0,.45h0a4.53,4.53,0,0,0,.86.9.7.7,0,0,0,.37.11.61.61,0,0,0,.41-.16c.67-.62,2.72-2.81,4.22-4.41Zm-3.49-.57c-.65.69-3.3,2.42-4.58,2.22a.66.66,0,0,1-.55-.42c-.37-1,1.41-2.62,2.76-3.18a2,2,0,0,1,.76-.17,1.53,1.53,0,0,1,.9.3A1.85,1.85,0,0,1,158.54,75.75Z"/><path class="cls-1" d="M165.85,82.43l1,1a.18.18,0,0,0,.09.06c.35.14,1.31-.82,1.43-1a.29.29,0,0,0,0-.27,10.74,10.74,0,0,0-1.19-1.44c3-2.79,3-3,3.06-3a.31.31,0,0,0,0-.25l-.06-.11a2.71,2.71,0,0,0-1.51-1.46.29.29,0,0,0-.27,0c-.23.14-1.78,1.54-3.13,2.76-1.44-1.5-1.55-1.53-1.63-1.55a.31.31,0,0,0-.21,0,2.74,2.74,0,0,0-1.15,1.07.32.32,0,0,0,0,.3c.08.14.92,1.09,1.39,1.62-1.29,1.19-2.46,2.32-3.15,3h0l-.67.65-1.45,1.41a.37.37,0,0,0,0,.29,3.87,3.87,0,0,0,1.55,1.61l.1,0a.37.37,0,0,0,.15,0c.64-.38,3.88-3.38,5.46-4.86Z"/><path class="cls-1" d="M174.66,83l0-.12a2.72,2.72,0,0,0-1.38-1.59.3.3,0,0,0-.26,0c-.44.21-6.25,4.58-8.51,6.47l-.72.58c-.56.44-1.25,1-1.52,1.23a.32.32,0,0,0-.12.28,3.85,3.85,0,0,0,1.41,1.79.28.28,0,0,0,.13,0l.13,0c1.13-.55,10.63-8,10.86-8.36A.31.31,0,0,0,174.66,83Z"/><path class="cls-1" d="M170.29,98.08a.3.3,0,0,0,.21-.08,1.91,1.91,0,0,0,.48-1.71.62.62,0,0,0-.48-.49l-.78-.15a7.91,7.91,0,0,1-1.18-.25,1.07,1.07,0,0,1-.72-1.28,1.69,1.69,0,0,1,1-1.3,5.47,5.47,0,0,0,3.79,2h0a2.38,2.38,0,0,0,2.42-2,3.53,3.53,0,0,0-1.23-3,3.83,3.83,0,0,0-3.5-.69h0a6.92,6.92,0,0,0-4.38,3.27,3.54,3.54,0,0,0,0,3.11,3.88,3.88,0,0,0,1.93,1.9,13.88,13.88,0,0,0,2.4.7Zm.34-6.21a2.43,2.43,0,0,1,2.45,0,.74.74,0,0,1,.08.72c-.09.17-.21.38-.92.28A2.88,2.88,0,0,1,170.63,91.87Z"/><path class="cls-1" d="M178.83,98.79a2.95,2.95,0,0,0-3.91-2,2.68,2.68,0,0,0-2,2.49,3.89,3.89,0,0,0,.67,2l.17.29a2.87,2.87,0,0,1,.26.53,1.12,1.12,0,0,1,.09.39c-.05.33-.14.53-.3.61a1.92,1.92,0,0,1-1.95-.08.71.71,0,0,1-.31-.52,2.43,2.43,0,0,1,.71-1.93.5.5,0,0,0,.06-.64s-.54-.82-.93-1a.45.45,0,0,0-.28,0,1.41,1.41,0,0,0-.47.36,4.52,4.52,0,0,0-1.1,3,3.14,3.14,0,0,0,1.21,2.35,4.16,4.16,0,0,0,2.54.83,4.05,4.05,0,0,0,.92-.1,2.45,2.45,0,0,0,1.62-1.2,3.27,3.27,0,0,0,.23-2.48,6,6,0,0,0-.66-1.34l-.08-.12a1.34,1.34,0,0,1-.23-.85.49.49,0,0,1,.3-.3,1.62,1.62,0,0,1,1.21,0,1.74,1.74,0,0,1,.65,1.23,2.66,2.66,0,0,1,0,.3c0,.07,0,.15,0,.22,0,.24,0,.45.07.61a.56.56,0,0,0,.35.41,1.84,1.84,0,0,0,1.19-.1.53.53,0,0,0,.27-.3h0A3.76,3.76,0,0,0,178.83,98.79Z"/><rect class="cls-20" x="48.94" y="19.71" width="121.53" height="52.37"/></g></g></svg>