<svg xmlns="http://www.w3.org/2000/svg" xmlns:xlink="http://www.w3.org/1999/xlink" viewBox="0 0 216 216"><defs><style>.cls-1,.cls-11,.cls-12,.cls-13{fill:none;}.cls-2{fill:#fff;}.cls-14,.cls-3{fill:#0a0a0a;}.cls-4{clip-path:url(#clip-path);}.cls-5{fill:silver;}.cls-6{fill:#a3a3a3;}.cls-7{fill:#80d8ff;}.cls-8{fill:#6ab3d4;}.cls-9{fill:#a3e3ff;}.cls-10{fill:#bdebff;}.cls-11{stroke:#fff;stroke-width:2.5px;}.cls-11,.cls-13{stroke-linecap:round;stroke-linejoin:round;}.cls-12{stroke:#ee344c;stroke-miterlimit:10;}.cls-13{stroke:#0a0a0a;stroke-width:1.5px;}.cls-14{font-size:8.15px;font-family:MyDearWatson-Regular, My Dear Watson;}</style><clipPath id="clip-path"><rect id="fill-mask" class="cls-1" x="42.29" y="177.07" width="72.22" height="138.15"/></clipPath></defs><g id="cutlines"><path class="cls-2" d="M37.36,93.65A44.37,44.37,0,0,0,49.27,108v46.47a10.84,10.84,0,0,0,2.16,6.5v.54a10.87,10.87,0,0,0,2.27,6.69v5.72a13.19,13.19,0,0,0,20.51,11,9.86,9.86,0,0,0,4,1.24c.26,0,.53,0,.79,0a9.18,9.18,0,0,0,7.29-3.54,11.07,11.07,0,0,0,1.23-2,12.19,12.19,0,0,0,1.18-4.53,11.52,11.52,0,0,0-.76-5.35l0-.07a10,10,0,0,0-1.41-2.35l0-.05a9.65,9.65,0,0,0-4.69-3.11,11,11,0,0,0,.64-3.68v-.53a10.94,10.94,0,0,0,2.16-6.51V123.2h.09a7.09,7.09,0,0,0,.79,0,9.18,9.18,0,0,0,7.29-3.54,11.12,11.12,0,0,0,1.24-2,12.32,12.32,0,0,0,1.17-4.53v0a65.74,65.74,0,0,0,23.38-16.9l.07-.08.1-.11c.44-.51.9-1.06,1.46-1.76l2.55-3.18A8,8,0,0,0,124.44,86a9.82,9.82,0,0,0,.07-1.21V61.51a11.26,11.26,0,0,0-.17-1.93,8,8,0,0,0-1.8-4.68l-2.49-3c-.42-.52-.79-1-1.14-1.36l-.21-.26h0c-.08-.09-.16-.19-.25-.28-11-12.57-27.83-21-41.91-21h-.66A44.23,44.23,0,0,0,35.4,89.42,45.36,45.36,0,0,0,37.36,93.65Z"/></g><g id="sticker"><path class="cls-2" d="M66.9,178.07a4.21,4.21,0,0,1-4.21-4.2v-11a4.21,4.21,0,1,1,8.42,0v11A4.2,4.2,0,0,1,66.9,178.07Z"/><path class="cls-3" d="M66.9,159.7a3.21,3.21,0,0,1,3.21,3.21v11a3.21,3.21,0,0,1-6.42,0v-11a3.21,3.21,0,0,1,3.21-3.21m0-2a5.22,5.22,0,0,0-5.21,5.21v11a5.21,5.21,0,0,0,10.42,0v-11a5.21,5.21,0,0,0-5.21-5.21Z"/><path class="cls-2" d="M62.35,163.38a1.92,1.92,0,0,1-1.92-1.92V151.3a1.93,1.93,0,0,1,1.92-1.92h9.13a1.92,1.92,0,0,1,1.91,1.92v10.16a1.92,1.92,0,0,1-1.91,1.92Z"/><path class="cls-3" d="M71.48,150.38a.92.92,0,0,1,.91.92v10.16a.92.92,0,0,1-.91.92H62.35a.92.92,0,0,1-.92-.92V151.3a.92.92,0,0,1,.92-.92h9.13m0-2H62.35a2.92,2.92,0,0,0-2.92,2.92v10.16a2.92,2.92,0,0,0,2.92,2.92h9.13a2.92,2.92,0,0,0,2.91-2.92V151.3a2.92,2.92,0,0,0-2.91-2.92Z"/><path class="cls-2" d="M60.19,156.34a1.92,1.92,0,0,1-1.92-1.92V99.26a1.92,1.92,0,0,1,1.92-1.91H73.64a1.92,1.92,0,0,1,1.91,1.91v55.16a1.92,1.92,0,0,1-1.91,1.92Z"/><path class="cls-3" d="M73.64,98.35a.91.91,0,0,1,.91.91v55.16a.92.92,0,0,1-.91.92H60.19a.92.92,0,0,1-.92-.92V99.26a.92.92,0,0,1,.92-.91H73.64m0-2H60.19a2.92,2.92,0,0,0-2.92,2.91v55.16a2.92,2.92,0,0,0,2.92,2.92H73.64a2.92,2.92,0,0,0,2.91-2.92V99.26a2.92,2.92,0,0,0-2.91-2.91Z"/><path class="cls-2" d="M110.08,90.89a5.4,5.4,0,0,1-5.4-4.9,1.92,1.92,0,0,1,1.91-2.1,1.11,1.11,0,0,0,.46-.11,1.07,1.07,0,0,0,.58-.94V63.44a1,1,0,0,0-.58-.93.9.9,0,0,0-.46-.12,1.9,1.9,0,0,1-1.9-2.12,5.39,5.39,0,0,1,5.39-4.89l.43,0a2,2,0,0,1,1.35.67c.41.49.82,1,1.22,1.48.75.94,1.45,1.91,2.11,2.88a2,2,0,0,1,.32,1.08V84.78a1.89,1.89,0,0,1-.32,1.06c-.6.91-1.28,1.84-2.07,2.85-.41.51-.83,1-1.28,1.54a1.91,1.91,0,0,1-1.28.64A3.33,3.33,0,0,1,110.08,90.89Z"/><path class="cls-3" d="M110.08,56.38l.4,0a.88.88,0,0,1,.61.32c.41.48.82,1,1.21,1.46.74.93,1.43,1.88,2.06,2.81a1,1,0,0,1,.15.52V84.78a.89.89,0,0,1-.15.5c-.62.94-1.3,1.86-2,2.79-.39.5-.81,1-1.24,1.5a.89.89,0,0,1-.61.3,2.68,2.68,0,0,1-.4,0,4.4,4.4,0,0,1-4.4-4,.91.91,0,0,1,.23-.7,1,1,0,0,1,.68-.3,2,2,0,0,0,.9-.22,2,2,0,0,0,1.14-1.83V63.44a2.06,2.06,0,0,0-1.14-1.83,2,2,0,0,0-.9-.22.92.92,0,0,1-.68-.3.93.93,0,0,1-.23-.71,4.41,4.41,0,0,1,4.4-4m0-2a6.39,6.39,0,0,0-6.39,5.81,2.93,2.93,0,0,0,.69,2.2l0,0,0,0a3,3,0,0,0,2.14.92l0,0v19.4a0,0,0,0,1,0,0,3,3,0,0,0-2.15.94v0l0,0a2.89,2.89,0,0,0-.73,2.26,6.39,6.39,0,0,0,6.39,5.77,5.34,5.34,0,0,0,.64,0,2.91,2.91,0,0,0,1.86-1c.44-.5.89-1,1.33-1.6.8-1,1.49-2,2.12-2.91a2.93,2.93,0,0,0,.48-1.61V61.51a2.93,2.93,0,0,0-.45-1.58l0,0,0,0c-.67-1-1.39-2-2.15-2.94-.41-.52-.83-1-1.26-1.52a2.86,2.86,0,0,0-2-1l-.56,0Z"/><path class="cls-2" d="M108.15,87.36A1.55,1.55,0,0,1,106.6,86a3.85,3.85,0,0,1,0-.48V60.81a3.93,3.93,0,0,1,0-.49,1.55,1.55,0,0,1,1.55-1.4,4.53,4.53,0,0,1,4.51,4.52v19.4a4.53,4.53,0,0,1-4.5,4.52h0Z"/><path class="cls-3" d="M108.15,59.55A3.91,3.91,0,0,1,112,63.44v19.4a3.89,3.89,0,0,1-3.87,3.88h0a.91.91,0,0,1-.91-.83,3,3,0,0,1,0-.42V60.81a3,3,0,0,1,0-.43.91.91,0,0,1,.91-.83h0m0-1.27h0a2.19,2.19,0,0,0-2.19,2c0,.18,0,.36,0,.55V85.47c0,.18,0,.36,0,.54a2.19,2.19,0,0,0,2.19,2,5.18,5.18,0,0,0,5.15-5.16V63.44a5.17,5.17,0,0,0-5.14-5.16Z"/><path class="cls-2" d="M76.51,108.35A35.13,35.13,0,0,1,45.33,89.48a35.89,35.89,0,0,1-1.56-3.39,34.88,34.88,0,0,1-2.48-13A35.26,35.26,0,0,1,76.51,37.92c11.55,0,26.07,7.46,35.33,18.15.43.48.83,1,1.24,1.47l1.24,1.52-2,.11c-.58,0-1.24.06-2,.06h-.26a1.59,1.59,0,0,0-1.39.77,1.53,1.53,0,0,0-.24.82V85.47a1.59,1.59,0,0,0,1.59,1.59h.23l2,0,2,0-1.28,1.59c-.41.51-.82,1-1.28,1.53C102.58,100.9,88.06,108.35,76.51,108.35Z"/><path class="cls-3" d="M76.51,38.92c11.27,0,25.49,7.32,34.57,17.8.42.48.82,1,1.22,1.45-.56,0-1.2.06-1.92.06h-.3a2.58,2.58,0,0,0-2.22,1.27,2.51,2.51,0,0,0-.37,1.33V85.47a2.59,2.59,0,0,0,2.59,2.59h.3l2,0c-.4.5-.81,1-1.25,1.5C102,100,87.78,107.35,76.51,107.35A34.22,34.22,0,0,1,46.21,89a35,35,0,0,1-1.52-3.29,34.21,34.21,0,0,1,31.82-46.8m0-2A36.26,36.26,0,0,0,40.29,73.14a36.25,36.25,0,0,0,36.22,36.21c11.82,0,26.65-7.59,36.09-18.47.39-.44.79-.93,1.3-1.56l2.54-3.18-4.07-.07-2,0h-.3a.59.59,0,0,1-.59-.59V60.81a.51.51,0,0,1,.08-.28.59.59,0,0,1,.51-.32,1.51,1.51,0,0,0,.3,0c.76,0,1.42,0,2-.06l3.93-.21-2.49-3.05c-.47-.59-.88-1.06-1.26-1.5-9.43-10.88-24.26-18.49-36.08-18.49Z"/><path class="cls-2" d="M56.76,77.85a5.48,5.48,0,0,1,0-10.95h13a5.48,5.48,0,0,1,0,10.95Z"/><path class="cls-3" d="M69.72,67.54a4.84,4.84,0,0,1,0,9.67h-13a4.84,4.84,0,0,1,0-9.67h13m0-1.28h-13a6.11,6.11,0,0,0,0,12.22h13a6.11,6.11,0,0,0,0-12.22Z"/><g class="cls-4"><path class="cls-5" d="M66.91,178.07a4.2,4.2,0,0,1-4.21-4.2v-11a4.21,4.21,0,0,1,8.42,0v11A4.21,4.21,0,0,1,66.91,178.07Z"/><path class="cls-3" d="M66.91,159.7a3.21,3.21,0,0,1,3.21,3.21v11a3.21,3.21,0,0,1-6.42,0v-11a3.21,3.21,0,0,1,3.21-3.21m0-2a5.21,5.21,0,0,0-5.21,5.21v11a5.21,5.21,0,0,0,10.42,0v-11a5.22,5.22,0,0,0-5.21-5.21Z"/><path class="cls-6" d="M70.12,162.91v3.14H63.7v-3.14a3.21,3.21,0,0,1,6.42,0Z"/><path class="cls-7" d="M62.35,163.38a1.92,1.92,0,0,1-1.92-1.92V151.3a1.92,1.92,0,0,1,1.92-1.92h9.13a1.92,1.92,0,0,1,1.91,1.92v10.16a1.92,1.92,0,0,1-1.91,1.92Z"/><path class="cls-3" d="M71.48,150.38a.92.92,0,0,1,.91.92v10.16a.92.92,0,0,1-.91.92H62.35a.92.92,0,0,1-.92-.92V151.3a.92.92,0,0,1,.92-.92h9.13m0-2H62.35a2.92,2.92,0,0,0-2.92,2.92v10.16a2.92,2.92,0,0,0,2.92,2.92h9.13a2.92,2.92,0,0,0,2.91-2.92V151.3a2.92,2.92,0,0,0-2.91-2.92Z"/><path class="cls-8" d="M72.39,151.3v8h-11v-8a.92.92,0,0,1,.92-.92h9.13A.92.92,0,0,1,72.39,151.3Z"/><path class="cls-7" d="M60.19,156.34a1.92,1.92,0,0,1-1.92-1.92V99.26a1.92,1.92,0,0,1,1.92-1.91H73.64a1.92,1.92,0,0,1,1.91,1.91v55.16a1.92,1.92,0,0,1-1.91,1.92Z"/><path class="cls-3" d="M73.64,98.35a.91.91,0,0,1,.91.91v55.16a.92.92,0,0,1-.91.92H60.19a.92.92,0,0,1-.92-.92V99.26a.92.92,0,0,1,.92-.91H73.64m0-2H60.19a2.92,2.92,0,0,0-2.92,2.91v55.16a2.92,2.92,0,0,0,2.92,2.92H73.64a2.92,2.92,0,0,0,2.91-2.92V99.26a2.92,2.92,0,0,0-2.91-2.91Z"/><path class="cls-8" d="M74.55,104.37V114a33.63,33.63,0,0,1-15.28-4.64v-8.09C64.59,101.72,69.7,105.15,74.55,104.37Z"/><path class="cls-8" d="M110.08,90.89a5.4,5.4,0,0,1-5.4-4.9,1.9,1.9,0,0,1,.48-1.46,2,2,0,0,1,1.43-.64,1.11,1.11,0,0,0,.46-.11,1.07,1.07,0,0,0,.58-.94V63.44a1,1,0,0,0-.58-.93.9.9,0,0,0-.46-.12,1.93,1.93,0,0,1-1.41-.61,2,2,0,0,1-.49-1.51,5.39,5.39,0,0,1,5.39-4.89l.43,0a2,2,0,0,1,1.35.68c.41.48.82,1,1.22,1.47.75,1,1.46,1.92,2.11,2.89a1.91,1.91,0,0,1,.32,1.07V84.78a1.89,1.89,0,0,1-.32,1.06c-.61.92-1.29,1.85-2.07,2.85-.41.52-.83,1-1.28,1.54a1.91,1.91,0,0,1-1.28.64A3.33,3.33,0,0,1,110.08,90.89Z"/><path class="cls-3" d="M110.08,56.38l.4,0a.9.9,0,0,1,.61.32c.41.48.82,1,1.21,1.46.74.93,1.43,1.88,2.06,2.81a1,1,0,0,1,.15.52V84.78a.87.87,0,0,1-.15.5c-.62.94-1.3,1.87-2,2.79-.39.5-.81,1-1.24,1.5a.87.87,0,0,1-.61.3,2.68,2.68,0,0,1-.4,0,4.4,4.4,0,0,1-4.4-4,.91.91,0,0,1,.23-.7,1,1,0,0,1,.68-.3,2,2,0,0,0,.9-.22,2,2,0,0,0,1.14-1.83V63.44a2,2,0,0,0-1.14-1.82,1.85,1.85,0,0,0-.9-.23.91.91,0,0,1-.91-1,4.41,4.41,0,0,1,4.4-4m0-2a6.39,6.39,0,0,0-6.39,5.81,2.92,2.92,0,0,0,.69,2.2l0,0,0,0a3,3,0,0,0,2.14.92l0,0v19.4a0,0,0,0,1,0,0,3,3,0,0,0-2.15.94v0l0,0a2.89,2.89,0,0,0-.73,2.26,6.38,6.38,0,0,0,6.39,5.77,5.34,5.34,0,0,0,.64,0,2.91,2.91,0,0,0,1.86-1c.44-.5.89-1,1.32-1.59.81-1,1.5-2,2.13-2.92a2.93,2.93,0,0,0,.48-1.61V61.51a2.93,2.93,0,0,0-.45-1.58l0,0,0,0c-.67-1-1.39-2-2.15-2.94-.42-.52-.83-1-1.26-1.52a2.86,2.86,0,0,0-2-1l-.56,0Z"/><path class="cls-5" d="M108.15,87.36A1.55,1.55,0,0,1,106.6,86c0-.16,0-.32,0-.49V60.81c0-.16,0-.33,0-.49a1.55,1.55,0,0,1,1.55-1.4,4.53,4.53,0,0,1,4.51,4.52v19.4a4.53,4.53,0,0,1-4.5,4.52h0Z"/><path class="cls-3" d="M108.16,59.56A3.89,3.89,0,0,1,112,63.44v19.4a3.89,3.89,0,0,1-3.86,3.88h0a.9.9,0,0,1-.91-.82,3,3,0,0,1,0-.43V60.81a3,3,0,0,1,0-.42.91.91,0,0,1,.91-.83h0m0-1.28h0a2.18,2.18,0,0,0-2.18,2,5.21,5.21,0,0,0,0,.55V85.47c0,.19,0,.37,0,.54a2.19,2.19,0,0,0,2.19,2,5.18,5.18,0,0,0,5.15-5.16V63.44a5.18,5.18,0,0,0-5.14-5.16Z"/><path class="cls-9" d="M76.52,108.35A35.14,35.14,0,0,1,45.33,89.48a33.72,33.72,0,0,1-1.56-3.39,34.87,34.87,0,0,1-2.47-13A35.26,35.26,0,0,1,76.52,37.92c11.54,0,26.06,7.46,35.32,18.15.43.48.83,1,1.24,1.47l1.25,1.53-2,.1c-.58,0-1.23.06-2,.06h-.29a1.58,1.58,0,0,0-1.37.77,1.52,1.52,0,0,0-.23.82V85.47a1.59,1.59,0,0,0,1.59,1.59h.23l2,0,2,0-1.27,1.59c-.41.51-.83,1-1.28,1.53C102.59,100.9,88.06,108.35,76.52,108.35Z"/><path class="cls-3" d="M76.52,38.92c11.27,0,25.49,7.32,34.57,17.8.42.48.82,1,1.22,1.45-.56,0-1.2.06-1.92.06h-.3a2.58,2.58,0,0,0-2.22,1.27,2.51,2.51,0,0,0-.37,1.33V85.47a2.59,2.59,0,0,0,2.59,2.59h.3l2,0c-.4.5-.81,1-1.25,1.5C102,100,87.79,107.35,76.52,107.35A34.22,34.22,0,0,1,46.22,89a35,35,0,0,1-1.52-3.29,34.21,34.21,0,0,1,31.82-46.8m0-2A36.26,36.26,0,0,0,40.3,73.14a35.8,35.8,0,0,0,2.54,13.32,38,38,0,0,0,1.6,3.48,36.16,36.16,0,0,0,32.08,19.41c11.81,0,26.65-7.59,36.08-18.47.39-.44.79-.93,1.3-1.56l2.54-3.18-4.07-.07-2,0h-.3a.58.58,0,0,1-.59-.59V60.81a.51.51,0,0,1,.07-.28.59.59,0,0,1,.51-.32,1.56,1.56,0,0,0,.31,0c.75,0,1.41,0,2-.06l3.94-.21-2.5-3.05c-.47-.59-.87-1.06-1.26-1.5-9.43-10.88-24.26-18.49-36.07-18.49Z"/><path class="cls-7" d="M110.32,88.05h-.23a2.59,2.59,0,0,1-2.59-2.59V83.23C94.3,92.86,74.89,102,52.2,97.16a34.09,34.09,0,0,0,24.32,10.19c11.27,0,25.49-7.31,34.57-17.78.44-.5.85-1,1.25-1.5l-2,0Z"/><path class="cls-10" d="M112.31,58.17c-.56,0-1.2.06-1.92.06h-.3a2.58,2.58,0,0,0-2.22,1.27c-4.19-1.12-53-13.23-63.17,26.24a34.21,34.21,0,0,1,31.82-46.8c11.27,0,25.49,7.32,34.57,17.8C111.51,57.2,111.91,57.68,112.31,58.17Z"/><path class="cls-5" d="M56.76,77.85a5.47,5.47,0,1,1,0-10.94h13a5.47,5.47,0,0,1,0,10.94Z"/><path class="cls-3" d="M69.72,67.54a4.84,4.84,0,0,1,0,9.67h-13a4.84,4.84,0,1,1,0-9.67h13m0-1.27h-13a6.11,6.11,0,0,0,0,12.22h13a6.11,6.11,0,0,0,0-12.22Z"/><path class="cls-11" d="M67.19,43.65a29.13,29.13,0,0,1,18-.09"/><path class="cls-11" d="M55.84,50.31A30.53,30.53,0,0,1,62,45.9"/><path class="cls-11" d="M51.6,55.1c.35-.48.71-1,1.09-1.42"/><line class="cls-11" x1="70.93" y1="144.3" x2="70.93" y2="146.3"/><line class="cls-11" x1="70.93" y1="128.39" x2="70.93" y2="138.38"/></g><path class="cls-1" d="M56.68,86.33l0,0h.07a1.51,1.51,0,0,0,.25-.13,2.1,2.1,0,0,0,.74-.74l0,0,0,0c-.37-.65-5.45-6.58-5.64-6.71l0,0-.12,0a1.57,1.57,0,0,0-.9.85l0,.05,0,0c.14.27,3.1,3.85,4.37,5.26C55.61,85.12,56.42,86.05,56.68,86.33Z"/><path class="cls-1" d="M58.61,84.72l0,0h.07a.71.71,0,0,0,.24-.13,1.92,1.92,0,0,0,.74-.73l0-.05,0,0c-.37-.64-5.45-6.58-5.64-6.7l0,0-.13.06A1.52,1.52,0,0,0,53,78l0,0,0,0c.14.26,3.1,3.85,4.37,5.25C57.54,83.51,58.35,84.45,58.61,84.72Z"/><path class="cls-1" d="M64.7,82.93l0,0,0,0a1,1,0,0,0,.24-.11,1.36,1.36,0,0,0,.49-.57l0-.06,0-.06a32,32,0,0,0-2.29-2.52,1.63,1.63,0,0,0,.33,0,1.8,1.8,0,0,0,1.54-1.65A3.6,3.6,0,0,0,65,77a4.38,4.38,0,0,0-.73-1.52,5.87,5.87,0,0,0-1-1.08A2,2,0,0,0,62,73.85a1.31,1.31,0,0,0-1,.45,2.34,2.34,0,0,0-.51,1.76c0,.18,0,.49.09.78-.34-.31-.74-.69-.94-.89a.21.21,0,0,0-.31,0l-.51.42a.3.3,0,0,0-.14.2.22.22,0,0,0,.06.2s2.94,3.17,3.69,3.87c1,1,1.6,1.65,1.91,2A4.37,4.37,0,0,0,64.7,82.93Zm-.9-5.76h0a.93.93,0,0,1-.16.94,1.37,1.37,0,0,1-1.12.37,3.91,3.91,0,0,1-.85-2.63.58.58,0,0,1,.44-.45C62.82,75.21,63.56,76.32,63.8,77.17Z"/><path class="cls-1" d="M62.58,69.41l-.06,0-.08,0a1.83,1.83,0,0,0-1,.94l0,0,0,.05c.15.28,3.3,4,4.65,5.45l.43.47.87,1,0,0h.07a1,1,0,0,0,.22-.12,2.56,2.56,0,0,0,.86-.84l0,0,0-.05c-.41-.73-5.76-6.8-6-6.94Z"/><path class="cls-1" d="M69.69,75.06a1.37,1.37,0,0,0,.81-.21,1.71,1.71,0,0,0,.26-.21,2.41,2.41,0,0,0,.63-1.82c0-.2,0-.54,0-.86.13.13.26.28.39.43a7.73,7.73,0,0,0,.59.63.29.29,0,0,0,.22,0h0a2.7,2.7,0,0,0,.66-.46.33.33,0,0,0,.05-.41c-.34-.51-1.58-2.11-2.48-3.27l-.85-1.11,0,0h0c-.31-.07-.92.53-1,.71v.07a3.54,3.54,0,0,0,.19.33v0H68.9a2.6,2.6,0,0,0-.5,0,1.94,1.94,0,0,0-1.73,1.67,4,4,0,0,0,0,1,4.45,4.45,0,0,0,.67,1.67,5.7,5.7,0,0,0,1,1.19A2.09,2.09,0,0,0,69.69,75.06ZM68,71.45a1.16,1.16,0,0,1,.29-1.17,1.66,1.66,0,0,1,.21-.16,1.17,1.17,0,0,1,.81-.19c.4.48,1.3,2.49,1,3.38a.49.49,0,0,1-.4.37C69.16,73.84,68.23,72.44,68,71.45Z"/><path class="cls-1" d="M77.12,71.7A2.93,2.93,0,0,0,77,70.33a6.62,6.62,0,0,0-.36-.94c-.26-.77-2-4.23-2.43-5.11h0a.18.18,0,0,0-.15-.07h0a2.83,2.83,0,0,0-1,.52.15.15,0,0,0,0,.2l.74,1.5s.3.55.67,1.28c-1.05-.38-3.39-1.22-3.54-1.2h-.06l0,0a1.48,1.48,0,0,0-.31,1v0l0,0c.17.11,3,1.16,4,1.49l.35.12.26.09c.73,1.71.64,2.1.56,2.2l0,0c-.06.09-.17.24-1.19,0a.13.13,0,0,0-.12,0l0,0a1.93,1.93,0,0,0,.12,1.15h0l0,0,0,0a2.63,2.63,0,0,0,1.79,0l.16-.09A1.57,1.57,0,0,0,77.12,71.7Z"/><path class="cls-1" d="M77.39,65.52a2.36,2.36,0,0,0,1.1-.76l.19-.2a1.55,1.55,0,0,1,.28-.24.83.83,0,0,1,.27-.15c.26,0,.43,0,.53.11a1.37,1.37,0,0,1,.33,1.36.56.56,0,0,1-.34.35,1.71,1.71,0,0,1-1.45-.1.26.26,0,0,0-.32,0s-.41.49-.43.69v.09l0,.06a1.05,1.05,0,0,0,.28.22,3,3,0,0,0,2.11.15,2.52,2.52,0,0,0,.47-.22,2,2,0,0,0,.77-.94,2.78,2.78,0,0,0-.15-2.3,1.58,1.58,0,0,0-1-.79,2.11,2.11,0,0,0-1.57.3h0a3.87,3.87,0,0,0-.72.66l-.07.07a1,1,0,0,1-.56.34.43.43,0,0,1-.32-.17,1.18,1.18,0,0,1-.25-.86c.06-.27.31-.51.72-.71l.2-.07.14-.05.37-.15a.27.27,0,0,0,.15-.24,1.14,1.14,0,0,0-.26-.68.22.22,0,0,0-.18-.09h0a2.41,2.41,0,0,0-1.64.71,1.9,1.9,0,0,0-.53,2.78A1.68,1.68,0,0,0,77.39,65.52Z"/><path class="cls-1" d="M84.85,55.65a2.75,2.75,0,0,0-1.53.45h0a2.74,2.74,0,0,0-1.19,1.43,3.42,3.42,0,0,0,.78,3,3.16,3.16,0,0,0,2.23,1.25h0a3,3,0,0,0,1.76-.44,2,2,0,0,0,.36-.29,1.94,1.94,0,0,0,.56-1.38,4.58,4.58,0,0,0-.19-1.26C87.26,57.13,86.24,55.72,84.85,55.65ZM84.49,60a4.38,4.38,0,0,1-.29-.34l-.13-.16a4.29,4.29,0,0,1-.51-.84,1.4,1.4,0,0,1-.15-.77,1.15,1.15,0,0,1,.4-.61l.16-.12a1,1,0,0,1,.65-.19,2.5,2.5,0,0,1,1.53,1.24h0a1.86,1.86,0,0,1,.29,1.71,1,1,0,0,1-.89.62A1.48,1.48,0,0,1,84.49,60Z"/><path class="cls-1" d="M86.7,54.7c1.15,1.44,2.61,3.11,3.29,3.85a.18.18,0,0,0,.22.05h0a3.61,3.61,0,0,0,1-.92.18.18,0,0,0,0-.2L90,56.1s-1.22-1.45-2-2.49c.26-.23.51-.47.78-.73l.1-.09.13-.11a2,2,0,0,0,.32-.33c0-.09,0-.2-.13-.37,0,0-.4-.51-.66-.47s-.91.76-1.31,1.12h0L87,52.39c-.27-.35-.61-.79-.44-1.18l0,0c.07-.14.17-.35,1.38-.39,0,0,.12,0,.16-.11a1.79,1.79,0,0,0-.4-1.21.19.19,0,0,0-.11-.07,3.19,3.19,0,0,0-2,.61,1.81,1.81,0,0,0-.69,1.48,2.84,2.84,0,0,0,.48,1.46l.59.82a4.58,4.58,0,0,0-.31.35.2.2,0,0,0,0,.21c.08.12.46.58.62.58A.74.74,0,0,0,86.7,54.7Z"/><path class="cls-1" d="M58.52,88.64a6,6,0,0,0-1.2.89l-.1.08-.72.58c-.48.39-1,.84-1.39,1.15l-.08.07a3.73,3.73,0,0,0-.36.32c-.06.09,0,.2.12.42,0,0,.61.85.86.78a3.29,3.29,0,0,0,.73-.54c.17-.14.35-.29.52-.41l.2.22.29.33,3.44,4.11c.13.16,1,1.19,1.26,1.38a.18.18,0,0,0,.24,0h0A4,4,0,0,0,63.45,97a.25.25,0,0,0,0-.24c-.17-.22-.74-.85-1.47-1.66a52.41,52.41,0,0,1-3.67-4.26l.4-.34a7,7,0,0,0,.74-.68s.06-.07,0-.16-.71-1-.87-1Z"/><path class="cls-1" d="M68.94,91.29c-.94-1-2.23-2.46-3.11-2.74a2.11,2.11,0,0,0-1.93.24,2.32,2.32,0,0,0-.82,1.85l-.23-.26a4,4,0,0,0-.29-.35l-.62-.73c-.56-.66-1.19-1.41-1.61-1.87l0,0h-.06a1.64,1.64,0,0,0-1,.75l0,0,0,0a6.16,6.16,0,0,0,.83,1.15l.08.09a47.84,47.84,0,0,0,5.35,5.68l0,0h0l.15-.08c.25-.16.68-.52.7-.81v0l0,0c-.14-.19-.52-.59-.93-1s-.87-.92-1-1.09c-.39-1-.3-1.79.28-2.31.42-.37,1.67.88,2.21,1.42l.19.19c.14.13.35.38.56.61s.44.49.59.64l0,0,.07,0a2.26,2.26,0,0,0,.89-.81l0-.07-.05-.06Z"/><path class="cls-1" d="M71.91,86.72a.35.35,0,0,0-.22.3c0,.18,0,.36,0,.53a5.39,5.39,0,0,1,0,.82.81.81,0,0,1-.87.68,1.21,1.21,0,0,1-1.06-.61,3.65,3.65,0,0,0,1-2.73,1.51,1.51,0,0,0-1.52-1.32,2.29,2.29,0,0,0-1.82,1.08,2.53,2.53,0,0,0-.09,2.31h0a4.63,4.63,0,0,0,2.56,2.54,2.29,2.29,0,0,0,2-.29l0,0a2.53,2.53,0,0,0,1-1.43,9.09,9.09,0,0,0,.21-1.64v0l0,0A1.2,1.2,0,0,0,71.91,86.72Zm-2.66-1.23c.17.06.33.16.34.67A2.15,2.15,0,0,1,69,87.47a1.8,1.8,0,0,1-.3-1.82.24.24,0,0,1,.09-.08A.63.63,0,0,1,69.25,85.49Z"/><path class="cls-1" d="M78,79.39v0a3.85,3.85,0,0,0-.36-2.14,3.5,3.5,0,0,0-1.42-1.56,2.2,2.2,0,0,0-1-.29h-.13a2.82,2.82,0,0,0-1.08.24c-.17.08-.35.17-.52.27a8.88,8.88,0,0,0-2.18,1.83l-.05,0c-.15.18-.47.55-.22.79l0,0a2.57,2.57,0,0,0,.89.64h0a.27.27,0,0,0,.13-.08l0,0a.14.14,0,0,1,.1,0,5.64,5.64,0,0,1,.86.83l.22.25c.36.39.73.77,1.08,1.14l0,0,.92,1a24.37,24.37,0,0,0,2.51,2.49h0a.35.35,0,0,0,.34,0h0A7.45,7.45,0,0,0,79.29,84a5.38,5.38,0,0,0,1-1.28,2.74,2.74,0,0,0,.3-1,2.53,2.53,0,0,0-1.11-2.33A1.41,1.41,0,0,0,78,79.39ZM76.58,79a3,3,0,0,1-.24,1.15v0c0,.07-.25.59-.36.8l-.26-.28-.18-.19L73.42,78.3c-.06-.07-.14-.16-.18-.22a2.69,2.69,0,0,1,1.18-1.18,1.36,1.36,0,0,1,1.27.27A2.47,2.47,0,0,1,76.58,79Zm.48,3a1,1,0,0,1,.08-.18l.14-.31a2.59,2.59,0,0,1,.3-.48c.16-.2.47-.53.82-.51a.56.56,0,0,1,.41.25,1.39,1.39,0,0,1,.29.77,2.92,2.92,0,0,1-.84,1.72,11.69,11.69,0,0,1-.86-.89Z"/><path class="cls-1" d="M84.15,76.53a.37.37,0,0,0-.22.29c0,.19,0,.37,0,.53a7.26,7.26,0,0,1,0,.83.82.82,0,0,1-.88.68,1.23,1.23,0,0,1-1.06-.61,3.62,3.62,0,0,0,1-2.73,1.52,1.52,0,0,0-1.51-1.33,2.29,2.29,0,0,0-1.82,1.09,2.5,2.5,0,0,0-.1,2.31h0a4.61,4.61,0,0,0,2.57,2.54,2.32,2.32,0,0,0,2-.29l0,0a2.52,2.52,0,0,0,1-1.43,8.46,8.46,0,0,0,.22-1.64v0l0,0A1.23,1.23,0,0,0,84.15,76.53ZM81.49,75.3c.18.06.34.15.34.66a2.1,2.1,0,0,1-.62,1.32,1.77,1.77,0,0,1-.29-1.82s0-.06.09-.09A.61.61,0,0,1,81.49,75.3Z"/><path class="cls-1" d="M87.31,69.43l0,0h-.05c-.3-.06-.91.53-1,.71v0l0,0s.16.3.18.33l0,0h-.19a3.78,3.78,0,0,0-.51,0,1.93,1.93,0,0,0-1.72,1.66,3.66,3.66,0,0,0,0,1,4.63,4.63,0,0,0,.66,1.66,5.76,5.76,0,0,0,1,1.19,2,2,0,0,0,1.31.64,1.4,1.4,0,0,0,.81-.22l.26-.2a2.43,2.43,0,0,0,.62-1.82c0-.21,0-.55,0-.87l.38.43a7.64,7.64,0,0,0,.6.63.22.22,0,0,0,.22,0h0a2.62,2.62,0,0,0,.66-.46.33.33,0,0,0,.05-.41c-.35-.51-1.57-2.09-2.47-3.25Zm.39,5.51a.53.53,0,0,1-.4.38c-.75.16-1.68-1.25-1.92-2.24a1.17,1.17,0,0,1,.29-1.17,1,1,0,0,1,.2-.15,1.2,1.2,0,0,1,.81-.2C87.08,72,88,74.05,87.7,74.94Z"/><path class="cls-1" d="M91.27,65.63l0,0a8.62,8.62,0,0,0-1,.8c-.86-1-1.87-2.11-2-2.17l0,0,0,0-.08,0a1.77,1.77,0,0,0-1,.94l0,0,0,.05c.09.16,1.15,1.42,1.82,2.22-1.08,1-1.11,1-1.11,1.07l0,0,0,0a1.66,1.66,0,0,0,.65.76l.06,0,.06,0c.08,0,.73-.58,1.17-1,.79.92,1.55,1.77,2,2.26l.41.45c.32.36.72.81.91,1l.07,0,0,0a.84.84,0,0,0,.2-.11,2.42,2.42,0,0,0,.86-.85l0,0,0-.05C94,70.79,91.78,68.3,91,67.41l.21-.19c.1-.09.58-.52.71-.65l0,0c.06-.15-.47-.78-.64-.88Z"/><path class="cls-1" d="M91.29,61.61l-.05,0-.08,0a1.7,1.7,0,0,0-1,.94l0,.05,0,0c.16.28,3.31,4,4.66,5.44l.41.46.89,1,0,.05h.06a1,1,0,0,0,.23-.12,2.28,2.28,0,0,0,.85-.84l0-.05,0,0c-.41-.74-5.76-6.81-6-6.94Z"/><path class="cls-1" d="M100.05,63.3a.32.32,0,0,0-.22.29c0,.19,0,.37,0,.53a5.53,5.53,0,0,1,0,.83.81.81,0,0,1-.87.68A1.23,1.23,0,0,1,97.83,65a3.62,3.62,0,0,0,1-2.73A1.53,1.53,0,0,0,97.3,61a2.3,2.3,0,0,0-1.82,1.09,2.5,2.5,0,0,0-.09,2.31h0A4.6,4.6,0,0,0,98,66.9a2.32,2.32,0,0,0,2-.29l0,0a2.48,2.48,0,0,0,1-1.43,8.46,8.46,0,0,0,.22-1.64v-.05l0,0A1.23,1.23,0,0,0,100.05,63.3Zm-2.67-1.23c.18.06.34.16.34.66a2.09,2.09,0,0,1-.61,1.32,1.81,1.81,0,0,1-.3-1.83l.09-.08A.61.61,0,0,1,97.38,62.07Z"/><path class="cls-1" d="M104.33,58.81a2.06,2.06,0,0,0-1.57.29h0a4.19,4.19,0,0,0-.72.66l-.07.07a1,1,0,0,1-.56.34.4.4,0,0,1-.32-.17,1.18,1.18,0,0,1-.25-.86,1.2,1.2,0,0,1,.72-.7l.2-.08.14,0,.38-.15a.3.3,0,0,0,.15-.24,1.13,1.13,0,0,0-.27-.68.28.28,0,0,0-.18-.09h0a2.43,2.43,0,0,0-1.64.71,2.21,2.21,0,0,0-.92,1.43,2.27,2.27,0,0,0,.38,1.35,1.7,1.7,0,0,0,1.87.79,2.47,2.47,0,0,0,1.1-.77l.18-.18a2.35,2.35,0,0,1,.29-.26.81.81,0,0,1,.28-.14.55.55,0,0,1,.52.1,1.39,1.39,0,0,1,.33,1.37.52.52,0,0,1-.34.34,1.68,1.68,0,0,1-1.44-.1.27.27,0,0,0-.33.05,2.54,2.54,0,0,0-.42.7v.08l.06.07a.69.69,0,0,0,.28.21,3,3,0,0,0,2.1.15,2,2,0,0,0,.47-.22,2.07,2.07,0,0,0,.78-.94,2.76,2.76,0,0,0-.16-2.29A1.55,1.55,0,0,0,104.33,58.81Z"/><rect class="cls-12" x="89.37" y="116.02" width="115.79" height="61.05"/><line class="cls-13" x1="80.62" y1="110.93" x2="75.78" y2="110.93"/><line class="cls-13" x1="75.78" y1="175.55" x2="70.93" y2="175.55"/><line class="cls-13" x1="76.19" y1="37.68" x2="76.19" y2="41.93"/><text class="cls-14" transform="translate(72.39 49.1)">goal</text><text class="cls-14" transform="translate(76.63 177.95)">0</text><text class="cls-14" transform="translate(81.56 115.07)">mid</text></g></svg>