<svg xmlns="http://www.w3.org/2000/svg" xmlns:xlink="http://www.w3.org/1999/xlink" viewBox="0 0 216 216"><defs><style>.cls-1,.cls-12,.cls-18,.cls-19{fill:none;}.cls-2{fill:#fff;}.cls-17,.cls-3{fill:#0a0a0a;}.cls-4{clip-path:url(#clip-path);}.cls-5{fill:#ed5c5c;}.cls-6{fill:#d65353;}.cls-7{fill:#bd3b3b;}.cls-16,.cls-8{fill:#f69493;}.cls-15,.cls-9{fill:#61b2c3;}.cls-10{fill:#569ead;}.cls-11{fill:#4b859b;}.cls-12{stroke:#bd3b3b;stroke-width:3.81px;}.cls-12,.cls-14,.cls-15,.cls-16,.cls-18{stroke-linecap:round;}.cls-12,.cls-14,.cls-15,.cls-16{stroke-linejoin:round;}.cls-13{fill:#de8585;}.cls-14{fill:#e25655;}.cls-14,.cls-15,.cls-16{stroke:#fff;stroke-width:1.88px;}.cls-17{font-size:9px;font-family:MyDearWatson-Regular, My Dear Watson;}.cls-18{stroke:#0a0a0a;stroke-width:2px;}.cls-18,.cls-19{stroke-miterlimit:10;}.cls-19{stroke:#29aae1;stroke-width:0.85px;}</style><clipPath id="clip-path"><rect id="fill-mask" class="cls-1" x="53.47" y="185.12" width="106.6" height="140.39"/></clipPath></defs><g id="cutlines"><path class="cls-2" d="M46.51,141.93c2.22,12.9,7.55,23.84,15.5,31.79,16,16,44.82,21.7,64.62,21.7,8.85,0,16.57-1.1,22.47-3.19h10.75a9,9,0,0,0,9-8.28c.09-.16.19-.31.27-.48a12.75,12.75,0,0,0,1.22-4.71,11.8,11.8,0,0,0-.78-5.52,10,10,0,0,0-1.48-2.48,10.54,10.54,0,0,0-2-1.84c1.07-7.78.74-17.21-1.08-27.51a118.49,118.49,0,0,0-3.12-13.25,9,9,0,0,0,6.77-6.76.58.58,0,0,0,.1-.12,10.59,10.59,0,0,0,1.28-2,12.75,12.75,0,0,0,1.22-4.7,11.8,11.8,0,0,0-.78-5.52,9.82,9.82,0,0,0-1.48-2.48,9.94,9.94,0,0,0-7.73-3.66h-.3a9.53,9.53,0,0,0-2.14.31,10.12,10.12,0,0,0-2.46-.32H156a11.11,11.11,0,0,0-1.16.1,9,9,0,0,0-1.87-.2,9.79,9.79,0,0,0-1.32.11,29,29,0,0,0-.75-10.16l14.61-11.85c4.18-3.41,6.51-10.33,1.18-19.54a9.18,9.18,0,0,0,1.64-2.89c.24-.25.47-.51.69-.79a11.4,11.4,0,0,0,1.27-2,12.75,12.75,0,0,0,1.22-4.7,11.84,11.84,0,0,0-.78-5.53,9.92,9.92,0,0,0-9.21-6.13h-.29a10.14,10.14,0,0,0-2.15.31,10.11,10.11,0,0,0-2.46-.31h-.29a10.3,10.3,0,0,0-1.85.25,9.57,9.57,0,0,0-1.32-.22,8.83,8.83,0,0,0-.89,0,9.69,9.69,0,0,0-8.5,5,.75.75,0,0,0-.07.12,10.43,10.43,0,0,0-1.06,3.28,11.37,11.37,0,0,0-2.81,1.66l-.61.49c-.44-.48-.91-1-1.42-1.44-2-1.84-5.79-4.85-10.38-5.27-2.83-3.23-7.07-4.72-9.56-5.36a23.38,23.38,0,0,0-5.62-.73,15.64,15.64,0,0,0-4.41.59A18.73,18.73,0,0,0,97.73,35c-6,0-10.16,1.9-12.64,4.62a16.73,16.73,0,0,0-5.34-3A32.59,32.59,0,0,0,69.09,35c-3.11,0-9,.39-13.65,3-4.27,2.39-6.71,6.29-6.71,10.69V95.61A44,44,0,0,0,45.62,104c-3,11-2.53,23.91-2,30.6A13.71,13.71,0,0,0,46.51,141.93Z"/></g><g id="sticker"><g id="_Path_frame" data-name="&lt;Path&gt; frame"><path class="cls-2" d="M105.6,110.25A27.82,27.82,0,0,1,77.81,82.46a27.4,27.4,0,0,1,5.63-16.75l.21-.28a27.76,27.76,0,0,1,7.85-6.9V46.67c0-2,3.25-2.94,6.47-2.94s6.48.91,6.48,2.94v8l1.15,0c.48,0,1,0,1.47,0l1.85-7.33c.17-.64.85-1.72,3.59-1.72a14.26,14.26,0,0,1,3.41.46c2,.51,4.46,1.56,5.3,3a1.88,1.88,0,0,1,.26,1.46l-2,7.71,5.65-6a1.89,1.89,0,0,1,1.45-.57c1.38,0,3.4,1.1,5.27,2.87,2.35,2.21,4.1,5.1,2.71,6.58l-5.74,6.11a27.78,27.78,0,0,1-23.27,43Z"/><path class="cls-3" d="M98,44.73c3,0,5.48.86,5.48,1.94v9.1c.71-.06,1.42-.1,2.15-.1s1.49,0,2.23.11l2.06-8.15c.16-.62,1.18-1,2.62-1a13.3,13.3,0,0,1,3.17.43c2.93.74,5.09,2.19,4.83,3.22l-2.16,8.58c.43.23.85.49,1.27.74L125.91,53a.92.92,0,0,1,.72-.26c1.07,0,2.88,1,4.59,2.6,2.21,2.07,3.39,4.39,2.66,5.17l-6.29,6.68a26.79,26.79,0,1,1-43.15-1.12h0a26.83,26.83,0,0,1,8.06-6.93V46.67c0-1.08,2.44-1.94,5.47-1.94m0-2c-3.45,0-7.47,1-7.47,3.94V58a28.76,28.76,0,0,0-7.64,6.86l-.42.54v0a28.38,28.38,0,0,0-5.63,17.08A28.79,28.79,0,1,0,130.13,67.4l5.21-5.54c2-2.12-.24-5.64-2.75-8-.78-.74-3.52-3.14-6-3.14a2.92,2.92,0,0,0-2.18.89l-3,3.18,1-4a2.85,2.85,0,0,0-.37-2.21c-1.26-2.12-4.84-3.17-5.91-3.44a15.32,15.32,0,0,0-3.66-.49c-3.42,0-4.32,1.55-4.56,2.47l-1.65,6.54h-.85v-7c0-2.91-4-3.94-7.48-3.94Z"/></g><g id="_Path_frame-2" data-name="&lt;Path&gt; frame"><path class="cls-2" d="M125.15,117.3c-9.17,0-17.88-8-18.27-16.8-.15-3.26.8-8,6.14-12.09,4.86-3.73,12.28-6.06,22-6.94l.52,0,.34.4c.35.43,8.71,10.58,6.89,20.85-.9,5.08-4.13,9.26-9.61,12.43A15.89,15.89,0,0,1,125.15,117.3Z"/><path class="cls-3" d="M135.16,82.46s17.08,20.47-2.45,31.78a15,15,0,0,1-7.56,2.06c-17.38,0-32-30.06,10-33.84m.87-2.08-1.05.09c-10,.9-17.56,3.3-22.57,7.14-5.68,4.36-6.69,9.44-6.53,12.94.42,9.29,9.6,17.75,19.27,17.75a16.85,16.85,0,0,0,8.56-2.33c5.75-3.33,9.14-7.74,10.09-13.13,1.9-10.72-6.73-21.22-7.1-21.66l-.67-.8Z"/></g><path class="cls-2" d="M104,89.91,145.79,56a2.55,2.55,0,0,1,1.67-.55c2.37,0,5.95,2.52,9.11,6.42,3.56,4.38,5.92,9.82,3.54,11.76l-20,16.25h0l-21.82,17.71Z"/><path class="cls-3" d="M147.46,56.41c2,0,5.36,2.38,8.33,6.05,3.61,4.44,5.26,9.08,3.69,10.36l-19.74,16h0l-21.32,17.3-13-16.08,9.85-8,31.21-25.33a1.55,1.55,0,0,1,1-.33m0-2a3.62,3.62,0,0,0-2.31.78L114,80.52l-9.85,8-1.55,1.26,1.26,1.55,13,16.08,1.26,1.55,1.56-1.26,20.76-16.85h0l.56-.45,19.74-16c3-2.48.48-8.4-3.4-13.17-2.66-3.28-6.65-6.79-9.88-6.79Z"/><path class="cls-2" d="M58,102.27V48.39c0-.75.36-1.85,2.1-2.82,2.06-1.16,5.52-1.84,9.26-1.84A23.85,23.85,0,0,1,77,44.86c3.06,1.08,3.7,2.52,3.7,3.53v53.88Z"/><path class="cls-3" d="M69.33,44.73a22.81,22.81,0,0,1,7.31,1.07c1.88.67,3,1.58,3,2.59v52.88H59V48.39c0-.72.58-1.39,1.59-2,1.83-1,5.07-1.71,8.77-1.71m0-2c-3.9,0-7.55.73-9.75,2S57,47.37,57,48.39v54.88H81.68V48.39c0-1.33-.76-3.19-4.37-4.48a25.07,25.07,0,0,0-8-1.18Z"/><path class="cls-2" d="M126.87,186.12c-19.51,0-45.08-5.89-58.26-19.06-9.89-9.89-15-25.84-13.86-43.75.75-12.55,4.55-24,9.46-28.48,4.54-4.15,19.07-8.63,34.62-8.63,11.15,0,26.72,2.27,37.55,13.1,9.49,9.49,16.76,25.3,20,43.38,2.9,16.41,1.68,30.75-3.12,36.52a11.65,11.65,0,0,1-3.22,2.61C145.17,184.59,137,186.12,126.87,186.12Z"/><path class="cls-3" d="M98.83,87.2c13.19,0,27.27,3.24,36.85,12.81,20.77,20.77,26.12,67.31,16.77,78.55a10.63,10.63,0,0,1-2.95,2.38c-4.77,2.75-13,4.18-22.63,4.18-19.55,0-44.71-5.93-57.55-18.76-11.18-11.18-14.47-28.23-13.58-43,.77-12.66,4.59-23.64,9.14-27.8,4.3-3.93,18.51-8.37,34-8.37m0-2h0c-12.3,0-29.29,3.4-35.3,8.9-5.08,4.64-9,16.35-9.78,29.15-1.1,18.19,4.06,34.42,14.16,44.52,13.37,13.37,39.25,19.35,59,19.35,10.26,0,18.65-1.58,23.63-4.45a12.59,12.59,0,0,0,3.49-2.83c5-6,6.29-20.64,3.34-37.33-3.24-18.28-10.61-34.29-20.24-43.91C131,92.48,119.38,85.2,98.83,85.2Z"/><path class="cls-2" d="M57.64,138a4.86,4.86,0,0,1-4.81-4.46c-.48-6.1-.91-17.8,1.72-27.55a27.76,27.76,0,0,1,5.9-11.73C67.92,86.1,83,84.39,94.39,84.39c1.3,0,2.61,0,3.9.07a4.83,4.83,0,0,1,4.44,6.19C98.35,105.73,90.17,118,78.4,127.16a69.73,69.73,0,0,1-19.16,10.55A4.9,4.9,0,0,1,57.64,138Z"/><path class="cls-3" d="M94.39,85.39c1.42,0,2.72,0,3.86.07a3.83,3.83,0,0,1,3.52,4.91c-5.07,17.48-14.71,28.79-24,36a69.06,69.06,0,0,1-18.88,10.4,3.77,3.77,0,0,1-1.27.22,3.84,3.84,0,0,1-3.81-3.53c-.5-6.26-.89-17.65,1.68-27.22a27.18,27.18,0,0,1,5.67-11.32c7.48-8.14,23.32-9.53,33.21-9.53m0-2c-20.94,0-30.42,5.54-34.68,10.18-2.69,2.93-4.75,7-6.13,12.16-2.66,9.88-2.23,21.71-1.74,27.88a5.8,5.8,0,0,0,7.74,5A71.11,71.11,0,0,0,79,128c11.93-9.28,20.23-21.73,24.68-37a5.85,5.85,0,0,0-.88-5.06,5.74,5.74,0,0,0-4.5-2.4c-1.3,0-2.62-.08-3.93-.08Z"/><g class="cls-4"><path class="cls-5" d="M105.6,110.25A27.81,27.81,0,0,1,77.81,82.46a27.35,27.35,0,0,1,5.63-16.74l.21-.29a27.76,27.76,0,0,1,7.85-6.9V46.67c0-2,3.25-2.94,6.47-2.94s6.48.91,6.48,2.94v8l1.15,0c.48,0,1,0,1.47,0l1.85-7.33c.17-.64.85-1.72,3.59-1.72a14.26,14.26,0,0,1,3.41.46,13.21,13.21,0,0,1,3.93,1.64c1.65,1.11,1.8,2.13,1.63,2.8l-2,7.71,5.65-6a1.89,1.89,0,0,1,1.45-.57c1.38,0,3.4,1.1,5.27,2.87,2.35,2.21,4.1,5.1,2.71,6.58l-5.74,6.11a27.78,27.78,0,0,1-23.27,43Z"/><path class="cls-3" d="M98,44.73c3,0,5.48.87,5.48,1.94v9.1c.71-.06,1.42-.1,2.15-.1s1.49,0,2.23.11l2.06-8.14c.16-.63,1.18-1,2.62-1a13.3,13.3,0,0,1,3.17.43c2.93.74,5.09,2.19,4.83,3.22l-2.16,8.58c.43.24.85.49,1.27.74L125.91,53a.92.92,0,0,1,.72-.26c1.07,0,2.88,1,4.59,2.6,2.21,2.08,3.39,4.39,2.66,5.17l-6.29,6.68a26.8,26.8,0,1,1-43.15-1.11h0a27,27,0,0,1,8.06-6.94V46.67c0-1.07,2.44-1.94,5.47-1.94m0-2c-3.45,0-7.47,1-7.47,3.94V58a28.94,28.94,0,0,0-7.64,6.86l-.42.54v0a28.4,28.4,0,0,0-5.63,17.08A28.79,28.79,0,1,0,130.13,67.4l5.21-5.54c2-2.12-.24-5.64-2.75-8-.78-.73-3.52-3.14-6-3.14a2.92,2.92,0,0,0-2.18.89l-3,3.19,1-4a2.85,2.85,0,0,0-.37-2.21c-1.26-2.12-4.84-3.17-5.91-3.44a15.32,15.32,0,0,0-3.66-.49c-3.42,0-4.32,1.55-4.56,2.47l-1.65,6.54h-.85v-7c0-2.91-4-3.94-7.48-3.94Z"/><path class="cls-6" d="M130.79,91.58A26.79,26.79,0,1,1,84.44,66.06c-.28.69-5,13.82,39.43,23.27A29.89,29.89,0,0,1,130.79,91.58Z"/><path class="cls-7" d="M98,47.52A11,11,0,0,1,94.51,47a.39.39,0,0,1,0-.74,12.71,12.71,0,0,1,6.92,0,.39.39,0,0,1,0,.74A10.94,10.94,0,0,1,98,47.52Z"/><path class="cls-7" d="M129.31,57.35a10.93,10.93,0,0,1-2.19-2.72.39.39,0,0,1,.5-.54,11,11,0,0,1,2.86,2,10.91,10.91,0,0,1,2.18,2.73.38.38,0,0,1-.5.53A10.87,10.87,0,0,1,129.31,57.35Z"/><path class="cls-7" d="M115,49.81a10.74,10.74,0,0,1-3.23-1.32.38.38,0,0,1,.18-.71,10.71,10.71,0,0,1,3.47.38,10.82,10.82,0,0,1,3.24,1.32.39.39,0,0,1-.18.71A11.06,11.06,0,0,1,115,49.81Z"/><path class="cls-8" d="M125.15,117.3c-9.17,0-17.87-8-18.27-16.8-.15-3.25.8-8,6.14-12.09,4.86-3.73,12.28-6.06,22-6.94l.53,0,.33.4c.36.43,8.71,10.58,6.89,20.85-.9,5.08-4.13,9.27-9.61,12.44A15.93,15.93,0,0,1,125.15,117.3Z"/><path class="cls-3" d="M135.16,82.47s17.09,20.46-2.45,31.77a14.94,14.94,0,0,1-7.56,2.06c-17.38,0-32-30.06,10-33.83m.87-2.09-1,.09c-10,.9-17.56,3.3-22.58,7.15-5.68,4.35-6.68,9.43-6.53,12.93.42,9.29,9.6,17.75,19.27,17.75a16.85,16.85,0,0,0,8.56-2.33c5.75-3.32,9.14-7.74,10.1-13.13,1.9-10.72-6.74-21.21-7.11-21.66l-.67-.8Z"/><path class="cls-9" d="M58,102.28V48.4c0-.76.36-1.86,2.1-2.83,2.06-1.15,5.52-1.84,9.26-1.84A23.85,23.85,0,0,1,77,44.86c3.06,1.09,3.7,2.52,3.7,3.54v53.88Z"/><path class="cls-3" d="M69.33,44.73a22.92,22.92,0,0,1,7.32,1.07c1.88.67,3,1.58,3,2.6v52.88H59V48.4c0-.73.58-1.39,1.59-2a19.48,19.48,0,0,1,8.77-1.71m0-2c-3.9,0-7.55.73-9.75,2S57,47.38,57,48.4v54.88H81.68V48.4c0-1.34-.76-3.2-4.37-4.48a24.74,24.74,0,0,0-8-1.19Z"/><path class="cls-10" d="M79.68,96.49v4.79H59V48.4c0-.73.58-1.39,1.59-2C61.19,57.65,64.32,89.21,79.68,96.49Z"/><path class="cls-9" d="M104,89.91,145.78,56a2.57,2.57,0,0,1,1.68-.55c2.37,0,5.94,2.52,9.1,6.42,3.56,4.38,5.92,9.82,3.54,11.76l-20,16.25h0l-21.81,17.71Z"/><path class="cls-3" d="M147.46,56.41c2,0,5.35,2.38,8.33,6.05,3.61,4.44,5.25,9.08,3.68,10.36l-19.73,16h0l-21.32,17.3-13-16.08,9.85-8,31.2-25.33a1.59,1.59,0,0,1,1.05-.33m0-2h0a3.6,3.6,0,0,0-2.31.78L114,80.52l-9.85,8-1.55,1.26,1.26,1.55,13,16.08,1.26,1.55,1.55-1.26,20.77-16.85h0l.56-.45,19.73-16c3.05-2.48.49-8.4-3.39-13.17-2.66-3.28-6.65-6.79-9.88-6.79Z"/><path class="cls-10" d="M139.73,88.84l-21.32,17.3-13-16.08,9.85-8A26.06,26.06,0,0,0,139.73,88.84Z"/><path class="cls-11" d="M151.15,65.84a21.21,21.21,0,0,1-3.42-5.66.74.74,0,0,1,1.09-.88,24,24,0,0,1,8.25,10.17.74.74,0,0,1-1.09.87A20.59,20.59,0,0,1,151.15,65.84Z"/><path class="cls-11" d="M68.78,50a21.08,21.08,0,0,1-6.54-.91.74.74,0,0,1,0-1.4,21.08,21.08,0,0,1,6.54-.91,21.11,21.11,0,0,1,6.55.91.74.74,0,0,1,0,1.4A21.11,21.11,0,0,1,68.78,50Z"/><path class="cls-5" d="M126.87,186.12c-19.51,0-45.09-5.89-58.26-19.06-9.89-9.9-15-25.84-13.87-43.76.76-12.55,4.56-24,9.47-28.47,4.54-4.15,19.07-8.63,34.62-8.63,11.15,0,26.72,2.27,37.55,13.1,9.49,9.49,16.76,25.3,20,43.38,2.9,16.41,1.68,30.74-3.12,36.52a11.71,11.71,0,0,1-3.23,2.61C145.17,184.59,137,186.12,126.87,186.12Z"/><path class="cls-3" d="M98.83,87.2c13.19,0,27.27,3.24,36.85,12.81,20.77,20.77,26.12,67.3,16.77,78.55a10.81,10.81,0,0,1-2.95,2.38c-4.77,2.75-13,4.18-22.63,4.18-19.55,0-44.71-5.93-57.55-18.77-11.18-11.18-14.47-28.22-13.58-43,.76-12.65,4.59-23.63,9.14-27.79,4.3-3.93,18.51-8.37,34-8.37m0-2h0c-12.3,0-29.29,3.4-35.3,8.9-5.08,4.64-9,16.35-9.78,29.14-1.1,18.2,4.06,34.43,14.16,44.53,13.37,13.37,39.25,19.35,59,19.35,10.26,0,18.65-1.58,23.63-4.45a12.61,12.61,0,0,0,3.49-2.84c5-6,6.29-20.64,3.34-37.32-3.24-18.28-10.61-34.29-20.24-43.92C131,92.48,119.38,85.2,98.83,85.2Z"/><path class="cls-6" d="M149.5,180.94c-14.47,8.34-61,4.56-80.18-14.59-11.18-11.18-14.47-28.22-13.58-43l6-1.74S52.19,187.29,149.5,180.94Z"/><path class="cls-12" d="M139.36,169.66s3.43-9.28-6.36-14-42.83-28-48.55-43.34"/><path class="cls-12" d="M84.45,133.05s6-5,4.77-12.66"/><path class="cls-12" d="M95,159.24s14.58-7.78,9.07-23.85"/><path class="cls-12" d="M123.22,118.31s-12.16,18.15-29.41,7.42"/><path class="cls-12" d="M136.31,141.57s-5.06,11.76-18.93,4.23"/><path class="cls-12" d="M116.35,159.24s-12.48-.37-12-10.92"/><path class="cls-8" d="M57.64,138a4.83,4.83,0,0,1-4.8-4.45c-.49-6.1-.91-17.81,1.71-27.55,1.34-5,3.32-8.92,5.9-11.73C67.93,86.1,83,84.39,94.39,84.39c1.3,0,2.61,0,3.9.07a4.85,4.85,0,0,1,4.45,6.19c-4.38,15.08-12.57,27.36-24.33,36.5a70,70,0,0,1-19.16,10.56A4.9,4.9,0,0,1,57.64,138Z"/><path class="cls-3" d="M94.39,85.39c1.43,0,2.73,0,3.86.07a3.84,3.84,0,0,1,3.53,4.91c-5.08,17.48-14.72,28.79-24,36a68.65,68.65,0,0,1-18.88,10.4,3.77,3.77,0,0,1-1.27.22,3.84,3.84,0,0,1-3.81-3.53c-.49-6.25-.89-17.64,1.69-27.21a26.89,26.89,0,0,1,5.67-11.32c7.48-8.14,23.32-9.53,33.2-9.53m0-2c-20.94,0-30.41,5.54-34.68,10.18a28.7,28.7,0,0,0-6.12,12.15c-2.67,9.89-2.24,21.72-1.75,27.89a5.83,5.83,0,0,0,7.74,5A70.64,70.64,0,0,0,79,127.94c11.93-9.27,20.24-21.72,24.68-37a5.83,5.83,0,0,0-5.37-7.47c-1.3,0-2.63-.07-3.94-.07Z"/><path class="cls-13" d="M77.79,126.36a68.65,68.65,0,0,1-18.88,10.4,3.82,3.82,0,0,1-5.08-3.31c-.49-6.25-.89-17.64,1.69-27.21C53.9,117.73,54.34,136.63,77.79,126.36Z"/><path class="cls-14" d="M86.67,68.72a23.54,23.54,0,0,1,7.48-6.67"/><line class="cls-15" x1="76.3" y1="72" x2="76.3" y2="73"/><line class="cls-15" x1="76.3" y1="65.04" x2="76.3" y2="68.72"/><line class="cls-15" x1="76.3" y1="51.88" x2="76.3" y2="62.14"/><line class="cls-15" x1="143.83" y1="81.15" x2="139.73" y2="84.48"/><line class="cls-15" x1="153.07" y1="73.66" x2="145.93" y2="79.45"/><line class="cls-15" x1="137.7" y1="86.13" x2="136.77" y2="86.88"/><path class="cls-14" d="M150.92,137.72c.18.73.17.73.33,1.46"/><path class="cls-14" d="M147.58,126.36c.86,2.39,1.63,4.81,2.3,7.24"/><path class="cls-14" d="M133.28,102.4A60.74,60.74,0,0,1,145.45,121"/><path class="cls-16" d="M91,106.64c-.39.63-.78,1.25-1.18,1.86"/><path class="cls-16" d="M94.31,100.54c-.59,1.26-.88,1.79-1.52,3"/><path class="cls-16" d="M97.91,91.45c-.72,2.26-1.53,4.4-2.4,6.44"/></g><path class="cls-1" d="M68.14,125.32a2.57,2.57,0,0,0,1.16,0,.37.37,0,0,0,.21-.2c.38-.93,3-13.26,2.91-13.89a.36.36,0,0,0-.18-.28l-.09,0a2.67,2.67,0,0,0-2.1-.3.35.35,0,0,0-.22.19c-.22.52-1.83,7.91-2.33,10.81-.08.4-.46,2.35-.55,3a.42.42,0,0,0,.11.34A3.49,3.49,0,0,0,68.14,125.32Z"/><path class="cls-1" d="M79.23,126.54a7.54,7.54,0,0,0,1.22-1.28,11.55,11.55,0,0,0,2-4.1,10.54,10.54,0,0,0,.51-4.72,5.36,5.36,0,0,0-.47-1.36A5,5,0,0,0,79,112.47a4.39,4.39,0,0,0-3.76,1A10.74,10.74,0,0,0,74,114.81a10.3,10.3,0,0,0-1.52,9.33,5.19,5.19,0,0,0,3.47,3.08l.21.07A3.49,3.49,0,0,0,79.23,126.54Zm.44-11a2.16,2.16,0,0,1,.7,1.62c.1,1.12-.35,4.75-2,6.3h0a2.83,2.83,0,0,1-2,1,1.45,1.45,0,0,1-1.34-1.08l0-.15a7.41,7.41,0,0,1-.13-2.91,10.72,10.72,0,0,1,1.25-3.51,3.7,3.7,0,0,1,2.21-1.5,1.89,1.89,0,0,1,.75,0A1.74,1.74,0,0,1,79.67,115.5Z"/><path class="cls-1" d="M84.53,120.73a3.74,3.74,0,0,0,1,1.27l-.6.65-.19.24a5,5,0,0,0-1.11,1.87,3.53,3.53,0,0,0,.33,2.8,3.27,3.27,0,0,0,2,1.49h0l.1,0a4.17,4.17,0,0,0,3.79-1.1,3.72,3.72,0,0,0,1-1.54,5.71,5.71,0,0,0-1-4.19c.59-.49,1.23-1,1.86-1.48s1.22-.94,1.74-1.36c0,0,.07-.07.07-.08a.34.34,0,0,0,.11-.25v-.15a3,3,0,0,0-1.35-1.72.34.34,0,0,0-.24-.07l-.12,0a1.48,1.48,0,0,0-.49.24,3.24,3.24,0,0,0-.86-2,4,4,0,0,0-3.45-.82c-2.26.5-2.76,3.15-2.86,3.95A4.51,4.51,0,0,0,84.53,120.73Zm4.84-1.64a17.2,17.2,0,0,1-1.59,1.34,7.86,7.86,0,0,1-.76-.56c-.13-.11-.43-.37-.47-.53l0-.15a2.13,2.13,0,0,1,.68-1.81,1.36,1.36,0,0,1,1.24-.38,1.49,1.49,0,0,1,.47.18A2.27,2.27,0,0,1,89.37,119.09Zm-3,6a5.38,5.38,0,0,1,1.29-1.57,2.79,2.79,0,0,1,.59,2.19,2.25,2.25,0,0,1-1.12,1.12,1,1,0,0,1-.59,0l-.15-.09C85.94,126.43,86.1,125.63,86.37,125Z"/><path class="cls-1" d="M107.1,128.17a3.67,3.67,0,0,0-.78-4.17,4.25,4.25,0,0,0-4.91-.4c.73-5.81.78-6.42.75-6.58a.43.43,0,0,0-.27-.34,2,2,0,0,0-1.69-.21.33.33,0,0,0-.22.25c-.07.3-.31,1.8-.61,3.71-.34,2.15-.77,4.82-1,6.17l-.07.36a36.32,36.32,0,0,0-.62,4.07.48.48,0,0,0,.37.53l.5.11.5.11a15.42,15.42,0,0,0,2.84.4C104.17,132.23,106.11,130.73,107.1,128.17Zm-4.83,1.46a12.38,12.38,0,0,1-1.78-.07c.08-.69.49-2.75.62-3.31a5.14,5.14,0,0,1,1.07-.59l.13-.06a3,3,0,0,1,1.45-.25,1.64,1.64,0,0,1,1,.4,1.37,1.37,0,0,1,.44,1,3.24,3.24,0,0,1-2.88,2.85l0,.33Z"/><path class="cls-1" d="M115,130.93a.71.71,0,0,0-.77,0c-.25.18-.48.35-.69.52a11.55,11.55,0,0,1-1.08.74,1.15,1.15,0,0,1-1.52-.38,1.81,1.81,0,0,1-.3-1.71,5.91,5.91,0,0,0,4.45-1.51,2.61,2.61,0,0,0,.18-3.45,3.87,3.87,0,0,0-3.32-1.29,4.22,4.22,0,0,0-3.15,2.27h0a7.55,7.55,0,0,0-.68,5.9,3.9,3.9,0,0,0,2.47,2.32,3.6,3.6,0,0,0,.44.12,4.21,4.21,0,0,0,2.51-.24,14,14,0,0,0,2.34-1.38.34.34,0,0,0,.12-.27A2.11,2.11,0,0,0,115,130.93Zm-1.86-4.88a.8.8,0,0,1,.54.46c.07.19.15.43-.45.91a3.16,3.16,0,0,1-2,.51c.36-1,1-1.84,1.82-1.89Z"/><path class="cls-1" d="M119,136l.23,0a4,4,0,0,0,3-1c.19-.14.46-.37.74-.62l-.09.48a11.65,11.65,0,0,0-.21,1.42.55.55,0,0,0,.26.43h0a4.43,4.43,0,0,0,1.29.41.74.74,0,0,0,.74-.46c.3-1,1.1-4.1,1.68-6.39.28-1.11.52-2.06.56-2.2a.33.33,0,0,0,0-.26c-.27-.57-1.75-.72-2.06-.6a.33.33,0,0,0-.17.16s-.1.21-.16.36h0a3.69,3.69,0,0,0-.55-.64,3.26,3.26,0,0,0-4-.56,6.6,6.6,0,0,0-1.28,1,7.4,7.4,0,0,0-1.47,2.54,8.55,8.55,0,0,0-.5,2.53,3.44,3.44,0,0,0,.52,2.4A2.37,2.37,0,0,0,119,136Zm1.67-6.71a1.72,1.72,0,0,1,1.63-.73l.13,0a1.87,1.87,0,0,1,1.17.77c-.25,1-1.84,4-3.16,4.48a.69.69,0,0,1-.72-.1C118.85,133,119.67,130.53,120.65,129.28Z"/><path class="cls-1" d="M129.53,134.93h0c0,.14-.09.52-.17,1-.13.76-.3,1.73-.36,2.2a.41.41,0,0,0,.16.29,4.42,4.42,0,0,0,1.1.37,2.76,2.76,0,0,0,1.3,0,.31.31,0,0,0,.21-.19c.32-.74,1.24-5.42,1.68-7.72l.3,0,1.54.27h.13c.4-.11.63-1.58.59-1.85a.32.32,0,0,0-.17-.25,11,11,0,0,0-2-.5c.82-4.33.77-4.52.74-4.61a.31.31,0,0,0-.18-.22l-.12-.06a3,3,0,0,0-2.27-.32.38.38,0,0,0-.23.2c-.11.27-.57,2.48-1,4.41-2.21-.4-2.32-.35-2.41-.32a.35.35,0,0,0-.18.16,3,3,0,0,0-.33,1.68.33.33,0,0,0,.2.27c.17.07,1.49.37,2.25.54C130,132.19,129.7,133.91,129.53,134.93Z"/><path class="cls-1" d="M139.06,140.78a3.35,3.35,0,0,0,1.66-.06,4.64,4.64,0,0,0,2.86-2.57,2.64,2.64,0,0,0,0-2.2,3.53,3.53,0,0,0-2-1.79,6.34,6.34,0,0,0-1.61-.28h-.14a1.4,1.4,0,0,1-.89-.33.51.51,0,0,1-.06-.44,1.76,1.76,0,0,1,.75-1.06,1.88,1.88,0,0,1,1.47.22l.28.17.2.12c.23.14.43.26.59.34a.62.62,0,0,0,.6,0,2,2,0,0,0,.67-1.12.57.57,0,0,0-.09-.44,4.14,4.14,0,0,0-2.63-1.45,3.21,3.21,0,0,0-4.24,2.18,2.91,2.91,0,0,0,.92,3.35,4.17,4.17,0,0,0,2.14.66l.38,0a4.48,4.48,0,0,1,.61.11,1.4,1.4,0,0,1,.4.17c.26.25.37.45.34.63a2.06,2.06,0,0,1-1.31,1.65.73.73,0,0,1-.64-.06,2.6,2.6,0,0,1-1.22-1.84.58.58,0,0,0-.54-.48,3.69,3.69,0,0,0-1.45.2.5.5,0,0,0-.16.28,1.43,1.43,0,0,0,0,.65,5,5,0,0,0,2,2.91A3.52,3.52,0,0,0,139.06,140.78Z"/><path class="cls-1" d="M72.15,135.17a2.3,2.3,0,0,0-1.65-.84,3.82,3.82,0,0,0-2.86,1.15l-.6.58c.06-.62.12-1.27.15-1.62,0-.16,0-.44-.39-.61l-1-.22a.7.7,0,0,0-.51,0A.57.57,0,0,0,65,134s-1.09,6.91-1.24,8.55c-.3,2.35-.5,3.67-.6,4.38a4.51,4.51,0,0,0-.1.77.35.35,0,0,0,.14.28,1.88,1.88,0,0,0,.67.28,2.57,2.57,0,0,0,1,0,.35.35,0,0,0,.27-.24,50.24,50.24,0,0,0,.89-5.11.8.8,0,0,0,.17.15,3.08,3.08,0,0,0,3.82.32,6.15,6.15,0,0,0,1.18-1.08,7.15,7.15,0,0,0,1.23-2.49,9.2,9.2,0,0,0,.34-2.43A3.33,3.33,0,0,0,72.15,135.17Zm-2.67,5.6h0a1.35,1.35,0,0,1-1.21.66,2,2,0,0,1-1.44-.92c.17-.86,1.28-3,2.39-3.52a.77.77,0,0,1,.85.09C70.84,137.66,70.39,139.5,69.48,140.77Z"/><path class="cls-1" d="M80.17,143.23a.67.67,0,0,0-.76,0c-.25.17-.48.34-.7.51a9.39,9.39,0,0,1-1.07.74,1.17,1.17,0,0,1-1.53-.37,1.81,1.81,0,0,1-.29-1.71,6,6,0,0,0,4.44-1.52,2.58,2.58,0,0,0,.18-3.45,3.85,3.85,0,0,0-3.32-1.28A4.21,4.21,0,0,0,74,138.43h0a7.57,7.57,0,0,0-.67,5.91,3.82,3.82,0,0,0,2.47,2.31,3.45,3.45,0,0,0,.43.12,4.2,4.2,0,0,0,2.51-.23,14.13,14.13,0,0,0,2.34-1.39.32.32,0,0,0,.12-.26A2.06,2.06,0,0,0,80.17,143.23Zm-1.86-4.88a.87.87,0,0,1,.55.46c.06.19.15.43-.46.92a3.07,3.07,0,0,1-2,.5c.37-.95,1-1.84,1.82-1.88Z"/><path class="cls-1" d="M90.77,139.4a3.48,3.48,0,0,0-2.93-.65,6.21,6.21,0,0,0-2.15,1l-.19.12a9.71,9.71,0,0,0,.1-1.94.35.35,0,0,0-.2-.24,4.25,4.25,0,0,0-2.08-.25.34.34,0,0,0-.24.25c-.12.58-.26,1.45-.33,2,0,.14,0,.27,0,.41s0,.47-.08.73c-.1.93-.2,1.86-.31,2.79s-.21,1.86-.31,2.79l0,.24a5,5,0,0,0-.06,1.13s0,0,0,0a.48.48,0,0,0,.33.33h0l.18,0a5.76,5.76,0,0,0,1.73.13.47.47,0,0,0,.35-.33c.17-.69.73-4.05.87-5.43.74-.75,2.48-1.93,3.53-1.54.68.24.67,1.6.58,2.07v.09a.53.53,0,0,0,.28.42,2.84,2.84,0,0,0,1.45.24.48.48,0,0,0,.42-.42c.08-.55.12-1.15.15-1.84A2.56,2.56,0,0,0,90.77,139.4Z"/><path class="cls-1" d="M107.88,143.86a2.36,2.36,0,0,0-2.19-1.45,3.34,3.34,0,0,0-1.9.78l-.42.34a2.47,2.47,0,0,0-1.54-1.76,2.1,2.1,0,0,0-1.67.1,2.08,2.08,0,0,0-.09-.65.31.31,0,0,0-.08-.15,2,2,0,0,0-1.31-.44.93.93,0,0,0-.81.32.56.56,0,0,0-.07.18c-.41,1.92-.79,4.23-1.12,6.27l-.32,2a7.23,7.23,0,0,0-.14,1.09.62.62,0,0,0,.41.62,5.65,5.65,0,0,0,1.54.26.67.67,0,0,0,.6-.48c.15-.6.64-3.1.9-4.49l.12-.59,0-.06,0-.08c.64-1.06.88-1.06,1-1,.43.12.3,1.07.22,1.74v.08c0,.43-.22,1.42-.41,2.41l0,.23c-.14.85-.28,1.7-.34,2.13a.7.7,0,0,0,.35.74,3.55,3.55,0,0,0,.78.26,2.72,2.72,0,0,0,.78.07.67.67,0,0,0,.58-.46c.1-.29.2-.63.3-1a1.05,1.05,0,0,1,0-.19c0-.07,0-.14,0-.19l.28-1c.31-1.17.94-3.6,1.46-4a.55.55,0,0,1,.33-.15s.11,0,.2.12a1.68,1.68,0,0,1,0,1.27l-.15.7-.36,1.76c-.11.56-.23,1.12-.34,1.7a6.57,6.57,0,0,1-.12.65,2.85,2.85,0,0,0-.11.91.19.19,0,0,0,0,.08l0,.08,0,.06c0,.07.18.27,1.06.46a2.08,2.08,0,0,0,1,.07l.09,0a.34.34,0,0,0,.25-.25l0-.09c.34-1.57,1-4.65,1.21-6.23A4.27,4.27,0,0,0,107.88,143.86Z"/><path class="cls-1" d="M112.93,144.15a2.69,2.69,0,0,0-2.14-.29.37.37,0,0,0-.19.2c-.17.47-1.74,8.42-1.79,9.36a.34.34,0,0,0,.1.26,1.87,1.87,0,0,0,.87.42,2.35,2.35,0,0,0,1.24,0,.39.39,0,0,0,.2-.2,90.11,90.11,0,0,0,1.83-9.47A.35.35,0,0,0,112.93,144.15Z"/><path class="cls-1" d="M113.63,142.45a1,1,0,0,0,0-.73,1.91,1.91,0,0,0-2-1.05,1.06,1.06,0,0,0-.48.25.86.86,0,0,0-.09.89h0a2.11,2.11,0,0,0,1.46,1.07A1,1,0,0,0,113.63,142.45Z"/><path class="cls-1" d="M122,153.91c.41-1.79.86-4,.61-4.89a3.51,3.51,0,0,0-2.29-2.84,3.83,3.83,0,0,0-2.91.18,2.65,2.65,0,0,0-.09-1.12.29.29,0,0,0-.1-.12c-.42-.37-1.82-.71-2.26-.36a.36.36,0,0,0-.12.18c-.45,1.88-.84,4.14-1.19,6.14-.1.6-.2,1.19-.3,1.76l-.08.51a4.26,4.26,0,0,0-.11.93.57.57,0,0,0,.36.44,11.24,11.24,0,0,0,1.9.39c.21,0,.41-.05.57-.32.17-.55.66-2.83,1-4.35l.16-.74v0c.28-.37,1-1.35,1.73-1.1s.77,1,.66,2v.13c-.05.45-.24,1.43-.41,2.37s-.36,1.92-.42,2.4a.57.57,0,0,0,.31.6h0a6.69,6.69,0,0,0,1.15.34,4,4,0,0,0,.78.11.57.57,0,0,0,.5-.33,12.14,12.14,0,0,0,.48-2Z"/><path class="cls-1" d="M133.34,150.24a4.61,4.61,0,0,0,.16-1.26.52.52,0,0,0-.32-.47,7.22,7.22,0,0,0-1.54-.38.46.46,0,0,0-.54.31l-.18.47c-2.08,5.53-3.18,6.09-3.66,6-.82-.26-.83-1.21-.72-2.19,0-.4.2-1.29.35-2.23.2-1.21.41-2.45.46-3a.59.59,0,0,0-.33-.5,6.22,6.22,0,0,0-1.69-.35.6.6,0,0,0-.56.33,12,12,0,0,0-.41,1.68c-.07.31-.12.57-.16.72s-1.51,7.16,1.79,8.12a3.86,3.86,0,0,0,3.35-.72c-.06.44-.09.83-.1,1.08v0a.58.58,0,0,0,.21.36l.08,0a5.3,5.3,0,0,0,1,.29,2.49,2.49,0,0,0,1.13.06.35.35,0,0,0,.22-.24c.53-2.13.89-4.39,1.24-6.58Z"/><path class="cls-1" d="M142.43,150.29a11.28,11.28,0,0,0-2-.5c.82-4.33.77-4.52.74-4.61A.33.33,0,0,0,141,145l-.12-.06a2.93,2.93,0,0,0-2.27-.31.33.33,0,0,0-.23.2c-.11.27-.58,2.47-1,4.4-2.21-.4-2.32-.35-2.41-.32a.35.35,0,0,0-.18.16,3,3,0,0,0-.33,1.68.35.35,0,0,0,.2.28c.16.07,1.49.36,2.24.53-.37,1.88-.68,3.6-.84,4.62h0c0,.14-.09.52-.17,1-.13.76-.3,1.72-.37,2.19a.42.42,0,0,0,.17.29,3.9,3.9,0,0,0,1.1.37,2.76,2.76,0,0,0,1.3,0,.29.29,0,0,0,.21-.19c.32-.73,1.24-5.41,1.68-7.72l.3,0c.19.05,1.23.22,1.54.27H142c.4-.1.63-1.57.59-1.85A.35.35,0,0,0,142.43,150.29Z"/><path class="cls-1" d="M150.49,159.79a2.11,2.11,0,0,0-1-1.65.71.71,0,0,0-.77,0l-.69.52a10.87,10.87,0,0,1-1.07.74,1.16,1.16,0,0,1-1.53-.38,1.81,1.81,0,0,1-.3-1.71,5.91,5.91,0,0,0,4.45-1.51,2.61,2.61,0,0,0,.18-3.45,3.83,3.83,0,0,0-3.32-1.28,4.19,4.19,0,0,0-3.15,2.26h0a7.55,7.55,0,0,0-.68,5.9,3.9,3.9,0,0,0,2.47,2.32,3.6,3.6,0,0,0,.44.12,4.13,4.13,0,0,0,2.51-.24,14,14,0,0,0,2.34-1.38A.34.34,0,0,0,150.49,159.79Zm-2.86-6.53a.8.8,0,0,1,.54.46c.07.19.15.43-.45.91a3.16,3.16,0,0,1-2,.51c.37-1,1.05-1.84,1.82-1.89Z"/><text class="cls-17" transform="translate(158.07 180.61)">0</text><text class="cls-17" transform="translate(152.4 116.37)">mid</text><text id="goal" class="cls-17" transform="translate(150.4 52.75)">goal</text><line class="cls-18" x1="160.09" y1="182.93" x2="147.58" y2="182.93"/><line class="cls-18" x1="160.09" y1="119.08" x2="149.5" y2="119.08"/><line class="cls-18" x1="160.09" y1="55.23" x2="147.58" y2="55.23"/><rect class="cls-19" x="62.03" y="114.59" width="83.11" height="41.73"/></g></svg>