<svg xmlns="http://www.w3.org/2000/svg" xmlns:xlink="http://www.w3.org/1999/xlink" viewBox="0 0 216 216">
    <defs>
        <style>.cls-1,.cls-10,.cls-4,.cls-7{fill:none;}.cls-2{fill:#fff;}.cls-3{fill:#ff305b;}.cls-4{stroke:#ff9caf;}.cls-10,.cls-4,.cls-7{stroke-linecap:round;}.cls-10,.cls-4{stroke-linejoin:round;stroke-width:4px;}.cls-5{fill:#e62b52;}.cls-6{fill:#ff9caf;}.cls-7{stroke:#000;stroke-width:3px;}.cls-13,.cls-7{stroke-miterlimit:10;}.cls-8{font-size:9px;}.cls-17,.cls-8{font-family:MyDearWatson-Regular, My Dear Watson;}.cls-9{clip-path:url(#clip-path);}.cls-10{stroke:#cbcbcb;}.cls-11{fill:#e6e6e6;}.cls-12{fill:#f1f1f1;}.cls-13{font-size:22.13px;stroke:#fff;font-family:JandaManateeSolid, Janda Manatee Solid;}.cls-14{font-size:13.28px;letter-spacing:0em;}.cls-15{font-size:17.54px;}.cls-16{font-size:10.02px;}.cls-17{font-size:8.86px;}</style>
        <clipPath id="clip-path">
            <rect id="sticker-mask" class="cls-1" x="108.09" y="38.72" width="65.94" height="128.72" />
        </clipPath>
    </defs>
    <title>domain-relevant-1-chartjunk</title>
    <g id="cutlines">
        <path class="cls-2" d="M185.29,109.93a10.09,10.09,0,0,0-3.2-2.56V85.15c0-.74.07-1.4.07-2s0-1.18,0-1.77a43.45,43.45,0,0,0-14.51-31,45.24,45.24,0,0,0-29.7-11.45,41.38,41.38,0,0,0-29.76,12.78,41.64,41.64,0,0,0-29.9-12.78c-20,0-38,13.94-42.89,33.14a45.93,45.93,0,0,0-1.32,9.3c0,.64,0,1.21,0,1.81,0,1,.06,2,.17,3.21v22.17a9.51,9.51,0,0,0,.31,2.4l-.06.12s0,.1-.08.16a12.14,12.14,0,0,0,.7,11.37,10.07,10.07,0,0,0,7.63,4.59,7,7,0,0,0,.8,0,9.44,9.44,0,0,0,3.67-.75c12.63,21,31.53,34.79,43.47,42a34,34,0,0,0,14.91,4.76,9.59,9.59,0,0,0,1.85.18,9.36,9.36,0,0,0,1.18-.08,33.81,33.81,0,0,0,17-4.87c2.73-1.65,5.45-3.41,8.08-5.24,11.1-7.71,24.43-19.27,34.31-35a18.62,18.62,0,0,0,2.67-.17,10,10,0,0,0,1.33.21,7.14,7.14,0,0,0,.8,0,9.54,9.54,0,0,0,2.46-.33,11,11,0,0,0,1.64.29,7,7,0,0,0,.8,0,9.31,9.31,0,0,0,7.38-3.58,10.94,10.94,0,0,0,1.27-2.06,12.56,12.56,0,0,0,1.23-4.7,11.93,11.93,0,0,0-.78-5.52A10.12,10.12,0,0,0,185.29,109.93Z" />
    </g>
    <g id="sticker">
        <path class="cls-3" d="M108.08,163.76a24.42,24.42,0,0,1-12.56-3.49c-17.73-10.69-48-34.37-51.64-72.9a25.17,25.17,0,0,1-.37-4.26c0-.49,0-1,0-1.44a36.8,36.8,0,0,1,1-7.33,35,35,0,0,1,33.68-26,31.75,31.75,0,0,1,29.91,21,31.61,31.61,0,0,1,29.75-21c16.44,0,33.92,12.46,34.71,33.31,0,.48,0,1,0,1.44a24.18,24.18,0,0,1-.37,4.26c-3.12,33-25.67,55.2-44,68-2.46,1.71-5,3.36-7.57,4.91a24.41,24.41,0,0,1-12.59,3.5Z" />
        <path d="M137.92,49.86c16.1,0,32.47,12.46,33.21,31.86,0,.46,0,.92,0,1.39a22.46,22.46,0,0,1-.36,4.06c-3.08,33-26.14,54.94-43.41,67-2.67,1.85-5.2,3.47-7.49,4.85a22.84,22.84,0,0,1-23.6,0c-17.16-10.34-47.37-33.74-50.93-71.81A23.4,23.4,0,0,1,45,83.11c0-.47,0-.93,0-1.39a35.15,35.15,0,0,1,1-7c3.89-15.33,18.15-24.84,32.23-24.84A30.19,30.19,0,0,1,108.17,75.7a30.07,30.07,0,0,1,29.75-25.84m0-3a33.15,33.15,0,0,0-29.75,18.58A33.33,33.33,0,0,0,78.26,46.86,36.55,36.55,0,0,0,43.13,74,37.73,37.73,0,0,0,42,81.61c0,.51,0,1,0,1.5a25.7,25.7,0,0,0,.39,4.47C44,104.86,51.12,121,63.45,135.42a129.45,129.45,0,0,0,31.3,26.13,25.84,25.84,0,0,0,26.7,0c2.59-1.56,5.16-3.23,7.65-5,18.63-13,41.48-35.43,44.68-69a26.71,26.71,0,0,0,.38-4.47c0-.51,0-1,0-1.49a35.46,35.46,0,0,0-11.84-25.34,37.13,37.13,0,0,0-24.37-9.42Z" />
        <path class="cls-4" d="M149,121.26c-.45.64-.9,1.26-1.36,1.88" />
        <path class="cls-4" d="M156.33,108.49a75.51,75.51,0,0,1-4.4,8.32" />
        <path class="cls-4" d="M162.5,82.05c0,.33-.3,4.32-.3,4.32a68.79,68.79,0,0,1-3.7,16.72" />
        <path class="cls-5" d="M45,83.11a23.4,23.4,0,0,0,.36,4.06C48.93,125.24,79.14,148.64,96.3,159a22.76,22.76,0,0,0,22.61.56l.26-.14C58.53,135.6,49.78,98.14,46,74.7a35.15,35.15,0,0,0-1,7C45,82.18,45,82.64,45,83.11Z" />
        <ellipse class="cls-6" cx="148.21" cy="67.37" rx="6.68" ry="14.35" transform="translate(9.34 152.35) rotate(-55.91)" />
        <line class="cls-7" x1="166.16" y1="79.31" x2="171.16" y2="79.31" />
        <text class="cls-8" transform="translate(40.89 118.97)">0</text>
        <line class="cls-7" x1="43.68" y1="85.26" x2="43.68" y2="108.49" />
        <line class="cls-7" x1="108.38" y1="155.92" x2="108.38" y2="163.84" />
        <line class="cls-7" x1="172.6" y1="85.26" x2="172.6" y2="108.49" />
        <g class="cls-9">
            <path class="cls-2" d="M108.08,163.76a24.42,24.42,0,0,1-12.56-3.49c-17.73-10.69-48-34.37-51.64-72.9a25.17,25.17,0,0,1-.37-4.26c0-.49,0-1,0-1.44a36.8,36.8,0,0,1,1-7.33,35,35,0,0,1,33.68-26,31.75,31.75,0,0,1,29.91,21,31.61,31.61,0,0,1,29.75-21c16.44,0,33.92,12.46,34.71,33.31,0,.48,0,1,0,1.44a24.18,24.18,0,0,1-.37,4.26c-3.12,33-25.67,55.2-44,68-2.46,1.71-5,3.36-7.57,4.91a24.41,24.41,0,0,1-12.59,3.5Z" />
            <path d="M137.92,49.86c16.1,0,32.47,12.46,33.21,31.86,0,.46,0,.92,0,1.39a22.46,22.46,0,0,1-.36,4.06c-3.08,33-26.14,54.94-43.41,67-2.67,1.85-5.2,3.47-7.49,4.85a22.84,22.84,0,0,1-23.6,0c-17.16-10.34-47.37-33.74-50.93-71.81A23.4,23.4,0,0,1,45,83.11c0-.47,0-.93,0-1.39a35.15,35.15,0,0,1,1-7c3.89-15.33,18.15-24.84,32.23-24.84A30.19,30.19,0,0,1,108.17,75.7a30.07,30.07,0,0,1,29.75-25.84m0-3a33.15,33.15,0,0,0-29.75,18.58A33.33,33.33,0,0,0,78.26,46.86,36.55,36.55,0,0,0,43.13,74,37.73,37.73,0,0,0,42,81.61c0,.51,0,1,0,1.5a25.7,25.7,0,0,0,.39,4.47C44,104.86,51.12,121,63.45,135.42a129.45,129.45,0,0,0,31.3,26.13,25.84,25.84,0,0,0,26.7,0c2.59-1.56,5.16-3.23,7.65-5,18.63-13,41.48-35.43,44.68-69a26.71,26.71,0,0,0,.38-4.47c0-.51,0-1,0-1.49a35.46,35.46,0,0,0-11.84-25.34,37.13,37.13,0,0,0-24.37-9.42Z" />
            <path class="cls-10" d="M149,121.26c-.45.64-.9,1.26-1.36,1.88" />
            <path class="cls-10" d="M156.33,108.49a75.51,75.51,0,0,1-4.4,8.32" />
            <path class="cls-10" d="M162.5,82.05c0,.33-.3,4.32-.3,4.32a68.79,68.79,0,0,1-3.7,16.72" />
            <path class="cls-11" d="M45,83.11a23.4,23.4,0,0,0,.36,4.06C48.93,125.24,79.14,148.64,96.3,159a22.76,22.76,0,0,0,22.61.56l.26-.14C58.53,135.6,49.78,98.14,46,74.7a35.15,35.15,0,0,0-1,7C45,82.18,45,82.64,45,83.11Z" />
            <ellipse class="cls-12" cx="148.21" cy="67.37" rx="6.68" ry="14.35" transform="translate(9.34 152.35) rotate(-55.91)" />
            <line class="cls-7" x1="166.16" y1="79.31" x2="171.16" y2="79.31" />
            <text class="cls-8" transform="translate(40.89 118.97)">0</text>
            <line class="cls-7" x1="43.68" y1="85.26" x2="43.68" y2="108.49" />
            <line class="cls-7" x1="108.09" y1="155.92" x2="108.09" y2="163.84" />
            <line class="cls-7" x1="172.6" y1="85.26" x2="172.6" y2="108.49" />
        </g>
        <text class="cls-13" transform="translate(63.43 106.27) rotate(-8.69)">
            108
            <tspan class="cls-14" x="36.65" y="0"></tspan>
            <tspan x="41.84" y="0">beats</tspan>
            <tspan class="cls-15">
                <tspan x="6.19" y="18.38">per</tspan>
                <tspan class="cls-16" x="33.15" y="18.38"></tspan>
                <tspan x="37.06" y="18.38">minute</tspan>
            </tspan>
        </text>
        <text class="cls-17" transform="translate(102.56 173.8)">100</text>
        <text class="cls-17" transform="translate(167.16 118.97)">200</text>
    </g>
</svg>