<svg xmlns="http://www.w3.org/2000/svg" xmlns:xlink="http://www.w3.org/1999/xlink" viewBox="0 0 216 216"><defs><style>.cls-1,.cls-10,.cls-6,.cls-9{fill:none;}.cls-2{fill:#fff;}.cls-11,.cls-3{fill:#0a0a0a;}.cls-4{clip-path:url(#clip-path);}.cls-5{fill:#ff305b;}.cls-6{stroke:#ff9caf;stroke-linejoin:round;stroke-width:4px;}.cls-10,.cls-6{stroke-linecap:round;}.cls-7{fill:#e62b52;}.cls-8{fill:#ff9caf;}.cls-9{stroke:#ee344c;}.cls-10,.cls-9{stroke-miterlimit:10;}.cls-10{stroke:#0a0a0a;stroke-width:3px;}.cls-11{font-size:9px;font-family:MyDearWatson-Regular, My Dear Watson;}</style><clipPath id="clip-path"><rect id="fill-mask" class="cls-1" x="-93.04" y="49.67" width="142.98" height="125.05"/></clipPath></defs><g id="cutlines"><path class="cls-2" d="M195.65,116.05a10.13,10.13,0,0,0-3.19-2.55V91.28c0-.74.07-1.4.07-2s0-1.19,0-1.77a43.41,43.41,0,0,0-14.51-31A45.22,45.22,0,0,0,148.28,45a41.34,41.34,0,0,0-29.76,12.78A41.64,41.64,0,0,0,88.62,45c-20,0-38,13.94-42.89,33.14a45.83,45.83,0,0,0-1.32,9.3c0,.64,0,1.21,0,1.81,0,1,.06,2.05.17,3.2v22.18a9.52,9.52,0,0,0,.32,2.4.75.75,0,0,0-.07.12,1,1,0,0,0-.07.15,12.1,12.1,0,0,0,.7,11.38A10,10,0,0,0,53,133.26a7.14,7.14,0,0,0,.8,0,9.44,9.44,0,0,0,3.67-.75c12.63,21,31.54,34.79,43.47,42a33.81,33.81,0,0,0,14.92,4.75,9.41,9.41,0,0,0,1.84.18,9.23,9.23,0,0,0,1.18-.07,33.91,33.91,0,0,0,17-4.87c2.74-1.65,5.46-3.41,8.09-5.24,11.09-7.71,24.42-19.27,34.3-35a18.91,18.91,0,0,0,2.68-.16,11.35,11.35,0,0,0,1.32.21c.27,0,.54,0,.8,0a9.13,9.13,0,0,0,2.46-.34,10.07,10.07,0,0,0,1.64.3c.27,0,.53,0,.8,0a9.29,9.29,0,0,0,7.38-3.59,11.1,11.1,0,0,0,1.28-2.05,12.75,12.75,0,0,0,1.22-4.7,11.86,11.86,0,0,0-.78-5.53A10.18,10.18,0,0,0,195.65,116.05Z"/></g><g id="sticker"><path class="cls-2" d="M118.44,169.89a24.33,24.33,0,0,1-12.56-3.5C88.15,155.71,57.88,132,54.24,93.5a25.26,25.26,0,0,1-.37-4.26c0-.49,0-1,0-1.44a36.69,36.69,0,0,1,1-7.33,35,35,0,0,1,33.68-26,31.74,31.74,0,0,1,29.91,21,31.61,31.61,0,0,1,29.75-21c16.44,0,33.92,12.46,34.71,33.3,0,.48,0,1,0,1.45a24.27,24.27,0,0,1-.37,4.26c-3.12,33-25.67,55.2-44.05,68-2.46,1.71-5,3.36-7.57,4.9a24.33,24.33,0,0,1-12.59,3.51Z"/><path class="cls-3" d="M148.28,56c16.1,0,32.47,12.45,33.21,31.86,0,.46,0,.91,0,1.39a22.46,22.46,0,0,1-.36,4.06c-3.08,33-26.14,54.94-43.41,67-2.67,1.85-5.2,3.47-7.49,4.85a22.84,22.84,0,0,1-23.6,0C89.5,154.77,59.29,131.37,55.73,93.3a23.4,23.4,0,0,1-.36-4.06c0-.48,0-.93,0-1.39a35.15,35.15,0,0,1,1-7C60.28,65.5,74.54,56,88.62,56a30.19,30.19,0,0,1,29.91,25.83A30.07,30.07,0,0,1,148.28,56m0-3a33.15,33.15,0,0,0-29.75,18.58A33.33,33.33,0,0,0,88.62,53a36.55,36.55,0,0,0-35.13,27.1,37.93,37.93,0,0,0-1.09,7.65c0,.5,0,1,0,1.5a25.5,25.5,0,0,0,.39,4.46c1.64,17.28,8.72,33.38,21.05,47.85a129.92,129.92,0,0,0,31.3,26.13,25.84,25.84,0,0,0,26.7,0c2.59-1.56,5.16-3.23,7.65-5,18.63-13,41.48-35.44,44.68-69a26.5,26.5,0,0,0,.38-4.46c0-.51,0-1,0-1.49a35.44,35.44,0,0,0-11.84-25.34A37.07,37.07,0,0,0,148.28,53Z"/><g class="cls-4"><path class="cls-5" d="M55.37,89.24a23.4,23.4,0,0,0,.36,4.06c3.56,38.07,33.77,61.47,50.93,71.81a22.84,22.84,0,0,0,23.6,0c2.3-1.38,4.82-3,7.49-4.85,17.27-12,40.33-34,43.42-66.95a23.4,23.4,0,0,0,.36-4.06c0-.47,0-.93,0-1.39C180.76,68.44,164.38,56,148.28,56a30.07,30.07,0,0,0-29.75,25.83A30.19,30.19,0,0,0,88.62,56C74.55,56,60.28,65.5,56.4,80.83a35.15,35.15,0,0,0-1,7C55.39,88.31,55.37,88.77,55.37,89.24Z"/><path class="cls-6" d="M159.38,127.39c-.45.63-.9,1.26-1.35,1.87"/><path class="cls-6" d="M166.69,114.62a75.51,75.51,0,0,1-4.4,8.32"/><path class="cls-6" d="M172.86,88.18c0,.33-.3,4.31-.3,4.31a68.87,68.87,0,0,1-3.7,16.73"/><path class="cls-7" d="M55.37,89.24a23.4,23.4,0,0,0,.36,4.06c3.56,38.07,33.77,61.47,50.93,71.81a22.76,22.76,0,0,0,22.61.57l.26-.14C68.9,141.73,60.14,104.27,56.4,80.83a35.15,35.15,0,0,0-1,7C55.39,88.31,55.37,88.77,55.37,89.24Z"/><ellipse class="cls-8" cx="158.58" cy="73.5" rx="6.68" ry="14.35" transform="translate(8.82 163.62) rotate(-55.91)"/></g><path class="cls-1" d="M81.35,121.89a2.44,2.44,0,0,0,.93-.68.34.34,0,0,0,0-.29c-.27-1-5.83-12.28-6.27-12.74a.35.35,0,0,0-.31-.1l-.1,0a2.62,2.62,0,0,0-1.84,1.05.33.33,0,0,0,0,.29c.14.54,3.42,7.35,4.82,10,.18.36,1.08,2.13,1.39,2.66a.35.35,0,0,0,.29.19A3.1,3.1,0,0,0,81.35,121.89Z"/><path class="cls-1" d="M90.84,116a7.84,7.84,0,0,0,.17-1.76,11.63,11.63,0,0,0-1-4.46,10.52,10.52,0,0,0-2.51-4,4.74,4.74,0,0,0-1.21-.78,5,5,0,0,0-4.4.12,4.4,4.4,0,0,0-2.35,3.1,11.56,11.56,0,0,0-.14,1.81,10.34,10.34,0,0,0,4.56,8.3,5.22,5.22,0,0,0,4.63.28l.21-.08A3.49,3.49,0,0,0,90.84,116Zm-6.45-9a2.22,2.22,0,0,1,1.54.85c.77.81,2.64,3.95,2.31,6.19h0a2.91,2.91,0,0,1-.95,2,1.45,1.45,0,0,1-1.71,0l-.13-.09a7.46,7.46,0,0,1-1.9-2.21,10.72,10.72,0,0,1-1.18-3.53,3.71,3.71,0,0,1,.81-2.55,1.86,1.86,0,0,1,.6-.46A1.78,1.78,0,0,1,84.39,107.05Z"/><path class="cls-1" d="M91.43,108.17a3.59,3.59,0,0,0,1.6.37l-.07.88v.31a4.9,4.9,0,0,0,.27,2.15,3.57,3.57,0,0,0,2,2,3.25,3.25,0,0,0,2.47,0h0l.09,0a4.16,4.16,0,0,0,2.31-3.2,3.76,3.76,0,0,0-.2-1.8,5.78,5.78,0,0,0-3.34-2.71c.16-.74.36-1.54.55-2.31s.39-1.49.53-2.14a.43.43,0,0,0,0-.11.35.35,0,0,0-.08-.26l-.1-.11a3,3,0,0,0-2.11-.53.33.33,0,0,0-.24.1l-.08.08a1.79,1.79,0,0,0-.24.5,3.13,3.13,0,0,0-1.88-1,4,4,0,0,0-3.22,1.47c-1.48,1.79-.24,4.18.17,4.88A4.51,4.51,0,0,0,91.43,108.17Zm2.8-4.27a15.45,15.45,0,0,1-.42,2,9,9,0,0,1-1,0,1.81,1.81,0,0,1-.7-.12l-.1-.11a2.15,2.15,0,0,1-.58-1.85,1.38,1.38,0,0,1,.74-1.06,2,2,0,0,1,.48-.15C93.31,102.67,93.94,103.4,94.23,103.9Zm1.31,6.54a5.27,5.27,0,0,1,0-2,2.76,2.76,0,0,1,1.82,1.36,2.27,2.27,0,0,1-.19,1.57,1,1,0,0,1-.44.39l-.18,0C96.05,111.79,95.69,111.07,95.54,110.44Z"/><path class="cls-1" d="M113.79,100.13a3.67,3.67,0,0,0-3.18-2.8,4.24,4.24,0,0,0-4.12,2.71c-3-5-3.34-5.54-3.46-5.65a.45.45,0,0,0-.42-.1,2,2,0,0,0-1.46.88.3.3,0,0,0,0,.33c.13.28.87,1.61,1.8,3.3,1.06,1.9,2.37,4.27,3,5.48l.17.33a35,35,0,0,0,2,3.58.47.47,0,0,0,.61.19l.46-.22.47-.22a15.36,15.36,0,0,0,2.49-1.44C114,105.13,114.59,102.75,113.79,100.13Zm-2.9,4.12a12.37,12.37,0,0,1-1.44,1c-.37-.6-1.32-2.46-1.56-3a5.49,5.49,0,0,1,.48-1.13l.07-.13a3,3,0,0,1,1-1.08,1.58,1.58,0,0,1,1-.29,1.42,1.42,0,0,1,1,.54,3.26,3.26,0,0,1-.52,4l.22.25Z"/><path class="cls-1" d="M121.72,97.43a.68.68,0,0,0-.59.49c-.09.29-.16.56-.24.83a8.58,8.58,0,0,1-.38,1.24,1.17,1.17,0,0,1-1.43.65,1.82,1.82,0,0,1-1.29-1.17,5.9,5.9,0,0,0,2.57-3.93,2.61,2.61,0,0,0-2-2.83,3.86,3.86,0,0,0-3.4,1,4.18,4.18,0,0,0-1.09,3.72h0a7.56,7.56,0,0,0,3.11,5.07,3.83,3.83,0,0,0,3.37.3l.42-.17a4.27,4.27,0,0,0,1.83-1.74,14.23,14.23,0,0,0,1-2.53.35.35,0,0,0-.07-.28A2.11,2.11,0,0,0,121.72,97.43Zm-4.47-2.7a.85.85,0,0,1,.71,0c.17.11.38.25.21,1a3.13,3.13,0,0,1-1.24,1.61,2.62,2.62,0,0,1,.27-2.6Z"/><path class="cls-1" d="M128,99a1.24,1.24,0,0,0,.2-.1,4,4,0,0,0,1.76-2.7c.06-.23.13-.58.2-.94l.22.43c.25.47.49.92.71,1.25a.59.59,0,0,0,.47.18h0a4.75,4.75,0,0,0,1.27-.49.7.7,0,0,0,.29-.81c-.34-.94-1.65-3.9-2.61-6.07-.46-1-.86-1.94-.91-2.08a.35.35,0,0,0-.17-.19c-.57-.27-1.83.51-2,.79a.3.3,0,0,0,0,.24s.05.22.09.38h0a5.57,5.57,0,0,0-.83-.17,3.29,3.29,0,0,0-3.51,2,6.45,6.45,0,0,0-.36,1.61,7.29,7.29,0,0,0,.41,2.91,8.88,8.88,0,0,0,1.16,2.3,3.45,3.45,0,0,0,1.89,1.57A2.36,2.36,0,0,0,128,99Zm-2.82-6.31a1.73,1.73,0,0,1,.83-1.58l.12-.06a1.85,1.85,0,0,1,1.4-.11c.42.94,1,4.28.27,5.48a.68.68,0,0,1-.63.36C126,96.71,125.14,94.25,125.15,92.66Z"/><path class="cls-1" d="M135.63,91.64h0c.07.12.25.46.46.86.36.68.82,1.55,1.06,2a.39.39,0,0,0,.31.12,4.1,4.1,0,0,0,1.09-.38,2.92,2.92,0,0,0,1-.77.36.36,0,0,0,.06-.28c-.21-.78-2.37-5-3.44-7.12l.26-.15c.18-.08,1.11-.58,1.37-.74a.22.22,0,0,0,.1-.09c.25-.32-.47-1.62-.67-1.82a.35.35,0,0,0-.29-.09,11.16,11.16,0,0,0-1.85.81c-2-3.91-2.18-4-2.25-4.08a.32.32,0,0,0-.28-.06l-.14,0a3,3,0,0,0-2,1.15.36.36,0,0,0-.05.3c.08.28,1.06,2.3,1.94,4.07-2,1.05-2,1.15-2.09,1.23a.34.34,0,0,0,0,.24,2.89,2.89,0,0,0,.77,1.53.36.36,0,0,0,.33.09c.17,0,1.39-.63,2.09-1C134.3,89.19,135.13,90.73,135.63,91.64Z"/><path class="cls-1" d="M146.74,90.38A3.5,3.5,0,0,0,148,89.31a4.63,4.63,0,0,0,.66-3.79,2.68,2.68,0,0,0-1.36-1.73,3.57,3.57,0,0,0-2.71-.15,6.09,6.09,0,0,0-1.43.77l-.13.08a1.45,1.45,0,0,1-.9.29.56.56,0,0,1-.32-.31,1.72,1.72,0,0,1-.06-1.29,1.81,1.81,0,0,1,1.3-.74l.32,0,.23,0,.67-.09a.67.67,0,0,0,.45-.42,2,2,0,0,0-.16-1.29.6.6,0,0,0-.35-.29,4.09,4.09,0,0,0-3,.48,3.21,3.21,0,0,0-2,4.33,2.91,2.91,0,0,0,2.79,2.07,4.26,4.26,0,0,0,2.1-.8l.31-.2a3.35,3.35,0,0,1,.56-.29,1.2,1.2,0,0,1,.41-.11c.36,0,.57.13.66.29a2.05,2.05,0,0,1,0,2.1.73.73,0,0,1-.55.34,2.56,2.56,0,0,1-2.09-.69.58.58,0,0,0-.73,0s-.86.62-1,1a.51.51,0,0,0,0,.32,1.71,1.71,0,0,0,.41.5,4.93,4.93,0,0,0,3.34,1.08A3.66,3.66,0,0,0,146.74,90.38Z"/><path class="cls-1" d="M90.58,127.18a2.29,2.29,0,0,0-1.82.35,3.84,3.84,0,0,0-1.54,2.67c0,.2-.08.5-.12.83l-.88-1.37c-.07-.15-.25-.37-.69-.24l-.94.47a.62.62,0,0,0-.39.34.52.52,0,0,0,0,.47s3.39,6.12,4.29,7.5c1.21,2,1.87,3.2,2.22,3.82a5.43,5.43,0,0,0,.4.68.33.33,0,0,0,.28.12,1.66,1.66,0,0,0,.7-.18,2.8,2.8,0,0,0,.82-.65.34.34,0,0,0,.06-.36,44.17,44.17,0,0,0-2.44-4.56h.23A3.08,3.08,0,0,0,94,135a6.12,6.12,0,0,0,.27-1.57,7.2,7.2,0,0,0-.57-2.73,9.72,9.72,0,0,0-1.23-2.12A3.36,3.36,0,0,0,90.58,127.18Zm1.34,6h0a1.35,1.35,0,0,1-.54,1.27,2.09,2.09,0,0,1-1.71.16c-.39-.78-.87-3.18-.28-4.25a.79.79,0,0,1,.72-.45C91.07,130,91.86,131.67,91.92,133.23Z"/><path class="cls-1" d="M101.86,128.58a.68.68,0,0,0-.59.49c-.09.29-.17.57-.24.83a8.21,8.21,0,0,1-.38,1.24,1.15,1.15,0,0,1-1.43.65,1.79,1.79,0,0,1-1.29-1.16,5.94,5.94,0,0,0,2.57-3.94,2.62,2.62,0,0,0-2-2.83,3.86,3.86,0,0,0-3.4,1A4.2,4.2,0,0,0,94,128.63h0a7.54,7.54,0,0,0,3.11,5.06,3.83,3.83,0,0,0,3.37.3,3.69,3.69,0,0,0,.42-.17,4.25,4.25,0,0,0,1.83-1.73,14.85,14.85,0,0,0,1-2.53.38.38,0,0,0-.07-.29A2.11,2.11,0,0,0,101.86,128.58Zm-4.47-2.69a.81.81,0,0,1,.71,0c.17.11.38.25.21,1a3.17,3.17,0,0,1-1.24,1.61,2.63,2.63,0,0,1,.27-2.61Z"/><path class="cls-1" d="M107.85,119a3.48,3.48,0,0,0-2.71,1.29,6.33,6.33,0,0,0-1.1,2.09,1.72,1.72,0,0,1-.07.21,10.22,10.22,0,0,0-1.12-1.58.32.32,0,0,0-.31-.07,4.36,4.36,0,0,0-1.79,1.08.35.35,0,0,0,0,.34c.26.54.68,1.31,1,1.77a4,4,0,0,0,.22.34c.13.2.26.4.39.63l1.47,2.39,1.48,2.39.12.2a4.79,4.79,0,0,0,.66.92l0,0a.45.45,0,0,0,.46.05h0l.17-.07a5.83,5.83,0,0,0,1.44-1,.45.45,0,0,0,.07-.48c-.29-.65-1.92-3.64-2.66-4.82.12-1,.77-3,1.84-3.39.68-.22,1.51.86,1.73,1.28a.18.18,0,0,0,.05.07.53.53,0,0,0,.48.16,2.81,2.81,0,0,0,1.3-.7.49.49,0,0,0,.07-.59c-.28-.48-.62-1-1-1.54A2.53,2.53,0,0,0,107.85,119Z"/><path class="cls-1" d="M124.07,112a2.37,2.37,0,0,0-2.62.21,3.35,3.35,0,0,0-1,1.79c0,.18-.09.36-.12.52a2.48,2.48,0,0,0-2.3-.44,2.09,2.09,0,0,0-1.25,1.11,2.27,2.27,0,0,0-.47-.46.31.31,0,0,0-.16-.06,1.91,1.91,0,0,0-1.3.45.91.91,0,0,0-.44.76.53.53,0,0,0,0,.18c.86,1.76,2,3.82,3,5.63l1,1.73a8,8,0,0,0,.56,1,.63.63,0,0,0,.7.23,5.75,5.75,0,0,0,1.38-.74.68.68,0,0,0,.17-.76c-.24-.56-1.4-2.83-2-4.08l-.27-.55,0,0v-.09c-.15-1.23,0-1.38.1-1.42.41-.16.9.66,1.24,1.24l0,.06c.22.37.7,1.25,1.16,2.16l.11.2c.42.76.83,1.52,1,1.88a.71.71,0,0,0,.73.38,4.08,4.08,0,0,0,.77-.28,3.14,3.14,0,0,0,.66-.43.66.66,0,0,0,.17-.72c-.09-.29-.22-.62-.36-1a1.42,1.42,0,0,1-.08-.18l-.07-.18-.38-.93c-.48-1.11-1.48-3.42-1.34-4.08a.52.52,0,0,1,.16-.33.35.35,0,0,1,.23,0c.26.06.54.39.82,1l.31.65c.28.53.54,1.07.81,1.6s.5,1,.77,1.55a6,6,0,0,1,.31.59,2.81,2.81,0,0,0,.47.78l.07.05.07,0,.06,0c.08,0,.31.11,1.11-.28a2.14,2.14,0,0,0,.86-.58l.06-.08a.34.34,0,0,0,0-.35l0-.08c-.7-1.45-2.11-4.25-2.89-5.65A4.18,4.18,0,0,0,124.07,112Z"/><path class="cls-1" d="M128.23,109.13a2.68,2.68,0,0,0-1.86,1.09.32.32,0,0,0,0,.27c.15.48,3.81,7.7,4.36,8.48a.33.33,0,0,0,.24.14,1.86,1.86,0,0,0,.94-.2,2.34,2.34,0,0,0,.94-.81.34.34,0,0,0,0-.28,87.34,87.34,0,0,0-4.4-8.59A.33.33,0,0,0,128.23,109.13Z"/><path class="cls-1" d="M127.73,107.36a1,1,0,0,0-.49-.55,1.91,1.91,0,0,0-2.21.4,1,1,0,0,0-.22.5.86.86,0,0,0,.47.75h0a2.1,2.1,0,0,0,1.81-.06A1,1,0,0,0,127.73,107.36Z"/><path class="cls-1" d="M141.37,111.23c-.77-1.66-1.76-3.64-2.52-4.23a3.52,3.52,0,0,0-3.56-.82,3.82,3.82,0,0,0-2.18,1.93,2.53,2.53,0,0,0-.76-.82.42.42,0,0,0-.15,0c-.57,0-1.87.57-2,1.11a.34.34,0,0,0,0,.22c.8,1.76,1.88,3.78,2.84,5.57.29.53.57,1.06.84,1.57l.25.45a4.21,4.21,0,0,0,.5.8.55.55,0,0,0,.55.13,11.15,11.15,0,0,0,1.73-.86.52.52,0,0,0,.25-.61c-.2-.54-1.22-2.64-1.9-4l-.33-.68v0c0-.45,0-1.67.68-1.93s1.22.32,1.74,1.15l.06.11c.24.38.7,1.27,1.14,2.12s.9,1.73,1.15,2.14a.56.56,0,0,0,.62.29h0a7.82,7.82,0,0,0,1.12-.43,4.68,4.68,0,0,0,.69-.4.59.59,0,0,0,.19-.57,14.53,14.53,0,0,0-.83-1.83Z"/><path class="cls-1" d="M148.06,101.34a4.71,4.71,0,0,0-.65-1.08.53.53,0,0,0-.54-.17,7.1,7.1,0,0,0-1.45.65.45.45,0,0,0-.24.57c0,.1.09.27.15.48,1.77,5.64,1.25,6.76.79,6.95-.8.3-1.39-.44-1.91-1.28-.21-.34-.65-1.14-1.1-2-.59-1.08-1.19-2.19-1.49-2.64a.58.58,0,0,0-.57-.2,6,6,0,0,0-1.54.77.6.6,0,0,0-.24.61,10.35,10.35,0,0,0,.71,1.57c.14.28.26.52.32.66s3.23,6.58,6.41,5.3a3.9,3.9,0,0,0,2.2-2.63,10.12,10.12,0,0,0,.58.91l0,0a.5.5,0,0,0,.38.15H150a5.71,5.71,0,0,0,.95-.37,2.47,2.47,0,0,0,.92-.65.35.35,0,0,0,0-.33c-.89-2-2-4-3.07-5.94Z"/><path class="cls-1" d="M155.25,95.79a10.79,10.79,0,0,0-1.85.81c-2-3.91-2.18-4-2.26-4.08a.31.31,0,0,0-.28-.06l-.13,0a3,3,0,0,0-2,1.15.4.4,0,0,0-.06.3c.08.28,1.07,2.3,1.95,4.07-2,1-2,1.15-2.09,1.23a.34.34,0,0,0,0,.24,2.81,2.81,0,0,0,.77,1.53.36.36,0,0,0,.33.09c.17,0,1.39-.63,2.09-1,.86,1.72,1.69,3.26,2.19,4.17h0c.07.12.24.46.46.86.36.68.82,1.55,1.06,2a.39.39,0,0,0,.3.12,4,4,0,0,0,1.1-.38,2.92,2.92,0,0,0,1.05-.77.32.32,0,0,0,0-.28c-.2-.78-2.36-5-3.43-7.12l.26-.15,1.37-.74a.28.28,0,0,0,.1-.09c.25-.32-.47-1.62-.67-1.82A.35.35,0,0,0,155.25,95.79Z"/><path class="cls-1" d="M167.45,98.31a2.09,2.09,0,0,0-1.81-.69.69.69,0,0,0-.59.49c-.09.29-.16.57-.23.83a10,10,0,0,1-.39,1.24,1.14,1.14,0,0,1-1.43.65,1.8,1.8,0,0,1-1.29-1.17,5.86,5.86,0,0,0,2.57-3.93,2.61,2.61,0,0,0-2-2.83,3.88,3.88,0,0,0-3.41,1,4.21,4.21,0,0,0-1.09,3.72h0a7.58,7.58,0,0,0,3.11,5.06,3.84,3.84,0,0,0,3.37.3l.42-.17a4.16,4.16,0,0,0,1.83-1.74,13.48,13.48,0,0,0,1-2.53A.32.32,0,0,0,167.45,98.31Zm-6.28-3.39a.87.87,0,0,1,.72,0c.17.11.38.25.2,1a3,3,0,0,1-1.24,1.61,2.64,2.64,0,0,1,.27-2.6Z"/><rect class="cls-9" x="70.41" y="85.19" width="95.29" height="45.99"/><line class="cls-10" x1="176.53" y1="85.44" x2="181.53" y2="85.44"/><text class="cls-11" transform="translate(51.25 125.1)">0</text><text class="cls-11" transform="translate(114.4 158.76)">mid</text><text class="cls-11" transform="translate(176.53 126.2)">goal</text><line class="cls-10" x1="54.04" y1="91.39" x2="54.04" y2="114.62"/><line class="cls-10" x1="117.74" y1="162.05" x2="117.74" y2="169.96"/><line class="cls-10" x1="182.96" y1="91.39" x2="182.96" y2="114.62"/></g></svg>